%TF.GenerationSoftware,KiCad,Pcbnew,9.0.5*%
%TF.CreationDate,2025-12-08T11:46:15-06:00*%
%TF.ProjectId,board,626f6172-642e-46b6-9963-61645f706362,rev?*%
%TF.SameCoordinates,Original*%
%TF.FileFunction,Paste,Bot*%
%TF.FilePolarity,Positive*%
%FSLAX46Y46*%
G04 Gerber Fmt 4.6, Leading zero omitted, Abs format (unit mm)*
G04 Created by KiCad (PCBNEW 9.0.5) date 2025-12-08 11:46:15*
%MOMM*%
%LPD*%
G01*
G04 APERTURE LIST*
G04 Aperture macros list*
%AMRotRect*
0 Rectangle, with rotation*
0 The origin of the aperture is its center*
0 $1 length*
0 $2 width*
0 $3 Rotation angle, in degrees counterclockwise*
0 Add horizontal line*
21,1,$1,$2,0,0,$3*%
G04 Aperture macros list end*
%ADD10R,1.000000X1.100000*%
%ADD11R,1.500000X0.900000*%
%ADD12RotRect,3.810000X1.930400X135.000000*%
%ADD13RotRect,1.300000X1.600000X45.000000*%
%ADD14R,1.600000X1.300000*%
%ADD15RotRect,3.810000X1.930400X45.000000*%
%ADD16R,1.300000X1.600000*%
%ADD17R,1.930400X3.810000*%
%ADD18R,3.810000X1.930400*%
%ADD19RotRect,3.810000X1.930400X315.000000*%
%ADD20RotRect,1.300000X1.600000X225.000000*%
%ADD21RotRect,1.300000X1.600000X135.000000*%
%ADD22R,0.660400X2.032000*%
%ADD23R,1.200000X1.200000*%
%ADD24RotRect,1.300000X1.600000X315.000000*%
%ADD25RotRect,3.810000X1.930400X225.000000*%
G04 APERTURE END LIST*
D10*
%TO.C,C2*%
X144100000Y-125450000D03*
X144100000Y-123750000D03*
%TD*%
D11*
%TO.C,LED1*%
X146175000Y-125600000D03*
X146175000Y-122300000D03*
X151075000Y-122300000D03*
X151075000Y-125600000D03*
%TD*%
D12*
%TO.C,P3*%
X165098028Y-125231972D03*
X168564407Y-121765593D03*
%TD*%
D13*
%TO.C,R5*%
X130516498Y-123333502D03*
X131860000Y-121990000D03*
%TD*%
D14*
%TO.C,R0*%
X148450000Y-77850002D03*
X148450000Y-79750000D03*
%TD*%
D15*
%TO.C,P1*%
X128443621Y-121903621D03*
X131910000Y-125370000D03*
%TD*%
D11*
%TO.C,LED0*%
X146075000Y-88125000D03*
X146075000Y-84825000D03*
X150975000Y-84825000D03*
X150975000Y-88125000D03*
%TD*%
D16*
%TO.C,R2*%
X173959998Y-104920000D03*
X172060000Y-104920000D03*
%TD*%
D17*
%TO.C,P6*%
X150844800Y-78800000D03*
X145942600Y-78800000D03*
%TD*%
D16*
%TO.C,R6*%
X122810001Y-105020000D03*
X124709999Y-105020000D03*
%TD*%
D17*
%TO.C,P0*%
X145887800Y-131040000D03*
X150790000Y-131040000D03*
%TD*%
D18*
%TO.C,P2*%
X122140000Y-102517800D03*
X122140000Y-107420000D03*
%TD*%
D19*
%TO.C,P4*%
X131671972Y-84608028D03*
X128205593Y-88074407D03*
%TD*%
D18*
%TO.C,P5*%
X174560000Y-107530800D03*
X174560000Y-102628600D03*
%TD*%
D10*
%TO.C,C1*%
X143680000Y-86660000D03*
X143680000Y-84960000D03*
%TD*%
D20*
%TO.C,R1*%
X166223502Y-86696498D03*
X164880000Y-88040000D03*
%TD*%
D21*
%TO.C,R3*%
X166473502Y-123023502D03*
X165130000Y-121680000D03*
%TD*%
D22*
%TO.C,MUX0*%
X144030000Y-100610000D03*
X145300000Y-100610000D03*
X146570000Y-100610000D03*
X147840000Y-100610000D03*
X149110000Y-100610000D03*
X150380000Y-100610000D03*
X151650000Y-100610000D03*
X152920000Y-100610000D03*
X152920000Y-106756800D03*
X151650000Y-106756800D03*
X150380000Y-106756800D03*
X149110000Y-106756800D03*
X147840000Y-106756800D03*
X146570000Y-106756800D03*
X145300000Y-106756800D03*
X144030000Y-106756800D03*
%TD*%
D14*
%TO.C,R4*%
X148490000Y-130659998D03*
X148490000Y-128760000D03*
%TD*%
D23*
%TO.C,STDBY0*%
X155600000Y-78070000D03*
X155600000Y-80170000D03*
%TD*%
%TO.C,CHRG0*%
X153650000Y-78100000D03*
X153650000Y-80200000D03*
%TD*%
D24*
%TO.C,R7*%
X130286498Y-86856498D03*
X131630000Y-88200000D03*
%TD*%
D25*
%TO.C,P7*%
X168431972Y-87981972D03*
X164965593Y-84515593D03*
%TD*%
M02*
