%TF.GenerationSoftware,KiCad,Pcbnew,9.0.5*%
%TF.CreationDate,2025-12-08T11:46:15-06:00*%
%TF.ProjectId,board,626f6172-642e-46b6-9963-61645f706362,rev?*%
%TF.SameCoordinates,Original*%
%TF.FileFunction,Paste,Top*%
%TF.FilePolarity,Positive*%
%FSLAX46Y46*%
G04 Gerber Fmt 4.6, Leading zero omitted, Abs format (unit mm)*
G04 Created by KiCad (PCBNEW 9.0.5) date 2025-12-08 11:46:15*
%MOMM*%
%LPD*%
G01*
G04 APERTURE LIST*
G04 Aperture macros list*
%AMRotRect*
0 Rectangle, with rotation*
0 The origin of the aperture is its center*
0 $1 length*
0 $2 width*
0 $3 Rotation angle, in degrees counterclockwise*
0 Add horizontal line*
21,1,$1,$2,0,0,$3*%
G04 Aperture macros list end*
%ADD10R,1.000000X1.400000*%
%ADD11R,1.300000X1.500000*%
%ADD12R,1.000000X1.100000*%
%ADD13R,1.300000X0.700000*%
%ADD14R,1.100000X1.000000*%
%ADD15R,1.500000X1.300000*%
%ADD16RotRect,3.810000X1.930400X135.000000*%
%ADD17RotRect,3.810000X1.930400X45.000000*%
%ADD18R,1.930400X3.810000*%
%ADD19R,3.810000X1.930400*%
%ADD20RotRect,3.810000X1.930400X315.000000*%
%ADD21RotRect,3.810000X1.930400X225.000000*%
G04 APERTURE END LIST*
D10*
%TO.C,IRLML2502*%
X132550000Y-96200000D03*
X130650000Y-96200000D03*
X131600000Y-98400000D03*
%TD*%
D11*
%TO.C,R12*%
X151695508Y-95588005D03*
X153595508Y-95588005D03*
%TD*%
D12*
%TO.C,R14*%
X144590000Y-100150000D03*
X146290000Y-100150000D03*
%TD*%
D13*
%TO.C,TP4056*%
X143600000Y-92985000D03*
X143600000Y-94255000D03*
X143600000Y-95525000D03*
X143600000Y-96795000D03*
X149100000Y-96795000D03*
X149100000Y-95525000D03*
X149100000Y-94255000D03*
X149100000Y-92985000D03*
%TD*%
D11*
%TO.C,R13*%
X151675508Y-92998005D03*
X153575508Y-92998005D03*
%TD*%
D14*
%TO.C,C3*%
X151585508Y-97610000D03*
X153285508Y-97610000D03*
%TD*%
D15*
%TO.C,R10*%
X128232492Y-98375995D03*
X128232492Y-96475995D03*
%TD*%
%TO.C,R11*%
X122250000Y-96420000D03*
X122250000Y-98320000D03*
%TD*%
D14*
%TO.C,C4*%
X144170000Y-103320000D03*
X145870000Y-103320000D03*
%TD*%
D15*
%TO.C,R9*%
X125250000Y-96400000D03*
X125250000Y-98300000D03*
%TD*%
D11*
%TO.C,R8*%
X132800000Y-93720000D03*
X130900000Y-93720000D03*
%TD*%
%TO.C,R15*%
X153615508Y-99688005D03*
X151715508Y-99688005D03*
%TD*%
D16*
%TO.C,P3*%
X168564407Y-121765593D03*
X165098028Y-125231972D03*
%TD*%
D17*
%TO.C,P1*%
X131910000Y-125370000D03*
X128443621Y-121903621D03*
%TD*%
D18*
%TO.C,P6*%
X145942600Y-78800000D03*
X150844800Y-78800000D03*
%TD*%
%TO.C,P0*%
X150790000Y-131040000D03*
X145887800Y-131040000D03*
%TD*%
D19*
%TO.C,P2*%
X122140000Y-107420000D03*
X122140000Y-102517800D03*
%TD*%
D20*
%TO.C,P4*%
X128205593Y-88074407D03*
X131671972Y-84608028D03*
%TD*%
D19*
%TO.C,P5*%
X174560000Y-102628600D03*
X174560000Y-107530800D03*
%TD*%
D21*
%TO.C,P7*%
X164965593Y-84515593D03*
X168431972Y-87981972D03*
%TD*%
M02*
