%TF.GenerationSoftware,KiCad,Pcbnew,9.0.5*%
%TF.CreationDate,2025-11-19T12:34:50-06:00*%
%TF.ProjectId,board,626f6172-642e-46b6-9963-61645f706362,rev?*%
%TF.SameCoordinates,Original*%
%TF.FileFunction,Legend,Bot*%
%TF.FilePolarity,Positive*%
%FSLAX46Y46*%
G04 Gerber Fmt 4.6, Leading zero omitted, Abs format (unit mm)*
G04 Created by KiCad (PCBNEW 9.0.5) date 2025-11-19 12:34:50*
%MOMM*%
%LPD*%
G01*
G04 APERTURE LIST*
%ADD10C,0.060960*%
%ADD11C,0.048768*%
%ADD12C,0.101600*%
%ADD13C,0.304800*%
%ADD14C,0.142240*%
%ADD15C,0.081280*%
%ADD16C,0.150000*%
%ADD17C,0.093472*%
%ADD18C,0.127000*%
%ADD19C,0.120000*%
%ADD20C,0.050800*%
%ADD21C,0.152400*%
%ADD22C,0.063400*%
%ADD23C,0.125000*%
G04 APERTURE END LIST*
D10*
X151411052Y-75375426D02*
X151010458Y-75375426D01*
X151210755Y-76076466D02*
X151210755Y-75375426D01*
X150376183Y-76009701D02*
X150409566Y-76043084D01*
X150409566Y-76043084D02*
X150509714Y-76076466D01*
X150509714Y-76076466D02*
X150576480Y-76076466D01*
X150576480Y-76076466D02*
X150676629Y-76043084D01*
X150676629Y-76043084D02*
X150743394Y-75976318D01*
X150743394Y-75976318D02*
X150776777Y-75909552D01*
X150776777Y-75909552D02*
X150810160Y-75776021D01*
X150810160Y-75776021D02*
X150810160Y-75675872D01*
X150810160Y-75675872D02*
X150776777Y-75542341D01*
X150776777Y-75542341D02*
X150743394Y-75475575D01*
X150743394Y-75475575D02*
X150676629Y-75408809D01*
X150676629Y-75408809D02*
X150576480Y-75375426D01*
X150576480Y-75375426D02*
X150509714Y-75375426D01*
X150509714Y-75375426D02*
X150409566Y-75408809D01*
X150409566Y-75408809D02*
X150376183Y-75442192D01*
X149675143Y-76076466D02*
X149908823Y-75742638D01*
X150075737Y-76076466D02*
X150075737Y-75375426D01*
X150075737Y-75375426D02*
X149808674Y-75375426D01*
X149808674Y-75375426D02*
X149741909Y-75408809D01*
X149741909Y-75408809D02*
X149708526Y-75442192D01*
X149708526Y-75442192D02*
X149675143Y-75508958D01*
X149675143Y-75508958D02*
X149675143Y-75609106D01*
X149675143Y-75609106D02*
X149708526Y-75675872D01*
X149708526Y-75675872D02*
X149741909Y-75709255D01*
X149741909Y-75709255D02*
X149808674Y-75742638D01*
X149808674Y-75742638D02*
X150075737Y-75742638D01*
X149474846Y-75375426D02*
X149074252Y-75375426D01*
X149274549Y-76076466D02*
X149274549Y-75375426D01*
X148506743Y-75375426D02*
X148840571Y-75375426D01*
X148840571Y-75375426D02*
X148873954Y-75709255D01*
X148873954Y-75709255D02*
X148840571Y-75675872D01*
X148840571Y-75675872D02*
X148773806Y-75642489D01*
X148773806Y-75642489D02*
X148606891Y-75642489D01*
X148606891Y-75642489D02*
X148540126Y-75675872D01*
X148540126Y-75675872D02*
X148506743Y-75709255D01*
X148506743Y-75709255D02*
X148473360Y-75776021D01*
X148473360Y-75776021D02*
X148473360Y-75942935D01*
X148473360Y-75942935D02*
X148506743Y-76009701D01*
X148506743Y-76009701D02*
X148540126Y-76043084D01*
X148540126Y-76043084D02*
X148606891Y-76076466D01*
X148606891Y-76076466D02*
X148773806Y-76076466D01*
X148773806Y-76076466D02*
X148840571Y-76043084D01*
X148840571Y-76043084D02*
X148873954Y-76009701D01*
X148039383Y-75375426D02*
X147972617Y-75375426D01*
X147972617Y-75375426D02*
X147905851Y-75408809D01*
X147905851Y-75408809D02*
X147872469Y-75442192D01*
X147872469Y-75442192D02*
X147839086Y-75508958D01*
X147839086Y-75508958D02*
X147805703Y-75642489D01*
X147805703Y-75642489D02*
X147805703Y-75809404D01*
X147805703Y-75809404D02*
X147839086Y-75942935D01*
X147839086Y-75942935D02*
X147872469Y-76009701D01*
X147872469Y-76009701D02*
X147905851Y-76043084D01*
X147905851Y-76043084D02*
X147972617Y-76076466D01*
X147972617Y-76076466D02*
X148039383Y-76076466D01*
X148039383Y-76076466D02*
X148106149Y-76043084D01*
X148106149Y-76043084D02*
X148139531Y-76009701D01*
X148139531Y-76009701D02*
X148172914Y-75942935D01*
X148172914Y-75942935D02*
X148206297Y-75809404D01*
X148206297Y-75809404D02*
X148206297Y-75642489D01*
X148206297Y-75642489D02*
X148172914Y-75508958D01*
X148172914Y-75508958D02*
X148139531Y-75442192D01*
X148139531Y-75442192D02*
X148106149Y-75408809D01*
X148106149Y-75408809D02*
X148039383Y-75375426D01*
X147371726Y-75375426D02*
X147304960Y-75375426D01*
X147304960Y-75375426D02*
X147238194Y-75408809D01*
X147238194Y-75408809D02*
X147204812Y-75442192D01*
X147204812Y-75442192D02*
X147171429Y-75508958D01*
X147171429Y-75508958D02*
X147138046Y-75642489D01*
X147138046Y-75642489D02*
X147138046Y-75809404D01*
X147138046Y-75809404D02*
X147171429Y-75942935D01*
X147171429Y-75942935D02*
X147204812Y-76009701D01*
X147204812Y-76009701D02*
X147238194Y-76043084D01*
X147238194Y-76043084D02*
X147304960Y-76076466D01*
X147304960Y-76076466D02*
X147371726Y-76076466D01*
X147371726Y-76076466D02*
X147438492Y-76043084D01*
X147438492Y-76043084D02*
X147471874Y-76009701D01*
X147471874Y-76009701D02*
X147505257Y-75942935D01*
X147505257Y-75942935D02*
X147538640Y-75809404D01*
X147538640Y-75809404D02*
X147538640Y-75642489D01*
X147538640Y-75642489D02*
X147505257Y-75508958D01*
X147505257Y-75508958D02*
X147471874Y-75442192D01*
X147471874Y-75442192D02*
X147438492Y-75408809D01*
X147438492Y-75408809D02*
X147371726Y-75375426D01*
X146704069Y-75375426D02*
X146637303Y-75375426D01*
X146637303Y-75375426D02*
X146570537Y-75408809D01*
X146570537Y-75408809D02*
X146537155Y-75442192D01*
X146537155Y-75442192D02*
X146503772Y-75508958D01*
X146503772Y-75508958D02*
X146470389Y-75642489D01*
X146470389Y-75642489D02*
X146470389Y-75809404D01*
X146470389Y-75809404D02*
X146503772Y-75942935D01*
X146503772Y-75942935D02*
X146537155Y-76009701D01*
X146537155Y-76009701D02*
X146570537Y-76043084D01*
X146570537Y-76043084D02*
X146637303Y-76076466D01*
X146637303Y-76076466D02*
X146704069Y-76076466D01*
X146704069Y-76076466D02*
X146770835Y-76043084D01*
X146770835Y-76043084D02*
X146804217Y-76009701D01*
X146804217Y-76009701D02*
X146837600Y-75942935D01*
X146837600Y-75942935D02*
X146870983Y-75809404D01*
X146870983Y-75809404D02*
X146870983Y-75642489D01*
X146870983Y-75642489D02*
X146837600Y-75508958D01*
X146837600Y-75508958D02*
X146804217Y-75442192D01*
X146804217Y-75442192D02*
X146770835Y-75408809D01*
X146770835Y-75408809D02*
X146704069Y-75375426D01*
D11*
X153048995Y-114849992D02*
X152862051Y-115410824D01*
X152862051Y-115410824D02*
X152675107Y-114849992D01*
X152167688Y-115357411D02*
X152194394Y-115384118D01*
X152194394Y-115384118D02*
X152274513Y-115410824D01*
X152274513Y-115410824D02*
X152327925Y-115410824D01*
X152327925Y-115410824D02*
X152408044Y-115384118D01*
X152408044Y-115384118D02*
X152461457Y-115330705D01*
X152461457Y-115330705D02*
X152488163Y-115277292D01*
X152488163Y-115277292D02*
X152514869Y-115170467D01*
X152514869Y-115170467D02*
X152514869Y-115090348D01*
X152514869Y-115090348D02*
X152488163Y-114983523D01*
X152488163Y-114983523D02*
X152461457Y-114930111D01*
X152461457Y-114930111D02*
X152408044Y-114876698D01*
X152408044Y-114876698D02*
X152327925Y-114849992D01*
X152327925Y-114849992D02*
X152274513Y-114849992D01*
X152274513Y-114849992D02*
X152194394Y-114876698D01*
X152194394Y-114876698D02*
X152167688Y-114903404D01*
X151606856Y-115357411D02*
X151633562Y-115384118D01*
X151633562Y-115384118D02*
X151713681Y-115410824D01*
X151713681Y-115410824D02*
X151767093Y-115410824D01*
X151767093Y-115410824D02*
X151847212Y-115384118D01*
X151847212Y-115384118D02*
X151900625Y-115330705D01*
X151900625Y-115330705D02*
X151927331Y-115277292D01*
X151927331Y-115277292D02*
X151954037Y-115170467D01*
X151954037Y-115170467D02*
X151954037Y-115090348D01*
X151954037Y-115090348D02*
X151927331Y-114983523D01*
X151927331Y-114983523D02*
X151900625Y-114930111D01*
X151900625Y-114930111D02*
X151847212Y-114876698D01*
X151847212Y-114876698D02*
X151767093Y-114849992D01*
X151767093Y-114849992D02*
X151713681Y-114849992D01*
X151713681Y-114849992D02*
X151633562Y-114876698D01*
X151633562Y-114876698D02*
X151606856Y-114903404D01*
X149790827Y-114876698D02*
X149844240Y-114849992D01*
X149844240Y-114849992D02*
X149924358Y-114849992D01*
X149924358Y-114849992D02*
X150004477Y-114876698D01*
X150004477Y-114876698D02*
X150057890Y-114930111D01*
X150057890Y-114930111D02*
X150084596Y-114983523D01*
X150084596Y-114983523D02*
X150111302Y-115090348D01*
X150111302Y-115090348D02*
X150111302Y-115170467D01*
X150111302Y-115170467D02*
X150084596Y-115277292D01*
X150084596Y-115277292D02*
X150057890Y-115330705D01*
X150057890Y-115330705D02*
X150004477Y-115384118D01*
X150004477Y-115384118D02*
X149924358Y-115410824D01*
X149924358Y-115410824D02*
X149870946Y-115410824D01*
X149870946Y-115410824D02*
X149790827Y-115384118D01*
X149790827Y-115384118D02*
X149764121Y-115357411D01*
X149764121Y-115357411D02*
X149764121Y-115170467D01*
X149764121Y-115170467D02*
X149870946Y-115170467D01*
X149523764Y-115410824D02*
X149523764Y-114849992D01*
X149523764Y-114849992D02*
X149203289Y-115410824D01*
X149203289Y-115410824D02*
X149203289Y-114849992D01*
X148936226Y-115410824D02*
X148936226Y-114849992D01*
X148936226Y-114849992D02*
X148802695Y-114849992D01*
X148802695Y-114849992D02*
X148722576Y-114876698D01*
X148722576Y-114876698D02*
X148669163Y-114930111D01*
X148669163Y-114930111D02*
X148642457Y-114983523D01*
X148642457Y-114983523D02*
X148615751Y-115090348D01*
X148615751Y-115090348D02*
X148615751Y-115170467D01*
X148615751Y-115170467D02*
X148642457Y-115277292D01*
X148642457Y-115277292D02*
X148669163Y-115330705D01*
X148669163Y-115330705D02*
X148722576Y-115384118D01*
X148722576Y-115384118D02*
X148802695Y-115410824D01*
X148802695Y-115410824D02*
X148936226Y-115410824D01*
D10*
X129916555Y-127266783D02*
X129633293Y-126983520D01*
X129279214Y-127620862D02*
X129774924Y-127125151D01*
X128736293Y-126983520D02*
X128736293Y-127030730D01*
X128736293Y-127030730D02*
X128783504Y-127125151D01*
X128783504Y-127125151D02*
X128830714Y-127172362D01*
X128830714Y-127172362D02*
X128925135Y-127219572D01*
X128925135Y-127219572D02*
X129019556Y-127219572D01*
X129019556Y-127219572D02*
X129090372Y-127195967D01*
X129090372Y-127195967D02*
X129208398Y-127125151D01*
X129208398Y-127125151D02*
X129279214Y-127054336D01*
X129279214Y-127054336D02*
X129350029Y-126936309D01*
X129350029Y-126936309D02*
X129373635Y-126865494D01*
X129373635Y-126865494D02*
X129373635Y-126771073D01*
X129373635Y-126771073D02*
X129326424Y-126676652D01*
X129326424Y-126676652D02*
X129279214Y-126629441D01*
X129279214Y-126629441D02*
X129184793Y-126582231D01*
X129184793Y-126582231D02*
X129137582Y-126582231D01*
X128193372Y-126535020D02*
X128594662Y-126464204D01*
X128476635Y-126818283D02*
X128972346Y-126322573D01*
X128972346Y-126322573D02*
X128783504Y-126133731D01*
X128783504Y-126133731D02*
X128712688Y-126110126D01*
X128712688Y-126110126D02*
X128665477Y-126110126D01*
X128665477Y-126110126D02*
X128594662Y-126133731D01*
X128594662Y-126133731D02*
X128523846Y-126204547D01*
X128523846Y-126204547D02*
X128500241Y-126275362D01*
X128500241Y-126275362D02*
X128500241Y-126322573D01*
X128500241Y-126322573D02*
X128523846Y-126393389D01*
X128523846Y-126393389D02*
X128712688Y-126582231D01*
X128547451Y-125897679D02*
X128264188Y-125614416D01*
X127910109Y-126251757D02*
X128405820Y-125756047D01*
X127862899Y-125213126D02*
X128098951Y-125449179D01*
X128098951Y-125449179D02*
X127886504Y-125708836D01*
X127886504Y-125708836D02*
X127886504Y-125661626D01*
X127886504Y-125661626D02*
X127862899Y-125590810D01*
X127862899Y-125590810D02*
X127744873Y-125472784D01*
X127744873Y-125472784D02*
X127674057Y-125449179D01*
X127674057Y-125449179D02*
X127626846Y-125449179D01*
X127626846Y-125449179D02*
X127556031Y-125472784D01*
X127556031Y-125472784D02*
X127438004Y-125590810D01*
X127438004Y-125590810D02*
X127414399Y-125661626D01*
X127414399Y-125661626D02*
X127414399Y-125708836D01*
X127414399Y-125708836D02*
X127438004Y-125779652D01*
X127438004Y-125779652D02*
X127556031Y-125897678D01*
X127556031Y-125897678D02*
X127626846Y-125921284D01*
X127626846Y-125921284D02*
X127674057Y-125921284D01*
X127532425Y-124882653D02*
X127485215Y-124835442D01*
X127485215Y-124835442D02*
X127414399Y-124811837D01*
X127414399Y-124811837D02*
X127367189Y-124811837D01*
X127367189Y-124811837D02*
X127296373Y-124835442D01*
X127296373Y-124835442D02*
X127178347Y-124906258D01*
X127178347Y-124906258D02*
X127060321Y-125024284D01*
X127060321Y-125024284D02*
X126989505Y-125142311D01*
X126989505Y-125142311D02*
X126965900Y-125213126D01*
X126965900Y-125213126D02*
X126965900Y-125260337D01*
X126965900Y-125260337D02*
X126989505Y-125331153D01*
X126989505Y-125331153D02*
X127036715Y-125378363D01*
X127036715Y-125378363D02*
X127107531Y-125401968D01*
X127107531Y-125401968D02*
X127154742Y-125401968D01*
X127154742Y-125401968D02*
X127225557Y-125378363D01*
X127225557Y-125378363D02*
X127343584Y-125307547D01*
X127343584Y-125307547D02*
X127461610Y-125189521D01*
X127461610Y-125189521D02*
X127532425Y-125071495D01*
X127532425Y-125071495D02*
X127556031Y-125000679D01*
X127556031Y-125000679D02*
X127556031Y-124953469D01*
X127556031Y-124953469D02*
X127532425Y-124882653D01*
X127060321Y-124410548D02*
X127013110Y-124363338D01*
X127013110Y-124363338D02*
X126942294Y-124339732D01*
X126942294Y-124339732D02*
X126895084Y-124339732D01*
X126895084Y-124339732D02*
X126824268Y-124363338D01*
X126824268Y-124363338D02*
X126706242Y-124434153D01*
X126706242Y-124434153D02*
X126588216Y-124552180D01*
X126588216Y-124552180D02*
X126517400Y-124670206D01*
X126517400Y-124670206D02*
X126493795Y-124741022D01*
X126493795Y-124741022D02*
X126493795Y-124788232D01*
X126493795Y-124788232D02*
X126517400Y-124859048D01*
X126517400Y-124859048D02*
X126564611Y-124906258D01*
X126564611Y-124906258D02*
X126635426Y-124929863D01*
X126635426Y-124929863D02*
X126682637Y-124929863D01*
X126682637Y-124929863D02*
X126753453Y-124906258D01*
X126753453Y-124906258D02*
X126871479Y-124835443D01*
X126871479Y-124835443D02*
X126989505Y-124717416D01*
X126989505Y-124717416D02*
X127060321Y-124599390D01*
X127060321Y-124599390D02*
X127083926Y-124528574D01*
X127083926Y-124528574D02*
X127083926Y-124481364D01*
X127083926Y-124481364D02*
X127060321Y-124410548D01*
X126588216Y-123938443D02*
X126541005Y-123891233D01*
X126541005Y-123891233D02*
X126470190Y-123867628D01*
X126470190Y-123867628D02*
X126422979Y-123867628D01*
X126422979Y-123867628D02*
X126352163Y-123891233D01*
X126352163Y-123891233D02*
X126234137Y-123962049D01*
X126234137Y-123962049D02*
X126116111Y-124080075D01*
X126116111Y-124080075D02*
X126045295Y-124198101D01*
X126045295Y-124198101D02*
X126021690Y-124268917D01*
X126021690Y-124268917D02*
X126021690Y-124316127D01*
X126021690Y-124316127D02*
X126045295Y-124386943D01*
X126045295Y-124386943D02*
X126092506Y-124434153D01*
X126092506Y-124434153D02*
X126163321Y-124457759D01*
X126163321Y-124457759D02*
X126210532Y-124457759D01*
X126210532Y-124457759D02*
X126281348Y-124434153D01*
X126281348Y-124434153D02*
X126399374Y-124363338D01*
X126399374Y-124363338D02*
X126517400Y-124245312D01*
X126517400Y-124245312D02*
X126588216Y-124127285D01*
X126588216Y-124127285D02*
X126611821Y-124056470D01*
X126611821Y-124056470D02*
X126611821Y-124009259D01*
X126611821Y-124009259D02*
X126588216Y-123938443D01*
X119507714Y-107302863D02*
X119507714Y-106902269D01*
X118806674Y-107102566D02*
X119507714Y-107102566D01*
X118873439Y-106267994D02*
X118840057Y-106301377D01*
X118840057Y-106301377D02*
X118806674Y-106401525D01*
X118806674Y-106401525D02*
X118806674Y-106468291D01*
X118806674Y-106468291D02*
X118840057Y-106568440D01*
X118840057Y-106568440D02*
X118906822Y-106635205D01*
X118906822Y-106635205D02*
X118973588Y-106668588D01*
X118973588Y-106668588D02*
X119107119Y-106701971D01*
X119107119Y-106701971D02*
X119207268Y-106701971D01*
X119207268Y-106701971D02*
X119340799Y-106668588D01*
X119340799Y-106668588D02*
X119407565Y-106635205D01*
X119407565Y-106635205D02*
X119474331Y-106568440D01*
X119474331Y-106568440D02*
X119507714Y-106468291D01*
X119507714Y-106468291D02*
X119507714Y-106401525D01*
X119507714Y-106401525D02*
X119474331Y-106301377D01*
X119474331Y-106301377D02*
X119440948Y-106267994D01*
X118806674Y-105566954D02*
X119140502Y-105800634D01*
X118806674Y-105967548D02*
X119507714Y-105967548D01*
X119507714Y-105967548D02*
X119507714Y-105700485D01*
X119507714Y-105700485D02*
X119474331Y-105633720D01*
X119474331Y-105633720D02*
X119440948Y-105600337D01*
X119440948Y-105600337D02*
X119374182Y-105566954D01*
X119374182Y-105566954D02*
X119274034Y-105566954D01*
X119274034Y-105566954D02*
X119207268Y-105600337D01*
X119207268Y-105600337D02*
X119173885Y-105633720D01*
X119173885Y-105633720D02*
X119140502Y-105700485D01*
X119140502Y-105700485D02*
X119140502Y-105967548D01*
X119507714Y-105366657D02*
X119507714Y-104966063D01*
X118806674Y-105166360D02*
X119507714Y-105166360D01*
X119507714Y-104398554D02*
X119507714Y-104732382D01*
X119507714Y-104732382D02*
X119173885Y-104765765D01*
X119173885Y-104765765D02*
X119207268Y-104732382D01*
X119207268Y-104732382D02*
X119240651Y-104665617D01*
X119240651Y-104665617D02*
X119240651Y-104498702D01*
X119240651Y-104498702D02*
X119207268Y-104431937D01*
X119207268Y-104431937D02*
X119173885Y-104398554D01*
X119173885Y-104398554D02*
X119107119Y-104365171D01*
X119107119Y-104365171D02*
X118940205Y-104365171D01*
X118940205Y-104365171D02*
X118873439Y-104398554D01*
X118873439Y-104398554D02*
X118840057Y-104431937D01*
X118840057Y-104431937D02*
X118806674Y-104498702D01*
X118806674Y-104498702D02*
X118806674Y-104665617D01*
X118806674Y-104665617D02*
X118840057Y-104732382D01*
X118840057Y-104732382D02*
X118873439Y-104765765D01*
X119507714Y-103931194D02*
X119507714Y-103864428D01*
X119507714Y-103864428D02*
X119474331Y-103797662D01*
X119474331Y-103797662D02*
X119440948Y-103764280D01*
X119440948Y-103764280D02*
X119374182Y-103730897D01*
X119374182Y-103730897D02*
X119240651Y-103697514D01*
X119240651Y-103697514D02*
X119073737Y-103697514D01*
X119073737Y-103697514D02*
X118940205Y-103730897D01*
X118940205Y-103730897D02*
X118873439Y-103764280D01*
X118873439Y-103764280D02*
X118840057Y-103797662D01*
X118840057Y-103797662D02*
X118806674Y-103864428D01*
X118806674Y-103864428D02*
X118806674Y-103931194D01*
X118806674Y-103931194D02*
X118840057Y-103997960D01*
X118840057Y-103997960D02*
X118873439Y-104031342D01*
X118873439Y-104031342D02*
X118940205Y-104064725D01*
X118940205Y-104064725D02*
X119073737Y-104098108D01*
X119073737Y-104098108D02*
X119240651Y-104098108D01*
X119240651Y-104098108D02*
X119374182Y-104064725D01*
X119374182Y-104064725D02*
X119440948Y-104031342D01*
X119440948Y-104031342D02*
X119474331Y-103997960D01*
X119474331Y-103997960D02*
X119507714Y-103931194D01*
X119507714Y-103263537D02*
X119507714Y-103196771D01*
X119507714Y-103196771D02*
X119474331Y-103130005D01*
X119474331Y-103130005D02*
X119440948Y-103096623D01*
X119440948Y-103096623D02*
X119374182Y-103063240D01*
X119374182Y-103063240D02*
X119240651Y-103029857D01*
X119240651Y-103029857D02*
X119073737Y-103029857D01*
X119073737Y-103029857D02*
X118940205Y-103063240D01*
X118940205Y-103063240D02*
X118873439Y-103096623D01*
X118873439Y-103096623D02*
X118840057Y-103130005D01*
X118840057Y-103130005D02*
X118806674Y-103196771D01*
X118806674Y-103196771D02*
X118806674Y-103263537D01*
X118806674Y-103263537D02*
X118840057Y-103330303D01*
X118840057Y-103330303D02*
X118873439Y-103363685D01*
X118873439Y-103363685D02*
X118940205Y-103397068D01*
X118940205Y-103397068D02*
X119073737Y-103430451D01*
X119073737Y-103430451D02*
X119240651Y-103430451D01*
X119240651Y-103430451D02*
X119374182Y-103397068D01*
X119374182Y-103397068D02*
X119440948Y-103363685D01*
X119440948Y-103363685D02*
X119474331Y-103330303D01*
X119474331Y-103330303D02*
X119507714Y-103263537D01*
X119507714Y-102595880D02*
X119507714Y-102529114D01*
X119507714Y-102529114D02*
X119474331Y-102462348D01*
X119474331Y-102462348D02*
X119440948Y-102428966D01*
X119440948Y-102428966D02*
X119374182Y-102395583D01*
X119374182Y-102395583D02*
X119240651Y-102362200D01*
X119240651Y-102362200D02*
X119073737Y-102362200D01*
X119073737Y-102362200D02*
X118940205Y-102395583D01*
X118940205Y-102395583D02*
X118873439Y-102428966D01*
X118873439Y-102428966D02*
X118840057Y-102462348D01*
X118840057Y-102462348D02*
X118806674Y-102529114D01*
X118806674Y-102529114D02*
X118806674Y-102595880D01*
X118806674Y-102595880D02*
X118840057Y-102662646D01*
X118840057Y-102662646D02*
X118873439Y-102696028D01*
X118873439Y-102696028D02*
X118940205Y-102729411D01*
X118940205Y-102729411D02*
X119073737Y-102762794D01*
X119073737Y-102762794D02*
X119240651Y-102762794D01*
X119240651Y-102762794D02*
X119374182Y-102729411D01*
X119374182Y-102729411D02*
X119440948Y-102696028D01*
X119440948Y-102696028D02*
X119474331Y-102662646D01*
X119474331Y-102662646D02*
X119507714Y-102595880D01*
X177977713Y-107652863D02*
X177977713Y-107252269D01*
X177276673Y-107452566D02*
X177977713Y-107452566D01*
X177343438Y-106617994D02*
X177310056Y-106651377D01*
X177310056Y-106651377D02*
X177276673Y-106751525D01*
X177276673Y-106751525D02*
X177276673Y-106818291D01*
X177276673Y-106818291D02*
X177310056Y-106918440D01*
X177310056Y-106918440D02*
X177376821Y-106985205D01*
X177376821Y-106985205D02*
X177443587Y-107018588D01*
X177443587Y-107018588D02*
X177577118Y-107051971D01*
X177577118Y-107051971D02*
X177677267Y-107051971D01*
X177677267Y-107051971D02*
X177810798Y-107018588D01*
X177810798Y-107018588D02*
X177877564Y-106985205D01*
X177877564Y-106985205D02*
X177944330Y-106918440D01*
X177944330Y-106918440D02*
X177977713Y-106818291D01*
X177977713Y-106818291D02*
X177977713Y-106751525D01*
X177977713Y-106751525D02*
X177944330Y-106651377D01*
X177944330Y-106651377D02*
X177910947Y-106617994D01*
X177276673Y-105916954D02*
X177610501Y-106150634D01*
X177276673Y-106317548D02*
X177977713Y-106317548D01*
X177977713Y-106317548D02*
X177977713Y-106050485D01*
X177977713Y-106050485D02*
X177944330Y-105983720D01*
X177944330Y-105983720D02*
X177910947Y-105950337D01*
X177910947Y-105950337D02*
X177844181Y-105916954D01*
X177844181Y-105916954D02*
X177744033Y-105916954D01*
X177744033Y-105916954D02*
X177677267Y-105950337D01*
X177677267Y-105950337D02*
X177643884Y-105983720D01*
X177643884Y-105983720D02*
X177610501Y-106050485D01*
X177610501Y-106050485D02*
X177610501Y-106317548D01*
X177977713Y-105716657D02*
X177977713Y-105316063D01*
X177276673Y-105516360D02*
X177977713Y-105516360D01*
X177977713Y-104748554D02*
X177977713Y-105082382D01*
X177977713Y-105082382D02*
X177643884Y-105115765D01*
X177643884Y-105115765D02*
X177677267Y-105082382D01*
X177677267Y-105082382D02*
X177710650Y-105015617D01*
X177710650Y-105015617D02*
X177710650Y-104848702D01*
X177710650Y-104848702D02*
X177677267Y-104781937D01*
X177677267Y-104781937D02*
X177643884Y-104748554D01*
X177643884Y-104748554D02*
X177577118Y-104715171D01*
X177577118Y-104715171D02*
X177410204Y-104715171D01*
X177410204Y-104715171D02*
X177343438Y-104748554D01*
X177343438Y-104748554D02*
X177310056Y-104781937D01*
X177310056Y-104781937D02*
X177276673Y-104848702D01*
X177276673Y-104848702D02*
X177276673Y-105015617D01*
X177276673Y-105015617D02*
X177310056Y-105082382D01*
X177310056Y-105082382D02*
X177343438Y-105115765D01*
X177977713Y-104281194D02*
X177977713Y-104214428D01*
X177977713Y-104214428D02*
X177944330Y-104147662D01*
X177944330Y-104147662D02*
X177910947Y-104114280D01*
X177910947Y-104114280D02*
X177844181Y-104080897D01*
X177844181Y-104080897D02*
X177710650Y-104047514D01*
X177710650Y-104047514D02*
X177543736Y-104047514D01*
X177543736Y-104047514D02*
X177410204Y-104080897D01*
X177410204Y-104080897D02*
X177343438Y-104114280D01*
X177343438Y-104114280D02*
X177310056Y-104147662D01*
X177310056Y-104147662D02*
X177276673Y-104214428D01*
X177276673Y-104214428D02*
X177276673Y-104281194D01*
X177276673Y-104281194D02*
X177310056Y-104347960D01*
X177310056Y-104347960D02*
X177343438Y-104381342D01*
X177343438Y-104381342D02*
X177410204Y-104414725D01*
X177410204Y-104414725D02*
X177543736Y-104448108D01*
X177543736Y-104448108D02*
X177710650Y-104448108D01*
X177710650Y-104448108D02*
X177844181Y-104414725D01*
X177844181Y-104414725D02*
X177910947Y-104381342D01*
X177910947Y-104381342D02*
X177944330Y-104347960D01*
X177944330Y-104347960D02*
X177977713Y-104281194D01*
X177977713Y-103613537D02*
X177977713Y-103546771D01*
X177977713Y-103546771D02*
X177944330Y-103480005D01*
X177944330Y-103480005D02*
X177910947Y-103446623D01*
X177910947Y-103446623D02*
X177844181Y-103413240D01*
X177844181Y-103413240D02*
X177710650Y-103379857D01*
X177710650Y-103379857D02*
X177543736Y-103379857D01*
X177543736Y-103379857D02*
X177410204Y-103413240D01*
X177410204Y-103413240D02*
X177343438Y-103446623D01*
X177343438Y-103446623D02*
X177310056Y-103480005D01*
X177310056Y-103480005D02*
X177276673Y-103546771D01*
X177276673Y-103546771D02*
X177276673Y-103613537D01*
X177276673Y-103613537D02*
X177310056Y-103680303D01*
X177310056Y-103680303D02*
X177343438Y-103713685D01*
X177343438Y-103713685D02*
X177410204Y-103747068D01*
X177410204Y-103747068D02*
X177543736Y-103780451D01*
X177543736Y-103780451D02*
X177710650Y-103780451D01*
X177710650Y-103780451D02*
X177844181Y-103747068D01*
X177844181Y-103747068D02*
X177910947Y-103713685D01*
X177910947Y-103713685D02*
X177944330Y-103680303D01*
X177944330Y-103680303D02*
X177977713Y-103613537D01*
X177977713Y-102945880D02*
X177977713Y-102879114D01*
X177977713Y-102879114D02*
X177944330Y-102812348D01*
X177944330Y-102812348D02*
X177910947Y-102778966D01*
X177910947Y-102778966D02*
X177844181Y-102745583D01*
X177844181Y-102745583D02*
X177710650Y-102712200D01*
X177710650Y-102712200D02*
X177543736Y-102712200D01*
X177543736Y-102712200D02*
X177410204Y-102745583D01*
X177410204Y-102745583D02*
X177343438Y-102778966D01*
X177343438Y-102778966D02*
X177310056Y-102812348D01*
X177310056Y-102812348D02*
X177276673Y-102879114D01*
X177276673Y-102879114D02*
X177276673Y-102945880D01*
X177276673Y-102945880D02*
X177310056Y-103012646D01*
X177310056Y-103012646D02*
X177343438Y-103046028D01*
X177343438Y-103046028D02*
X177410204Y-103079411D01*
X177410204Y-103079411D02*
X177543736Y-103112794D01*
X177543736Y-103112794D02*
X177710650Y-103112794D01*
X177710650Y-103112794D02*
X177844181Y-103079411D01*
X177844181Y-103079411D02*
X177910947Y-103046028D01*
X177910947Y-103046028D02*
X177944330Y-103012646D01*
X177944330Y-103012646D02*
X177977713Y-102945880D01*
D12*
X126805737Y-106020418D02*
X127362118Y-106409885D01*
X126805737Y-106688075D02*
X127974137Y-106688075D01*
X127974137Y-106688075D02*
X127974137Y-106242970D01*
X127974137Y-106242970D02*
X127918499Y-106131694D01*
X127918499Y-106131694D02*
X127862861Y-106076056D01*
X127862861Y-106076056D02*
X127751585Y-106020418D01*
X127751585Y-106020418D02*
X127584671Y-106020418D01*
X127584671Y-106020418D02*
X127473395Y-106076056D01*
X127473395Y-106076056D02*
X127417756Y-106131694D01*
X127417756Y-106131694D02*
X127362118Y-106242970D01*
X127362118Y-106242970D02*
X127362118Y-106688075D01*
X126805737Y-105519675D02*
X127974137Y-105519675D01*
X127918499Y-104351275D02*
X127974137Y-104462551D01*
X127974137Y-104462551D02*
X127974137Y-104629465D01*
X127974137Y-104629465D02*
X127918499Y-104796380D01*
X127918499Y-104796380D02*
X127807223Y-104907656D01*
X127807223Y-104907656D02*
X127695947Y-104963294D01*
X127695947Y-104963294D02*
X127473395Y-105018932D01*
X127473395Y-105018932D02*
X127306480Y-105018932D01*
X127306480Y-105018932D02*
X127083928Y-104963294D01*
X127083928Y-104963294D02*
X126972652Y-104907656D01*
X126972652Y-104907656D02*
X126861376Y-104796380D01*
X126861376Y-104796380D02*
X126805737Y-104629465D01*
X126805737Y-104629465D02*
X126805737Y-104518189D01*
X126805737Y-104518189D02*
X126861376Y-104351275D01*
X126861376Y-104351275D02*
X126917014Y-104295637D01*
X126917014Y-104295637D02*
X127306480Y-104295637D01*
X127306480Y-104295637D02*
X127306480Y-104518189D01*
X126805737Y-103794894D02*
X127974137Y-103794894D01*
X127417756Y-103794894D02*
X127417756Y-103127237D01*
X126805737Y-103127237D02*
X127974137Y-103127237D01*
X127974137Y-102737770D02*
X127974137Y-102070113D01*
X126805737Y-102403942D02*
X127974137Y-102403942D01*
X158769992Y-130981702D02*
X158603078Y-131037340D01*
X158603078Y-131037340D02*
X158547440Y-131092978D01*
X158547440Y-131092978D02*
X158491802Y-131204254D01*
X158491802Y-131204254D02*
X158491802Y-131371168D01*
X158491802Y-131371168D02*
X158547440Y-131482444D01*
X158547440Y-131482444D02*
X158603078Y-131538083D01*
X158603078Y-131538083D02*
X158714354Y-131593721D01*
X158714354Y-131593721D02*
X159159459Y-131593721D01*
X159159459Y-131593721D02*
X159159459Y-130425321D01*
X159159459Y-130425321D02*
X158769992Y-130425321D01*
X158769992Y-130425321D02*
X158658716Y-130480959D01*
X158658716Y-130480959D02*
X158603078Y-130536597D01*
X158603078Y-130536597D02*
X158547440Y-130647873D01*
X158547440Y-130647873D02*
X158547440Y-130759149D01*
X158547440Y-130759149D02*
X158603078Y-130870425D01*
X158603078Y-130870425D02*
X158658716Y-130926063D01*
X158658716Y-130926063D02*
X158769992Y-130981702D01*
X158769992Y-130981702D02*
X159159459Y-130981702D01*
X158046697Y-131259892D02*
X157490316Y-131259892D01*
X158157973Y-131593721D02*
X157768507Y-130425321D01*
X157768507Y-130425321D02*
X157379040Y-131593721D01*
X156321916Y-131482444D02*
X156377554Y-131538083D01*
X156377554Y-131538083D02*
X156544468Y-131593721D01*
X156544468Y-131593721D02*
X156655744Y-131593721D01*
X156655744Y-131593721D02*
X156822659Y-131538083D01*
X156822659Y-131538083D02*
X156933935Y-131426806D01*
X156933935Y-131426806D02*
X156989573Y-131315530D01*
X156989573Y-131315530D02*
X157045211Y-131092978D01*
X157045211Y-131092978D02*
X157045211Y-130926063D01*
X157045211Y-130926063D02*
X156989573Y-130703511D01*
X156989573Y-130703511D02*
X156933935Y-130592235D01*
X156933935Y-130592235D02*
X156822659Y-130480959D01*
X156822659Y-130480959D02*
X156655744Y-130425321D01*
X156655744Y-130425321D02*
X156544468Y-130425321D01*
X156544468Y-130425321D02*
X156377554Y-130480959D01*
X156377554Y-130480959D02*
X156321916Y-130536597D01*
X155821173Y-131593721D02*
X155821173Y-130425321D01*
X155153516Y-131593721D02*
X155654259Y-130926063D01*
X155153516Y-130425321D02*
X155821173Y-131092978D01*
X158979992Y-77761702D02*
X159369459Y-77761702D01*
X159369459Y-78373721D02*
X159369459Y-77205321D01*
X159369459Y-77205321D02*
X158813078Y-77205321D01*
X157700316Y-78373721D02*
X158089783Y-77817340D01*
X158367973Y-78373721D02*
X158367973Y-77205321D01*
X158367973Y-77205321D02*
X157922868Y-77205321D01*
X157922868Y-77205321D02*
X157811592Y-77260959D01*
X157811592Y-77260959D02*
X157755954Y-77316597D01*
X157755954Y-77316597D02*
X157700316Y-77427873D01*
X157700316Y-77427873D02*
X157700316Y-77594787D01*
X157700316Y-77594787D02*
X157755954Y-77706063D01*
X157755954Y-77706063D02*
X157811592Y-77761702D01*
X157811592Y-77761702D02*
X157922868Y-77817340D01*
X157922868Y-77817340D02*
X158367973Y-77817340D01*
X156977021Y-77205321D02*
X156754468Y-77205321D01*
X156754468Y-77205321D02*
X156643192Y-77260959D01*
X156643192Y-77260959D02*
X156531916Y-77372235D01*
X156531916Y-77372235D02*
X156476278Y-77594787D01*
X156476278Y-77594787D02*
X156476278Y-77984254D01*
X156476278Y-77984254D02*
X156531916Y-78206806D01*
X156531916Y-78206806D02*
X156643192Y-78318083D01*
X156643192Y-78318083D02*
X156754468Y-78373721D01*
X156754468Y-78373721D02*
X156977021Y-78373721D01*
X156977021Y-78373721D02*
X157088297Y-78318083D01*
X157088297Y-78318083D02*
X157199573Y-78206806D01*
X157199573Y-78206806D02*
X157255211Y-77984254D01*
X157255211Y-77984254D02*
X157255211Y-77594787D01*
X157255211Y-77594787D02*
X157199573Y-77372235D01*
X157199573Y-77372235D02*
X157088297Y-77260959D01*
X157088297Y-77260959D02*
X156977021Y-77205321D01*
X155975535Y-78373721D02*
X155975535Y-77205321D01*
X155975535Y-77205321D02*
X155307878Y-78373721D01*
X155307878Y-78373721D02*
X155307878Y-77205321D01*
X154918411Y-77205321D02*
X154250754Y-77205321D01*
X154584583Y-78373721D02*
X154584583Y-77205321D01*
X169755737Y-105828933D02*
X169755737Y-106385314D01*
X169755737Y-106385314D02*
X170924137Y-106385314D01*
X170367756Y-105439466D02*
X170367756Y-105049999D01*
X169755737Y-104883085D02*
X169755737Y-105439466D01*
X169755737Y-105439466D02*
X170924137Y-105439466D01*
X170924137Y-105439466D02*
X170924137Y-104883085D01*
X170367756Y-103992875D02*
X170367756Y-104382342D01*
X169755737Y-104382342D02*
X170924137Y-104382342D01*
X170924137Y-104382342D02*
X170924137Y-103825961D01*
X170924137Y-103547770D02*
X170924137Y-102880113D01*
X169755737Y-103213942D02*
X170924137Y-103213942D01*
D11*
X151760912Y-106618911D02*
X151760912Y-106058079D01*
X151760912Y-106058079D02*
X151573968Y-106458673D01*
X151573968Y-106458673D02*
X151387024Y-106058079D01*
X151387024Y-106058079D02*
X151387024Y-106618911D01*
X151119961Y-106058079D02*
X151119961Y-106512086D01*
X151119961Y-106512086D02*
X151093255Y-106565498D01*
X151093255Y-106565498D02*
X151066549Y-106592205D01*
X151066549Y-106592205D02*
X151013136Y-106618911D01*
X151013136Y-106618911D02*
X150906311Y-106618911D01*
X150906311Y-106618911D02*
X150852898Y-106592205D01*
X150852898Y-106592205D02*
X150826192Y-106565498D01*
X150826192Y-106565498D02*
X150799486Y-106512086D01*
X150799486Y-106512086D02*
X150799486Y-106058079D01*
X150585836Y-106058079D02*
X150211948Y-106618911D01*
X150211948Y-106058079D02*
X150585836Y-106618911D01*
X144523503Y-106058079D02*
X144336559Y-106618911D01*
X144336559Y-106618911D02*
X144149615Y-106058079D01*
X143642196Y-106565498D02*
X143668902Y-106592205D01*
X143668902Y-106592205D02*
X143749021Y-106618911D01*
X143749021Y-106618911D02*
X143802433Y-106618911D01*
X143802433Y-106618911D02*
X143882552Y-106592205D01*
X143882552Y-106592205D02*
X143935965Y-106538792D01*
X143935965Y-106538792D02*
X143962671Y-106485379D01*
X143962671Y-106485379D02*
X143989377Y-106378554D01*
X143989377Y-106378554D02*
X143989377Y-106298435D01*
X143989377Y-106298435D02*
X143962671Y-106191610D01*
X143962671Y-106191610D02*
X143935965Y-106138198D01*
X143935965Y-106138198D02*
X143882552Y-106084785D01*
X143882552Y-106084785D02*
X143802433Y-106058079D01*
X143802433Y-106058079D02*
X143749021Y-106058079D01*
X143749021Y-106058079D02*
X143668902Y-106084785D01*
X143668902Y-106084785D02*
X143642196Y-106111491D01*
X143081364Y-106565498D02*
X143108070Y-106592205D01*
X143108070Y-106592205D02*
X143188189Y-106618911D01*
X143188189Y-106618911D02*
X143241601Y-106618911D01*
X143241601Y-106618911D02*
X143321720Y-106592205D01*
X143321720Y-106592205D02*
X143375133Y-106538792D01*
X143375133Y-106538792D02*
X143401839Y-106485379D01*
X143401839Y-106485379D02*
X143428545Y-106378554D01*
X143428545Y-106378554D02*
X143428545Y-106298435D01*
X143428545Y-106298435D02*
X143401839Y-106191610D01*
X143401839Y-106191610D02*
X143375133Y-106138198D01*
X143375133Y-106138198D02*
X143321720Y-106084785D01*
X143321720Y-106084785D02*
X143241601Y-106058079D01*
X143241601Y-106058079D02*
X143188189Y-106058079D01*
X143188189Y-106058079D02*
X143108070Y-106084785D01*
X143108070Y-106084785D02*
X143081364Y-106111491D01*
D13*
X135593695Y-101054057D02*
X135593695Y-102723200D01*
X136595181Y-100720228D02*
X133089981Y-101888628D01*
X133089981Y-101888628D02*
X136595181Y-103057028D01*
X136595181Y-104225428D02*
X133089981Y-104225428D01*
X133089981Y-104225428D02*
X136595181Y-106228399D01*
X136595181Y-106228399D02*
X133089981Y-106228399D01*
X133089981Y-107396799D02*
X133089981Y-109399771D01*
X136595181Y-108398285D02*
X133089981Y-108398285D01*
D10*
X171140467Y-85500741D02*
X170857204Y-85217478D01*
X170503125Y-85854820D02*
X170998836Y-85359109D01*
X169960205Y-85217478D02*
X169960205Y-85264688D01*
X169960205Y-85264688D02*
X170007415Y-85359109D01*
X170007415Y-85359109D02*
X170054626Y-85406320D01*
X170054626Y-85406320D02*
X170149047Y-85453530D01*
X170149047Y-85453530D02*
X170243468Y-85453530D01*
X170243468Y-85453530D02*
X170314283Y-85429925D01*
X170314283Y-85429925D02*
X170432310Y-85359109D01*
X170432310Y-85359109D02*
X170503125Y-85288294D01*
X170503125Y-85288294D02*
X170573941Y-85170267D01*
X170573941Y-85170267D02*
X170597546Y-85099452D01*
X170597546Y-85099452D02*
X170597546Y-85005031D01*
X170597546Y-85005031D02*
X170550336Y-84910610D01*
X170550336Y-84910610D02*
X170503125Y-84863399D01*
X170503125Y-84863399D02*
X170408704Y-84816189D01*
X170408704Y-84816189D02*
X170361494Y-84816189D01*
X169417284Y-84768978D02*
X169818573Y-84698162D01*
X169700547Y-85052241D02*
X170196257Y-84556531D01*
X170196257Y-84556531D02*
X170007415Y-84367689D01*
X170007415Y-84367689D02*
X169936599Y-84344084D01*
X169936599Y-84344084D02*
X169889389Y-84344084D01*
X169889389Y-84344084D02*
X169818573Y-84367689D01*
X169818573Y-84367689D02*
X169747757Y-84438505D01*
X169747757Y-84438505D02*
X169724152Y-84509320D01*
X169724152Y-84509320D02*
X169724152Y-84556531D01*
X169724152Y-84556531D02*
X169747757Y-84627347D01*
X169747757Y-84627347D02*
X169936599Y-84816189D01*
X169771363Y-84131637D02*
X169488100Y-83848374D01*
X169134021Y-84485715D02*
X169629731Y-83990005D01*
X169086810Y-83447084D02*
X169322863Y-83683137D01*
X169322863Y-83683137D02*
X169110416Y-83942794D01*
X169110416Y-83942794D02*
X169110416Y-83895584D01*
X169110416Y-83895584D02*
X169086810Y-83824768D01*
X169086810Y-83824768D02*
X168968784Y-83706742D01*
X168968784Y-83706742D02*
X168897968Y-83683137D01*
X168897968Y-83683137D02*
X168850758Y-83683137D01*
X168850758Y-83683137D02*
X168779942Y-83706742D01*
X168779942Y-83706742D02*
X168661916Y-83824768D01*
X168661916Y-83824768D02*
X168638311Y-83895584D01*
X168638311Y-83895584D02*
X168638311Y-83942794D01*
X168638311Y-83942794D02*
X168661916Y-84013610D01*
X168661916Y-84013610D02*
X168779942Y-84131636D01*
X168779942Y-84131636D02*
X168850758Y-84155242D01*
X168850758Y-84155242D02*
X168897968Y-84155242D01*
X168756337Y-83116611D02*
X168709127Y-83069400D01*
X168709127Y-83069400D02*
X168638311Y-83045795D01*
X168638311Y-83045795D02*
X168591100Y-83045795D01*
X168591100Y-83045795D02*
X168520285Y-83069400D01*
X168520285Y-83069400D02*
X168402258Y-83140216D01*
X168402258Y-83140216D02*
X168284232Y-83258242D01*
X168284232Y-83258242D02*
X168213416Y-83376269D01*
X168213416Y-83376269D02*
X168189811Y-83447084D01*
X168189811Y-83447084D02*
X168189811Y-83494295D01*
X168189811Y-83494295D02*
X168213416Y-83565111D01*
X168213416Y-83565111D02*
X168260627Y-83612321D01*
X168260627Y-83612321D02*
X168331443Y-83635926D01*
X168331443Y-83635926D02*
X168378653Y-83635926D01*
X168378653Y-83635926D02*
X168449469Y-83612321D01*
X168449469Y-83612321D02*
X168567495Y-83541505D01*
X168567495Y-83541505D02*
X168685521Y-83423479D01*
X168685521Y-83423479D02*
X168756337Y-83305453D01*
X168756337Y-83305453D02*
X168779942Y-83234637D01*
X168779942Y-83234637D02*
X168779942Y-83187427D01*
X168779942Y-83187427D02*
X168756337Y-83116611D01*
X168284232Y-82644506D02*
X168237022Y-82597296D01*
X168237022Y-82597296D02*
X168166206Y-82573690D01*
X168166206Y-82573690D02*
X168118996Y-82573690D01*
X168118996Y-82573690D02*
X168048180Y-82597296D01*
X168048180Y-82597296D02*
X167930154Y-82668111D01*
X167930154Y-82668111D02*
X167812127Y-82786138D01*
X167812127Y-82786138D02*
X167741312Y-82904164D01*
X167741312Y-82904164D02*
X167717706Y-82974980D01*
X167717706Y-82974980D02*
X167717706Y-83022190D01*
X167717706Y-83022190D02*
X167741312Y-83093006D01*
X167741312Y-83093006D02*
X167788522Y-83140216D01*
X167788522Y-83140216D02*
X167859338Y-83163821D01*
X167859338Y-83163821D02*
X167906548Y-83163821D01*
X167906548Y-83163821D02*
X167977364Y-83140216D01*
X167977364Y-83140216D02*
X168095390Y-83069401D01*
X168095390Y-83069401D02*
X168213417Y-82951374D01*
X168213417Y-82951374D02*
X168284232Y-82833348D01*
X168284232Y-82833348D02*
X168307838Y-82762532D01*
X168307838Y-82762532D02*
X168307838Y-82715322D01*
X168307838Y-82715322D02*
X168284232Y-82644506D01*
X167812127Y-82172401D02*
X167764917Y-82125191D01*
X167764917Y-82125191D02*
X167694101Y-82101586D01*
X167694101Y-82101586D02*
X167646891Y-82101586D01*
X167646891Y-82101586D02*
X167576075Y-82125191D01*
X167576075Y-82125191D02*
X167458049Y-82196007D01*
X167458049Y-82196007D02*
X167340023Y-82314033D01*
X167340023Y-82314033D02*
X167269207Y-82432059D01*
X167269207Y-82432059D02*
X167245602Y-82502875D01*
X167245602Y-82502875D02*
X167245602Y-82550085D01*
X167245602Y-82550085D02*
X167269207Y-82620901D01*
X167269207Y-82620901D02*
X167316417Y-82668111D01*
X167316417Y-82668111D02*
X167387233Y-82691717D01*
X167387233Y-82691717D02*
X167434444Y-82691717D01*
X167434444Y-82691717D02*
X167505259Y-82668111D01*
X167505259Y-82668111D02*
X167623286Y-82597296D01*
X167623286Y-82597296D02*
X167741312Y-82479269D01*
X167741312Y-82479269D02*
X167812127Y-82361243D01*
X167812127Y-82361243D02*
X167835733Y-82290428D01*
X167835733Y-82290428D02*
X167835733Y-82243217D01*
X167835733Y-82243217D02*
X167812127Y-82172401D01*
X129183238Y-82116019D02*
X128899975Y-82399282D01*
X129537317Y-82753361D02*
X129041606Y-82257650D01*
X128899975Y-83296281D02*
X128947185Y-83296281D01*
X128947185Y-83296281D02*
X129041606Y-83249071D01*
X129041606Y-83249071D02*
X129088817Y-83201860D01*
X129088817Y-83201860D02*
X129136027Y-83107439D01*
X129136027Y-83107439D02*
X129136027Y-83013018D01*
X129136027Y-83013018D02*
X129112422Y-82942203D01*
X129112422Y-82942203D02*
X129041606Y-82824176D01*
X129041606Y-82824176D02*
X128970791Y-82753361D01*
X128970791Y-82753361D02*
X128852764Y-82682545D01*
X128852764Y-82682545D02*
X128781949Y-82658940D01*
X128781949Y-82658940D02*
X128687528Y-82658940D01*
X128687528Y-82658940D02*
X128593107Y-82706150D01*
X128593107Y-82706150D02*
X128545896Y-82753361D01*
X128545896Y-82753361D02*
X128498686Y-82847782D01*
X128498686Y-82847782D02*
X128498686Y-82894992D01*
X128451475Y-83839202D02*
X128380659Y-83437913D01*
X128734738Y-83555939D02*
X128239028Y-83060229D01*
X128239028Y-83060229D02*
X128050186Y-83249071D01*
X128050186Y-83249071D02*
X128026581Y-83319887D01*
X128026581Y-83319887D02*
X128026581Y-83367097D01*
X128026581Y-83367097D02*
X128050186Y-83437913D01*
X128050186Y-83437913D02*
X128121002Y-83508729D01*
X128121002Y-83508729D02*
X128191817Y-83532334D01*
X128191817Y-83532334D02*
X128239028Y-83532334D01*
X128239028Y-83532334D02*
X128309844Y-83508729D01*
X128309844Y-83508729D02*
X128498686Y-83319887D01*
X127814134Y-83485123D02*
X127530871Y-83768386D01*
X128168212Y-84122465D02*
X127672502Y-83626755D01*
X127129581Y-84169676D02*
X127365634Y-83933623D01*
X127365634Y-83933623D02*
X127625291Y-84146070D01*
X127625291Y-84146070D02*
X127578081Y-84146070D01*
X127578081Y-84146070D02*
X127507265Y-84169676D01*
X127507265Y-84169676D02*
X127389239Y-84287702D01*
X127389239Y-84287702D02*
X127365634Y-84358518D01*
X127365634Y-84358518D02*
X127365634Y-84405728D01*
X127365634Y-84405728D02*
X127389239Y-84476544D01*
X127389239Y-84476544D02*
X127507265Y-84594570D01*
X127507265Y-84594570D02*
X127578081Y-84618175D01*
X127578081Y-84618175D02*
X127625291Y-84618175D01*
X127625291Y-84618175D02*
X127696107Y-84594570D01*
X127696107Y-84594570D02*
X127814133Y-84476544D01*
X127814133Y-84476544D02*
X127837739Y-84405728D01*
X127837739Y-84405728D02*
X127837739Y-84358518D01*
X126799108Y-84500149D02*
X126751897Y-84547359D01*
X126751897Y-84547359D02*
X126728292Y-84618175D01*
X126728292Y-84618175D02*
X126728292Y-84665386D01*
X126728292Y-84665386D02*
X126751897Y-84736201D01*
X126751897Y-84736201D02*
X126822713Y-84854228D01*
X126822713Y-84854228D02*
X126940739Y-84972254D01*
X126940739Y-84972254D02*
X127058766Y-85043070D01*
X127058766Y-85043070D02*
X127129581Y-85066675D01*
X127129581Y-85066675D02*
X127176792Y-85066675D01*
X127176792Y-85066675D02*
X127247608Y-85043070D01*
X127247608Y-85043070D02*
X127294818Y-84995859D01*
X127294818Y-84995859D02*
X127318423Y-84925043D01*
X127318423Y-84925043D02*
X127318423Y-84877833D01*
X127318423Y-84877833D02*
X127294818Y-84807017D01*
X127294818Y-84807017D02*
X127224002Y-84688991D01*
X127224002Y-84688991D02*
X127105976Y-84570965D01*
X127105976Y-84570965D02*
X126987950Y-84500149D01*
X126987950Y-84500149D02*
X126917134Y-84476544D01*
X126917134Y-84476544D02*
X126869924Y-84476544D01*
X126869924Y-84476544D02*
X126799108Y-84500149D01*
X126327003Y-84972254D02*
X126279793Y-85019464D01*
X126279793Y-85019464D02*
X126256187Y-85090280D01*
X126256187Y-85090280D02*
X126256187Y-85137490D01*
X126256187Y-85137490D02*
X126279793Y-85208306D01*
X126279793Y-85208306D02*
X126350608Y-85326332D01*
X126350608Y-85326332D02*
X126468635Y-85444359D01*
X126468635Y-85444359D02*
X126586661Y-85515174D01*
X126586661Y-85515174D02*
X126657477Y-85538780D01*
X126657477Y-85538780D02*
X126704687Y-85538780D01*
X126704687Y-85538780D02*
X126775503Y-85515174D01*
X126775503Y-85515174D02*
X126822713Y-85467964D01*
X126822713Y-85467964D02*
X126846318Y-85397148D01*
X126846318Y-85397148D02*
X126846318Y-85349938D01*
X126846318Y-85349938D02*
X126822713Y-85279122D01*
X126822713Y-85279122D02*
X126751898Y-85161096D01*
X126751898Y-85161096D02*
X126633871Y-85043069D01*
X126633871Y-85043069D02*
X126515845Y-84972254D01*
X126515845Y-84972254D02*
X126445029Y-84948648D01*
X126445029Y-84948648D02*
X126397819Y-84948648D01*
X126397819Y-84948648D02*
X126327003Y-84972254D01*
X125854898Y-85444359D02*
X125807688Y-85491569D01*
X125807688Y-85491569D02*
X125784083Y-85562385D01*
X125784083Y-85562385D02*
X125784083Y-85609595D01*
X125784083Y-85609595D02*
X125807688Y-85680411D01*
X125807688Y-85680411D02*
X125878504Y-85798437D01*
X125878504Y-85798437D02*
X125996530Y-85916463D01*
X125996530Y-85916463D02*
X126114556Y-85987279D01*
X126114556Y-85987279D02*
X126185372Y-86010884D01*
X126185372Y-86010884D02*
X126232582Y-86010884D01*
X126232582Y-86010884D02*
X126303398Y-85987279D01*
X126303398Y-85987279D02*
X126350608Y-85940069D01*
X126350608Y-85940069D02*
X126374214Y-85869253D01*
X126374214Y-85869253D02*
X126374214Y-85822042D01*
X126374214Y-85822042D02*
X126350608Y-85751227D01*
X126350608Y-85751227D02*
X126279793Y-85633200D01*
X126279793Y-85633200D02*
X126161766Y-85515174D01*
X126161766Y-85515174D02*
X126043740Y-85444359D01*
X126043740Y-85444359D02*
X125972925Y-85420753D01*
X125972925Y-85420753D02*
X125925714Y-85420753D01*
X125925714Y-85420753D02*
X125854898Y-85444359D01*
D14*
X171441447Y-118661265D02*
X170195154Y-118661265D01*
X170818300Y-119284412D02*
X170818300Y-118038119D01*
D11*
X149382794Y-115430291D02*
X149302676Y-115456997D01*
X149302676Y-115456997D02*
X149169144Y-115456997D01*
X149169144Y-115456997D02*
X149115732Y-115430291D01*
X149115732Y-115430291D02*
X149089025Y-115403584D01*
X149089025Y-115403584D02*
X149062319Y-115350172D01*
X149062319Y-115350172D02*
X149062319Y-115296759D01*
X149062319Y-115296759D02*
X149089025Y-115243347D01*
X149089025Y-115243347D02*
X149115732Y-115216640D01*
X149115732Y-115216640D02*
X149169144Y-115189934D01*
X149169144Y-115189934D02*
X149275969Y-115163228D01*
X149275969Y-115163228D02*
X149329382Y-115136521D01*
X149329382Y-115136521D02*
X149356088Y-115109815D01*
X149356088Y-115109815D02*
X149382794Y-115056403D01*
X149382794Y-115056403D02*
X149382794Y-115002990D01*
X149382794Y-115002990D02*
X149356088Y-114949577D01*
X149356088Y-114949577D02*
X149329382Y-114922871D01*
X149329382Y-114922871D02*
X149275969Y-114896165D01*
X149275969Y-114896165D02*
X149142438Y-114896165D01*
X149142438Y-114896165D02*
X149062319Y-114922871D01*
X148501487Y-115403584D02*
X148528193Y-115430291D01*
X148528193Y-115430291D02*
X148608312Y-115456997D01*
X148608312Y-115456997D02*
X148661724Y-115456997D01*
X148661724Y-115456997D02*
X148741843Y-115430291D01*
X148741843Y-115430291D02*
X148795256Y-115376878D01*
X148795256Y-115376878D02*
X148821962Y-115323465D01*
X148821962Y-115323465D02*
X148848668Y-115216640D01*
X148848668Y-115216640D02*
X148848668Y-115136521D01*
X148848668Y-115136521D02*
X148821962Y-115029696D01*
X148821962Y-115029696D02*
X148795256Y-114976284D01*
X148795256Y-114976284D02*
X148741843Y-114922871D01*
X148741843Y-114922871D02*
X148661724Y-114896165D01*
X148661724Y-114896165D02*
X148608312Y-114896165D01*
X148608312Y-114896165D02*
X148528193Y-114922871D01*
X148528193Y-114922871D02*
X148501487Y-114949577D01*
X147994067Y-115456997D02*
X148261130Y-115456997D01*
X148261130Y-115456997D02*
X148261130Y-114896165D01*
X145697324Y-115430291D02*
X145617206Y-115456997D01*
X145617206Y-115456997D02*
X145483674Y-115456997D01*
X145483674Y-115456997D02*
X145430262Y-115430291D01*
X145430262Y-115430291D02*
X145403555Y-115403584D01*
X145403555Y-115403584D02*
X145376849Y-115350172D01*
X145376849Y-115350172D02*
X145376849Y-115296759D01*
X145376849Y-115296759D02*
X145403555Y-115243347D01*
X145403555Y-115243347D02*
X145430262Y-115216640D01*
X145430262Y-115216640D02*
X145483674Y-115189934D01*
X145483674Y-115189934D02*
X145590499Y-115163228D01*
X145590499Y-115163228D02*
X145643912Y-115136521D01*
X145643912Y-115136521D02*
X145670618Y-115109815D01*
X145670618Y-115109815D02*
X145697324Y-115056403D01*
X145697324Y-115056403D02*
X145697324Y-115002990D01*
X145697324Y-115002990D02*
X145670618Y-114949577D01*
X145670618Y-114949577D02*
X145643912Y-114922871D01*
X145643912Y-114922871D02*
X145590499Y-114896165D01*
X145590499Y-114896165D02*
X145456968Y-114896165D01*
X145456968Y-114896165D02*
X145376849Y-114922871D01*
X145136492Y-115456997D02*
X145136492Y-114896165D01*
X145136492Y-114896165D02*
X145002961Y-114896165D01*
X145002961Y-114896165D02*
X144922842Y-114922871D01*
X144922842Y-114922871D02*
X144869429Y-114976284D01*
X144869429Y-114976284D02*
X144842723Y-115029696D01*
X144842723Y-115029696D02*
X144816017Y-115136521D01*
X144816017Y-115136521D02*
X144816017Y-115216640D01*
X144816017Y-115216640D02*
X144842723Y-115323465D01*
X144842723Y-115323465D02*
X144869429Y-115376878D01*
X144869429Y-115376878D02*
X144922842Y-115430291D01*
X144922842Y-115430291D02*
X145002961Y-115456997D01*
X145002961Y-115456997D02*
X145136492Y-115456997D01*
X144602366Y-115296759D02*
X144335304Y-115296759D01*
X144655779Y-115456997D02*
X144468835Y-114896165D01*
X144468835Y-114896165D02*
X144281891Y-115456997D01*
X150077160Y-115799073D02*
X149756685Y-115799073D01*
X149916922Y-116359905D02*
X149916922Y-115799073D01*
X149623153Y-115799073D02*
X149249265Y-116359905D01*
X149249265Y-115799073D02*
X149623153Y-116359905D01*
X145724032Y-116359905D02*
X145910976Y-116092842D01*
X146044507Y-116359905D02*
X146044507Y-115799073D01*
X146044507Y-115799073D02*
X145830857Y-115799073D01*
X145830857Y-115799073D02*
X145777444Y-115825779D01*
X145777444Y-115825779D02*
X145750738Y-115852485D01*
X145750738Y-115852485D02*
X145724032Y-115905898D01*
X145724032Y-115905898D02*
X145724032Y-115986017D01*
X145724032Y-115986017D02*
X145750738Y-116039429D01*
X145750738Y-116039429D02*
X145777444Y-116066136D01*
X145777444Y-116066136D02*
X145830857Y-116092842D01*
X145830857Y-116092842D02*
X146044507Y-116092842D01*
X145537088Y-115799073D02*
X145163200Y-116359905D01*
X145163200Y-115799073D02*
X145537088Y-116359905D01*
D10*
X150901052Y-133675426D02*
X150500458Y-133675426D01*
X150700755Y-134376466D02*
X150700755Y-133675426D01*
X149866183Y-134309701D02*
X149899566Y-134343084D01*
X149899566Y-134343084D02*
X149999714Y-134376466D01*
X149999714Y-134376466D02*
X150066480Y-134376466D01*
X150066480Y-134376466D02*
X150166629Y-134343084D01*
X150166629Y-134343084D02*
X150233394Y-134276318D01*
X150233394Y-134276318D02*
X150266777Y-134209552D01*
X150266777Y-134209552D02*
X150300160Y-134076021D01*
X150300160Y-134076021D02*
X150300160Y-133975872D01*
X150300160Y-133975872D02*
X150266777Y-133842341D01*
X150266777Y-133842341D02*
X150233394Y-133775575D01*
X150233394Y-133775575D02*
X150166629Y-133708809D01*
X150166629Y-133708809D02*
X150066480Y-133675426D01*
X150066480Y-133675426D02*
X149999714Y-133675426D01*
X149999714Y-133675426D02*
X149899566Y-133708809D01*
X149899566Y-133708809D02*
X149866183Y-133742192D01*
X149165143Y-134376466D02*
X149398823Y-134042638D01*
X149565737Y-134376466D02*
X149565737Y-133675426D01*
X149565737Y-133675426D02*
X149298674Y-133675426D01*
X149298674Y-133675426D02*
X149231909Y-133708809D01*
X149231909Y-133708809D02*
X149198526Y-133742192D01*
X149198526Y-133742192D02*
X149165143Y-133808958D01*
X149165143Y-133808958D02*
X149165143Y-133909106D01*
X149165143Y-133909106D02*
X149198526Y-133975872D01*
X149198526Y-133975872D02*
X149231909Y-134009255D01*
X149231909Y-134009255D02*
X149298674Y-134042638D01*
X149298674Y-134042638D02*
X149565737Y-134042638D01*
X148964846Y-133675426D02*
X148564252Y-133675426D01*
X148764549Y-134376466D02*
X148764549Y-133675426D01*
X147996743Y-133675426D02*
X148330571Y-133675426D01*
X148330571Y-133675426D02*
X148363954Y-134009255D01*
X148363954Y-134009255D02*
X148330571Y-133975872D01*
X148330571Y-133975872D02*
X148263806Y-133942489D01*
X148263806Y-133942489D02*
X148096891Y-133942489D01*
X148096891Y-133942489D02*
X148030126Y-133975872D01*
X148030126Y-133975872D02*
X147996743Y-134009255D01*
X147996743Y-134009255D02*
X147963360Y-134076021D01*
X147963360Y-134076021D02*
X147963360Y-134242935D01*
X147963360Y-134242935D02*
X147996743Y-134309701D01*
X147996743Y-134309701D02*
X148030126Y-134343084D01*
X148030126Y-134343084D02*
X148096891Y-134376466D01*
X148096891Y-134376466D02*
X148263806Y-134376466D01*
X148263806Y-134376466D02*
X148330571Y-134343084D01*
X148330571Y-134343084D02*
X148363954Y-134309701D01*
X147529383Y-133675426D02*
X147462617Y-133675426D01*
X147462617Y-133675426D02*
X147395851Y-133708809D01*
X147395851Y-133708809D02*
X147362469Y-133742192D01*
X147362469Y-133742192D02*
X147329086Y-133808958D01*
X147329086Y-133808958D02*
X147295703Y-133942489D01*
X147295703Y-133942489D02*
X147295703Y-134109404D01*
X147295703Y-134109404D02*
X147329086Y-134242935D01*
X147329086Y-134242935D02*
X147362469Y-134309701D01*
X147362469Y-134309701D02*
X147395851Y-134343084D01*
X147395851Y-134343084D02*
X147462617Y-134376466D01*
X147462617Y-134376466D02*
X147529383Y-134376466D01*
X147529383Y-134376466D02*
X147596149Y-134343084D01*
X147596149Y-134343084D02*
X147629531Y-134309701D01*
X147629531Y-134309701D02*
X147662914Y-134242935D01*
X147662914Y-134242935D02*
X147696297Y-134109404D01*
X147696297Y-134109404D02*
X147696297Y-133942489D01*
X147696297Y-133942489D02*
X147662914Y-133808958D01*
X147662914Y-133808958D02*
X147629531Y-133742192D01*
X147629531Y-133742192D02*
X147596149Y-133708809D01*
X147596149Y-133708809D02*
X147529383Y-133675426D01*
X146861726Y-133675426D02*
X146794960Y-133675426D01*
X146794960Y-133675426D02*
X146728194Y-133708809D01*
X146728194Y-133708809D02*
X146694812Y-133742192D01*
X146694812Y-133742192D02*
X146661429Y-133808958D01*
X146661429Y-133808958D02*
X146628046Y-133942489D01*
X146628046Y-133942489D02*
X146628046Y-134109404D01*
X146628046Y-134109404D02*
X146661429Y-134242935D01*
X146661429Y-134242935D02*
X146694812Y-134309701D01*
X146694812Y-134309701D02*
X146728194Y-134343084D01*
X146728194Y-134343084D02*
X146794960Y-134376466D01*
X146794960Y-134376466D02*
X146861726Y-134376466D01*
X146861726Y-134376466D02*
X146928492Y-134343084D01*
X146928492Y-134343084D02*
X146961874Y-134309701D01*
X146961874Y-134309701D02*
X146995257Y-134242935D01*
X146995257Y-134242935D02*
X147028640Y-134109404D01*
X147028640Y-134109404D02*
X147028640Y-133942489D01*
X147028640Y-133942489D02*
X146995257Y-133808958D01*
X146995257Y-133808958D02*
X146961874Y-133742192D01*
X146961874Y-133742192D02*
X146928492Y-133708809D01*
X146928492Y-133708809D02*
X146861726Y-133675426D01*
X146194069Y-133675426D02*
X146127303Y-133675426D01*
X146127303Y-133675426D02*
X146060537Y-133708809D01*
X146060537Y-133708809D02*
X146027155Y-133742192D01*
X146027155Y-133742192D02*
X145993772Y-133808958D01*
X145993772Y-133808958D02*
X145960389Y-133942489D01*
X145960389Y-133942489D02*
X145960389Y-134109404D01*
X145960389Y-134109404D02*
X145993772Y-134242935D01*
X145993772Y-134242935D02*
X146027155Y-134309701D01*
X146027155Y-134309701D02*
X146060537Y-134343084D01*
X146060537Y-134343084D02*
X146127303Y-134376466D01*
X146127303Y-134376466D02*
X146194069Y-134376466D01*
X146194069Y-134376466D02*
X146260835Y-134343084D01*
X146260835Y-134343084D02*
X146294217Y-134309701D01*
X146294217Y-134309701D02*
X146327600Y-134242935D01*
X146327600Y-134242935D02*
X146360983Y-134109404D01*
X146360983Y-134109404D02*
X146360983Y-133942489D01*
X146360983Y-133942489D02*
X146327600Y-133808958D01*
X146327600Y-133808958D02*
X146294217Y-133742192D01*
X146294217Y-133742192D02*
X146260835Y-133708809D01*
X146260835Y-133708809D02*
X146194069Y-133675426D01*
D13*
X156323485Y-94529981D02*
X154320514Y-94529981D01*
X155321999Y-98035181D02*
X155321999Y-94529981D01*
X153152113Y-96199124D02*
X151983713Y-96199124D01*
X151482970Y-98035181D02*
X153152113Y-98035181D01*
X153152113Y-98035181D02*
X153152113Y-94529981D01*
X153152113Y-94529981D02*
X151482970Y-94529981D01*
X147977771Y-97701352D02*
X148144685Y-97868267D01*
X148144685Y-97868267D02*
X148645428Y-98035181D01*
X148645428Y-98035181D02*
X148979256Y-98035181D01*
X148979256Y-98035181D02*
X149479999Y-97868267D01*
X149479999Y-97868267D02*
X149813828Y-97534438D01*
X149813828Y-97534438D02*
X149980742Y-97200609D01*
X149980742Y-97200609D02*
X150147656Y-96532952D01*
X150147656Y-96532952D02*
X150147656Y-96032209D01*
X150147656Y-96032209D02*
X149980742Y-95364552D01*
X149980742Y-95364552D02*
X149813828Y-95030724D01*
X149813828Y-95030724D02*
X149479999Y-94696895D01*
X149479999Y-94696895D02*
X148979256Y-94529981D01*
X148979256Y-94529981D02*
X148645428Y-94529981D01*
X148645428Y-94529981D02*
X148144685Y-94696895D01*
X148144685Y-94696895D02*
X147977771Y-94863809D01*
X146475542Y-98035181D02*
X146475542Y-94529981D01*
X146475542Y-94529981D02*
X144472571Y-98035181D01*
X144472571Y-98035181D02*
X144472571Y-94529981D01*
X142803428Y-98035181D02*
X142803428Y-94529981D01*
X142803428Y-94529981D02*
X141635028Y-97033695D01*
X141635028Y-97033695D02*
X140466628Y-94529981D01*
X140466628Y-94529981D02*
X140466628Y-98035181D01*
D14*
X173211447Y-118531265D02*
X171965154Y-118531265D01*
D10*
X170409279Y-123829932D02*
X170126016Y-124113194D01*
X170763358Y-124467273D02*
X170267647Y-123971563D01*
X170126016Y-125010194D02*
X170173226Y-125010194D01*
X170173226Y-125010194D02*
X170267647Y-124962983D01*
X170267647Y-124962983D02*
X170314858Y-124915773D01*
X170314858Y-124915773D02*
X170362068Y-124821352D01*
X170362068Y-124821352D02*
X170362068Y-124726931D01*
X170362068Y-124726931D02*
X170338463Y-124656115D01*
X170338463Y-124656115D02*
X170267647Y-124538089D01*
X170267647Y-124538089D02*
X170196832Y-124467273D01*
X170196832Y-124467273D02*
X170078805Y-124396458D01*
X170078805Y-124396458D02*
X170007990Y-124372852D01*
X170007990Y-124372852D02*
X169913569Y-124372852D01*
X169913569Y-124372852D02*
X169819148Y-124420063D01*
X169819148Y-124420063D02*
X169771937Y-124467273D01*
X169771937Y-124467273D02*
X169724727Y-124561694D01*
X169724727Y-124561694D02*
X169724727Y-124608905D01*
X169677516Y-125553115D02*
X169606700Y-125151825D01*
X169960779Y-125269852D02*
X169465069Y-124774141D01*
X169465069Y-124774141D02*
X169276227Y-124962983D01*
X169276227Y-124962983D02*
X169252622Y-125033799D01*
X169252622Y-125033799D02*
X169252622Y-125081010D01*
X169252622Y-125081010D02*
X169276227Y-125151825D01*
X169276227Y-125151825D02*
X169347043Y-125222641D01*
X169347043Y-125222641D02*
X169417858Y-125246246D01*
X169417858Y-125246246D02*
X169465069Y-125246246D01*
X169465069Y-125246246D02*
X169535885Y-125222641D01*
X169535885Y-125222641D02*
X169724727Y-125033799D01*
X169040175Y-125199036D02*
X168756912Y-125482299D01*
X169394253Y-125836378D02*
X168898543Y-125340667D01*
X168355622Y-125883588D02*
X168591675Y-125647536D01*
X168591675Y-125647536D02*
X168851332Y-125859983D01*
X168851332Y-125859983D02*
X168804122Y-125859983D01*
X168804122Y-125859983D02*
X168733306Y-125883588D01*
X168733306Y-125883588D02*
X168615280Y-126001614D01*
X168615280Y-126001614D02*
X168591675Y-126072430D01*
X168591675Y-126072430D02*
X168591675Y-126119641D01*
X168591675Y-126119641D02*
X168615280Y-126190456D01*
X168615280Y-126190456D02*
X168733306Y-126308483D01*
X168733306Y-126308483D02*
X168804122Y-126332088D01*
X168804122Y-126332088D02*
X168851332Y-126332088D01*
X168851332Y-126332088D02*
X168922148Y-126308483D01*
X168922148Y-126308483D02*
X169040174Y-126190456D01*
X169040174Y-126190456D02*
X169063780Y-126119641D01*
X169063780Y-126119641D02*
X169063780Y-126072430D01*
X168025149Y-126214062D02*
X167977938Y-126261272D01*
X167977938Y-126261272D02*
X167954333Y-126332088D01*
X167954333Y-126332088D02*
X167954333Y-126379298D01*
X167954333Y-126379298D02*
X167977938Y-126450114D01*
X167977938Y-126450114D02*
X168048754Y-126568140D01*
X168048754Y-126568140D02*
X168166780Y-126686166D01*
X168166780Y-126686166D02*
X168284807Y-126756982D01*
X168284807Y-126756982D02*
X168355622Y-126780587D01*
X168355622Y-126780587D02*
X168402833Y-126780587D01*
X168402833Y-126780587D02*
X168473649Y-126756982D01*
X168473649Y-126756982D02*
X168520859Y-126709772D01*
X168520859Y-126709772D02*
X168544464Y-126638956D01*
X168544464Y-126638956D02*
X168544464Y-126591745D01*
X168544464Y-126591745D02*
X168520859Y-126520930D01*
X168520859Y-126520930D02*
X168450043Y-126402903D01*
X168450043Y-126402903D02*
X168332017Y-126284877D01*
X168332017Y-126284877D02*
X168213991Y-126214062D01*
X168213991Y-126214062D02*
X168143175Y-126190456D01*
X168143175Y-126190456D02*
X168095965Y-126190456D01*
X168095965Y-126190456D02*
X168025149Y-126214062D01*
X167553044Y-126686166D02*
X167505834Y-126733377D01*
X167505834Y-126733377D02*
X167482228Y-126804193D01*
X167482228Y-126804193D02*
X167482228Y-126851403D01*
X167482228Y-126851403D02*
X167505834Y-126922219D01*
X167505834Y-126922219D02*
X167576649Y-127040245D01*
X167576649Y-127040245D02*
X167694676Y-127158271D01*
X167694676Y-127158271D02*
X167812702Y-127229087D01*
X167812702Y-127229087D02*
X167883518Y-127252692D01*
X167883518Y-127252692D02*
X167930728Y-127252692D01*
X167930728Y-127252692D02*
X168001544Y-127229087D01*
X168001544Y-127229087D02*
X168048754Y-127181876D01*
X168048754Y-127181876D02*
X168072359Y-127111061D01*
X168072359Y-127111061D02*
X168072359Y-127063850D01*
X168072359Y-127063850D02*
X168048754Y-126993034D01*
X168048754Y-126993034D02*
X167977939Y-126875008D01*
X167977939Y-126875008D02*
X167859912Y-126756982D01*
X167859912Y-126756982D02*
X167741886Y-126686166D01*
X167741886Y-126686166D02*
X167671070Y-126662561D01*
X167671070Y-126662561D02*
X167623860Y-126662561D01*
X167623860Y-126662561D02*
X167553044Y-126686166D01*
X167080939Y-127158271D02*
X167033729Y-127205482D01*
X167033729Y-127205482D02*
X167010124Y-127276297D01*
X167010124Y-127276297D02*
X167010124Y-127323508D01*
X167010124Y-127323508D02*
X167033729Y-127394324D01*
X167033729Y-127394324D02*
X167104545Y-127512350D01*
X167104545Y-127512350D02*
X167222571Y-127630376D01*
X167222571Y-127630376D02*
X167340597Y-127701192D01*
X167340597Y-127701192D02*
X167411413Y-127724797D01*
X167411413Y-127724797D02*
X167458623Y-127724797D01*
X167458623Y-127724797D02*
X167529439Y-127701192D01*
X167529439Y-127701192D02*
X167576649Y-127653981D01*
X167576649Y-127653981D02*
X167600255Y-127583166D01*
X167600255Y-127583166D02*
X167600255Y-127535955D01*
X167600255Y-127535955D02*
X167576649Y-127465139D01*
X167576649Y-127465139D02*
X167505834Y-127347113D01*
X167505834Y-127347113D02*
X167387808Y-127229087D01*
X167387808Y-127229087D02*
X167269781Y-127158271D01*
X167269781Y-127158271D02*
X167198966Y-127134666D01*
X167198966Y-127134666D02*
X167151755Y-127134666D01*
X167151755Y-127134666D02*
X167080939Y-127158271D01*
D15*
X145038749Y-122938487D02*
X145038749Y-122590144D01*
X145038749Y-122590144D02*
X144307229Y-122590144D01*
X144655572Y-123182327D02*
X144655572Y-123426167D01*
X145038749Y-123530670D02*
X145038749Y-123182327D01*
X145038749Y-123182327D02*
X144307229Y-123182327D01*
X144307229Y-123182327D02*
X144307229Y-123530670D01*
X145038749Y-123844178D02*
X144307229Y-123844178D01*
X144307229Y-123844178D02*
X144307229Y-124018349D01*
X144307229Y-124018349D02*
X144342063Y-124122852D01*
X144342063Y-124122852D02*
X144411732Y-124192521D01*
X144411732Y-124192521D02*
X144481400Y-124227355D01*
X144481400Y-124227355D02*
X144620737Y-124262189D01*
X144620737Y-124262189D02*
X144725240Y-124262189D01*
X144725240Y-124262189D02*
X144864577Y-124227355D01*
X144864577Y-124227355D02*
X144934246Y-124192521D01*
X144934246Y-124192521D02*
X145003915Y-124122852D01*
X145003915Y-124122852D02*
X145038749Y-124018349D01*
X145038749Y-124018349D02*
X145038749Y-123844178D01*
X145038749Y-124958875D02*
X145038749Y-124540864D01*
X145038749Y-124749869D02*
X144307229Y-124749869D01*
X144307229Y-124749869D02*
X144411732Y-124680201D01*
X144411732Y-124680201D02*
X144481400Y-124610532D01*
X144481400Y-124610532D02*
X144516235Y-124540864D01*
D16*
X122253333Y-108199819D02*
X122253333Y-108914104D01*
X122253333Y-108914104D02*
X122300952Y-109056961D01*
X122300952Y-109056961D02*
X122396190Y-109152200D01*
X122396190Y-109152200D02*
X122539047Y-109199819D01*
X122539047Y-109199819D02*
X122634285Y-109199819D01*
X121872380Y-108199819D02*
X121253333Y-108199819D01*
X121253333Y-108199819D02*
X121586666Y-108580771D01*
X121586666Y-108580771D02*
X121443809Y-108580771D01*
X121443809Y-108580771D02*
X121348571Y-108628390D01*
X121348571Y-108628390D02*
X121300952Y-108676009D01*
X121300952Y-108676009D02*
X121253333Y-108771247D01*
X121253333Y-108771247D02*
X121253333Y-109009342D01*
X121253333Y-109009342D02*
X121300952Y-109104580D01*
X121300952Y-109104580D02*
X121348571Y-109152200D01*
X121348571Y-109152200D02*
X121443809Y-109199819D01*
X121443809Y-109199819D02*
X121729523Y-109199819D01*
X121729523Y-109199819D02*
X121824761Y-109152200D01*
X121824761Y-109152200D02*
X121872380Y-109104580D01*
D12*
X172179024Y-121255128D02*
X173005208Y-120428945D01*
X173005208Y-120428945D02*
X172690471Y-120114208D01*
X172690471Y-120114208D02*
X172572445Y-120074866D01*
X172572445Y-120074866D02*
X172493761Y-120074866D01*
X172493761Y-120074866D02*
X172375735Y-120114208D01*
X172375735Y-120114208D02*
X172257708Y-120232234D01*
X172257708Y-120232234D02*
X172218366Y-120350261D01*
X172218366Y-120350261D02*
X172218366Y-120428945D01*
X172218366Y-120428945D02*
X172257708Y-120546971D01*
X172257708Y-120546971D02*
X172572445Y-120861707D01*
X172257708Y-119681445D02*
X171746261Y-119169998D01*
X171746261Y-119169998D02*
X171706919Y-119760129D01*
X171706919Y-119760129D02*
X171588893Y-119642103D01*
X171588893Y-119642103D02*
X171470867Y-119602761D01*
X171470867Y-119602761D02*
X171392183Y-119602761D01*
X171392183Y-119602761D02*
X171274156Y-119642103D01*
X171274156Y-119642103D02*
X171077446Y-119838814D01*
X171077446Y-119838814D02*
X171038104Y-119956840D01*
X171038104Y-119956840D02*
X171038104Y-120035524D01*
X171038104Y-120035524D02*
X171077446Y-120153550D01*
X171077446Y-120153550D02*
X171313499Y-120389603D01*
X171313499Y-120389603D02*
X171431525Y-120428945D01*
X171431525Y-120428945D02*
X171510209Y-120428945D01*
X165041003Y-128629201D02*
X164568898Y-128157096D01*
X163978767Y-129219332D02*
X164804951Y-128393148D01*
X163073899Y-128157096D02*
X163073899Y-128235780D01*
X163073899Y-128235780D02*
X163152583Y-128393148D01*
X163152583Y-128393148D02*
X163231267Y-128471832D01*
X163231267Y-128471832D02*
X163388636Y-128550516D01*
X163388636Y-128550516D02*
X163546004Y-128550516D01*
X163546004Y-128550516D02*
X163664030Y-128511174D01*
X163664030Y-128511174D02*
X163860740Y-128393148D01*
X163860740Y-128393148D02*
X163978767Y-128275122D01*
X163978767Y-128275122D02*
X164096793Y-128078411D01*
X164096793Y-128078411D02*
X164136135Y-127960385D01*
X164136135Y-127960385D02*
X164136135Y-127803017D01*
X164136135Y-127803017D02*
X164057451Y-127645649D01*
X164057451Y-127645649D02*
X163978767Y-127566965D01*
X163978767Y-127566965D02*
X163821398Y-127488280D01*
X163821398Y-127488280D02*
X163742714Y-127488280D01*
X162169031Y-127409596D02*
X162837846Y-127291570D01*
X162641136Y-127881701D02*
X163467320Y-127055518D01*
X163467320Y-127055518D02*
X163152583Y-126740781D01*
X163152583Y-126740781D02*
X163034557Y-126701439D01*
X163034557Y-126701439D02*
X162955873Y-126701439D01*
X162955873Y-126701439D02*
X162837846Y-126740781D01*
X162837846Y-126740781D02*
X162719820Y-126858807D01*
X162719820Y-126858807D02*
X162680478Y-126976833D01*
X162680478Y-126976833D02*
X162680478Y-127055518D01*
X162680478Y-127055518D02*
X162719820Y-127173544D01*
X162719820Y-127173544D02*
X163034557Y-127488280D01*
X162759162Y-126347360D02*
X162287057Y-125875255D01*
X161696926Y-126937491D02*
X162523110Y-126111308D01*
X161618242Y-125206440D02*
X162011663Y-125599860D01*
X162011663Y-125599860D02*
X161657584Y-126032623D01*
X161657584Y-126032623D02*
X161657584Y-125953939D01*
X161657584Y-125953939D02*
X161618242Y-125835913D01*
X161618242Y-125835913D02*
X161421531Y-125639203D01*
X161421531Y-125639203D02*
X161303505Y-125599860D01*
X161303505Y-125599860D02*
X161224821Y-125599860D01*
X161224821Y-125599860D02*
X161106795Y-125639203D01*
X161106795Y-125639203D02*
X160910084Y-125835913D01*
X160910084Y-125835913D02*
X160870742Y-125953939D01*
X160870742Y-125953939D02*
X160870742Y-126032623D01*
X160870742Y-126032623D02*
X160910084Y-126150650D01*
X160910084Y-126150650D02*
X161106795Y-126347360D01*
X161106795Y-126347360D02*
X161224821Y-126386702D01*
X161224821Y-126386702D02*
X161303505Y-126386702D01*
X161067453Y-124655651D02*
X160988769Y-124576966D01*
X160988769Y-124576966D02*
X160870742Y-124537624D01*
X160870742Y-124537624D02*
X160792058Y-124537624D01*
X160792058Y-124537624D02*
X160674032Y-124576966D01*
X160674032Y-124576966D02*
X160477322Y-124694993D01*
X160477322Y-124694993D02*
X160280611Y-124891703D01*
X160280611Y-124891703D02*
X160162585Y-125088413D01*
X160162585Y-125088413D02*
X160123243Y-125206440D01*
X160123243Y-125206440D02*
X160123243Y-125285124D01*
X160123243Y-125285124D02*
X160162585Y-125403150D01*
X160162585Y-125403150D02*
X160241269Y-125481834D01*
X160241269Y-125481834D02*
X160359295Y-125521176D01*
X160359295Y-125521176D02*
X160437980Y-125521176D01*
X160437980Y-125521176D02*
X160556006Y-125481834D01*
X160556006Y-125481834D02*
X160752716Y-125363808D01*
X160752716Y-125363808D02*
X160949426Y-125167098D01*
X160949426Y-125167098D02*
X161067453Y-124970387D01*
X161067453Y-124970387D02*
X161106795Y-124852361D01*
X161106795Y-124852361D02*
X161106795Y-124773677D01*
X161106795Y-124773677D02*
X161067453Y-124655651D01*
X160280611Y-123868809D02*
X160201927Y-123790125D01*
X160201927Y-123790125D02*
X160083901Y-123750783D01*
X160083901Y-123750783D02*
X160005217Y-123750783D01*
X160005217Y-123750783D02*
X159887190Y-123790125D01*
X159887190Y-123790125D02*
X159690480Y-123908151D01*
X159690480Y-123908151D02*
X159493770Y-124104862D01*
X159493770Y-124104862D02*
X159375743Y-124301572D01*
X159375743Y-124301572D02*
X159336401Y-124419598D01*
X159336401Y-124419598D02*
X159336401Y-124498282D01*
X159336401Y-124498282D02*
X159375743Y-124616308D01*
X159375743Y-124616308D02*
X159454428Y-124694993D01*
X159454428Y-124694993D02*
X159572454Y-124734335D01*
X159572454Y-124734335D02*
X159651138Y-124734335D01*
X159651138Y-124734335D02*
X159769164Y-124694993D01*
X159769164Y-124694993D02*
X159965875Y-124576966D01*
X159965875Y-124576966D02*
X160162585Y-124380256D01*
X160162585Y-124380256D02*
X160280611Y-124183546D01*
X160280611Y-124183546D02*
X160319953Y-124065519D01*
X160319953Y-124065519D02*
X160319953Y-123986835D01*
X160319953Y-123986835D02*
X160280611Y-123868809D01*
X159493770Y-123081968D02*
X159415085Y-123003283D01*
X159415085Y-123003283D02*
X159297059Y-122963941D01*
X159297059Y-122963941D02*
X159218375Y-122963941D01*
X159218375Y-122963941D02*
X159100349Y-123003283D01*
X159100349Y-123003283D02*
X158903638Y-123121310D01*
X158903638Y-123121310D02*
X158706928Y-123318020D01*
X158706928Y-123318020D02*
X158588902Y-123514730D01*
X158588902Y-123514730D02*
X158549560Y-123632757D01*
X158549560Y-123632757D02*
X158549560Y-123711441D01*
X158549560Y-123711441D02*
X158588902Y-123829467D01*
X158588902Y-123829467D02*
X158667586Y-123908151D01*
X158667586Y-123908151D02*
X158785612Y-123947493D01*
X158785612Y-123947493D02*
X158864296Y-123947493D01*
X158864296Y-123947493D02*
X158982323Y-123908151D01*
X158982323Y-123908151D02*
X159179033Y-123790125D01*
X159179033Y-123790125D02*
X159375743Y-123593414D01*
X159375743Y-123593414D02*
X159493770Y-123396704D01*
X159493770Y-123396704D02*
X159533112Y-123278678D01*
X159533112Y-123278678D02*
X159533112Y-123199994D01*
X159533112Y-123199994D02*
X159493770Y-123081968D01*
D17*
X132255738Y-119873428D02*
X132638416Y-119805897D01*
X132525864Y-120143554D02*
X132998585Y-119670834D01*
X132998585Y-119670834D02*
X132818500Y-119490750D01*
X132818500Y-119490750D02*
X132750969Y-119468239D01*
X132750969Y-119468239D02*
X132705948Y-119468239D01*
X132705948Y-119468239D02*
X132638416Y-119490750D01*
X132638416Y-119490750D02*
X132570885Y-119558281D01*
X132570885Y-119558281D02*
X132548374Y-119625813D01*
X132548374Y-119625813D02*
X132548374Y-119670834D01*
X132548374Y-119670834D02*
X132570885Y-119738365D01*
X132570885Y-119738365D02*
X132750969Y-119918449D01*
X132300759Y-118973008D02*
X132525864Y-119198113D01*
X132525864Y-119198113D02*
X132323269Y-119445729D01*
X132323269Y-119445729D02*
X132323269Y-119400708D01*
X132323269Y-119400708D02*
X132300759Y-119333176D01*
X132300759Y-119333176D02*
X132188206Y-119220624D01*
X132188206Y-119220624D02*
X132120675Y-119198113D01*
X132120675Y-119198113D02*
X132075654Y-119198113D01*
X132075654Y-119198113D02*
X132008122Y-119220624D01*
X132008122Y-119220624D02*
X131895570Y-119333176D01*
X131895570Y-119333176D02*
X131873059Y-119400708D01*
X131873059Y-119400708D02*
X131873059Y-119445729D01*
X131873059Y-119445729D02*
X131895570Y-119513260D01*
X131895570Y-119513260D02*
X132008122Y-119625813D01*
X132008122Y-119625813D02*
X132075654Y-119648323D01*
X132075654Y-119648323D02*
X132120675Y-119648323D01*
X149666812Y-81526471D02*
X149443969Y-81844818D01*
X149284796Y-81526471D02*
X149284796Y-82194999D01*
X149284796Y-82194999D02*
X149539473Y-82194999D01*
X149539473Y-82194999D02*
X149603143Y-82163164D01*
X149603143Y-82163164D02*
X149634977Y-82131330D01*
X149634977Y-82131330D02*
X149666812Y-82067660D01*
X149666812Y-82067660D02*
X149666812Y-81972156D01*
X149666812Y-81972156D02*
X149634977Y-81908487D01*
X149634977Y-81908487D02*
X149603143Y-81876652D01*
X149603143Y-81876652D02*
X149539473Y-81844818D01*
X149539473Y-81844818D02*
X149284796Y-81844818D01*
X150080663Y-82194999D02*
X150144332Y-82194999D01*
X150144332Y-82194999D02*
X150208001Y-82163164D01*
X150208001Y-82163164D02*
X150239836Y-82131330D01*
X150239836Y-82131330D02*
X150271671Y-82067660D01*
X150271671Y-82067660D02*
X150303505Y-81940322D01*
X150303505Y-81940322D02*
X150303505Y-81781148D01*
X150303505Y-81781148D02*
X150271671Y-81653810D01*
X150271671Y-81653810D02*
X150239836Y-81590140D01*
X150239836Y-81590140D02*
X150208001Y-81558306D01*
X150208001Y-81558306D02*
X150144332Y-81526471D01*
X150144332Y-81526471D02*
X150080663Y-81526471D01*
X150080663Y-81526471D02*
X150016993Y-81558306D01*
X150016993Y-81558306D02*
X149985159Y-81590140D01*
X149985159Y-81590140D02*
X149953324Y-81653810D01*
X149953324Y-81653810D02*
X149921489Y-81781148D01*
X149921489Y-81781148D02*
X149921489Y-81940322D01*
X149921489Y-81940322D02*
X149953324Y-82067660D01*
X149953324Y-82067660D02*
X149985159Y-82131330D01*
X149985159Y-82131330D02*
X150016993Y-82163164D01*
X150016993Y-82163164D02*
X150080663Y-82194999D01*
D12*
X132420464Y-128984617D02*
X133246647Y-129810801D01*
X133246647Y-129810801D02*
X133561384Y-129496064D01*
X133561384Y-129496064D02*
X133600726Y-129378038D01*
X133600726Y-129378038D02*
X133600726Y-129299354D01*
X133600726Y-129299354D02*
X133561384Y-129181328D01*
X133561384Y-129181328D02*
X133443358Y-129063301D01*
X133443358Y-129063301D02*
X133325331Y-129023959D01*
X133325331Y-129023959D02*
X133246647Y-129023959D01*
X133246647Y-129023959D02*
X133128621Y-129063301D01*
X133128621Y-129063301D02*
X132813885Y-129378038D01*
X133679410Y-127725671D02*
X133207305Y-128197776D01*
X133443358Y-127961723D02*
X134269541Y-128787907D01*
X134269541Y-128787907D02*
X134072831Y-128748565D01*
X134072831Y-128748565D02*
X133915463Y-128748565D01*
X133915463Y-128748565D02*
X133797436Y-128787907D01*
X125046391Y-121846596D02*
X125518496Y-121374491D01*
X124456260Y-120784360D02*
X125282444Y-121610544D01*
X125518496Y-119879492D02*
X125439812Y-119879492D01*
X125439812Y-119879492D02*
X125282444Y-119958176D01*
X125282444Y-119958176D02*
X125203760Y-120036860D01*
X125203760Y-120036860D02*
X125125076Y-120194229D01*
X125125076Y-120194229D02*
X125125076Y-120351597D01*
X125125076Y-120351597D02*
X125164418Y-120469623D01*
X125164418Y-120469623D02*
X125282444Y-120666333D01*
X125282444Y-120666333D02*
X125400470Y-120784360D01*
X125400470Y-120784360D02*
X125597181Y-120902386D01*
X125597181Y-120902386D02*
X125715207Y-120941728D01*
X125715207Y-120941728D02*
X125872575Y-120941728D01*
X125872575Y-120941728D02*
X126029943Y-120863044D01*
X126029943Y-120863044D02*
X126108627Y-120784360D01*
X126108627Y-120784360D02*
X126187312Y-120626991D01*
X126187312Y-120626991D02*
X126187312Y-120548307D01*
X126265996Y-118974624D02*
X126384022Y-119643439D01*
X125793891Y-119446729D02*
X126620074Y-120272913D01*
X126620074Y-120272913D02*
X126934811Y-119958176D01*
X126934811Y-119958176D02*
X126974153Y-119840150D01*
X126974153Y-119840150D02*
X126974153Y-119761466D01*
X126974153Y-119761466D02*
X126934811Y-119643439D01*
X126934811Y-119643439D02*
X126816785Y-119525413D01*
X126816785Y-119525413D02*
X126698759Y-119486071D01*
X126698759Y-119486071D02*
X126620074Y-119486071D01*
X126620074Y-119486071D02*
X126502048Y-119525413D01*
X126502048Y-119525413D02*
X126187312Y-119840150D01*
X127328232Y-119564755D02*
X127800337Y-119092650D01*
X126738101Y-118502519D02*
X127564284Y-119328703D01*
X128469152Y-118423835D02*
X128075732Y-118817256D01*
X128075732Y-118817256D02*
X127642969Y-118463177D01*
X127642969Y-118463177D02*
X127721653Y-118463177D01*
X127721653Y-118463177D02*
X127839679Y-118423835D01*
X127839679Y-118423835D02*
X128036389Y-118227124D01*
X128036389Y-118227124D02*
X128075732Y-118109098D01*
X128075732Y-118109098D02*
X128075732Y-118030414D01*
X128075732Y-118030414D02*
X128036389Y-117912388D01*
X128036389Y-117912388D02*
X127839679Y-117715677D01*
X127839679Y-117715677D02*
X127721653Y-117676335D01*
X127721653Y-117676335D02*
X127642969Y-117676335D01*
X127642969Y-117676335D02*
X127524942Y-117715677D01*
X127524942Y-117715677D02*
X127328232Y-117912388D01*
X127328232Y-117912388D02*
X127288890Y-118030414D01*
X127288890Y-118030414D02*
X127288890Y-118109098D01*
X129019941Y-117873046D02*
X129098626Y-117794362D01*
X129098626Y-117794362D02*
X129137968Y-117676335D01*
X129137968Y-117676335D02*
X129137968Y-117597651D01*
X129137968Y-117597651D02*
X129098626Y-117479625D01*
X129098626Y-117479625D02*
X128980599Y-117282915D01*
X128980599Y-117282915D02*
X128783889Y-117086204D01*
X128783889Y-117086204D02*
X128587179Y-116968178D01*
X128587179Y-116968178D02*
X128469152Y-116928836D01*
X128469152Y-116928836D02*
X128390468Y-116928836D01*
X128390468Y-116928836D02*
X128272442Y-116968178D01*
X128272442Y-116968178D02*
X128193758Y-117046862D01*
X128193758Y-117046862D02*
X128154416Y-117164888D01*
X128154416Y-117164888D02*
X128154416Y-117243573D01*
X128154416Y-117243573D02*
X128193758Y-117361599D01*
X128193758Y-117361599D02*
X128311784Y-117558309D01*
X128311784Y-117558309D02*
X128508494Y-117755019D01*
X128508494Y-117755019D02*
X128705205Y-117873046D01*
X128705205Y-117873046D02*
X128823231Y-117912388D01*
X128823231Y-117912388D02*
X128901915Y-117912388D01*
X128901915Y-117912388D02*
X129019941Y-117873046D01*
X129806783Y-117086204D02*
X129885467Y-117007520D01*
X129885467Y-117007520D02*
X129924809Y-116889494D01*
X129924809Y-116889494D02*
X129924809Y-116810810D01*
X129924809Y-116810810D02*
X129885467Y-116692783D01*
X129885467Y-116692783D02*
X129767441Y-116496073D01*
X129767441Y-116496073D02*
X129570730Y-116299363D01*
X129570730Y-116299363D02*
X129374020Y-116181336D01*
X129374020Y-116181336D02*
X129255994Y-116141994D01*
X129255994Y-116141994D02*
X129177310Y-116141994D01*
X129177310Y-116141994D02*
X129059284Y-116181336D01*
X129059284Y-116181336D02*
X128980599Y-116260021D01*
X128980599Y-116260021D02*
X128941257Y-116378047D01*
X128941257Y-116378047D02*
X128941257Y-116456731D01*
X128941257Y-116456731D02*
X128980599Y-116574757D01*
X128980599Y-116574757D02*
X129098626Y-116771468D01*
X129098626Y-116771468D02*
X129295336Y-116968178D01*
X129295336Y-116968178D02*
X129492046Y-117086204D01*
X129492046Y-117086204D02*
X129610073Y-117125546D01*
X129610073Y-117125546D02*
X129688757Y-117125546D01*
X129688757Y-117125546D02*
X129806783Y-117086204D01*
X130593624Y-116299363D02*
X130672309Y-116220678D01*
X130672309Y-116220678D02*
X130711651Y-116102652D01*
X130711651Y-116102652D02*
X130711651Y-116023968D01*
X130711651Y-116023968D02*
X130672309Y-115905942D01*
X130672309Y-115905942D02*
X130554282Y-115709231D01*
X130554282Y-115709231D02*
X130357572Y-115512521D01*
X130357572Y-115512521D02*
X130160862Y-115394495D01*
X130160862Y-115394495D02*
X130042835Y-115355153D01*
X130042835Y-115355153D02*
X129964151Y-115355153D01*
X129964151Y-115355153D02*
X129846125Y-115394495D01*
X129846125Y-115394495D02*
X129767441Y-115473179D01*
X129767441Y-115473179D02*
X129728099Y-115591205D01*
X129728099Y-115591205D02*
X129728099Y-115669889D01*
X129728099Y-115669889D02*
X129767441Y-115787916D01*
X129767441Y-115787916D02*
X129885467Y-115984626D01*
X129885467Y-115984626D02*
X130082178Y-116181336D01*
X130082178Y-116181336D02*
X130278888Y-116299363D01*
X130278888Y-116299363D02*
X130396914Y-116338705D01*
X130396914Y-116338705D02*
X130475598Y-116338705D01*
X130475598Y-116338705D02*
X130593624Y-116299363D01*
D15*
X144938749Y-85463487D02*
X144938749Y-85115144D01*
X144938749Y-85115144D02*
X144207229Y-85115144D01*
X144555572Y-85707327D02*
X144555572Y-85951167D01*
X144938749Y-86055670D02*
X144938749Y-85707327D01*
X144938749Y-85707327D02*
X144207229Y-85707327D01*
X144207229Y-85707327D02*
X144207229Y-86055670D01*
X144938749Y-86369178D02*
X144207229Y-86369178D01*
X144207229Y-86369178D02*
X144207229Y-86543349D01*
X144207229Y-86543349D02*
X144242063Y-86647852D01*
X144242063Y-86647852D02*
X144311732Y-86717521D01*
X144311732Y-86717521D02*
X144381400Y-86752355D01*
X144381400Y-86752355D02*
X144520737Y-86787189D01*
X144520737Y-86787189D02*
X144625240Y-86787189D01*
X144625240Y-86787189D02*
X144764577Y-86752355D01*
X144764577Y-86752355D02*
X144834246Y-86717521D01*
X144834246Y-86717521D02*
X144903915Y-86647852D01*
X144903915Y-86647852D02*
X144938749Y-86543349D01*
X144938749Y-86543349D02*
X144938749Y-86369178D01*
X144207229Y-87240035D02*
X144207229Y-87309704D01*
X144207229Y-87309704D02*
X144242063Y-87379372D01*
X144242063Y-87379372D02*
X144276897Y-87414207D01*
X144276897Y-87414207D02*
X144346566Y-87449041D01*
X144346566Y-87449041D02*
X144485903Y-87483875D01*
X144485903Y-87483875D02*
X144660075Y-87483875D01*
X144660075Y-87483875D02*
X144799412Y-87449041D01*
X144799412Y-87449041D02*
X144869080Y-87414207D01*
X144869080Y-87414207D02*
X144903915Y-87379372D01*
X144903915Y-87379372D02*
X144938749Y-87309704D01*
X144938749Y-87309704D02*
X144938749Y-87240035D01*
X144938749Y-87240035D02*
X144903915Y-87170367D01*
X144903915Y-87170367D02*
X144869080Y-87135532D01*
X144869080Y-87135532D02*
X144799412Y-87100698D01*
X144799412Y-87100698D02*
X144660075Y-87065864D01*
X144660075Y-87065864D02*
X144485903Y-87065864D01*
X144485903Y-87065864D02*
X144346566Y-87100698D01*
X144346566Y-87100698D02*
X144276897Y-87135532D01*
X144276897Y-87135532D02*
X144242063Y-87170367D01*
X144242063Y-87170367D02*
X144207229Y-87240035D01*
D17*
X170283528Y-106136812D02*
X169965182Y-105913969D01*
X170283528Y-105754796D02*
X169615000Y-105754796D01*
X169615000Y-105754796D02*
X169615000Y-106009473D01*
X169615000Y-106009473D02*
X169646835Y-106073143D01*
X169646835Y-106073143D02*
X169678670Y-106104977D01*
X169678670Y-106104977D02*
X169742339Y-106136812D01*
X169742339Y-106136812D02*
X169837843Y-106136812D01*
X169837843Y-106136812D02*
X169901512Y-106104977D01*
X169901512Y-106104977D02*
X169933347Y-106073143D01*
X169933347Y-106073143D02*
X169965182Y-106009473D01*
X169965182Y-106009473D02*
X169965182Y-105754796D01*
X169678670Y-106391489D02*
X169646835Y-106423324D01*
X169646835Y-106423324D02*
X169615000Y-106486993D01*
X169615000Y-106486993D02*
X169615000Y-106646167D01*
X169615000Y-106646167D02*
X169646835Y-106709836D01*
X169646835Y-106709836D02*
X169678670Y-106741671D01*
X169678670Y-106741671D02*
X169742339Y-106773505D01*
X169742339Y-106773505D02*
X169806008Y-106773505D01*
X169806008Y-106773505D02*
X169901512Y-106741671D01*
X169901512Y-106741671D02*
X170283528Y-106359655D01*
X170283528Y-106359655D02*
X170283528Y-106773505D01*
D12*
X143025726Y-76605032D02*
X141857326Y-76605032D01*
X141857326Y-76605032D02*
X141857326Y-77050137D01*
X141857326Y-77050137D02*
X141912964Y-77161413D01*
X141912964Y-77161413D02*
X141968602Y-77217051D01*
X141968602Y-77217051D02*
X142079878Y-77272689D01*
X142079878Y-77272689D02*
X142246792Y-77272689D01*
X142246792Y-77272689D02*
X142358068Y-77217051D01*
X142358068Y-77217051D02*
X142413707Y-77161413D01*
X142413707Y-77161413D02*
X142469345Y-77050137D01*
X142469345Y-77050137D02*
X142469345Y-76605032D01*
X141857326Y-78274175D02*
X141857326Y-78051622D01*
X141857326Y-78051622D02*
X141912964Y-77940346D01*
X141912964Y-77940346D02*
X141968602Y-77884708D01*
X141968602Y-77884708D02*
X142135516Y-77773432D01*
X142135516Y-77773432D02*
X142358068Y-77717794D01*
X142358068Y-77717794D02*
X142803173Y-77717794D01*
X142803173Y-77717794D02*
X142914449Y-77773432D01*
X142914449Y-77773432D02*
X142970088Y-77829070D01*
X142970088Y-77829070D02*
X143025726Y-77940346D01*
X143025726Y-77940346D02*
X143025726Y-78162899D01*
X143025726Y-78162899D02*
X142970088Y-78274175D01*
X142970088Y-78274175D02*
X142914449Y-78329813D01*
X142914449Y-78329813D02*
X142803173Y-78385451D01*
X142803173Y-78385451D02*
X142524983Y-78385451D01*
X142524983Y-78385451D02*
X142413707Y-78329813D01*
X142413707Y-78329813D02*
X142358068Y-78274175D01*
X142358068Y-78274175D02*
X142302430Y-78162899D01*
X142302430Y-78162899D02*
X142302430Y-77940346D01*
X142302430Y-77940346D02*
X142358068Y-77829070D01*
X142358068Y-77829070D02*
X142413707Y-77773432D01*
X142413707Y-77773432D02*
X142524983Y-77717794D01*
X153287326Y-76438118D02*
X153287326Y-77105775D01*
X154455726Y-76771946D02*
X153287326Y-76771946D01*
X154344449Y-78162899D02*
X154400088Y-78107261D01*
X154400088Y-78107261D02*
X154455726Y-77940347D01*
X154455726Y-77940347D02*
X154455726Y-77829071D01*
X154455726Y-77829071D02*
X154400088Y-77662156D01*
X154400088Y-77662156D02*
X154288811Y-77550880D01*
X154288811Y-77550880D02*
X154177535Y-77495242D01*
X154177535Y-77495242D02*
X153954983Y-77439604D01*
X153954983Y-77439604D02*
X153788068Y-77439604D01*
X153788068Y-77439604D02*
X153565516Y-77495242D01*
X153565516Y-77495242D02*
X153454240Y-77550880D01*
X153454240Y-77550880D02*
X153342964Y-77662156D01*
X153342964Y-77662156D02*
X153287326Y-77829071D01*
X153287326Y-77829071D02*
X153287326Y-77940347D01*
X153287326Y-77940347D02*
X153342964Y-78107261D01*
X153342964Y-78107261D02*
X153398602Y-78162899D01*
X154455726Y-79331299D02*
X153899345Y-78941832D01*
X154455726Y-78663642D02*
X153287326Y-78663642D01*
X153287326Y-78663642D02*
X153287326Y-79108747D01*
X153287326Y-79108747D02*
X153342964Y-79220023D01*
X153342964Y-79220023D02*
X153398602Y-79275661D01*
X153398602Y-79275661D02*
X153509878Y-79331299D01*
X153509878Y-79331299D02*
X153676792Y-79331299D01*
X153676792Y-79331299D02*
X153788068Y-79275661D01*
X153788068Y-79275661D02*
X153843707Y-79220023D01*
X153843707Y-79220023D02*
X153899345Y-79108747D01*
X153899345Y-79108747D02*
X153899345Y-78663642D01*
X153287326Y-79665128D02*
X153287326Y-80332785D01*
X154455726Y-79998956D02*
X153287326Y-79998956D01*
X153287326Y-81278633D02*
X153287326Y-80722252D01*
X153287326Y-80722252D02*
X153843707Y-80666614D01*
X153843707Y-80666614D02*
X153788068Y-80722252D01*
X153788068Y-80722252D02*
X153732430Y-80833528D01*
X153732430Y-80833528D02*
X153732430Y-81111719D01*
X153732430Y-81111719D02*
X153788068Y-81222995D01*
X153788068Y-81222995D02*
X153843707Y-81278633D01*
X153843707Y-81278633D02*
X153954983Y-81334271D01*
X153954983Y-81334271D02*
X154233173Y-81334271D01*
X154233173Y-81334271D02*
X154344449Y-81278633D01*
X154344449Y-81278633D02*
X154400088Y-81222995D01*
X154400088Y-81222995D02*
X154455726Y-81111719D01*
X154455726Y-81111719D02*
X154455726Y-80833528D01*
X154455726Y-80833528D02*
X154400088Y-80722252D01*
X154400088Y-80722252D02*
X154344449Y-80666614D01*
X153287326Y-82057566D02*
X153287326Y-82168843D01*
X153287326Y-82168843D02*
X153342964Y-82280119D01*
X153342964Y-82280119D02*
X153398602Y-82335757D01*
X153398602Y-82335757D02*
X153509878Y-82391395D01*
X153509878Y-82391395D02*
X153732430Y-82447033D01*
X153732430Y-82447033D02*
X154010621Y-82447033D01*
X154010621Y-82447033D02*
X154233173Y-82391395D01*
X154233173Y-82391395D02*
X154344449Y-82335757D01*
X154344449Y-82335757D02*
X154400088Y-82280119D01*
X154400088Y-82280119D02*
X154455726Y-82168843D01*
X154455726Y-82168843D02*
X154455726Y-82057566D01*
X154455726Y-82057566D02*
X154400088Y-81946290D01*
X154400088Y-81946290D02*
X154344449Y-81890652D01*
X154344449Y-81890652D02*
X154233173Y-81835014D01*
X154233173Y-81835014D02*
X154010621Y-81779376D01*
X154010621Y-81779376D02*
X153732430Y-81779376D01*
X153732430Y-81779376D02*
X153509878Y-81835014D01*
X153509878Y-81835014D02*
X153398602Y-81890652D01*
X153398602Y-81890652D02*
X153342964Y-81946290D01*
X153342964Y-81946290D02*
X153287326Y-82057566D01*
X153287326Y-83170328D02*
X153287326Y-83281605D01*
X153287326Y-83281605D02*
X153342964Y-83392881D01*
X153342964Y-83392881D02*
X153398602Y-83448519D01*
X153398602Y-83448519D02*
X153509878Y-83504157D01*
X153509878Y-83504157D02*
X153732430Y-83559795D01*
X153732430Y-83559795D02*
X154010621Y-83559795D01*
X154010621Y-83559795D02*
X154233173Y-83504157D01*
X154233173Y-83504157D02*
X154344449Y-83448519D01*
X154344449Y-83448519D02*
X154400088Y-83392881D01*
X154400088Y-83392881D02*
X154455726Y-83281605D01*
X154455726Y-83281605D02*
X154455726Y-83170328D01*
X154455726Y-83170328D02*
X154400088Y-83059052D01*
X154400088Y-83059052D02*
X154344449Y-83003414D01*
X154344449Y-83003414D02*
X154233173Y-82947776D01*
X154233173Y-82947776D02*
X154010621Y-82892138D01*
X154010621Y-82892138D02*
X153732430Y-82892138D01*
X153732430Y-82892138D02*
X153509878Y-82947776D01*
X153509878Y-82947776D02*
X153398602Y-83003414D01*
X153398602Y-83003414D02*
X153342964Y-83059052D01*
X153342964Y-83059052D02*
X153287326Y-83170328D01*
X153287326Y-84283090D02*
X153287326Y-84394367D01*
X153287326Y-84394367D02*
X153342964Y-84505643D01*
X153342964Y-84505643D02*
X153398602Y-84561281D01*
X153398602Y-84561281D02*
X153509878Y-84616919D01*
X153509878Y-84616919D02*
X153732430Y-84672557D01*
X153732430Y-84672557D02*
X154010621Y-84672557D01*
X154010621Y-84672557D02*
X154233173Y-84616919D01*
X154233173Y-84616919D02*
X154344449Y-84561281D01*
X154344449Y-84561281D02*
X154400088Y-84505643D01*
X154400088Y-84505643D02*
X154455726Y-84394367D01*
X154455726Y-84394367D02*
X154455726Y-84283090D01*
X154455726Y-84283090D02*
X154400088Y-84171814D01*
X154400088Y-84171814D02*
X154344449Y-84116176D01*
X154344449Y-84116176D02*
X154233173Y-84060538D01*
X154233173Y-84060538D02*
X154010621Y-84004900D01*
X154010621Y-84004900D02*
X153732430Y-84004900D01*
X153732430Y-84004900D02*
X153509878Y-84060538D01*
X153509878Y-84060538D02*
X153398602Y-84116176D01*
X153398602Y-84116176D02*
X153342964Y-84171814D01*
X153342964Y-84171814D02*
X153287326Y-84283090D01*
D17*
X126486470Y-103803187D02*
X126804817Y-104026030D01*
X126486470Y-104185203D02*
X127154998Y-104185203D01*
X127154998Y-104185203D02*
X127154998Y-103930526D01*
X127154998Y-103930526D02*
X127123163Y-103866857D01*
X127123163Y-103866857D02*
X127091329Y-103835022D01*
X127091329Y-103835022D02*
X127027659Y-103803187D01*
X127027659Y-103803187D02*
X126932155Y-103803187D01*
X126932155Y-103803187D02*
X126868486Y-103835022D01*
X126868486Y-103835022D02*
X126836651Y-103866857D01*
X126836651Y-103866857D02*
X126804817Y-103930526D01*
X126804817Y-103930526D02*
X126804817Y-104185203D01*
X127154998Y-103230163D02*
X127154998Y-103357502D01*
X127154998Y-103357502D02*
X127123163Y-103421171D01*
X127123163Y-103421171D02*
X127091329Y-103453006D01*
X127091329Y-103453006D02*
X126995825Y-103516675D01*
X126995825Y-103516675D02*
X126868486Y-103548510D01*
X126868486Y-103548510D02*
X126613809Y-103548510D01*
X126613809Y-103548510D02*
X126550139Y-103516675D01*
X126550139Y-103516675D02*
X126518305Y-103484841D01*
X126518305Y-103484841D02*
X126486470Y-103421171D01*
X126486470Y-103421171D02*
X126486470Y-103293833D01*
X126486470Y-103293833D02*
X126518305Y-103230163D01*
X126518305Y-103230163D02*
X126550139Y-103198329D01*
X126550139Y-103198329D02*
X126613809Y-103166494D01*
X126613809Y-103166494D02*
X126772982Y-103166494D01*
X126772982Y-103166494D02*
X126836651Y-103198329D01*
X126836651Y-103198329D02*
X126868486Y-103230163D01*
X126868486Y-103230163D02*
X126900321Y-103293833D01*
X126900321Y-103293833D02*
X126900321Y-103421171D01*
X126900321Y-103421171D02*
X126868486Y-103484841D01*
X126868486Y-103484841D02*
X126836651Y-103516675D01*
X126836651Y-103516675D02*
X126772982Y-103548510D01*
D12*
X153706873Y-133234967D02*
X154875273Y-133234967D01*
X154875273Y-133234967D02*
X154875273Y-132789862D01*
X154875273Y-132789862D02*
X154819635Y-132678586D01*
X154819635Y-132678586D02*
X154763997Y-132622948D01*
X154763997Y-132622948D02*
X154652721Y-132567310D01*
X154652721Y-132567310D02*
X154485807Y-132567310D01*
X154485807Y-132567310D02*
X154374531Y-132622948D01*
X154374531Y-132622948D02*
X154318892Y-132678586D01*
X154318892Y-132678586D02*
X154263254Y-132789862D01*
X154263254Y-132789862D02*
X154263254Y-133234967D01*
X154875273Y-131844015D02*
X154875273Y-131732738D01*
X154875273Y-131732738D02*
X154819635Y-131621462D01*
X154819635Y-131621462D02*
X154763997Y-131565824D01*
X154763997Y-131565824D02*
X154652721Y-131510186D01*
X154652721Y-131510186D02*
X154430169Y-131454548D01*
X154430169Y-131454548D02*
X154151978Y-131454548D01*
X154151978Y-131454548D02*
X153929426Y-131510186D01*
X153929426Y-131510186D02*
X153818150Y-131565824D01*
X153818150Y-131565824D02*
X153762512Y-131621462D01*
X153762512Y-131621462D02*
X153706873Y-131732738D01*
X153706873Y-131732738D02*
X153706873Y-131844015D01*
X153706873Y-131844015D02*
X153762512Y-131955291D01*
X153762512Y-131955291D02*
X153818150Y-132010929D01*
X153818150Y-132010929D02*
X153929426Y-132066567D01*
X153929426Y-132066567D02*
X154151978Y-132122205D01*
X154151978Y-132122205D02*
X154430169Y-132122205D01*
X154430169Y-132122205D02*
X154652721Y-132066567D01*
X154652721Y-132066567D02*
X154763997Y-132010929D01*
X154763997Y-132010929D02*
X154819635Y-131955291D01*
X154819635Y-131955291D02*
X154875273Y-131844015D01*
X143445273Y-133401881D02*
X143445273Y-132734224D01*
X142276873Y-133068053D02*
X143445273Y-133068053D01*
X142388150Y-131677100D02*
X142332512Y-131732738D01*
X142332512Y-131732738D02*
X142276873Y-131899652D01*
X142276873Y-131899652D02*
X142276873Y-132010928D01*
X142276873Y-132010928D02*
X142332512Y-132177843D01*
X142332512Y-132177843D02*
X142443788Y-132289119D01*
X142443788Y-132289119D02*
X142555064Y-132344757D01*
X142555064Y-132344757D02*
X142777616Y-132400395D01*
X142777616Y-132400395D02*
X142944531Y-132400395D01*
X142944531Y-132400395D02*
X143167083Y-132344757D01*
X143167083Y-132344757D02*
X143278359Y-132289119D01*
X143278359Y-132289119D02*
X143389635Y-132177843D01*
X143389635Y-132177843D02*
X143445273Y-132010928D01*
X143445273Y-132010928D02*
X143445273Y-131899652D01*
X143445273Y-131899652D02*
X143389635Y-131732738D01*
X143389635Y-131732738D02*
X143333997Y-131677100D01*
X142276873Y-130508700D02*
X142833254Y-130898167D01*
X142276873Y-131176357D02*
X143445273Y-131176357D01*
X143445273Y-131176357D02*
X143445273Y-130731252D01*
X143445273Y-130731252D02*
X143389635Y-130619976D01*
X143389635Y-130619976D02*
X143333997Y-130564338D01*
X143333997Y-130564338D02*
X143222721Y-130508700D01*
X143222721Y-130508700D02*
X143055807Y-130508700D01*
X143055807Y-130508700D02*
X142944531Y-130564338D01*
X142944531Y-130564338D02*
X142888892Y-130619976D01*
X142888892Y-130619976D02*
X142833254Y-130731252D01*
X142833254Y-130731252D02*
X142833254Y-131176357D01*
X143445273Y-130174871D02*
X143445273Y-129507214D01*
X142276873Y-129841043D02*
X143445273Y-129841043D01*
X143445273Y-128561366D02*
X143445273Y-129117747D01*
X143445273Y-129117747D02*
X142888892Y-129173385D01*
X142888892Y-129173385D02*
X142944531Y-129117747D01*
X142944531Y-129117747D02*
X143000169Y-129006471D01*
X143000169Y-129006471D02*
X143000169Y-128728280D01*
X143000169Y-128728280D02*
X142944531Y-128617004D01*
X142944531Y-128617004D02*
X142888892Y-128561366D01*
X142888892Y-128561366D02*
X142777616Y-128505728D01*
X142777616Y-128505728D02*
X142499426Y-128505728D01*
X142499426Y-128505728D02*
X142388150Y-128561366D01*
X142388150Y-128561366D02*
X142332512Y-128617004D01*
X142332512Y-128617004D02*
X142276873Y-128728280D01*
X142276873Y-128728280D02*
X142276873Y-129006471D01*
X142276873Y-129006471D02*
X142332512Y-129117747D01*
X142332512Y-129117747D02*
X142388150Y-129173385D01*
X143445273Y-127782433D02*
X143445273Y-127671156D01*
X143445273Y-127671156D02*
X143389635Y-127559880D01*
X143389635Y-127559880D02*
X143333997Y-127504242D01*
X143333997Y-127504242D02*
X143222721Y-127448604D01*
X143222721Y-127448604D02*
X143000169Y-127392966D01*
X143000169Y-127392966D02*
X142721978Y-127392966D01*
X142721978Y-127392966D02*
X142499426Y-127448604D01*
X142499426Y-127448604D02*
X142388150Y-127504242D01*
X142388150Y-127504242D02*
X142332512Y-127559880D01*
X142332512Y-127559880D02*
X142276873Y-127671156D01*
X142276873Y-127671156D02*
X142276873Y-127782433D01*
X142276873Y-127782433D02*
X142332512Y-127893709D01*
X142332512Y-127893709D02*
X142388150Y-127949347D01*
X142388150Y-127949347D02*
X142499426Y-128004985D01*
X142499426Y-128004985D02*
X142721978Y-128060623D01*
X142721978Y-128060623D02*
X143000169Y-128060623D01*
X143000169Y-128060623D02*
X143222721Y-128004985D01*
X143222721Y-128004985D02*
X143333997Y-127949347D01*
X143333997Y-127949347D02*
X143389635Y-127893709D01*
X143389635Y-127893709D02*
X143445273Y-127782433D01*
X143445273Y-126669671D02*
X143445273Y-126558394D01*
X143445273Y-126558394D02*
X143389635Y-126447118D01*
X143389635Y-126447118D02*
X143333997Y-126391480D01*
X143333997Y-126391480D02*
X143222721Y-126335842D01*
X143222721Y-126335842D02*
X143000169Y-126280204D01*
X143000169Y-126280204D02*
X142721978Y-126280204D01*
X142721978Y-126280204D02*
X142499426Y-126335842D01*
X142499426Y-126335842D02*
X142388150Y-126391480D01*
X142388150Y-126391480D02*
X142332512Y-126447118D01*
X142332512Y-126447118D02*
X142276873Y-126558394D01*
X142276873Y-126558394D02*
X142276873Y-126669671D01*
X142276873Y-126669671D02*
X142332512Y-126780947D01*
X142332512Y-126780947D02*
X142388150Y-126836585D01*
X142388150Y-126836585D02*
X142499426Y-126892223D01*
X142499426Y-126892223D02*
X142721978Y-126947861D01*
X142721978Y-126947861D02*
X143000169Y-126947861D01*
X143000169Y-126947861D02*
X143222721Y-126892223D01*
X143222721Y-126892223D02*
X143333997Y-126836585D01*
X143333997Y-126836585D02*
X143389635Y-126780947D01*
X143389635Y-126780947D02*
X143445273Y-126669671D01*
X143445273Y-125556909D02*
X143445273Y-125445632D01*
X143445273Y-125445632D02*
X143389635Y-125334356D01*
X143389635Y-125334356D02*
X143333997Y-125278718D01*
X143333997Y-125278718D02*
X143222721Y-125223080D01*
X143222721Y-125223080D02*
X143000169Y-125167442D01*
X143000169Y-125167442D02*
X142721978Y-125167442D01*
X142721978Y-125167442D02*
X142499426Y-125223080D01*
X142499426Y-125223080D02*
X142388150Y-125278718D01*
X142388150Y-125278718D02*
X142332512Y-125334356D01*
X142332512Y-125334356D02*
X142276873Y-125445632D01*
X142276873Y-125445632D02*
X142276873Y-125556909D01*
X142276873Y-125556909D02*
X142332512Y-125668185D01*
X142332512Y-125668185D02*
X142388150Y-125723823D01*
X142388150Y-125723823D02*
X142499426Y-125779461D01*
X142499426Y-125779461D02*
X142721978Y-125835099D01*
X142721978Y-125835099D02*
X143000169Y-125835099D01*
X143000169Y-125835099D02*
X143222721Y-125779461D01*
X143222721Y-125779461D02*
X143333997Y-125723823D01*
X143333997Y-125723823D02*
X143389635Y-125668185D01*
X143389635Y-125668185D02*
X143445273Y-125556909D01*
X119945032Y-110336873D02*
X119945032Y-111505273D01*
X119945032Y-111505273D02*
X120390137Y-111505273D01*
X120390137Y-111505273D02*
X120501413Y-111449635D01*
X120501413Y-111449635D02*
X120557051Y-111393997D01*
X120557051Y-111393997D02*
X120612689Y-111282721D01*
X120612689Y-111282721D02*
X120612689Y-111115807D01*
X120612689Y-111115807D02*
X120557051Y-111004531D01*
X120557051Y-111004531D02*
X120501413Y-110948892D01*
X120501413Y-110948892D02*
X120390137Y-110893254D01*
X120390137Y-110893254D02*
X119945032Y-110893254D01*
X121057794Y-111393997D02*
X121113432Y-111449635D01*
X121113432Y-111449635D02*
X121224708Y-111505273D01*
X121224708Y-111505273D02*
X121502899Y-111505273D01*
X121502899Y-111505273D02*
X121614175Y-111449635D01*
X121614175Y-111449635D02*
X121669813Y-111393997D01*
X121669813Y-111393997D02*
X121725451Y-111282721D01*
X121725451Y-111282721D02*
X121725451Y-111171445D01*
X121725451Y-111171445D02*
X121669813Y-111004531D01*
X121669813Y-111004531D02*
X121002156Y-110336873D01*
X121002156Y-110336873D02*
X121725451Y-110336873D01*
X119778118Y-100075273D02*
X120445775Y-100075273D01*
X120111946Y-98906873D02*
X120111946Y-100075273D01*
X121502899Y-99018150D02*
X121447261Y-98962512D01*
X121447261Y-98962512D02*
X121280347Y-98906873D01*
X121280347Y-98906873D02*
X121169071Y-98906873D01*
X121169071Y-98906873D02*
X121002156Y-98962512D01*
X121002156Y-98962512D02*
X120890880Y-99073788D01*
X120890880Y-99073788D02*
X120835242Y-99185064D01*
X120835242Y-99185064D02*
X120779604Y-99407616D01*
X120779604Y-99407616D02*
X120779604Y-99574531D01*
X120779604Y-99574531D02*
X120835242Y-99797083D01*
X120835242Y-99797083D02*
X120890880Y-99908359D01*
X120890880Y-99908359D02*
X121002156Y-100019635D01*
X121002156Y-100019635D02*
X121169071Y-100075273D01*
X121169071Y-100075273D02*
X121280347Y-100075273D01*
X121280347Y-100075273D02*
X121447261Y-100019635D01*
X121447261Y-100019635D02*
X121502899Y-99963997D01*
X122671299Y-98906873D02*
X122281832Y-99463254D01*
X122003642Y-98906873D02*
X122003642Y-100075273D01*
X122003642Y-100075273D02*
X122448747Y-100075273D01*
X122448747Y-100075273D02*
X122560023Y-100019635D01*
X122560023Y-100019635D02*
X122615661Y-99963997D01*
X122615661Y-99963997D02*
X122671299Y-99852721D01*
X122671299Y-99852721D02*
X122671299Y-99685807D01*
X122671299Y-99685807D02*
X122615661Y-99574531D01*
X122615661Y-99574531D02*
X122560023Y-99518892D01*
X122560023Y-99518892D02*
X122448747Y-99463254D01*
X122448747Y-99463254D02*
X122003642Y-99463254D01*
X123005128Y-100075273D02*
X123672785Y-100075273D01*
X123338956Y-98906873D02*
X123338956Y-100075273D01*
X124618633Y-100075273D02*
X124062252Y-100075273D01*
X124062252Y-100075273D02*
X124006614Y-99518892D01*
X124006614Y-99518892D02*
X124062252Y-99574531D01*
X124062252Y-99574531D02*
X124173528Y-99630169D01*
X124173528Y-99630169D02*
X124451719Y-99630169D01*
X124451719Y-99630169D02*
X124562995Y-99574531D01*
X124562995Y-99574531D02*
X124618633Y-99518892D01*
X124618633Y-99518892D02*
X124674271Y-99407616D01*
X124674271Y-99407616D02*
X124674271Y-99129426D01*
X124674271Y-99129426D02*
X124618633Y-99018150D01*
X124618633Y-99018150D02*
X124562995Y-98962512D01*
X124562995Y-98962512D02*
X124451719Y-98906873D01*
X124451719Y-98906873D02*
X124173528Y-98906873D01*
X124173528Y-98906873D02*
X124062252Y-98962512D01*
X124062252Y-98962512D02*
X124006614Y-99018150D01*
X125397566Y-100075273D02*
X125508843Y-100075273D01*
X125508843Y-100075273D02*
X125620119Y-100019635D01*
X125620119Y-100019635D02*
X125675757Y-99963997D01*
X125675757Y-99963997D02*
X125731395Y-99852721D01*
X125731395Y-99852721D02*
X125787033Y-99630169D01*
X125787033Y-99630169D02*
X125787033Y-99351978D01*
X125787033Y-99351978D02*
X125731395Y-99129426D01*
X125731395Y-99129426D02*
X125675757Y-99018150D01*
X125675757Y-99018150D02*
X125620119Y-98962512D01*
X125620119Y-98962512D02*
X125508843Y-98906873D01*
X125508843Y-98906873D02*
X125397566Y-98906873D01*
X125397566Y-98906873D02*
X125286290Y-98962512D01*
X125286290Y-98962512D02*
X125230652Y-99018150D01*
X125230652Y-99018150D02*
X125175014Y-99129426D01*
X125175014Y-99129426D02*
X125119376Y-99351978D01*
X125119376Y-99351978D02*
X125119376Y-99630169D01*
X125119376Y-99630169D02*
X125175014Y-99852721D01*
X125175014Y-99852721D02*
X125230652Y-99963997D01*
X125230652Y-99963997D02*
X125286290Y-100019635D01*
X125286290Y-100019635D02*
X125397566Y-100075273D01*
X126510328Y-100075273D02*
X126621605Y-100075273D01*
X126621605Y-100075273D02*
X126732881Y-100019635D01*
X126732881Y-100019635D02*
X126788519Y-99963997D01*
X126788519Y-99963997D02*
X126844157Y-99852721D01*
X126844157Y-99852721D02*
X126899795Y-99630169D01*
X126899795Y-99630169D02*
X126899795Y-99351978D01*
X126899795Y-99351978D02*
X126844157Y-99129426D01*
X126844157Y-99129426D02*
X126788519Y-99018150D01*
X126788519Y-99018150D02*
X126732881Y-98962512D01*
X126732881Y-98962512D02*
X126621605Y-98906873D01*
X126621605Y-98906873D02*
X126510328Y-98906873D01*
X126510328Y-98906873D02*
X126399052Y-98962512D01*
X126399052Y-98962512D02*
X126343414Y-99018150D01*
X126343414Y-99018150D02*
X126287776Y-99129426D01*
X126287776Y-99129426D02*
X126232138Y-99351978D01*
X126232138Y-99351978D02*
X126232138Y-99630169D01*
X126232138Y-99630169D02*
X126287776Y-99852721D01*
X126287776Y-99852721D02*
X126343414Y-99963997D01*
X126343414Y-99963997D02*
X126399052Y-100019635D01*
X126399052Y-100019635D02*
X126510328Y-100075273D01*
X127623090Y-100075273D02*
X127734367Y-100075273D01*
X127734367Y-100075273D02*
X127845643Y-100019635D01*
X127845643Y-100019635D02*
X127901281Y-99963997D01*
X127901281Y-99963997D02*
X127956919Y-99852721D01*
X127956919Y-99852721D02*
X128012557Y-99630169D01*
X128012557Y-99630169D02*
X128012557Y-99351978D01*
X128012557Y-99351978D02*
X127956919Y-99129426D01*
X127956919Y-99129426D02*
X127901281Y-99018150D01*
X127901281Y-99018150D02*
X127845643Y-98962512D01*
X127845643Y-98962512D02*
X127734367Y-98906873D01*
X127734367Y-98906873D02*
X127623090Y-98906873D01*
X127623090Y-98906873D02*
X127511814Y-98962512D01*
X127511814Y-98962512D02*
X127456176Y-99018150D01*
X127456176Y-99018150D02*
X127400538Y-99129426D01*
X127400538Y-99129426D02*
X127344900Y-99351978D01*
X127344900Y-99351978D02*
X127344900Y-99630169D01*
X127344900Y-99630169D02*
X127400538Y-99852721D01*
X127400538Y-99852721D02*
X127456176Y-99963997D01*
X127456176Y-99963997D02*
X127511814Y-100019635D01*
X127511814Y-100019635D02*
X127623090Y-100075273D01*
X124590975Y-88584871D02*
X123764791Y-89411054D01*
X123764791Y-89411054D02*
X124079528Y-89725791D01*
X124079528Y-89725791D02*
X124197554Y-89765133D01*
X124197554Y-89765133D02*
X124276238Y-89765133D01*
X124276238Y-89765133D02*
X124394264Y-89725791D01*
X124394264Y-89725791D02*
X124512291Y-89607765D01*
X124512291Y-89607765D02*
X124551633Y-89489738D01*
X124551633Y-89489738D02*
X124551633Y-89411054D01*
X124551633Y-89411054D02*
X124512291Y-89293028D01*
X124512291Y-89293028D02*
X124197554Y-88978292D01*
X125220448Y-90315922D02*
X125771237Y-89765133D01*
X124709001Y-90433948D02*
X125102422Y-89647107D01*
X125102422Y-89647107D02*
X125613869Y-90158554D01*
X131728996Y-81210798D02*
X132201101Y-81682903D01*
X132791232Y-80620667D02*
X131965048Y-81446851D01*
X133696100Y-81682903D02*
X133696100Y-81604219D01*
X133696100Y-81604219D02*
X133617416Y-81446851D01*
X133617416Y-81446851D02*
X133538732Y-81368167D01*
X133538732Y-81368167D02*
X133381363Y-81289483D01*
X133381363Y-81289483D02*
X133223995Y-81289483D01*
X133223995Y-81289483D02*
X133105969Y-81328825D01*
X133105969Y-81328825D02*
X132909259Y-81446851D01*
X132909259Y-81446851D02*
X132791232Y-81564877D01*
X132791232Y-81564877D02*
X132673206Y-81761588D01*
X132673206Y-81761588D02*
X132633864Y-81879614D01*
X132633864Y-81879614D02*
X132633864Y-82036982D01*
X132633864Y-82036982D02*
X132712548Y-82194350D01*
X132712548Y-82194350D02*
X132791232Y-82273034D01*
X132791232Y-82273034D02*
X132948601Y-82351719D01*
X132948601Y-82351719D02*
X133027285Y-82351719D01*
X134600968Y-82430403D02*
X133932153Y-82548429D01*
X134128863Y-81958298D02*
X133302679Y-82784481D01*
X133302679Y-82784481D02*
X133617416Y-83099218D01*
X133617416Y-83099218D02*
X133735442Y-83138560D01*
X133735442Y-83138560D02*
X133814126Y-83138560D01*
X133814126Y-83138560D02*
X133932153Y-83099218D01*
X133932153Y-83099218D02*
X134050179Y-82981192D01*
X134050179Y-82981192D02*
X134089521Y-82863166D01*
X134089521Y-82863166D02*
X134089521Y-82784481D01*
X134089521Y-82784481D02*
X134050179Y-82666455D01*
X134050179Y-82666455D02*
X133735442Y-82351719D01*
X134010837Y-83492639D02*
X134482942Y-83964744D01*
X135073073Y-82902508D02*
X134246889Y-83728691D01*
X135151757Y-84633559D02*
X134758336Y-84240139D01*
X134758336Y-84240139D02*
X135112415Y-83807376D01*
X135112415Y-83807376D02*
X135112415Y-83886060D01*
X135112415Y-83886060D02*
X135151757Y-84004086D01*
X135151757Y-84004086D02*
X135348468Y-84200796D01*
X135348468Y-84200796D02*
X135466494Y-84240139D01*
X135466494Y-84240139D02*
X135545178Y-84240139D01*
X135545178Y-84240139D02*
X135663204Y-84200796D01*
X135663204Y-84200796D02*
X135859915Y-84004086D01*
X135859915Y-84004086D02*
X135899257Y-83886060D01*
X135899257Y-83886060D02*
X135899257Y-83807376D01*
X135899257Y-83807376D02*
X135859915Y-83689349D01*
X135859915Y-83689349D02*
X135663204Y-83492639D01*
X135663204Y-83492639D02*
X135545178Y-83453297D01*
X135545178Y-83453297D02*
X135466494Y-83453297D01*
X135702546Y-85184348D02*
X135781230Y-85263033D01*
X135781230Y-85263033D02*
X135899257Y-85302375D01*
X135899257Y-85302375D02*
X135977941Y-85302375D01*
X135977941Y-85302375D02*
X136095967Y-85263033D01*
X136095967Y-85263033D02*
X136292677Y-85145006D01*
X136292677Y-85145006D02*
X136489388Y-84948296D01*
X136489388Y-84948296D02*
X136607414Y-84751586D01*
X136607414Y-84751586D02*
X136646756Y-84633559D01*
X136646756Y-84633559D02*
X136646756Y-84554875D01*
X136646756Y-84554875D02*
X136607414Y-84436849D01*
X136607414Y-84436849D02*
X136528730Y-84358165D01*
X136528730Y-84358165D02*
X136410704Y-84318823D01*
X136410704Y-84318823D02*
X136332019Y-84318823D01*
X136332019Y-84318823D02*
X136213993Y-84358165D01*
X136213993Y-84358165D02*
X136017283Y-84476191D01*
X136017283Y-84476191D02*
X135820573Y-84672901D01*
X135820573Y-84672901D02*
X135702546Y-84869612D01*
X135702546Y-84869612D02*
X135663204Y-84987638D01*
X135663204Y-84987638D02*
X135663204Y-85066322D01*
X135663204Y-85066322D02*
X135702546Y-85184348D01*
X136489388Y-85971190D02*
X136568072Y-86049874D01*
X136568072Y-86049874D02*
X136686098Y-86089216D01*
X136686098Y-86089216D02*
X136764782Y-86089216D01*
X136764782Y-86089216D02*
X136882809Y-86049874D01*
X136882809Y-86049874D02*
X137079519Y-85931848D01*
X137079519Y-85931848D02*
X137276229Y-85735137D01*
X137276229Y-85735137D02*
X137394256Y-85538427D01*
X137394256Y-85538427D02*
X137433598Y-85420401D01*
X137433598Y-85420401D02*
X137433598Y-85341717D01*
X137433598Y-85341717D02*
X137394256Y-85223691D01*
X137394256Y-85223691D02*
X137315571Y-85145006D01*
X137315571Y-85145006D02*
X137197545Y-85105664D01*
X137197545Y-85105664D02*
X137118861Y-85105664D01*
X137118861Y-85105664D02*
X137000835Y-85145006D01*
X137000835Y-85145006D02*
X136804124Y-85263033D01*
X136804124Y-85263033D02*
X136607414Y-85459743D01*
X136607414Y-85459743D02*
X136489388Y-85656453D01*
X136489388Y-85656453D02*
X136450046Y-85774480D01*
X136450046Y-85774480D02*
X136450046Y-85853164D01*
X136450046Y-85853164D02*
X136489388Y-85971190D01*
X137276229Y-86758031D02*
X137354914Y-86836716D01*
X137354914Y-86836716D02*
X137472940Y-86876058D01*
X137472940Y-86876058D02*
X137551624Y-86876058D01*
X137551624Y-86876058D02*
X137669650Y-86836716D01*
X137669650Y-86836716D02*
X137866361Y-86718689D01*
X137866361Y-86718689D02*
X138063071Y-86521979D01*
X138063071Y-86521979D02*
X138181097Y-86325269D01*
X138181097Y-86325269D02*
X138220439Y-86207242D01*
X138220439Y-86207242D02*
X138220439Y-86128558D01*
X138220439Y-86128558D02*
X138181097Y-86010532D01*
X138181097Y-86010532D02*
X138102413Y-85931848D01*
X138102413Y-85931848D02*
X137984387Y-85892506D01*
X137984387Y-85892506D02*
X137905703Y-85892506D01*
X137905703Y-85892506D02*
X137787676Y-85931848D01*
X137787676Y-85931848D02*
X137590966Y-86049874D01*
X137590966Y-86049874D02*
X137394256Y-86246585D01*
X137394256Y-86246585D02*
X137276229Y-86443295D01*
X137276229Y-86443295D02*
X137236887Y-86561321D01*
X137236887Y-86561321D02*
X137236887Y-86640005D01*
X137236887Y-86640005D02*
X137276229Y-86758031D01*
X176754967Y-99711726D02*
X176754967Y-98543326D01*
X176754967Y-98543326D02*
X176309862Y-98543326D01*
X176309862Y-98543326D02*
X176198586Y-98598964D01*
X176198586Y-98598964D02*
X176142948Y-98654602D01*
X176142948Y-98654602D02*
X176087310Y-98765878D01*
X176087310Y-98765878D02*
X176087310Y-98932792D01*
X176087310Y-98932792D02*
X176142948Y-99044068D01*
X176142948Y-99044068D02*
X176198586Y-99099707D01*
X176198586Y-99099707D02*
X176309862Y-99155345D01*
X176309862Y-99155345D02*
X176754967Y-99155345D01*
X175030186Y-98543326D02*
X175586567Y-98543326D01*
X175586567Y-98543326D02*
X175642205Y-99099707D01*
X175642205Y-99099707D02*
X175586567Y-99044068D01*
X175586567Y-99044068D02*
X175475291Y-98988430D01*
X175475291Y-98988430D02*
X175197100Y-98988430D01*
X175197100Y-98988430D02*
X175085824Y-99044068D01*
X175085824Y-99044068D02*
X175030186Y-99099707D01*
X175030186Y-99099707D02*
X174974548Y-99210983D01*
X174974548Y-99210983D02*
X174974548Y-99489173D01*
X174974548Y-99489173D02*
X175030186Y-99600449D01*
X175030186Y-99600449D02*
X175085824Y-99656088D01*
X175085824Y-99656088D02*
X175197100Y-99711726D01*
X175197100Y-99711726D02*
X175475291Y-99711726D01*
X175475291Y-99711726D02*
X175586567Y-99656088D01*
X175586567Y-99656088D02*
X175642205Y-99600449D01*
X176921881Y-109973326D02*
X176254224Y-109973326D01*
X176588053Y-111141726D02*
X176588053Y-109973326D01*
X175197100Y-111030449D02*
X175252738Y-111086088D01*
X175252738Y-111086088D02*
X175419652Y-111141726D01*
X175419652Y-111141726D02*
X175530928Y-111141726D01*
X175530928Y-111141726D02*
X175697843Y-111086088D01*
X175697843Y-111086088D02*
X175809119Y-110974811D01*
X175809119Y-110974811D02*
X175864757Y-110863535D01*
X175864757Y-110863535D02*
X175920395Y-110640983D01*
X175920395Y-110640983D02*
X175920395Y-110474068D01*
X175920395Y-110474068D02*
X175864757Y-110251516D01*
X175864757Y-110251516D02*
X175809119Y-110140240D01*
X175809119Y-110140240D02*
X175697843Y-110028964D01*
X175697843Y-110028964D02*
X175530928Y-109973326D01*
X175530928Y-109973326D02*
X175419652Y-109973326D01*
X175419652Y-109973326D02*
X175252738Y-110028964D01*
X175252738Y-110028964D02*
X175197100Y-110084602D01*
X174028700Y-111141726D02*
X174418167Y-110585345D01*
X174696357Y-111141726D02*
X174696357Y-109973326D01*
X174696357Y-109973326D02*
X174251252Y-109973326D01*
X174251252Y-109973326D02*
X174139976Y-110028964D01*
X174139976Y-110028964D02*
X174084338Y-110084602D01*
X174084338Y-110084602D02*
X174028700Y-110195878D01*
X174028700Y-110195878D02*
X174028700Y-110362792D01*
X174028700Y-110362792D02*
X174084338Y-110474068D01*
X174084338Y-110474068D02*
X174139976Y-110529707D01*
X174139976Y-110529707D02*
X174251252Y-110585345D01*
X174251252Y-110585345D02*
X174696357Y-110585345D01*
X173694871Y-109973326D02*
X173027214Y-109973326D01*
X173361043Y-111141726D02*
X173361043Y-109973326D01*
X172081366Y-109973326D02*
X172637747Y-109973326D01*
X172637747Y-109973326D02*
X172693385Y-110529707D01*
X172693385Y-110529707D02*
X172637747Y-110474068D01*
X172637747Y-110474068D02*
X172526471Y-110418430D01*
X172526471Y-110418430D02*
X172248280Y-110418430D01*
X172248280Y-110418430D02*
X172137004Y-110474068D01*
X172137004Y-110474068D02*
X172081366Y-110529707D01*
X172081366Y-110529707D02*
X172025728Y-110640983D01*
X172025728Y-110640983D02*
X172025728Y-110919173D01*
X172025728Y-110919173D02*
X172081366Y-111030449D01*
X172081366Y-111030449D02*
X172137004Y-111086088D01*
X172137004Y-111086088D02*
X172248280Y-111141726D01*
X172248280Y-111141726D02*
X172526471Y-111141726D01*
X172526471Y-111141726D02*
X172637747Y-111086088D01*
X172637747Y-111086088D02*
X172693385Y-111030449D01*
X171302433Y-109973326D02*
X171191156Y-109973326D01*
X171191156Y-109973326D02*
X171079880Y-110028964D01*
X171079880Y-110028964D02*
X171024242Y-110084602D01*
X171024242Y-110084602D02*
X170968604Y-110195878D01*
X170968604Y-110195878D02*
X170912966Y-110418430D01*
X170912966Y-110418430D02*
X170912966Y-110696621D01*
X170912966Y-110696621D02*
X170968604Y-110919173D01*
X170968604Y-110919173D02*
X171024242Y-111030449D01*
X171024242Y-111030449D02*
X171079880Y-111086088D01*
X171079880Y-111086088D02*
X171191156Y-111141726D01*
X171191156Y-111141726D02*
X171302433Y-111141726D01*
X171302433Y-111141726D02*
X171413709Y-111086088D01*
X171413709Y-111086088D02*
X171469347Y-111030449D01*
X171469347Y-111030449D02*
X171524985Y-110919173D01*
X171524985Y-110919173D02*
X171580623Y-110696621D01*
X171580623Y-110696621D02*
X171580623Y-110418430D01*
X171580623Y-110418430D02*
X171524985Y-110195878D01*
X171524985Y-110195878D02*
X171469347Y-110084602D01*
X171469347Y-110084602D02*
X171413709Y-110028964D01*
X171413709Y-110028964D02*
X171302433Y-109973326D01*
X170189671Y-109973326D02*
X170078394Y-109973326D01*
X170078394Y-109973326D02*
X169967118Y-110028964D01*
X169967118Y-110028964D02*
X169911480Y-110084602D01*
X169911480Y-110084602D02*
X169855842Y-110195878D01*
X169855842Y-110195878D02*
X169800204Y-110418430D01*
X169800204Y-110418430D02*
X169800204Y-110696621D01*
X169800204Y-110696621D02*
X169855842Y-110919173D01*
X169855842Y-110919173D02*
X169911480Y-111030449D01*
X169911480Y-111030449D02*
X169967118Y-111086088D01*
X169967118Y-111086088D02*
X170078394Y-111141726D01*
X170078394Y-111141726D02*
X170189671Y-111141726D01*
X170189671Y-111141726D02*
X170300947Y-111086088D01*
X170300947Y-111086088D02*
X170356585Y-111030449D01*
X170356585Y-111030449D02*
X170412223Y-110919173D01*
X170412223Y-110919173D02*
X170467861Y-110696621D01*
X170467861Y-110696621D02*
X170467861Y-110418430D01*
X170467861Y-110418430D02*
X170412223Y-110195878D01*
X170412223Y-110195878D02*
X170356585Y-110084602D01*
X170356585Y-110084602D02*
X170300947Y-110028964D01*
X170300947Y-110028964D02*
X170189671Y-109973326D01*
X169076909Y-109973326D02*
X168965632Y-109973326D01*
X168965632Y-109973326D02*
X168854356Y-110028964D01*
X168854356Y-110028964D02*
X168798718Y-110084602D01*
X168798718Y-110084602D02*
X168743080Y-110195878D01*
X168743080Y-110195878D02*
X168687442Y-110418430D01*
X168687442Y-110418430D02*
X168687442Y-110696621D01*
X168687442Y-110696621D02*
X168743080Y-110919173D01*
X168743080Y-110919173D02*
X168798718Y-111030449D01*
X168798718Y-111030449D02*
X168854356Y-111086088D01*
X168854356Y-111086088D02*
X168965632Y-111141726D01*
X168965632Y-111141726D02*
X169076909Y-111141726D01*
X169076909Y-111141726D02*
X169188185Y-111086088D01*
X169188185Y-111086088D02*
X169243823Y-111030449D01*
X169243823Y-111030449D02*
X169299461Y-110919173D01*
X169299461Y-110919173D02*
X169355099Y-110696621D01*
X169355099Y-110696621D02*
X169355099Y-110418430D01*
X169355099Y-110418430D02*
X169299461Y-110195878D01*
X169299461Y-110195878D02*
X169243823Y-110084602D01*
X169243823Y-110084602D02*
X169188185Y-110028964D01*
X169188185Y-110028964D02*
X169076909Y-109973326D01*
D16*
X175593333Y-108194819D02*
X175593333Y-108909104D01*
X175593333Y-108909104D02*
X175640952Y-109051961D01*
X175640952Y-109051961D02*
X175736190Y-109147200D01*
X175736190Y-109147200D02*
X175879047Y-109194819D01*
X175879047Y-109194819D02*
X175974285Y-109194819D01*
X174688571Y-108194819D02*
X174879047Y-108194819D01*
X174879047Y-108194819D02*
X174974285Y-108242438D01*
X174974285Y-108242438D02*
X175021904Y-108290057D01*
X175021904Y-108290057D02*
X175117142Y-108432914D01*
X175117142Y-108432914D02*
X175164761Y-108623390D01*
X175164761Y-108623390D02*
X175164761Y-109004342D01*
X175164761Y-109004342D02*
X175117142Y-109099580D01*
X175117142Y-109099580D02*
X175069523Y-109147200D01*
X175069523Y-109147200D02*
X174974285Y-109194819D01*
X174974285Y-109194819D02*
X174783809Y-109194819D01*
X174783809Y-109194819D02*
X174688571Y-109147200D01*
X174688571Y-109147200D02*
X174640952Y-109099580D01*
X174640952Y-109099580D02*
X174593333Y-109004342D01*
X174593333Y-109004342D02*
X174593333Y-108766247D01*
X174593333Y-108766247D02*
X174640952Y-108671009D01*
X174640952Y-108671009D02*
X174688571Y-108623390D01*
X174688571Y-108623390D02*
X174783809Y-108575771D01*
X174783809Y-108575771D02*
X174974285Y-108575771D01*
X174974285Y-108575771D02*
X175069523Y-108623390D01*
X175069523Y-108623390D02*
X175117142Y-108671009D01*
X175117142Y-108671009D02*
X175164761Y-108766247D01*
D12*
X144574550Y-85432310D02*
X144518912Y-85487948D01*
X144518912Y-85487948D02*
X144463273Y-85654862D01*
X144463273Y-85654862D02*
X144463273Y-85766138D01*
X144463273Y-85766138D02*
X144518912Y-85933053D01*
X144518912Y-85933053D02*
X144630188Y-86044329D01*
X144630188Y-86044329D02*
X144741464Y-86099967D01*
X144741464Y-86099967D02*
X144964016Y-86155605D01*
X144964016Y-86155605D02*
X145130931Y-86155605D01*
X145130931Y-86155605D02*
X145353483Y-86099967D01*
X145353483Y-86099967D02*
X145464759Y-86044329D01*
X145464759Y-86044329D02*
X145576035Y-85933053D01*
X145576035Y-85933053D02*
X145631673Y-85766138D01*
X145631673Y-85766138D02*
X145631673Y-85654862D01*
X145631673Y-85654862D02*
X145576035Y-85487948D01*
X145576035Y-85487948D02*
X145520397Y-85432310D01*
X144463273Y-84319548D02*
X144463273Y-84987205D01*
X144463273Y-84653377D02*
X145631673Y-84653377D01*
X145631673Y-84653377D02*
X145464759Y-84764653D01*
X145464759Y-84764653D02*
X145353483Y-84875929D01*
X145353483Y-84875929D02*
X145297845Y-84987205D01*
D17*
X164484261Y-90156571D02*
X164101583Y-90224102D01*
X164214135Y-89886445D02*
X163741414Y-90359165D01*
X163741414Y-90359165D02*
X163921499Y-90539249D01*
X163921499Y-90539249D02*
X163989030Y-90561760D01*
X163989030Y-90561760D02*
X164034051Y-90561760D01*
X164034051Y-90561760D02*
X164101583Y-90539249D01*
X164101583Y-90539249D02*
X164169114Y-90471718D01*
X164169114Y-90471718D02*
X164191625Y-90404186D01*
X164191625Y-90404186D02*
X164191625Y-90359165D01*
X164191625Y-90359165D02*
X164169114Y-90291634D01*
X164169114Y-90291634D02*
X163989030Y-90111550D01*
X164934471Y-90606781D02*
X164664345Y-90336655D01*
X164799408Y-90471718D02*
X164326688Y-90944438D01*
X164326688Y-90944438D02*
X164349198Y-90831886D01*
X164349198Y-90831886D02*
X164349198Y-90741844D01*
X164349198Y-90741844D02*
X164326688Y-90674312D01*
D16*
X154003333Y-133284819D02*
X154003333Y-133999104D01*
X154003333Y-133999104D02*
X154050952Y-134141961D01*
X154050952Y-134141961D02*
X154146190Y-134237200D01*
X154146190Y-134237200D02*
X154289047Y-134284819D01*
X154289047Y-134284819D02*
X154384285Y-134284819D01*
X153050952Y-133284819D02*
X153527142Y-133284819D01*
X153527142Y-133284819D02*
X153574761Y-133761009D01*
X153574761Y-133761009D02*
X153527142Y-133713390D01*
X153527142Y-133713390D02*
X153431904Y-133665771D01*
X153431904Y-133665771D02*
X153193809Y-133665771D01*
X153193809Y-133665771D02*
X153098571Y-133713390D01*
X153098571Y-133713390D02*
X153050952Y-133761009D01*
X153050952Y-133761009D02*
X153003333Y-133856247D01*
X153003333Y-133856247D02*
X153003333Y-134094342D01*
X153003333Y-134094342D02*
X153050952Y-134189580D01*
X153050952Y-134189580D02*
X153098571Y-134237200D01*
X153098571Y-134237200D02*
X153193809Y-134284819D01*
X153193809Y-134284819D02*
X153431904Y-134284819D01*
X153431904Y-134284819D02*
X153527142Y-134237200D01*
X153527142Y-134237200D02*
X153574761Y-134189580D01*
D17*
X163013428Y-121284261D02*
X162945897Y-120901583D01*
X163283554Y-121014135D02*
X162810834Y-120541414D01*
X162810834Y-120541414D02*
X162630750Y-120721499D01*
X162630750Y-120721499D02*
X162608239Y-120789030D01*
X162608239Y-120789030D02*
X162608239Y-120834051D01*
X162608239Y-120834051D02*
X162630750Y-120901583D01*
X162630750Y-120901583D02*
X162698281Y-120969114D01*
X162698281Y-120969114D02*
X162765813Y-120991625D01*
X162765813Y-120991625D02*
X162810834Y-120991625D01*
X162810834Y-120991625D02*
X162878365Y-120969114D01*
X162878365Y-120969114D02*
X163058449Y-120789030D01*
X162383134Y-120969114D02*
X162090497Y-121261751D01*
X162090497Y-121261751D02*
X162428155Y-121284261D01*
X162428155Y-121284261D02*
X162360624Y-121351793D01*
X162360624Y-121351793D02*
X162338113Y-121419324D01*
X162338113Y-121419324D02*
X162338113Y-121464345D01*
X162338113Y-121464345D02*
X162360624Y-121531877D01*
X162360624Y-121531877D02*
X162473176Y-121644429D01*
X162473176Y-121644429D02*
X162540708Y-121666940D01*
X162540708Y-121666940D02*
X162585729Y-121666940D01*
X162585729Y-121666940D02*
X162653260Y-121644429D01*
X162653260Y-121644429D02*
X162788323Y-121509366D01*
X162788323Y-121509366D02*
X162810834Y-121441835D01*
X162810834Y-121441835D02*
X162810834Y-121396814D01*
D18*
X142867514Y-102007094D02*
X141724514Y-102007094D01*
X141724514Y-102007094D02*
X142540943Y-102388094D01*
X142540943Y-102388094D02*
X141724514Y-102769094D01*
X141724514Y-102769094D02*
X142867514Y-102769094D01*
X141724514Y-103313380D02*
X142649800Y-103313380D01*
X142649800Y-103313380D02*
X142758657Y-103367809D01*
X142758657Y-103367809D02*
X142813086Y-103422238D01*
X142813086Y-103422238D02*
X142867514Y-103531095D01*
X142867514Y-103531095D02*
X142867514Y-103748809D01*
X142867514Y-103748809D02*
X142813086Y-103857666D01*
X142813086Y-103857666D02*
X142758657Y-103912095D01*
X142758657Y-103912095D02*
X142649800Y-103966523D01*
X142649800Y-103966523D02*
X141724514Y-103966523D01*
X141724514Y-104401952D02*
X142867514Y-105163952D01*
X141724514Y-105163952D02*
X142867514Y-104401952D01*
X141724514Y-105817095D02*
X141724514Y-105925952D01*
X141724514Y-105925952D02*
X141778943Y-106034809D01*
X141778943Y-106034809D02*
X141833371Y-106089238D01*
X141833371Y-106089238D02*
X141942228Y-106143666D01*
X141942228Y-106143666D02*
X142159943Y-106198095D01*
X142159943Y-106198095D02*
X142432086Y-106198095D01*
X142432086Y-106198095D02*
X142649800Y-106143666D01*
X142649800Y-106143666D02*
X142758657Y-106089238D01*
X142758657Y-106089238D02*
X142813086Y-106034809D01*
X142813086Y-106034809D02*
X142867514Y-105925952D01*
X142867514Y-105925952D02*
X142867514Y-105817095D01*
X142867514Y-105817095D02*
X142813086Y-105708238D01*
X142813086Y-105708238D02*
X142758657Y-105653809D01*
X142758657Y-105653809D02*
X142649800Y-105599380D01*
X142649800Y-105599380D02*
X142432086Y-105544952D01*
X142432086Y-105544952D02*
X142159943Y-105544952D01*
X142159943Y-105544952D02*
X141942228Y-105599380D01*
X141942228Y-105599380D02*
X141833371Y-105653809D01*
X141833371Y-105653809D02*
X141778943Y-105708238D01*
X141778943Y-105708238D02*
X141724514Y-105817095D01*
D17*
X147273187Y-126983528D02*
X147496030Y-126665182D01*
X147655203Y-126983528D02*
X147655203Y-126315000D01*
X147655203Y-126315000D02*
X147400526Y-126315000D01*
X147400526Y-126315000D02*
X147336857Y-126346835D01*
X147336857Y-126346835D02*
X147305022Y-126378670D01*
X147305022Y-126378670D02*
X147273187Y-126442339D01*
X147273187Y-126442339D02*
X147273187Y-126537843D01*
X147273187Y-126537843D02*
X147305022Y-126601512D01*
X147305022Y-126601512D02*
X147336857Y-126633347D01*
X147336857Y-126633347D02*
X147400526Y-126665182D01*
X147400526Y-126665182D02*
X147655203Y-126665182D01*
X146700163Y-126537843D02*
X146700163Y-126983528D01*
X146859337Y-126283166D02*
X147018510Y-126760686D01*
X147018510Y-126760686D02*
X146604659Y-126760686D01*
D12*
X156803912Y-80330605D02*
X156748273Y-80163691D01*
X156748273Y-80163691D02*
X156748273Y-79885500D01*
X156748273Y-79885500D02*
X156803912Y-79774224D01*
X156803912Y-79774224D02*
X156859550Y-79718586D01*
X156859550Y-79718586D02*
X156970826Y-79662948D01*
X156970826Y-79662948D02*
X157082102Y-79662948D01*
X157082102Y-79662948D02*
X157193378Y-79718586D01*
X157193378Y-79718586D02*
X157249016Y-79774224D01*
X157249016Y-79774224D02*
X157304654Y-79885500D01*
X157304654Y-79885500D02*
X157360292Y-80108053D01*
X157360292Y-80108053D02*
X157415931Y-80219329D01*
X157415931Y-80219329D02*
X157471569Y-80274967D01*
X157471569Y-80274967D02*
X157582845Y-80330605D01*
X157582845Y-80330605D02*
X157694121Y-80330605D01*
X157694121Y-80330605D02*
X157805397Y-80274967D01*
X157805397Y-80274967D02*
X157861035Y-80219329D01*
X157861035Y-80219329D02*
X157916673Y-80108053D01*
X157916673Y-80108053D02*
X157916673Y-79829862D01*
X157916673Y-79829862D02*
X157861035Y-79662948D01*
X157916673Y-79329119D02*
X157916673Y-78661462D01*
X156748273Y-78995291D02*
X157916673Y-78995291D01*
X156748273Y-78271995D02*
X157916673Y-78271995D01*
X157916673Y-78271995D02*
X157916673Y-77993805D01*
X157916673Y-77993805D02*
X157861035Y-77826890D01*
X157861035Y-77826890D02*
X157749759Y-77715614D01*
X157749759Y-77715614D02*
X157638483Y-77659976D01*
X157638483Y-77659976D02*
X157415931Y-77604338D01*
X157415931Y-77604338D02*
X157249016Y-77604338D01*
X157249016Y-77604338D02*
X157026464Y-77659976D01*
X157026464Y-77659976D02*
X156915188Y-77715614D01*
X156915188Y-77715614D02*
X156803912Y-77826890D01*
X156803912Y-77826890D02*
X156748273Y-77993805D01*
X156748273Y-77993805D02*
X156748273Y-78271995D01*
X157360292Y-76714128D02*
X157304654Y-76547214D01*
X157304654Y-76547214D02*
X157249016Y-76491576D01*
X157249016Y-76491576D02*
X157137740Y-76435938D01*
X157137740Y-76435938D02*
X156970826Y-76435938D01*
X156970826Y-76435938D02*
X156859550Y-76491576D01*
X156859550Y-76491576D02*
X156803912Y-76547214D01*
X156803912Y-76547214D02*
X156748273Y-76658490D01*
X156748273Y-76658490D02*
X156748273Y-77103595D01*
X156748273Y-77103595D02*
X157916673Y-77103595D01*
X157916673Y-77103595D02*
X157916673Y-76714128D01*
X157916673Y-76714128D02*
X157861035Y-76602852D01*
X157861035Y-76602852D02*
X157805397Y-76547214D01*
X157805397Y-76547214D02*
X157694121Y-76491576D01*
X157694121Y-76491576D02*
X157582845Y-76491576D01*
X157582845Y-76491576D02*
X157471569Y-76547214D01*
X157471569Y-76547214D02*
X157415931Y-76602852D01*
X157415931Y-76602852D02*
X157360292Y-76714128D01*
X157360292Y-76714128D02*
X157360292Y-77103595D01*
X157304654Y-75712643D02*
X156748273Y-75712643D01*
X157916673Y-76102109D02*
X157304654Y-75712643D01*
X157304654Y-75712643D02*
X157916673Y-75323176D01*
X157916673Y-74711157D02*
X157916673Y-74599880D01*
X157916673Y-74599880D02*
X157861035Y-74488604D01*
X157861035Y-74488604D02*
X157805397Y-74432966D01*
X157805397Y-74432966D02*
X157694121Y-74377328D01*
X157694121Y-74377328D02*
X157471569Y-74321690D01*
X157471569Y-74321690D02*
X157193378Y-74321690D01*
X157193378Y-74321690D02*
X156970826Y-74377328D01*
X156970826Y-74377328D02*
X156859550Y-74432966D01*
X156859550Y-74432966D02*
X156803912Y-74488604D01*
X156803912Y-74488604D02*
X156748273Y-74599880D01*
X156748273Y-74599880D02*
X156748273Y-74711157D01*
X156748273Y-74711157D02*
X156803912Y-74822433D01*
X156803912Y-74822433D02*
X156859550Y-74878071D01*
X156859550Y-74878071D02*
X156970826Y-74933709D01*
X156970826Y-74933709D02*
X157193378Y-74989347D01*
X157193378Y-74989347D02*
X157471569Y-74989347D01*
X157471569Y-74989347D02*
X157694121Y-74933709D01*
X157694121Y-74933709D02*
X157805397Y-74878071D01*
X157805397Y-74878071D02*
X157861035Y-74822433D01*
X157861035Y-74822433D02*
X157916673Y-74711157D01*
D16*
X144074819Y-77771666D02*
X144789104Y-77771666D01*
X144789104Y-77771666D02*
X144931961Y-77724047D01*
X144931961Y-77724047D02*
X145027200Y-77628809D01*
X145027200Y-77628809D02*
X145074819Y-77485952D01*
X145074819Y-77485952D02*
X145074819Y-77390714D01*
X144408152Y-78676428D02*
X145074819Y-78676428D01*
X144027200Y-78438333D02*
X144741485Y-78200238D01*
X144741485Y-78200238D02*
X144741485Y-78819285D01*
D12*
X154909550Y-79637310D02*
X154853912Y-79692948D01*
X154853912Y-79692948D02*
X154798273Y-79859862D01*
X154798273Y-79859862D02*
X154798273Y-79971138D01*
X154798273Y-79971138D02*
X154853912Y-80138053D01*
X154853912Y-80138053D02*
X154965188Y-80249329D01*
X154965188Y-80249329D02*
X155076464Y-80304967D01*
X155076464Y-80304967D02*
X155299016Y-80360605D01*
X155299016Y-80360605D02*
X155465931Y-80360605D01*
X155465931Y-80360605D02*
X155688483Y-80304967D01*
X155688483Y-80304967D02*
X155799759Y-80249329D01*
X155799759Y-80249329D02*
X155911035Y-80138053D01*
X155911035Y-80138053D02*
X155966673Y-79971138D01*
X155966673Y-79971138D02*
X155966673Y-79859862D01*
X155966673Y-79859862D02*
X155911035Y-79692948D01*
X155911035Y-79692948D02*
X155855397Y-79637310D01*
X154798273Y-79136567D02*
X155966673Y-79136567D01*
X155410292Y-79136567D02*
X155410292Y-78468910D01*
X154798273Y-78468910D02*
X155966673Y-78468910D01*
X154798273Y-77244872D02*
X155354654Y-77634339D01*
X154798273Y-77912529D02*
X155966673Y-77912529D01*
X155966673Y-77912529D02*
X155966673Y-77467424D01*
X155966673Y-77467424D02*
X155911035Y-77356148D01*
X155911035Y-77356148D02*
X155855397Y-77300510D01*
X155855397Y-77300510D02*
X155744121Y-77244872D01*
X155744121Y-77244872D02*
X155577207Y-77244872D01*
X155577207Y-77244872D02*
X155465931Y-77300510D01*
X155465931Y-77300510D02*
X155410292Y-77356148D01*
X155410292Y-77356148D02*
X155354654Y-77467424D01*
X155354654Y-77467424D02*
X155354654Y-77912529D01*
X155911035Y-76132110D02*
X155966673Y-76243386D01*
X155966673Y-76243386D02*
X155966673Y-76410300D01*
X155966673Y-76410300D02*
X155911035Y-76577215D01*
X155911035Y-76577215D02*
X155799759Y-76688491D01*
X155799759Y-76688491D02*
X155688483Y-76744129D01*
X155688483Y-76744129D02*
X155465931Y-76799767D01*
X155465931Y-76799767D02*
X155299016Y-76799767D01*
X155299016Y-76799767D02*
X155076464Y-76744129D01*
X155076464Y-76744129D02*
X154965188Y-76688491D01*
X154965188Y-76688491D02*
X154853912Y-76577215D01*
X154853912Y-76577215D02*
X154798273Y-76410300D01*
X154798273Y-76410300D02*
X154798273Y-76299024D01*
X154798273Y-76299024D02*
X154853912Y-76132110D01*
X154853912Y-76132110D02*
X154909550Y-76076472D01*
X154909550Y-76076472D02*
X155299016Y-76076472D01*
X155299016Y-76076472D02*
X155299016Y-76299024D01*
X155966673Y-75353177D02*
X155966673Y-75241900D01*
X155966673Y-75241900D02*
X155911035Y-75130624D01*
X155911035Y-75130624D02*
X155855397Y-75074986D01*
X155855397Y-75074986D02*
X155744121Y-75019348D01*
X155744121Y-75019348D02*
X155521569Y-74963710D01*
X155521569Y-74963710D02*
X155243378Y-74963710D01*
X155243378Y-74963710D02*
X155020826Y-75019348D01*
X155020826Y-75019348D02*
X154909550Y-75074986D01*
X154909550Y-75074986D02*
X154853912Y-75130624D01*
X154853912Y-75130624D02*
X154798273Y-75241900D01*
X154798273Y-75241900D02*
X154798273Y-75353177D01*
X154798273Y-75353177D02*
X154853912Y-75464453D01*
X154853912Y-75464453D02*
X154909550Y-75520091D01*
X154909550Y-75520091D02*
X155020826Y-75575729D01*
X155020826Y-75575729D02*
X155243378Y-75631367D01*
X155243378Y-75631367D02*
X155521569Y-75631367D01*
X155521569Y-75631367D02*
X155744121Y-75575729D01*
X155744121Y-75575729D02*
X155855397Y-75520091D01*
X155855397Y-75520091D02*
X155911035Y-75464453D01*
X155911035Y-75464453D02*
X155966673Y-75353177D01*
D17*
X133746571Y-88595738D02*
X133814102Y-88978416D01*
X133476445Y-88865864D02*
X133949165Y-89338585D01*
X133949165Y-89338585D02*
X134129249Y-89158500D01*
X134129249Y-89158500D02*
X134151760Y-89090969D01*
X134151760Y-89090969D02*
X134151760Y-89045948D01*
X134151760Y-89045948D02*
X134129249Y-88978416D01*
X134129249Y-88978416D02*
X134061718Y-88910885D01*
X134061718Y-88910885D02*
X133994186Y-88888374D01*
X133994186Y-88888374D02*
X133949165Y-88888374D01*
X133949165Y-88888374D02*
X133881634Y-88910885D01*
X133881634Y-88910885D02*
X133701550Y-89090969D01*
X134376865Y-88910885D02*
X134692012Y-88595738D01*
X134692012Y-88595738D02*
X134016697Y-88325612D01*
D12*
X164455128Y-80900975D02*
X163628945Y-80074791D01*
X163628945Y-80074791D02*
X163314208Y-80389528D01*
X163314208Y-80389528D02*
X163274866Y-80507554D01*
X163274866Y-80507554D02*
X163274866Y-80586238D01*
X163274866Y-80586238D02*
X163314208Y-80704264D01*
X163314208Y-80704264D02*
X163432234Y-80822291D01*
X163432234Y-80822291D02*
X163550261Y-80861633D01*
X163550261Y-80861633D02*
X163628945Y-80861633D01*
X163628945Y-80861633D02*
X163746971Y-80822291D01*
X163746971Y-80822291D02*
X164061707Y-80507554D01*
X162881445Y-80822291D02*
X162330656Y-81373080D01*
X162330656Y-81373080D02*
X163510918Y-81845185D01*
X171829201Y-88038996D02*
X171357096Y-88511101D01*
X172419332Y-89101232D02*
X171593148Y-88275048D01*
X171357096Y-90006100D02*
X171435780Y-90006100D01*
X171435780Y-90006100D02*
X171593148Y-89927416D01*
X171593148Y-89927416D02*
X171671832Y-89848732D01*
X171671832Y-89848732D02*
X171750516Y-89691363D01*
X171750516Y-89691363D02*
X171750516Y-89533995D01*
X171750516Y-89533995D02*
X171711174Y-89415969D01*
X171711174Y-89415969D02*
X171593148Y-89219259D01*
X171593148Y-89219259D02*
X171475122Y-89101232D01*
X171475122Y-89101232D02*
X171278411Y-88983206D01*
X171278411Y-88983206D02*
X171160385Y-88943864D01*
X171160385Y-88943864D02*
X171003017Y-88943864D01*
X171003017Y-88943864D02*
X170845649Y-89022548D01*
X170845649Y-89022548D02*
X170766965Y-89101232D01*
X170766965Y-89101232D02*
X170688280Y-89258601D01*
X170688280Y-89258601D02*
X170688280Y-89337285D01*
X170609596Y-90910968D02*
X170491570Y-90242153D01*
X171081701Y-90438863D02*
X170255518Y-89612679D01*
X170255518Y-89612679D02*
X169940781Y-89927416D01*
X169940781Y-89927416D02*
X169901439Y-90045442D01*
X169901439Y-90045442D02*
X169901439Y-90124126D01*
X169901439Y-90124126D02*
X169940781Y-90242153D01*
X169940781Y-90242153D02*
X170058807Y-90360179D01*
X170058807Y-90360179D02*
X170176833Y-90399521D01*
X170176833Y-90399521D02*
X170255518Y-90399521D01*
X170255518Y-90399521D02*
X170373544Y-90360179D01*
X170373544Y-90360179D02*
X170688280Y-90045442D01*
X169547360Y-90320837D02*
X169075255Y-90792942D01*
X170137491Y-91383073D02*
X169311308Y-90556889D01*
X168406440Y-91461757D02*
X168799860Y-91068336D01*
X168799860Y-91068336D02*
X169232623Y-91422415D01*
X169232623Y-91422415D02*
X169153939Y-91422415D01*
X169153939Y-91422415D02*
X169035913Y-91461757D01*
X169035913Y-91461757D02*
X168839203Y-91658468D01*
X168839203Y-91658468D02*
X168799860Y-91776494D01*
X168799860Y-91776494D02*
X168799860Y-91855178D01*
X168799860Y-91855178D02*
X168839203Y-91973204D01*
X168839203Y-91973204D02*
X169035913Y-92169915D01*
X169035913Y-92169915D02*
X169153939Y-92209257D01*
X169153939Y-92209257D02*
X169232623Y-92209257D01*
X169232623Y-92209257D02*
X169350650Y-92169915D01*
X169350650Y-92169915D02*
X169547360Y-91973204D01*
X169547360Y-91973204D02*
X169586702Y-91855178D01*
X169586702Y-91855178D02*
X169586702Y-91776494D01*
X167855651Y-92012546D02*
X167776966Y-92091230D01*
X167776966Y-92091230D02*
X167737624Y-92209257D01*
X167737624Y-92209257D02*
X167737624Y-92287941D01*
X167737624Y-92287941D02*
X167776966Y-92405967D01*
X167776966Y-92405967D02*
X167894993Y-92602677D01*
X167894993Y-92602677D02*
X168091703Y-92799388D01*
X168091703Y-92799388D02*
X168288413Y-92917414D01*
X168288413Y-92917414D02*
X168406440Y-92956756D01*
X168406440Y-92956756D02*
X168485124Y-92956756D01*
X168485124Y-92956756D02*
X168603150Y-92917414D01*
X168603150Y-92917414D02*
X168681834Y-92838730D01*
X168681834Y-92838730D02*
X168721176Y-92720704D01*
X168721176Y-92720704D02*
X168721176Y-92642019D01*
X168721176Y-92642019D02*
X168681834Y-92523993D01*
X168681834Y-92523993D02*
X168563808Y-92327283D01*
X168563808Y-92327283D02*
X168367098Y-92130573D01*
X168367098Y-92130573D02*
X168170387Y-92012546D01*
X168170387Y-92012546D02*
X168052361Y-91973204D01*
X168052361Y-91973204D02*
X167973677Y-91973204D01*
X167973677Y-91973204D02*
X167855651Y-92012546D01*
X167068809Y-92799388D02*
X166990125Y-92878072D01*
X166990125Y-92878072D02*
X166950783Y-92996098D01*
X166950783Y-92996098D02*
X166950783Y-93074782D01*
X166950783Y-93074782D02*
X166990125Y-93192809D01*
X166990125Y-93192809D02*
X167108151Y-93389519D01*
X167108151Y-93389519D02*
X167304862Y-93586229D01*
X167304862Y-93586229D02*
X167501572Y-93704256D01*
X167501572Y-93704256D02*
X167619598Y-93743598D01*
X167619598Y-93743598D02*
X167698282Y-93743598D01*
X167698282Y-93743598D02*
X167816308Y-93704256D01*
X167816308Y-93704256D02*
X167894993Y-93625571D01*
X167894993Y-93625571D02*
X167934335Y-93507545D01*
X167934335Y-93507545D02*
X167934335Y-93428861D01*
X167934335Y-93428861D02*
X167894993Y-93310835D01*
X167894993Y-93310835D02*
X167776966Y-93114124D01*
X167776966Y-93114124D02*
X167580256Y-92917414D01*
X167580256Y-92917414D02*
X167383546Y-92799388D01*
X167383546Y-92799388D02*
X167265519Y-92760046D01*
X167265519Y-92760046D02*
X167186835Y-92760046D01*
X167186835Y-92760046D02*
X167068809Y-92799388D01*
X166281968Y-93586229D02*
X166203283Y-93664914D01*
X166203283Y-93664914D02*
X166163941Y-93782940D01*
X166163941Y-93782940D02*
X166163941Y-93861624D01*
X166163941Y-93861624D02*
X166203283Y-93979650D01*
X166203283Y-93979650D02*
X166321310Y-94176361D01*
X166321310Y-94176361D02*
X166518020Y-94373071D01*
X166518020Y-94373071D02*
X166714730Y-94491097D01*
X166714730Y-94491097D02*
X166832757Y-94530439D01*
X166832757Y-94530439D02*
X166911441Y-94530439D01*
X166911441Y-94530439D02*
X167029467Y-94491097D01*
X167029467Y-94491097D02*
X167108151Y-94412413D01*
X167108151Y-94412413D02*
X167147493Y-94294387D01*
X167147493Y-94294387D02*
X167147493Y-94215703D01*
X167147493Y-94215703D02*
X167108151Y-94097676D01*
X167108151Y-94097676D02*
X166990125Y-93900966D01*
X166990125Y-93900966D02*
X166793414Y-93704256D01*
X166793414Y-93704256D02*
X166596704Y-93586229D01*
X166596704Y-93586229D02*
X166478678Y-93546887D01*
X166478678Y-93546887D02*
X166399994Y-93546887D01*
X166399994Y-93546887D02*
X166281968Y-93586229D01*
D18*
%TO.C,LED1*%
X146125000Y-121450000D02*
X146125000Y-126450000D01*
X146125000Y-126450000D02*
X151125000Y-126450000D01*
X149925000Y-121150000D02*
X150325000Y-120750000D01*
X150225000Y-121450000D02*
X146125000Y-121450000D01*
X150225000Y-121450000D02*
X149925000Y-121150000D01*
X150325000Y-120750000D02*
X151125000Y-121450000D01*
X151125000Y-121450000D02*
X150225000Y-121450000D01*
X151125000Y-122350000D02*
X150225000Y-121450000D01*
X151125000Y-122350000D02*
X151125000Y-121450000D01*
X151125000Y-126450000D02*
X151125000Y-122350000D01*
X150345462Y-123950000D02*
G75*
G02*
X146904538Y-123950000I-1720462J0D01*
G01*
X146904538Y-123950000D02*
G75*
G02*
X150345462Y-123950000I1720462J0D01*
G01*
D19*
%TO.C,J3*%
X120540000Y-112395000D02*
X120540000Y-115045000D01*
X123300000Y-109745000D02*
X121920000Y-109745000D01*
X123300000Y-111125000D02*
X123300000Y-109745000D01*
X123300000Y-112395000D02*
X120540000Y-112395000D01*
X123300000Y-112395000D02*
X123300000Y-115045000D01*
X123300000Y-115045000D02*
X120540000Y-115045000D01*
D18*
%TO.C,P3*%
X162260267Y-125016446D02*
X165313554Y-128069733D01*
X162260267Y-125016446D02*
X168456644Y-118820069D01*
X165313554Y-128069733D02*
X170701708Y-122681580D01*
X170701708Y-121065133D02*
X168456644Y-118820069D01*
X170701708Y-122681580D02*
X170701708Y-121065133D01*
%TO.C,P1*%
X125605860Y-122119147D02*
X130994013Y-127507301D01*
X128659147Y-119065860D02*
X125605860Y-122119147D01*
X128659147Y-119065860D02*
X134855524Y-125262237D01*
X130994013Y-127507301D02*
X132610460Y-127507301D01*
X132610460Y-127507301D02*
X134855524Y-125262237D01*
%TO.C,LED0*%
X146025000Y-83975000D02*
X146025000Y-88975000D01*
X146025000Y-88975000D02*
X151025000Y-88975000D01*
X149825000Y-83675000D02*
X150225000Y-83275000D01*
X150125000Y-83975000D02*
X146025000Y-83975000D01*
X150125000Y-83975000D02*
X149825000Y-83675000D01*
X150225000Y-83275000D02*
X151025000Y-83975000D01*
X151025000Y-83975000D02*
X150125000Y-83975000D01*
X151025000Y-84875000D02*
X150125000Y-83975000D01*
X151025000Y-84875000D02*
X151025000Y-83975000D01*
X151025000Y-88975000D02*
X151025000Y-84875000D01*
X150245462Y-86475000D02*
G75*
G02*
X146804538Y-86475000I-1720462J0D01*
G01*
X146804538Y-86475000D02*
G75*
G02*
X150245462Y-86475000I1720462J0D01*
G01*
%TO.C,P6*%
X143936000Y-77784000D02*
X143936000Y-80959000D01*
X145079000Y-76641000D02*
X143936000Y-77784000D01*
X152699000Y-76641000D02*
X145079000Y-76641000D01*
X152699000Y-80959000D02*
X143936000Y-80959000D01*
X152699000Y-80959000D02*
X152699000Y-76641000D01*
%TO.C,P0*%
X144033600Y-128881000D02*
X144033600Y-133199000D01*
X144033600Y-128881000D02*
X152796600Y-128881000D01*
X144033600Y-133199000D02*
X151653600Y-133199000D01*
X151653600Y-133199000D02*
X152796600Y-132056000D01*
X152796600Y-132056000D02*
X152796600Y-128881000D01*
%TO.C,P2*%
X119981000Y-100663600D02*
X119981000Y-108283600D01*
X119981000Y-108283600D02*
X121124000Y-109426600D01*
X121124000Y-109426600D02*
X124299000Y-109426600D01*
X124299000Y-100663600D02*
X119981000Y-100663600D01*
X124299000Y-100663600D02*
X124299000Y-109426600D01*
%TO.C,P4*%
X126068292Y-87158420D02*
X126068292Y-88774867D01*
X126068292Y-88774867D02*
X128313356Y-91019931D01*
X131456446Y-81770267D02*
X126068292Y-87158420D01*
X134509733Y-84823554D02*
X128313356Y-91019931D01*
X134509733Y-84823554D02*
X131456446Y-81770267D01*
%TO.C,P5*%
X172401000Y-109385000D02*
X172401000Y-100622000D01*
X172401000Y-109385000D02*
X176719000Y-109385000D01*
X175576000Y-100622000D02*
X172401000Y-100622000D01*
X176719000Y-101765000D02*
X175576000Y-100622000D01*
X176719000Y-109385000D02*
X176719000Y-101765000D01*
D19*
%TO.C,J6*%
X173880000Y-112390000D02*
X173880000Y-115040000D01*
X176640000Y-109740000D02*
X175260000Y-109740000D01*
X176640000Y-111120000D02*
X176640000Y-109740000D01*
X176640000Y-112390000D02*
X173880000Y-112390000D01*
X176640000Y-112390000D02*
X176640000Y-115040000D01*
X176640000Y-115040000D02*
X173880000Y-115040000D01*
%TO.C,J5*%
X152290000Y-127530000D02*
X155050000Y-127530000D01*
X152290000Y-130180000D02*
X152290000Y-127530000D01*
X152290000Y-130180000D02*
X155050000Y-130180000D01*
X152290000Y-131450000D02*
X152290000Y-132830000D01*
X152290000Y-132830000D02*
X153670000Y-132830000D01*
X155050000Y-130180000D02*
X155050000Y-127530000D01*
D20*
%TO.C,MUX0*%
X143395000Y-102083200D02*
X153555000Y-102083200D01*
D21*
X143395000Y-103175400D02*
X143395000Y-102108600D01*
X143395000Y-104191400D02*
X143395000Y-103175400D01*
X143395000Y-105258200D02*
X143395000Y-104191400D01*
X143776000Y-101727600D02*
X153174000Y-101727600D01*
X153174000Y-105639200D02*
X143776000Y-105639200D01*
X153555000Y-102108600D02*
X153555000Y-105258200D01*
X143395000Y-102108600D02*
G75*
G02*
X143776000Y-101727600I380999J1D01*
G01*
X143395000Y-103175400D02*
G75*
G02*
X143395000Y-104191400I0J-508000D01*
G01*
X143776000Y-105639200D02*
G75*
G02*
X143395000Y-105258200I-1J380999D01*
G01*
X153174000Y-101727600D02*
G75*
G02*
X153555000Y-102108600I0J-381000D01*
G01*
X153555000Y-105258200D02*
G75*
G02*
X153174000Y-105639200I-381000J0D01*
G01*
D22*
%TO.C,STDBY0*%
X155425000Y-79145000D02*
X155575000Y-79295000D01*
X155575000Y-79295000D02*
X155750000Y-79120000D01*
X155600000Y-78970000D02*
X155425000Y-79145000D01*
X155750000Y-79120000D02*
X155600000Y-78970000D01*
D23*
X156062500Y-79395000D02*
G75*
G02*
X155937500Y-79395000I-62500J0D01*
G01*
X155937500Y-79395000D02*
G75*
G02*
X156062500Y-79395000I62500J0D01*
G01*
D19*
%TO.C,J4*%
X138320000Y-79485000D02*
X138320000Y-76725000D01*
X140970000Y-76725000D02*
X138320000Y-76725000D01*
X140970000Y-79485000D02*
X138320000Y-79485000D01*
X140970000Y-79485000D02*
X140970000Y-76725000D01*
X142240000Y-79485000D02*
X143620000Y-79485000D01*
X143620000Y-79485000D02*
X143620000Y-78105000D01*
D22*
%TO.C,CHRG0*%
X153475000Y-79175000D02*
X153625000Y-79325000D01*
X153625000Y-79325000D02*
X153800000Y-79150000D01*
X153650000Y-79000000D02*
X153475000Y-79175000D01*
X153800000Y-79150000D02*
X153650000Y-79000000D01*
D23*
X154112500Y-79425000D02*
G75*
G02*
X153987500Y-79425000I-62500J0D01*
G01*
X153987500Y-79425000D02*
G75*
G02*
X154112500Y-79425000I62500J0D01*
G01*
D18*
%TO.C,P7*%
X164265133Y-82378292D02*
X162020069Y-84623356D01*
X165881580Y-82378292D02*
X164265133Y-82378292D01*
X168216446Y-90819733D02*
X162020069Y-84623356D01*
X168216446Y-90819733D02*
X171269733Y-87766446D01*
X171269733Y-87766446D02*
X165881580Y-82378292D01*
%TD*%
M02*
