%TF.GenerationSoftware,KiCad,Pcbnew,9.0.5*%
%TF.CreationDate,2025-11-19T12:34:50-06:00*%
%TF.ProjectId,board,626f6172-642e-46b6-9963-61645f706362,rev?*%
%TF.SameCoordinates,Original*%
%TF.FileFunction,Legend,Top*%
%TF.FilePolarity,Positive*%
%FSLAX46Y46*%
G04 Gerber Fmt 4.6, Leading zero omitted, Abs format (unit mm)*
G04 Created by KiCad (PCBNEW 9.0.5) date 2025-11-19 12:34:50*
%MOMM*%
%LPD*%
G01*
G04 APERTURE LIST*
%ADD10C,0.048768*%
%ADD11C,0.101600*%
%ADD12C,0.142240*%
%ADD13C,0.081280*%
%ADD14C,0.127000*%
%ADD15C,0.150000*%
%ADD16C,0.121920*%
%ADD17C,0.152400*%
%ADD18C,0.200000*%
%ADD19C,0.223606*%
%ADD20C,0.120000*%
%ADD21C,0.203200*%
G04 APERTURE END LIST*
D10*
X168369195Y-117772610D02*
X168342489Y-117826023D01*
X168342489Y-117826023D02*
X168342489Y-117906141D01*
X168342489Y-117906141D02*
X168369195Y-117986260D01*
X168369195Y-117986260D02*
X168422608Y-118039673D01*
X168422608Y-118039673D02*
X168476020Y-118066379D01*
X168476020Y-118066379D02*
X168582845Y-118093085D01*
X168582845Y-118093085D02*
X168662964Y-118093085D01*
X168662964Y-118093085D02*
X168769789Y-118066379D01*
X168769789Y-118066379D02*
X168823202Y-118039673D01*
X168823202Y-118039673D02*
X168876615Y-117986260D01*
X168876615Y-117986260D02*
X168903321Y-117906141D01*
X168903321Y-117906141D02*
X168903321Y-117852729D01*
X168903321Y-117852729D02*
X168876615Y-117772610D01*
X168876615Y-117772610D02*
X168849908Y-117745904D01*
X168849908Y-117745904D02*
X168662964Y-117745904D01*
X168662964Y-117745904D02*
X168662964Y-117852729D01*
X168903321Y-117505547D02*
X168342489Y-117505547D01*
X168342489Y-117505547D02*
X168903321Y-117185072D01*
X168903321Y-117185072D02*
X168342489Y-117185072D01*
X168903321Y-116918009D02*
X168342489Y-116918009D01*
X168342489Y-116918009D02*
X168342489Y-116784478D01*
X168342489Y-116784478D02*
X168369195Y-116704359D01*
X168369195Y-116704359D02*
X168422608Y-116650946D01*
X168422608Y-116650946D02*
X168476020Y-116624240D01*
X168476020Y-116624240D02*
X168582845Y-116597534D01*
X168582845Y-116597534D02*
X168662964Y-116597534D01*
X168662964Y-116597534D02*
X168769789Y-116624240D01*
X168769789Y-116624240D02*
X168823202Y-116650946D01*
X168823202Y-116650946D02*
X168876615Y-116704359D01*
X168876615Y-116704359D02*
X168903321Y-116784478D01*
X168903321Y-116784478D02*
X168903321Y-116918009D01*
X128309552Y-104629435D02*
X128336258Y-104549316D01*
X128336258Y-104549316D02*
X128362964Y-104522610D01*
X128362964Y-104522610D02*
X128416377Y-104495904D01*
X128416377Y-104495904D02*
X128496496Y-104495904D01*
X128496496Y-104495904D02*
X128549908Y-104522610D01*
X128549908Y-104522610D02*
X128576615Y-104549316D01*
X128576615Y-104549316D02*
X128603321Y-104602729D01*
X128603321Y-104602729D02*
X128603321Y-104816379D01*
X128603321Y-104816379D02*
X128042489Y-104816379D01*
X128042489Y-104816379D02*
X128042489Y-104629435D01*
X128042489Y-104629435D02*
X128069195Y-104576023D01*
X128069195Y-104576023D02*
X128095901Y-104549316D01*
X128095901Y-104549316D02*
X128149314Y-104522610D01*
X128149314Y-104522610D02*
X128202727Y-104522610D01*
X128202727Y-104522610D02*
X128256139Y-104549316D01*
X128256139Y-104549316D02*
X128282845Y-104576023D01*
X128282845Y-104576023D02*
X128309552Y-104629435D01*
X128309552Y-104629435D02*
X128309552Y-104816379D01*
X168342489Y-115496498D02*
X168903321Y-115309554D01*
X168903321Y-115309554D02*
X168342489Y-115122610D01*
X168849908Y-114615191D02*
X168876615Y-114641897D01*
X168876615Y-114641897D02*
X168903321Y-114722016D01*
X168903321Y-114722016D02*
X168903321Y-114775428D01*
X168903321Y-114775428D02*
X168876615Y-114855547D01*
X168876615Y-114855547D02*
X168823202Y-114908960D01*
X168823202Y-114908960D02*
X168769789Y-114935666D01*
X168769789Y-114935666D02*
X168662964Y-114962372D01*
X168662964Y-114962372D02*
X168582845Y-114962372D01*
X168582845Y-114962372D02*
X168476020Y-114935666D01*
X168476020Y-114935666D02*
X168422608Y-114908960D01*
X168422608Y-114908960D02*
X168369195Y-114855547D01*
X168369195Y-114855547D02*
X168342489Y-114775428D01*
X168342489Y-114775428D02*
X168342489Y-114722016D01*
X168342489Y-114722016D02*
X168369195Y-114641897D01*
X168369195Y-114641897D02*
X168395901Y-114615191D01*
X168849908Y-114054359D02*
X168876615Y-114081065D01*
X168876615Y-114081065D02*
X168903321Y-114161184D01*
X168903321Y-114161184D02*
X168903321Y-114214596D01*
X168903321Y-114214596D02*
X168876615Y-114294715D01*
X168876615Y-114294715D02*
X168823202Y-114348128D01*
X168823202Y-114348128D02*
X168769789Y-114374834D01*
X168769789Y-114374834D02*
X168662964Y-114401540D01*
X168662964Y-114401540D02*
X168582845Y-114401540D01*
X168582845Y-114401540D02*
X168476020Y-114374834D01*
X168476020Y-114374834D02*
X168422608Y-114348128D01*
X168422608Y-114348128D02*
X168369195Y-114294715D01*
X168369195Y-114294715D02*
X168342489Y-114214596D01*
X168342489Y-114214596D02*
X168342489Y-114161184D01*
X168342489Y-114161184D02*
X168369195Y-114081065D01*
X168369195Y-114081065D02*
X168395901Y-114054359D01*
X128092489Y-115496498D02*
X128653321Y-115309554D01*
X128653321Y-115309554D02*
X128092489Y-115122610D01*
X128599908Y-114615191D02*
X128626615Y-114641897D01*
X128626615Y-114641897D02*
X128653321Y-114722016D01*
X128653321Y-114722016D02*
X128653321Y-114775428D01*
X128653321Y-114775428D02*
X128626615Y-114855547D01*
X128626615Y-114855547D02*
X128573202Y-114908960D01*
X128573202Y-114908960D02*
X128519789Y-114935666D01*
X128519789Y-114935666D02*
X128412964Y-114962372D01*
X128412964Y-114962372D02*
X128332845Y-114962372D01*
X128332845Y-114962372D02*
X128226020Y-114935666D01*
X128226020Y-114935666D02*
X128172608Y-114908960D01*
X128172608Y-114908960D02*
X128119195Y-114855547D01*
X128119195Y-114855547D02*
X128092489Y-114775428D01*
X128092489Y-114775428D02*
X128092489Y-114722016D01*
X128092489Y-114722016D02*
X128119195Y-114641897D01*
X128119195Y-114641897D02*
X128145901Y-114615191D01*
X128599908Y-114054359D02*
X128626615Y-114081065D01*
X128626615Y-114081065D02*
X128653321Y-114161184D01*
X128653321Y-114161184D02*
X128653321Y-114214596D01*
X128653321Y-114214596D02*
X128626615Y-114294715D01*
X128626615Y-114294715D02*
X128573202Y-114348128D01*
X128573202Y-114348128D02*
X128519789Y-114374834D01*
X128519789Y-114374834D02*
X128412964Y-114401540D01*
X128412964Y-114401540D02*
X128332845Y-114401540D01*
X128332845Y-114401540D02*
X128226020Y-114374834D01*
X128226020Y-114374834D02*
X128172608Y-114348128D01*
X128172608Y-114348128D02*
X128119195Y-114294715D01*
X128119195Y-114294715D02*
X128092489Y-114214596D01*
X128092489Y-114214596D02*
X128092489Y-114161184D01*
X128092489Y-114161184D02*
X128119195Y-114081065D01*
X128119195Y-114081065D02*
X128145901Y-114054359D01*
X168743083Y-102643085D02*
X168743083Y-102376023D01*
X168903321Y-102696498D02*
X168342489Y-102509554D01*
X168342489Y-102509554D02*
X168903321Y-102322610D01*
X128443083Y-107493085D02*
X128443083Y-107226023D01*
X128603321Y-107546498D02*
X128042489Y-107359554D01*
X128042489Y-107359554D02*
X128603321Y-107172610D01*
X128219195Y-117872610D02*
X128192489Y-117926023D01*
X128192489Y-117926023D02*
X128192489Y-118006141D01*
X128192489Y-118006141D02*
X128219195Y-118086260D01*
X128219195Y-118086260D02*
X128272608Y-118139673D01*
X128272608Y-118139673D02*
X128326020Y-118166379D01*
X128326020Y-118166379D02*
X128432845Y-118193085D01*
X128432845Y-118193085D02*
X128512964Y-118193085D01*
X128512964Y-118193085D02*
X128619789Y-118166379D01*
X128619789Y-118166379D02*
X128673202Y-118139673D01*
X128673202Y-118139673D02*
X128726615Y-118086260D01*
X128726615Y-118086260D02*
X128753321Y-118006141D01*
X128753321Y-118006141D02*
X128753321Y-117952729D01*
X128753321Y-117952729D02*
X128726615Y-117872610D01*
X128726615Y-117872610D02*
X128699908Y-117845904D01*
X128699908Y-117845904D02*
X128512964Y-117845904D01*
X128512964Y-117845904D02*
X128512964Y-117952729D01*
X128753321Y-117605547D02*
X128192489Y-117605547D01*
X128192489Y-117605547D02*
X128753321Y-117285072D01*
X128753321Y-117285072D02*
X128192489Y-117285072D01*
X128753321Y-117018009D02*
X128192489Y-117018009D01*
X128192489Y-117018009D02*
X128192489Y-116884478D01*
X128192489Y-116884478D02*
X128219195Y-116804359D01*
X128219195Y-116804359D02*
X128272608Y-116750946D01*
X128272608Y-116750946D02*
X128326020Y-116724240D01*
X128326020Y-116724240D02*
X128432845Y-116697534D01*
X128432845Y-116697534D02*
X128512964Y-116697534D01*
X128512964Y-116697534D02*
X128619789Y-116724240D01*
X128619789Y-116724240D02*
X128673202Y-116750946D01*
X128673202Y-116750946D02*
X128726615Y-116804359D01*
X128726615Y-116804359D02*
X128753321Y-116884478D01*
X128753321Y-116884478D02*
X128753321Y-117018009D01*
X144043473Y-119397341D02*
X144230417Y-119958173D01*
X144230417Y-119958173D02*
X144417361Y-119397341D01*
X144924780Y-119904760D02*
X144898074Y-119931467D01*
X144898074Y-119931467D02*
X144817955Y-119958173D01*
X144817955Y-119958173D02*
X144764543Y-119958173D01*
X144764543Y-119958173D02*
X144684424Y-119931467D01*
X144684424Y-119931467D02*
X144631011Y-119878054D01*
X144631011Y-119878054D02*
X144604305Y-119824641D01*
X144604305Y-119824641D02*
X144577599Y-119717816D01*
X144577599Y-119717816D02*
X144577599Y-119637697D01*
X144577599Y-119637697D02*
X144604305Y-119530872D01*
X144604305Y-119530872D02*
X144631011Y-119477460D01*
X144631011Y-119477460D02*
X144684424Y-119424047D01*
X144684424Y-119424047D02*
X144764543Y-119397341D01*
X144764543Y-119397341D02*
X144817955Y-119397341D01*
X144817955Y-119397341D02*
X144898074Y-119424047D01*
X144898074Y-119424047D02*
X144924780Y-119450753D01*
X145485612Y-119904760D02*
X145458906Y-119931467D01*
X145458906Y-119931467D02*
X145378787Y-119958173D01*
X145378787Y-119958173D02*
X145325375Y-119958173D01*
X145325375Y-119958173D02*
X145245256Y-119931467D01*
X145245256Y-119931467D02*
X145191843Y-119878054D01*
X145191843Y-119878054D02*
X145165137Y-119824641D01*
X145165137Y-119824641D02*
X145138431Y-119717816D01*
X145138431Y-119717816D02*
X145138431Y-119637697D01*
X145138431Y-119637697D02*
X145165137Y-119530872D01*
X145165137Y-119530872D02*
X145191843Y-119477460D01*
X145191843Y-119477460D02*
X145245256Y-119424047D01*
X145245256Y-119424047D02*
X145325375Y-119397341D01*
X145325375Y-119397341D02*
X145378787Y-119397341D01*
X145378787Y-119397341D02*
X145458906Y-119424047D01*
X145458906Y-119424047D02*
X145485612Y-119450753D01*
D11*
X171239862Y-105766369D02*
X171239862Y-106322750D01*
X171239862Y-106322750D02*
X170071462Y-106322750D01*
X170627843Y-105376902D02*
X170627843Y-104987435D01*
X171239862Y-104820521D02*
X171239862Y-105376902D01*
X171239862Y-105376902D02*
X170071462Y-105376902D01*
X170071462Y-105376902D02*
X170071462Y-104820521D01*
X170627843Y-103930311D02*
X170627843Y-104319778D01*
X171239862Y-104319778D02*
X170071462Y-104319778D01*
X170071462Y-104319778D02*
X170071462Y-103763397D01*
X170071462Y-103485206D02*
X170071462Y-102817549D01*
X171239862Y-103151378D02*
X170071462Y-103151378D01*
D12*
X169737536Y-99591265D02*
X170983830Y-99591265D01*
X170360683Y-100214412D02*
X170360683Y-98968119D01*
D10*
X152160536Y-88324047D02*
X152107124Y-88297341D01*
X152107124Y-88297341D02*
X152027005Y-88297341D01*
X152027005Y-88297341D02*
X151946886Y-88324047D01*
X151946886Y-88324047D02*
X151893473Y-88377460D01*
X151893473Y-88377460D02*
X151866767Y-88430872D01*
X151866767Y-88430872D02*
X151840061Y-88537697D01*
X151840061Y-88537697D02*
X151840061Y-88617816D01*
X151840061Y-88617816D02*
X151866767Y-88724641D01*
X151866767Y-88724641D02*
X151893473Y-88778054D01*
X151893473Y-88778054D02*
X151946886Y-88831467D01*
X151946886Y-88831467D02*
X152027005Y-88858173D01*
X152027005Y-88858173D02*
X152080417Y-88858173D01*
X152080417Y-88858173D02*
X152160536Y-88831467D01*
X152160536Y-88831467D02*
X152187242Y-88804760D01*
X152187242Y-88804760D02*
X152187242Y-88617816D01*
X152187242Y-88617816D02*
X152080417Y-88617816D01*
X152427599Y-88858173D02*
X152427599Y-88297341D01*
X152427599Y-88297341D02*
X152748074Y-88858173D01*
X152748074Y-88858173D02*
X152748074Y-88297341D01*
X153015137Y-88858173D02*
X153015137Y-88297341D01*
X153015137Y-88297341D02*
X153148668Y-88297341D01*
X153148668Y-88297341D02*
X153228787Y-88324047D01*
X153228787Y-88324047D02*
X153282200Y-88377460D01*
X153282200Y-88377460D02*
X153308906Y-88430872D01*
X153308906Y-88430872D02*
X153335612Y-88537697D01*
X153335612Y-88537697D02*
X153335612Y-88617816D01*
X153335612Y-88617816D02*
X153308906Y-88724641D01*
X153308906Y-88724641D02*
X153282200Y-88778054D01*
X153282200Y-88778054D02*
X153228787Y-88831467D01*
X153228787Y-88831467D02*
X153148668Y-88858173D01*
X153148668Y-88858173D02*
X153015137Y-88858173D01*
X152150536Y-119424047D02*
X152097124Y-119397341D01*
X152097124Y-119397341D02*
X152017005Y-119397341D01*
X152017005Y-119397341D02*
X151936886Y-119424047D01*
X151936886Y-119424047D02*
X151883473Y-119477460D01*
X151883473Y-119477460D02*
X151856767Y-119530872D01*
X151856767Y-119530872D02*
X151830061Y-119637697D01*
X151830061Y-119637697D02*
X151830061Y-119717816D01*
X151830061Y-119717816D02*
X151856767Y-119824641D01*
X151856767Y-119824641D02*
X151883473Y-119878054D01*
X151883473Y-119878054D02*
X151936886Y-119931467D01*
X151936886Y-119931467D02*
X152017005Y-119958173D01*
X152017005Y-119958173D02*
X152070417Y-119958173D01*
X152070417Y-119958173D02*
X152150536Y-119931467D01*
X152150536Y-119931467D02*
X152177242Y-119904760D01*
X152177242Y-119904760D02*
X152177242Y-119717816D01*
X152177242Y-119717816D02*
X152070417Y-119717816D01*
X152417599Y-119958173D02*
X152417599Y-119397341D01*
X152417599Y-119397341D02*
X152738074Y-119958173D01*
X152738074Y-119958173D02*
X152738074Y-119397341D01*
X153005137Y-119958173D02*
X153005137Y-119397341D01*
X153005137Y-119397341D02*
X153138668Y-119397341D01*
X153138668Y-119397341D02*
X153218787Y-119424047D01*
X153218787Y-119424047D02*
X153272200Y-119477460D01*
X153272200Y-119477460D02*
X153298906Y-119530872D01*
X153298906Y-119530872D02*
X153325612Y-119637697D01*
X153325612Y-119637697D02*
X153325612Y-119717816D01*
X153325612Y-119717816D02*
X153298906Y-119824641D01*
X153298906Y-119824641D02*
X153272200Y-119878054D01*
X153272200Y-119878054D02*
X153218787Y-119931467D01*
X153218787Y-119931467D02*
X153138668Y-119958173D01*
X153138668Y-119958173D02*
X153005137Y-119958173D01*
D12*
X168037536Y-100071265D02*
X169283830Y-100071265D01*
D10*
X128169195Y-102672610D02*
X128142489Y-102726023D01*
X128142489Y-102726023D02*
X128142489Y-102806141D01*
X128142489Y-102806141D02*
X128169195Y-102886260D01*
X128169195Y-102886260D02*
X128222608Y-102939673D01*
X128222608Y-102939673D02*
X128276020Y-102966379D01*
X128276020Y-102966379D02*
X128382845Y-102993085D01*
X128382845Y-102993085D02*
X128462964Y-102993085D01*
X128462964Y-102993085D02*
X128569789Y-102966379D01*
X128569789Y-102966379D02*
X128623202Y-102939673D01*
X128623202Y-102939673D02*
X128676615Y-102886260D01*
X128676615Y-102886260D02*
X128703321Y-102806141D01*
X128703321Y-102806141D02*
X128703321Y-102752729D01*
X128703321Y-102752729D02*
X128676615Y-102672610D01*
X128676615Y-102672610D02*
X128649908Y-102645904D01*
X128649908Y-102645904D02*
X128462964Y-102645904D01*
X128462964Y-102645904D02*
X128462964Y-102752729D01*
X128703321Y-102405547D02*
X128142489Y-102405547D01*
X128142489Y-102405547D02*
X128703321Y-102085072D01*
X128703321Y-102085072D02*
X128142489Y-102085072D01*
X128703321Y-101818009D02*
X128142489Y-101818009D01*
X128142489Y-101818009D02*
X128142489Y-101684478D01*
X128142489Y-101684478D02*
X128169195Y-101604359D01*
X128169195Y-101604359D02*
X128222608Y-101550946D01*
X128222608Y-101550946D02*
X128276020Y-101524240D01*
X128276020Y-101524240D02*
X128382845Y-101497534D01*
X128382845Y-101497534D02*
X128462964Y-101497534D01*
X128462964Y-101497534D02*
X128569789Y-101524240D01*
X128569789Y-101524240D02*
X128623202Y-101550946D01*
X128623202Y-101550946D02*
X128676615Y-101604359D01*
X128676615Y-101604359D02*
X128703321Y-101684478D01*
X128703321Y-101684478D02*
X128703321Y-101818009D01*
X168709552Y-104929435D02*
X168736258Y-104849316D01*
X168736258Y-104849316D02*
X168762964Y-104822610D01*
X168762964Y-104822610D02*
X168816377Y-104795904D01*
X168816377Y-104795904D02*
X168896496Y-104795904D01*
X168896496Y-104795904D02*
X168949908Y-104822610D01*
X168949908Y-104822610D02*
X168976615Y-104849316D01*
X168976615Y-104849316D02*
X169003321Y-104902729D01*
X169003321Y-104902729D02*
X169003321Y-105116379D01*
X169003321Y-105116379D02*
X168442489Y-105116379D01*
X168442489Y-105116379D02*
X168442489Y-104929435D01*
X168442489Y-104929435D02*
X168469195Y-104876023D01*
X168469195Y-104876023D02*
X168495901Y-104849316D01*
X168495901Y-104849316D02*
X168549314Y-104822610D01*
X168549314Y-104822610D02*
X168602727Y-104822610D01*
X168602727Y-104822610D02*
X168656139Y-104849316D01*
X168656139Y-104849316D02*
X168682845Y-104876023D01*
X168682845Y-104876023D02*
X168709552Y-104929435D01*
X168709552Y-104929435D02*
X168709552Y-105116379D01*
X168853321Y-113116379D02*
X168292489Y-113116379D01*
X168292489Y-113116379D02*
X168292489Y-112902729D01*
X168292489Y-112902729D02*
X168319195Y-112849316D01*
X168319195Y-112849316D02*
X168345901Y-112822610D01*
X168345901Y-112822610D02*
X168399314Y-112795904D01*
X168399314Y-112795904D02*
X168479433Y-112795904D01*
X168479433Y-112795904D02*
X168532845Y-112822610D01*
X168532845Y-112822610D02*
X168559552Y-112849316D01*
X168559552Y-112849316D02*
X168586258Y-112902729D01*
X168586258Y-112902729D02*
X168586258Y-113116379D01*
X168292489Y-112608960D02*
X168853321Y-112475428D01*
X168853321Y-112475428D02*
X168452727Y-112368603D01*
X168452727Y-112368603D02*
X168853321Y-112261778D01*
X168853321Y-112261778D02*
X168292489Y-112128247D01*
X168853321Y-111914596D02*
X168292489Y-111914596D01*
X168292489Y-111914596D02*
X168693083Y-111727652D01*
X168693083Y-111727652D02*
X168292489Y-111540708D01*
X168292489Y-111540708D02*
X168853321Y-111540708D01*
D11*
X127899862Y-105967854D02*
X127343481Y-106357321D01*
X127899862Y-106635511D02*
X126731462Y-106635511D01*
X126731462Y-106635511D02*
X126731462Y-106190406D01*
X126731462Y-106190406D02*
X126787100Y-106079130D01*
X126787100Y-106079130D02*
X126842738Y-106023492D01*
X126842738Y-106023492D02*
X126954014Y-105967854D01*
X126954014Y-105967854D02*
X127120928Y-105967854D01*
X127120928Y-105967854D02*
X127232204Y-106023492D01*
X127232204Y-106023492D02*
X127287843Y-106079130D01*
X127287843Y-106079130D02*
X127343481Y-106190406D01*
X127343481Y-106190406D02*
X127343481Y-106635511D01*
X127899862Y-105467111D02*
X126731462Y-105467111D01*
X126787100Y-104298711D02*
X126731462Y-104409987D01*
X126731462Y-104409987D02*
X126731462Y-104576901D01*
X126731462Y-104576901D02*
X126787100Y-104743816D01*
X126787100Y-104743816D02*
X126898376Y-104855092D01*
X126898376Y-104855092D02*
X127009652Y-104910730D01*
X127009652Y-104910730D02*
X127232204Y-104966368D01*
X127232204Y-104966368D02*
X127399119Y-104966368D01*
X127399119Y-104966368D02*
X127621671Y-104910730D01*
X127621671Y-104910730D02*
X127732947Y-104855092D01*
X127732947Y-104855092D02*
X127844224Y-104743816D01*
X127844224Y-104743816D02*
X127899862Y-104576901D01*
X127899862Y-104576901D02*
X127899862Y-104465625D01*
X127899862Y-104465625D02*
X127844224Y-104298711D01*
X127844224Y-104298711D02*
X127788585Y-104243073D01*
X127788585Y-104243073D02*
X127399119Y-104243073D01*
X127399119Y-104243073D02*
X127399119Y-104465625D01*
X127899862Y-103742330D02*
X126731462Y-103742330D01*
X127287843Y-103742330D02*
X127287843Y-103074673D01*
X127899862Y-103074673D02*
X126731462Y-103074673D01*
X126731462Y-102685206D02*
X126731462Y-102017549D01*
X127899862Y-102351378D02*
X126731462Y-102351378D01*
D10*
X144397051Y-88247055D02*
X144477170Y-88273761D01*
X144477170Y-88273761D02*
X144503876Y-88300467D01*
X144503876Y-88300467D02*
X144530582Y-88353880D01*
X144530582Y-88353880D02*
X144530582Y-88433999D01*
X144530582Y-88433999D02*
X144503876Y-88487411D01*
X144503876Y-88487411D02*
X144477170Y-88514118D01*
X144477170Y-88514118D02*
X144423757Y-88540824D01*
X144423757Y-88540824D02*
X144210107Y-88540824D01*
X144210107Y-88540824D02*
X144210107Y-87979992D01*
X144210107Y-87979992D02*
X144397051Y-87979992D01*
X144397051Y-87979992D02*
X144450464Y-88006698D01*
X144450464Y-88006698D02*
X144477170Y-88033404D01*
X144477170Y-88033404D02*
X144503876Y-88086817D01*
X144503876Y-88086817D02*
X144503876Y-88140230D01*
X144503876Y-88140230D02*
X144477170Y-88193642D01*
X144477170Y-88193642D02*
X144450464Y-88220348D01*
X144450464Y-88220348D02*
X144397051Y-88247055D01*
X144397051Y-88247055D02*
X144210107Y-88247055D01*
X144770939Y-88327174D02*
X145198240Y-88327174D01*
X144984589Y-88540824D02*
X144984589Y-88113523D01*
X168569195Y-108072610D02*
X168542489Y-108126023D01*
X168542489Y-108126023D02*
X168542489Y-108206141D01*
X168542489Y-108206141D02*
X168569195Y-108286260D01*
X168569195Y-108286260D02*
X168622608Y-108339673D01*
X168622608Y-108339673D02*
X168676020Y-108366379D01*
X168676020Y-108366379D02*
X168782845Y-108393085D01*
X168782845Y-108393085D02*
X168862964Y-108393085D01*
X168862964Y-108393085D02*
X168969789Y-108366379D01*
X168969789Y-108366379D02*
X169023202Y-108339673D01*
X169023202Y-108339673D02*
X169076615Y-108286260D01*
X169076615Y-108286260D02*
X169103321Y-108206141D01*
X169103321Y-108206141D02*
X169103321Y-108152729D01*
X169103321Y-108152729D02*
X169076615Y-108072610D01*
X169076615Y-108072610D02*
X169049908Y-108045904D01*
X169049908Y-108045904D02*
X168862964Y-108045904D01*
X168862964Y-108045904D02*
X168862964Y-108152729D01*
X169103321Y-107805547D02*
X168542489Y-107805547D01*
X168542489Y-107805547D02*
X169103321Y-107485072D01*
X169103321Y-107485072D02*
X168542489Y-107485072D01*
X169103321Y-107218009D02*
X168542489Y-107218009D01*
X168542489Y-107218009D02*
X168542489Y-107084478D01*
X168542489Y-107084478D02*
X168569195Y-107004359D01*
X168569195Y-107004359D02*
X168622608Y-106950946D01*
X168622608Y-106950946D02*
X168676020Y-106924240D01*
X168676020Y-106924240D02*
X168782845Y-106897534D01*
X168782845Y-106897534D02*
X168862964Y-106897534D01*
X168862964Y-106897534D02*
X168969789Y-106924240D01*
X168969789Y-106924240D02*
X169023202Y-106950946D01*
X169023202Y-106950946D02*
X169076615Y-107004359D01*
X169076615Y-107004359D02*
X169103321Y-107084478D01*
X169103321Y-107084478D02*
X169103321Y-107218009D01*
D13*
X147440517Y-125658656D02*
X147440517Y-126415334D01*
X147440517Y-126415334D02*
X147485027Y-126504355D01*
X147485027Y-126504355D02*
X147529538Y-126548866D01*
X147529538Y-126548866D02*
X147618559Y-126593376D01*
X147618559Y-126593376D02*
X147796601Y-126593376D01*
X147796601Y-126593376D02*
X147885622Y-126548866D01*
X147885622Y-126548866D02*
X147930132Y-126504355D01*
X147930132Y-126504355D02*
X147974643Y-126415334D01*
X147974643Y-126415334D02*
X147974643Y-125658656D01*
X148375236Y-126548866D02*
X148508768Y-126593376D01*
X148508768Y-126593376D02*
X148731320Y-126593376D01*
X148731320Y-126593376D02*
X148820341Y-126548866D01*
X148820341Y-126548866D02*
X148864852Y-126504355D01*
X148864852Y-126504355D02*
X148909362Y-126415334D01*
X148909362Y-126415334D02*
X148909362Y-126326313D01*
X148909362Y-126326313D02*
X148864852Y-126237292D01*
X148864852Y-126237292D02*
X148820341Y-126192782D01*
X148820341Y-126192782D02*
X148731320Y-126148271D01*
X148731320Y-126148271D02*
X148553278Y-126103761D01*
X148553278Y-126103761D02*
X148464257Y-126059250D01*
X148464257Y-126059250D02*
X148419747Y-126014740D01*
X148419747Y-126014740D02*
X148375236Y-125925719D01*
X148375236Y-125925719D02*
X148375236Y-125836698D01*
X148375236Y-125836698D02*
X148419747Y-125747677D01*
X148419747Y-125747677D02*
X148464257Y-125703166D01*
X148464257Y-125703166D02*
X148553278Y-125658656D01*
X148553278Y-125658656D02*
X148775831Y-125658656D01*
X148775831Y-125658656D02*
X148909362Y-125703166D01*
X149621530Y-126103761D02*
X149755062Y-126148271D01*
X149755062Y-126148271D02*
X149799572Y-126192782D01*
X149799572Y-126192782D02*
X149844083Y-126281803D01*
X149844083Y-126281803D02*
X149844083Y-126415334D01*
X149844083Y-126415334D02*
X149799572Y-126504355D01*
X149799572Y-126504355D02*
X149755062Y-126548866D01*
X149755062Y-126548866D02*
X149666041Y-126593376D01*
X149666041Y-126593376D02*
X149309957Y-126593376D01*
X149309957Y-126593376D02*
X149309957Y-125658656D01*
X149309957Y-125658656D02*
X149621530Y-125658656D01*
X149621530Y-125658656D02*
X149710551Y-125703166D01*
X149710551Y-125703166D02*
X149755062Y-125747677D01*
X149755062Y-125747677D02*
X149799572Y-125836698D01*
X149799572Y-125836698D02*
X149799572Y-125925719D01*
X149799572Y-125925719D02*
X149755062Y-126014740D01*
X149755062Y-126014740D02*
X149710551Y-126059250D01*
X149710551Y-126059250D02*
X149621530Y-126103761D01*
X149621530Y-126103761D02*
X149309957Y-126103761D01*
D10*
X128703321Y-112916379D02*
X128142489Y-112916379D01*
X128142489Y-112916379D02*
X128142489Y-112702729D01*
X128142489Y-112702729D02*
X128169195Y-112649316D01*
X128169195Y-112649316D02*
X128195901Y-112622610D01*
X128195901Y-112622610D02*
X128249314Y-112595904D01*
X128249314Y-112595904D02*
X128329433Y-112595904D01*
X128329433Y-112595904D02*
X128382845Y-112622610D01*
X128382845Y-112622610D02*
X128409552Y-112649316D01*
X128409552Y-112649316D02*
X128436258Y-112702729D01*
X128436258Y-112702729D02*
X128436258Y-112916379D01*
X128142489Y-112408960D02*
X128703321Y-112275428D01*
X128703321Y-112275428D02*
X128302727Y-112168603D01*
X128302727Y-112168603D02*
X128703321Y-112061778D01*
X128703321Y-112061778D02*
X128142489Y-111928247D01*
X128703321Y-111714596D02*
X128142489Y-111714596D01*
X128142489Y-111714596D02*
X128543083Y-111527652D01*
X128543083Y-111527652D02*
X128142489Y-111340708D01*
X128142489Y-111340708D02*
X128703321Y-111340708D01*
D11*
X135181726Y-101384967D02*
X134013326Y-101384967D01*
X135181726Y-100160929D02*
X134625345Y-100550396D01*
X135181726Y-100828586D02*
X134013326Y-100828586D01*
X134013326Y-100828586D02*
X134013326Y-100383481D01*
X134013326Y-100383481D02*
X134068964Y-100272205D01*
X134068964Y-100272205D02*
X134124602Y-100216567D01*
X134124602Y-100216567D02*
X134235878Y-100160929D01*
X134235878Y-100160929D02*
X134402792Y-100160929D01*
X134402792Y-100160929D02*
X134514068Y-100216567D01*
X134514068Y-100216567D02*
X134569707Y-100272205D01*
X134569707Y-100272205D02*
X134625345Y-100383481D01*
X134625345Y-100383481D02*
X134625345Y-100828586D01*
X135181726Y-99103805D02*
X135181726Y-99660186D01*
X135181726Y-99660186D02*
X134013326Y-99660186D01*
X135181726Y-98714338D02*
X134013326Y-98714338D01*
X134013326Y-98714338D02*
X134847897Y-98324871D01*
X134847897Y-98324871D02*
X134013326Y-97935405D01*
X134013326Y-97935405D02*
X135181726Y-97935405D01*
X135181726Y-96822643D02*
X135181726Y-97379024D01*
X135181726Y-97379024D02*
X134013326Y-97379024D01*
X134124602Y-96488814D02*
X134068964Y-96433176D01*
X134068964Y-96433176D02*
X134013326Y-96321900D01*
X134013326Y-96321900D02*
X134013326Y-96043709D01*
X134013326Y-96043709D02*
X134068964Y-95932433D01*
X134068964Y-95932433D02*
X134124602Y-95876795D01*
X134124602Y-95876795D02*
X134235878Y-95821157D01*
X134235878Y-95821157D02*
X134347154Y-95821157D01*
X134347154Y-95821157D02*
X134514068Y-95876795D01*
X134514068Y-95876795D02*
X135181726Y-96544452D01*
X135181726Y-96544452D02*
X135181726Y-95821157D01*
X134013326Y-94764033D02*
X134013326Y-95320414D01*
X134013326Y-95320414D02*
X134569707Y-95376052D01*
X134569707Y-95376052D02*
X134514068Y-95320414D01*
X134514068Y-95320414D02*
X134458430Y-95209138D01*
X134458430Y-95209138D02*
X134458430Y-94930947D01*
X134458430Y-94930947D02*
X134514068Y-94819671D01*
X134514068Y-94819671D02*
X134569707Y-94764033D01*
X134569707Y-94764033D02*
X134680983Y-94708395D01*
X134680983Y-94708395D02*
X134959173Y-94708395D01*
X134959173Y-94708395D02*
X135070449Y-94764033D01*
X135070449Y-94764033D02*
X135126088Y-94819671D01*
X135126088Y-94819671D02*
X135181726Y-94930947D01*
X135181726Y-94930947D02*
X135181726Y-95209138D01*
X135181726Y-95209138D02*
X135126088Y-95320414D01*
X135126088Y-95320414D02*
X135070449Y-95376052D01*
X134013326Y-93985100D02*
X134013326Y-93873823D01*
X134013326Y-93873823D02*
X134068964Y-93762547D01*
X134068964Y-93762547D02*
X134124602Y-93706909D01*
X134124602Y-93706909D02*
X134235878Y-93651271D01*
X134235878Y-93651271D02*
X134458430Y-93595633D01*
X134458430Y-93595633D02*
X134736621Y-93595633D01*
X134736621Y-93595633D02*
X134959173Y-93651271D01*
X134959173Y-93651271D02*
X135070449Y-93706909D01*
X135070449Y-93706909D02*
X135126088Y-93762547D01*
X135126088Y-93762547D02*
X135181726Y-93873823D01*
X135181726Y-93873823D02*
X135181726Y-93985100D01*
X135181726Y-93985100D02*
X135126088Y-94096376D01*
X135126088Y-94096376D02*
X135070449Y-94152014D01*
X135070449Y-94152014D02*
X134959173Y-94207652D01*
X134959173Y-94207652D02*
X134736621Y-94263290D01*
X134736621Y-94263290D02*
X134458430Y-94263290D01*
X134458430Y-94263290D02*
X134235878Y-94207652D01*
X134235878Y-94207652D02*
X134124602Y-94152014D01*
X134124602Y-94152014D02*
X134068964Y-94096376D01*
X134068964Y-94096376D02*
X134013326Y-93985100D01*
X134124602Y-93150528D02*
X134068964Y-93094890D01*
X134068964Y-93094890D02*
X134013326Y-92983614D01*
X134013326Y-92983614D02*
X134013326Y-92705423D01*
X134013326Y-92705423D02*
X134068964Y-92594147D01*
X134068964Y-92594147D02*
X134124602Y-92538509D01*
X134124602Y-92538509D02*
X134235878Y-92482871D01*
X134235878Y-92482871D02*
X134347154Y-92482871D01*
X134347154Y-92482871D02*
X134514068Y-92538509D01*
X134514068Y-92538509D02*
X135181726Y-93206166D01*
X135181726Y-93206166D02*
X135181726Y-92482871D01*
D14*
X143669494Y-110586000D02*
X144050494Y-110586000D01*
X144213780Y-111184714D02*
X143669494Y-111184714D01*
X143669494Y-111184714D02*
X143669494Y-110041714D01*
X143669494Y-110041714D02*
X144213780Y-110041714D01*
X144703637Y-110749286D02*
X145574495Y-110749286D01*
X146118780Y-111184714D02*
X146118780Y-110041714D01*
X146118780Y-110586000D02*
X146771923Y-110586000D01*
X146771923Y-111184714D02*
X146771923Y-110041714D01*
X147261781Y-110858143D02*
X147806067Y-110858143D01*
X147152924Y-111184714D02*
X147533924Y-110041714D01*
X147533924Y-110041714D02*
X147914924Y-111184714D01*
X148132638Y-110041714D02*
X148785781Y-110041714D01*
X148459209Y-111184714D02*
X148459209Y-110041714D01*
X149384495Y-110041714D02*
X149493352Y-110041714D01*
X149493352Y-110041714D02*
X149602209Y-110096143D01*
X149602209Y-110096143D02*
X149656638Y-110150571D01*
X149656638Y-110150571D02*
X149711066Y-110259428D01*
X149711066Y-110259428D02*
X149765495Y-110477143D01*
X149765495Y-110477143D02*
X149765495Y-110749286D01*
X149765495Y-110749286D02*
X149711066Y-110967000D01*
X149711066Y-110967000D02*
X149656638Y-111075857D01*
X149656638Y-111075857D02*
X149602209Y-111130286D01*
X149602209Y-111130286D02*
X149493352Y-111184714D01*
X149493352Y-111184714D02*
X149384495Y-111184714D01*
X149384495Y-111184714D02*
X149275638Y-111130286D01*
X149275638Y-111130286D02*
X149221209Y-111075857D01*
X149221209Y-111075857D02*
X149166780Y-110967000D01*
X149166780Y-110967000D02*
X149112352Y-110749286D01*
X149112352Y-110749286D02*
X149112352Y-110477143D01*
X149112352Y-110477143D02*
X149166780Y-110259428D01*
X149166780Y-110259428D02*
X149221209Y-110150571D01*
X149221209Y-110150571D02*
X149275638Y-110096143D01*
X149275638Y-110096143D02*
X149384495Y-110041714D01*
D15*
X157904726Y-127201191D02*
X156634726Y-127201191D01*
X156634726Y-127201191D02*
X157541869Y-126777857D01*
X157541869Y-126777857D02*
X156634726Y-126354524D01*
X156634726Y-126354524D02*
X157904726Y-126354524D01*
X156634726Y-125931190D02*
X156634726Y-125205476D01*
X157904726Y-125568333D02*
X156634726Y-125568333D01*
X156634726Y-124903095D02*
X156634726Y-124116904D01*
X156634726Y-124116904D02*
X157118535Y-124540238D01*
X157118535Y-124540238D02*
X157118535Y-124358809D01*
X157118535Y-124358809D02*
X157179011Y-124237857D01*
X157179011Y-124237857D02*
X157239488Y-124177381D01*
X157239488Y-124177381D02*
X157360440Y-124116904D01*
X157360440Y-124116904D02*
X157662821Y-124116904D01*
X157662821Y-124116904D02*
X157783773Y-124177381D01*
X157783773Y-124177381D02*
X157844250Y-124237857D01*
X157844250Y-124237857D02*
X157904726Y-124358809D01*
X157904726Y-124358809D02*
X157904726Y-124721666D01*
X157904726Y-124721666D02*
X157844250Y-124842619D01*
X157844250Y-124842619D02*
X157783773Y-124903095D01*
X156634726Y-123028333D02*
X156634726Y-123270238D01*
X156634726Y-123270238D02*
X156695202Y-123391190D01*
X156695202Y-123391190D02*
X156755678Y-123451666D01*
X156755678Y-123451666D02*
X156937107Y-123572619D01*
X156937107Y-123572619D02*
X157179011Y-123633095D01*
X157179011Y-123633095D02*
X157662821Y-123633095D01*
X157662821Y-123633095D02*
X157783773Y-123572619D01*
X157783773Y-123572619D02*
X157844250Y-123512142D01*
X157844250Y-123512142D02*
X157904726Y-123391190D01*
X157904726Y-123391190D02*
X157904726Y-123149285D01*
X157904726Y-123149285D02*
X157844250Y-123028333D01*
X157844250Y-123028333D02*
X157783773Y-122967857D01*
X157783773Y-122967857D02*
X157662821Y-122907380D01*
X157662821Y-122907380D02*
X157360440Y-122907380D01*
X157360440Y-122907380D02*
X157239488Y-122967857D01*
X157239488Y-122967857D02*
X157179011Y-123028333D01*
X157179011Y-123028333D02*
X157118535Y-123149285D01*
X157118535Y-123149285D02*
X157118535Y-123391190D01*
X157118535Y-123391190D02*
X157179011Y-123512142D01*
X157179011Y-123512142D02*
X157239488Y-123572619D01*
X157239488Y-123572619D02*
X157360440Y-123633095D01*
X156634726Y-122121190D02*
X156634726Y-122000237D01*
X156634726Y-122000237D02*
X156695202Y-121879285D01*
X156695202Y-121879285D02*
X156755678Y-121818809D01*
X156755678Y-121818809D02*
X156876630Y-121758333D01*
X156876630Y-121758333D02*
X157118535Y-121697856D01*
X157118535Y-121697856D02*
X157420916Y-121697856D01*
X157420916Y-121697856D02*
X157662821Y-121758333D01*
X157662821Y-121758333D02*
X157783773Y-121818809D01*
X157783773Y-121818809D02*
X157844250Y-121879285D01*
X157844250Y-121879285D02*
X157904726Y-122000237D01*
X157904726Y-122000237D02*
X157904726Y-122121190D01*
X157904726Y-122121190D02*
X157844250Y-122242142D01*
X157844250Y-122242142D02*
X157783773Y-122302618D01*
X157783773Y-122302618D02*
X157662821Y-122363095D01*
X157662821Y-122363095D02*
X157420916Y-122423571D01*
X157420916Y-122423571D02*
X157118535Y-122423571D01*
X157118535Y-122423571D02*
X156876630Y-122363095D01*
X156876630Y-122363095D02*
X156755678Y-122302618D01*
X156755678Y-122302618D02*
X156695202Y-122242142D01*
X156695202Y-122242142D02*
X156634726Y-122121190D01*
X157179011Y-120972142D02*
X157118535Y-121093094D01*
X157118535Y-121093094D02*
X157058059Y-121153571D01*
X157058059Y-121153571D02*
X156937107Y-121214047D01*
X156937107Y-121214047D02*
X156876630Y-121214047D01*
X156876630Y-121214047D02*
X156755678Y-121153571D01*
X156755678Y-121153571D02*
X156695202Y-121093094D01*
X156695202Y-121093094D02*
X156634726Y-120972142D01*
X156634726Y-120972142D02*
X156634726Y-120730237D01*
X156634726Y-120730237D02*
X156695202Y-120609285D01*
X156695202Y-120609285D02*
X156755678Y-120548809D01*
X156755678Y-120548809D02*
X156876630Y-120488332D01*
X156876630Y-120488332D02*
X156937107Y-120488332D01*
X156937107Y-120488332D02*
X157058059Y-120548809D01*
X157058059Y-120548809D02*
X157118535Y-120609285D01*
X157118535Y-120609285D02*
X157179011Y-120730237D01*
X157179011Y-120730237D02*
X157179011Y-120972142D01*
X157179011Y-120972142D02*
X157239488Y-121093094D01*
X157239488Y-121093094D02*
X157299964Y-121153571D01*
X157299964Y-121153571D02*
X157420916Y-121214047D01*
X157420916Y-121214047D02*
X157662821Y-121214047D01*
X157662821Y-121214047D02*
X157783773Y-121153571D01*
X157783773Y-121153571D02*
X157844250Y-121093094D01*
X157844250Y-121093094D02*
X157904726Y-120972142D01*
X157904726Y-120972142D02*
X157904726Y-120730237D01*
X157904726Y-120730237D02*
X157844250Y-120609285D01*
X157844250Y-120609285D02*
X157783773Y-120548809D01*
X157783773Y-120548809D02*
X157662821Y-120488332D01*
X157662821Y-120488332D02*
X157420916Y-120488332D01*
X157420916Y-120488332D02*
X157299964Y-120548809D01*
X157299964Y-120548809D02*
X157239488Y-120609285D01*
X157239488Y-120609285D02*
X157179011Y-120730237D01*
D11*
X147575032Y-108631726D02*
X147575032Y-107463326D01*
X147575032Y-107463326D02*
X147964499Y-108297897D01*
X147964499Y-108297897D02*
X148353965Y-107463326D01*
X148353965Y-107463326D02*
X148353965Y-108631726D01*
X148743432Y-107463326D02*
X149411089Y-107463326D01*
X149077260Y-108631726D02*
X149077260Y-107463326D01*
X149689280Y-107463326D02*
X150412575Y-107463326D01*
X150412575Y-107463326D02*
X150023108Y-107908430D01*
X150023108Y-107908430D02*
X150190023Y-107908430D01*
X150190023Y-107908430D02*
X150301299Y-107964068D01*
X150301299Y-107964068D02*
X150356937Y-108019707D01*
X150356937Y-108019707D02*
X150412575Y-108130983D01*
X150412575Y-108130983D02*
X150412575Y-108409173D01*
X150412575Y-108409173D02*
X150356937Y-108520449D01*
X150356937Y-108520449D02*
X150301299Y-108576088D01*
X150301299Y-108576088D02*
X150190023Y-108631726D01*
X150190023Y-108631726D02*
X149856194Y-108631726D01*
X149856194Y-108631726D02*
X149744918Y-108576088D01*
X149744918Y-108576088D02*
X149689280Y-108520449D01*
X151414061Y-107463326D02*
X151191508Y-107463326D01*
X151191508Y-107463326D02*
X151080232Y-107518964D01*
X151080232Y-107518964D02*
X151024594Y-107574602D01*
X151024594Y-107574602D02*
X150913318Y-107741516D01*
X150913318Y-107741516D02*
X150857680Y-107964068D01*
X150857680Y-107964068D02*
X150857680Y-108409173D01*
X150857680Y-108409173D02*
X150913318Y-108520449D01*
X150913318Y-108520449D02*
X150968956Y-108576088D01*
X150968956Y-108576088D02*
X151080232Y-108631726D01*
X151080232Y-108631726D02*
X151302785Y-108631726D01*
X151302785Y-108631726D02*
X151414061Y-108576088D01*
X151414061Y-108576088D02*
X151469699Y-108520449D01*
X151469699Y-108520449D02*
X151525337Y-108409173D01*
X151525337Y-108409173D02*
X151525337Y-108130983D01*
X151525337Y-108130983D02*
X151469699Y-108019707D01*
X151469699Y-108019707D02*
X151414061Y-107964068D01*
X151414061Y-107964068D02*
X151302785Y-107908430D01*
X151302785Y-107908430D02*
X151080232Y-107908430D01*
X151080232Y-107908430D02*
X150968956Y-107964068D01*
X150968956Y-107964068D02*
X150913318Y-108019707D01*
X150913318Y-108019707D02*
X150857680Y-108130983D01*
X152248632Y-107463326D02*
X152359909Y-107463326D01*
X152359909Y-107463326D02*
X152471185Y-107518964D01*
X152471185Y-107518964D02*
X152526823Y-107574602D01*
X152526823Y-107574602D02*
X152582461Y-107685878D01*
X152582461Y-107685878D02*
X152638099Y-107908430D01*
X152638099Y-107908430D02*
X152638099Y-108186621D01*
X152638099Y-108186621D02*
X152582461Y-108409173D01*
X152582461Y-108409173D02*
X152526823Y-108520449D01*
X152526823Y-108520449D02*
X152471185Y-108576088D01*
X152471185Y-108576088D02*
X152359909Y-108631726D01*
X152359909Y-108631726D02*
X152248632Y-108631726D01*
X152248632Y-108631726D02*
X152137356Y-108576088D01*
X152137356Y-108576088D02*
X152081718Y-108520449D01*
X152081718Y-108520449D02*
X152026080Y-108409173D01*
X152026080Y-108409173D02*
X151970442Y-108186621D01*
X151970442Y-108186621D02*
X151970442Y-107908430D01*
X151970442Y-107908430D02*
X152026080Y-107685878D01*
X152026080Y-107685878D02*
X152081718Y-107574602D01*
X152081718Y-107574602D02*
X152137356Y-107518964D01*
X152137356Y-107518964D02*
X152248632Y-107463326D01*
X153305756Y-107964068D02*
X153194480Y-107908430D01*
X153194480Y-107908430D02*
X153138842Y-107852792D01*
X153138842Y-107852792D02*
X153083204Y-107741516D01*
X153083204Y-107741516D02*
X153083204Y-107685878D01*
X153083204Y-107685878D02*
X153138842Y-107574602D01*
X153138842Y-107574602D02*
X153194480Y-107518964D01*
X153194480Y-107518964D02*
X153305756Y-107463326D01*
X153305756Y-107463326D02*
X153528309Y-107463326D01*
X153528309Y-107463326D02*
X153639585Y-107518964D01*
X153639585Y-107518964D02*
X153695223Y-107574602D01*
X153695223Y-107574602D02*
X153750861Y-107685878D01*
X153750861Y-107685878D02*
X153750861Y-107741516D01*
X153750861Y-107741516D02*
X153695223Y-107852792D01*
X153695223Y-107852792D02*
X153639585Y-107908430D01*
X153639585Y-107908430D02*
X153528309Y-107964068D01*
X153528309Y-107964068D02*
X153305756Y-107964068D01*
X153305756Y-107964068D02*
X153194480Y-108019707D01*
X153194480Y-108019707D02*
X153138842Y-108075345D01*
X153138842Y-108075345D02*
X153083204Y-108186621D01*
X153083204Y-108186621D02*
X153083204Y-108409173D01*
X153083204Y-108409173D02*
X153138842Y-108520449D01*
X153138842Y-108520449D02*
X153194480Y-108576088D01*
X153194480Y-108576088D02*
X153305756Y-108631726D01*
X153305756Y-108631726D02*
X153528309Y-108631726D01*
X153528309Y-108631726D02*
X153639585Y-108576088D01*
X153639585Y-108576088D02*
X153695223Y-108520449D01*
X153695223Y-108520449D02*
X153750861Y-108409173D01*
X153750861Y-108409173D02*
X153750861Y-108186621D01*
X153750861Y-108186621D02*
X153695223Y-108075345D01*
X153695223Y-108075345D02*
X153639585Y-108019707D01*
X153639585Y-108019707D02*
X153528309Y-107964068D01*
D14*
X164749206Y-118362500D02*
X163606206Y-118362500D01*
X163606206Y-118362500D02*
X164422635Y-117981500D01*
X164422635Y-117981500D02*
X163606206Y-117600500D01*
X163606206Y-117600500D02*
X164749206Y-117600500D01*
X164858063Y-117328357D02*
X164858063Y-116457499D01*
X164749206Y-115641071D02*
X164749206Y-116185357D01*
X164749206Y-116185357D02*
X163606206Y-116185357D01*
X164150492Y-115260071D02*
X164150492Y-114879071D01*
X164749206Y-114715785D02*
X164749206Y-115260071D01*
X164749206Y-115260071D02*
X163606206Y-115260071D01*
X163606206Y-115260071D02*
X163606206Y-114715785D01*
X164150492Y-113844928D02*
X164150492Y-114225928D01*
X164749206Y-114225928D02*
X163606206Y-114225928D01*
X163606206Y-114225928D02*
X163606206Y-113681642D01*
X163606206Y-113409499D02*
X163606206Y-112756357D01*
X164749206Y-113082928D02*
X163606206Y-113082928D01*
X163606206Y-112157642D02*
X163606206Y-112048785D01*
X163606206Y-112048785D02*
X163660635Y-111939928D01*
X163660635Y-111939928D02*
X163715063Y-111885500D01*
X163715063Y-111885500D02*
X163823920Y-111831071D01*
X163823920Y-111831071D02*
X164041635Y-111776642D01*
X164041635Y-111776642D02*
X164313778Y-111776642D01*
X164313778Y-111776642D02*
X164531492Y-111831071D01*
X164531492Y-111831071D02*
X164640349Y-111885500D01*
X164640349Y-111885500D02*
X164694778Y-111939928D01*
X164694778Y-111939928D02*
X164749206Y-112048785D01*
X164749206Y-112048785D02*
X164749206Y-112157642D01*
X164749206Y-112157642D02*
X164694778Y-112266500D01*
X164694778Y-112266500D02*
X164640349Y-112320928D01*
X164640349Y-112320928D02*
X164531492Y-112375357D01*
X164531492Y-112375357D02*
X164313778Y-112429785D01*
X164313778Y-112429785D02*
X164041635Y-112429785D01*
X164041635Y-112429785D02*
X163823920Y-112375357D01*
X163823920Y-112375357D02*
X163715063Y-112320928D01*
X163715063Y-112320928D02*
X163660635Y-112266500D01*
X163660635Y-112266500D02*
X163606206Y-112157642D01*
X132974800Y-107764305D02*
X132974800Y-107383305D01*
X133573514Y-107220019D02*
X133573514Y-107764305D01*
X133573514Y-107764305D02*
X132430514Y-107764305D01*
X132430514Y-107764305D02*
X132430514Y-107220019D01*
X133682371Y-107002305D02*
X133682371Y-106131447D01*
X133573514Y-105206162D02*
X133029228Y-105587162D01*
X133573514Y-105859305D02*
X132430514Y-105859305D01*
X132430514Y-105859305D02*
X132430514Y-105423876D01*
X132430514Y-105423876D02*
X132484943Y-105315019D01*
X132484943Y-105315019D02*
X132539371Y-105260590D01*
X132539371Y-105260590D02*
X132648228Y-105206162D01*
X132648228Y-105206162D02*
X132811514Y-105206162D01*
X132811514Y-105206162D02*
X132920371Y-105260590D01*
X132920371Y-105260590D02*
X132974800Y-105315019D01*
X132974800Y-105315019D02*
X133029228Y-105423876D01*
X133029228Y-105423876D02*
X133029228Y-105859305D01*
X133573514Y-104716305D02*
X132430514Y-104716305D01*
X132484943Y-103573304D02*
X132430514Y-103682162D01*
X132430514Y-103682162D02*
X132430514Y-103845447D01*
X132430514Y-103845447D02*
X132484943Y-104008733D01*
X132484943Y-104008733D02*
X132593800Y-104117590D01*
X132593800Y-104117590D02*
X132702657Y-104172019D01*
X132702657Y-104172019D02*
X132920371Y-104226447D01*
X132920371Y-104226447D02*
X133083657Y-104226447D01*
X133083657Y-104226447D02*
X133301371Y-104172019D01*
X133301371Y-104172019D02*
X133410228Y-104117590D01*
X133410228Y-104117590D02*
X133519086Y-104008733D01*
X133519086Y-104008733D02*
X133573514Y-103845447D01*
X133573514Y-103845447D02*
X133573514Y-103736590D01*
X133573514Y-103736590D02*
X133519086Y-103573304D01*
X133519086Y-103573304D02*
X133464657Y-103518876D01*
X133464657Y-103518876D02*
X133083657Y-103518876D01*
X133083657Y-103518876D02*
X133083657Y-103736590D01*
X133573514Y-103029019D02*
X132430514Y-103029019D01*
X132974800Y-103029019D02*
X132974800Y-102375876D01*
X133573514Y-102375876D02*
X132430514Y-102375876D01*
X132430514Y-101994875D02*
X132430514Y-101341733D01*
X133573514Y-101668304D02*
X132430514Y-101668304D01*
X132430514Y-100743018D02*
X132430514Y-100634161D01*
X132430514Y-100634161D02*
X132484943Y-100525304D01*
X132484943Y-100525304D02*
X132539371Y-100470876D01*
X132539371Y-100470876D02*
X132648228Y-100416447D01*
X132648228Y-100416447D02*
X132865943Y-100362018D01*
X132865943Y-100362018D02*
X133138086Y-100362018D01*
X133138086Y-100362018D02*
X133355800Y-100416447D01*
X133355800Y-100416447D02*
X133464657Y-100470876D01*
X133464657Y-100470876D02*
X133519086Y-100525304D01*
X133519086Y-100525304D02*
X133573514Y-100634161D01*
X133573514Y-100634161D02*
X133573514Y-100743018D01*
X133573514Y-100743018D02*
X133519086Y-100851876D01*
X133519086Y-100851876D02*
X133464657Y-100906304D01*
X133464657Y-100906304D02*
X133355800Y-100960733D01*
X133355800Y-100960733D02*
X133138086Y-101015161D01*
X133138086Y-101015161D02*
X132865943Y-101015161D01*
X132865943Y-101015161D02*
X132648228Y-100960733D01*
X132648228Y-100960733D02*
X132539371Y-100906304D01*
X132539371Y-100906304D02*
X132484943Y-100851876D01*
X132484943Y-100851876D02*
X132430514Y-100743018D01*
D11*
X154892689Y-96251726D02*
X154503222Y-95695345D01*
X154225032Y-96251726D02*
X154225032Y-95083326D01*
X154225032Y-95083326D02*
X154670137Y-95083326D01*
X154670137Y-95083326D02*
X154781413Y-95138964D01*
X154781413Y-95138964D02*
X154837051Y-95194602D01*
X154837051Y-95194602D02*
X154892689Y-95305878D01*
X154892689Y-95305878D02*
X154892689Y-95472792D01*
X154892689Y-95472792D02*
X154837051Y-95584068D01*
X154837051Y-95584068D02*
X154781413Y-95639707D01*
X154781413Y-95639707D02*
X154670137Y-95695345D01*
X154670137Y-95695345D02*
X154225032Y-95695345D01*
X156005451Y-96251726D02*
X155337794Y-96251726D01*
X155671622Y-96251726D02*
X155671622Y-95083326D01*
X155671622Y-95083326D02*
X155560346Y-95250240D01*
X155560346Y-95250240D02*
X155449070Y-95361516D01*
X155449070Y-95361516D02*
X155337794Y-95417154D01*
X156450556Y-95194602D02*
X156506194Y-95138964D01*
X156506194Y-95138964D02*
X156617470Y-95083326D01*
X156617470Y-95083326D02*
X156895661Y-95083326D01*
X156895661Y-95083326D02*
X157006937Y-95138964D01*
X157006937Y-95138964D02*
X157062575Y-95194602D01*
X157062575Y-95194602D02*
X157118213Y-95305878D01*
X157118213Y-95305878D02*
X157118213Y-95417154D01*
X157118213Y-95417154D02*
X157062575Y-95584068D01*
X157062575Y-95584068D02*
X156394918Y-96251726D01*
X156394918Y-96251726D02*
X157118213Y-96251726D01*
X147702689Y-100781726D02*
X147313222Y-100225345D01*
X147035032Y-100781726D02*
X147035032Y-99613326D01*
X147035032Y-99613326D02*
X147480137Y-99613326D01*
X147480137Y-99613326D02*
X147591413Y-99668964D01*
X147591413Y-99668964D02*
X147647051Y-99724602D01*
X147647051Y-99724602D02*
X147702689Y-99835878D01*
X147702689Y-99835878D02*
X147702689Y-100002792D01*
X147702689Y-100002792D02*
X147647051Y-100114068D01*
X147647051Y-100114068D02*
X147591413Y-100169707D01*
X147591413Y-100169707D02*
X147480137Y-100225345D01*
X147480137Y-100225345D02*
X147035032Y-100225345D01*
X148815451Y-100781726D02*
X148147794Y-100781726D01*
X148481622Y-100781726D02*
X148481622Y-99613326D01*
X148481622Y-99613326D02*
X148370346Y-99780240D01*
X148370346Y-99780240D02*
X148259070Y-99891516D01*
X148259070Y-99891516D02*
X148147794Y-99947154D01*
X149816937Y-100002792D02*
X149816937Y-100781726D01*
X149538746Y-99557688D02*
X149260556Y-100392259D01*
X149260556Y-100392259D02*
X149983851Y-100392259D01*
X142718118Y-91033326D02*
X143385775Y-91033326D01*
X143051946Y-92201726D02*
X143051946Y-91033326D01*
X143775242Y-92201726D02*
X143775242Y-91033326D01*
X143775242Y-91033326D02*
X144220347Y-91033326D01*
X144220347Y-91033326D02*
X144331623Y-91088964D01*
X144331623Y-91088964D02*
X144387261Y-91144602D01*
X144387261Y-91144602D02*
X144442899Y-91255878D01*
X144442899Y-91255878D02*
X144442899Y-91422792D01*
X144442899Y-91422792D02*
X144387261Y-91534068D01*
X144387261Y-91534068D02*
X144331623Y-91589707D01*
X144331623Y-91589707D02*
X144220347Y-91645345D01*
X144220347Y-91645345D02*
X143775242Y-91645345D01*
X145444385Y-91422792D02*
X145444385Y-92201726D01*
X145166194Y-90977688D02*
X144888004Y-91812259D01*
X144888004Y-91812259D02*
X145611299Y-91812259D01*
X146278956Y-91033326D02*
X146390233Y-91033326D01*
X146390233Y-91033326D02*
X146501509Y-91088964D01*
X146501509Y-91088964D02*
X146557147Y-91144602D01*
X146557147Y-91144602D02*
X146612785Y-91255878D01*
X146612785Y-91255878D02*
X146668423Y-91478430D01*
X146668423Y-91478430D02*
X146668423Y-91756621D01*
X146668423Y-91756621D02*
X146612785Y-91979173D01*
X146612785Y-91979173D02*
X146557147Y-92090449D01*
X146557147Y-92090449D02*
X146501509Y-92146088D01*
X146501509Y-92146088D02*
X146390233Y-92201726D01*
X146390233Y-92201726D02*
X146278956Y-92201726D01*
X146278956Y-92201726D02*
X146167680Y-92146088D01*
X146167680Y-92146088D02*
X146112042Y-92090449D01*
X146112042Y-92090449D02*
X146056404Y-91979173D01*
X146056404Y-91979173D02*
X146000766Y-91756621D01*
X146000766Y-91756621D02*
X146000766Y-91478430D01*
X146000766Y-91478430D02*
X146056404Y-91255878D01*
X146056404Y-91255878D02*
X146112042Y-91144602D01*
X146112042Y-91144602D02*
X146167680Y-91088964D01*
X146167680Y-91088964D02*
X146278956Y-91033326D01*
X147725547Y-91033326D02*
X147169166Y-91033326D01*
X147169166Y-91033326D02*
X147113528Y-91589707D01*
X147113528Y-91589707D02*
X147169166Y-91534068D01*
X147169166Y-91534068D02*
X147280442Y-91478430D01*
X147280442Y-91478430D02*
X147558633Y-91478430D01*
X147558633Y-91478430D02*
X147669909Y-91534068D01*
X147669909Y-91534068D02*
X147725547Y-91589707D01*
X147725547Y-91589707D02*
X147781185Y-91700983D01*
X147781185Y-91700983D02*
X147781185Y-91979173D01*
X147781185Y-91979173D02*
X147725547Y-92090449D01*
X147725547Y-92090449D02*
X147669909Y-92146088D01*
X147669909Y-92146088D02*
X147558633Y-92201726D01*
X147558633Y-92201726D02*
X147280442Y-92201726D01*
X147280442Y-92201726D02*
X147169166Y-92146088D01*
X147169166Y-92146088D02*
X147113528Y-92090449D01*
X148782671Y-91033326D02*
X148560118Y-91033326D01*
X148560118Y-91033326D02*
X148448842Y-91088964D01*
X148448842Y-91088964D02*
X148393204Y-91144602D01*
X148393204Y-91144602D02*
X148281928Y-91311516D01*
X148281928Y-91311516D02*
X148226290Y-91534068D01*
X148226290Y-91534068D02*
X148226290Y-91979173D01*
X148226290Y-91979173D02*
X148281928Y-92090449D01*
X148281928Y-92090449D02*
X148337566Y-92146088D01*
X148337566Y-92146088D02*
X148448842Y-92201726D01*
X148448842Y-92201726D02*
X148671395Y-92201726D01*
X148671395Y-92201726D02*
X148782671Y-92146088D01*
X148782671Y-92146088D02*
X148838309Y-92090449D01*
X148838309Y-92090449D02*
X148893947Y-91979173D01*
X148893947Y-91979173D02*
X148893947Y-91700983D01*
X148893947Y-91700983D02*
X148838309Y-91589707D01*
X148838309Y-91589707D02*
X148782671Y-91534068D01*
X148782671Y-91534068D02*
X148671395Y-91478430D01*
X148671395Y-91478430D02*
X148448842Y-91478430D01*
X148448842Y-91478430D02*
X148337566Y-91534068D01*
X148337566Y-91534068D02*
X148281928Y-91589707D01*
X148281928Y-91589707D02*
X148226290Y-91700983D01*
D15*
X136796666Y-132064819D02*
X136796666Y-132779104D01*
X136796666Y-132779104D02*
X136749047Y-132921961D01*
X136749047Y-132921961D02*
X136653809Y-133017200D01*
X136653809Y-133017200D02*
X136510952Y-133064819D01*
X136510952Y-133064819D02*
X136415714Y-133064819D01*
X137225238Y-132160057D02*
X137272857Y-132112438D01*
X137272857Y-132112438D02*
X137368095Y-132064819D01*
X137368095Y-132064819D02*
X137606190Y-132064819D01*
X137606190Y-132064819D02*
X137701428Y-132112438D01*
X137701428Y-132112438D02*
X137749047Y-132160057D01*
X137749047Y-132160057D02*
X137796666Y-132255295D01*
X137796666Y-132255295D02*
X137796666Y-132350533D01*
X137796666Y-132350533D02*
X137749047Y-132493390D01*
X137749047Y-132493390D02*
X137177619Y-133064819D01*
X137177619Y-133064819D02*
X137796666Y-133064819D01*
D12*
X174250822Y-90472469D02*
X174268039Y-90622066D01*
X174268039Y-90622066D02*
X174368662Y-90837854D01*
X174368662Y-90837854D02*
X174452069Y-90904044D01*
X174452069Y-90904044D02*
X174515351Y-90927077D01*
X174515351Y-90927077D02*
X174621791Y-90929985D01*
X174621791Y-90929985D02*
X174708106Y-90889736D01*
X174708106Y-90889736D02*
X174774296Y-90806329D01*
X174774296Y-90806329D02*
X174797329Y-90743047D01*
X174797329Y-90743047D02*
X174800237Y-90636607D01*
X174800237Y-90636607D02*
X174762896Y-90443852D01*
X174762896Y-90443852D02*
X174765804Y-90337412D01*
X174765804Y-90337412D02*
X174788837Y-90274130D01*
X174788837Y-90274130D02*
X174855027Y-90190723D01*
X174855027Y-90190723D02*
X174941342Y-90150474D01*
X174941342Y-90150474D02*
X175047782Y-90153382D01*
X175047782Y-90153382D02*
X175111064Y-90176415D01*
X175111064Y-90176415D02*
X175194471Y-90242605D01*
X175194471Y-90242605D02*
X175295095Y-90458393D01*
X175295095Y-90458393D02*
X175312311Y-90607990D01*
X175496341Y-90889968D02*
X174690657Y-91528374D01*
X174690657Y-91528374D02*
X175418518Y-91399134D01*
X175418518Y-91399134D02*
X174851655Y-91873634D01*
X174851655Y-91873634D02*
X175858586Y-91666803D01*
X175113275Y-92434682D02*
X176019583Y-92012063D01*
X176160456Y-92314165D02*
X176401952Y-92832056D01*
X175374896Y-92995729D02*
X176281204Y-92573111D01*
X175964328Y-94034417D02*
X175901046Y-94011385D01*
X175901046Y-94011385D02*
X175797514Y-93902037D01*
X175797514Y-93902037D02*
X175757265Y-93815722D01*
X175757265Y-93815722D02*
X175740048Y-93666125D01*
X175740048Y-93666125D02*
X175786114Y-93539560D01*
X175786114Y-93539560D02*
X175852304Y-93456153D01*
X175852304Y-93456153D02*
X176004810Y-93332497D01*
X176004810Y-93332497D02*
X176134282Y-93272123D01*
X176134282Y-93272123D02*
X176327037Y-93234782D01*
X176327037Y-93234782D02*
X176433477Y-93237690D01*
X176433477Y-93237690D02*
X176560041Y-93283756D01*
X176560041Y-93283756D02*
X176663573Y-93393103D01*
X176663573Y-93393103D02*
X176703822Y-93479419D01*
X176703822Y-93479419D02*
X176721039Y-93629016D01*
X176721039Y-93629016D02*
X176698006Y-93692298D01*
X176059135Y-94463084D02*
X176965443Y-94040466D01*
X176533868Y-94241713D02*
X176775364Y-94759603D01*
X176300631Y-94980975D02*
X177206939Y-94558356D01*
X177488685Y-95162561D02*
X177528934Y-95248877D01*
X177528934Y-95248877D02*
X177526026Y-95355316D01*
X177526026Y-95355316D02*
X177502993Y-95418598D01*
X177502993Y-95418598D02*
X177436803Y-95502005D01*
X177436803Y-95502005D02*
X177284297Y-95625662D01*
X177284297Y-95625662D02*
X177068510Y-95726285D01*
X177068510Y-95726285D02*
X176875755Y-95763626D01*
X176875755Y-95763626D02*
X176769315Y-95760718D01*
X176769315Y-95760718D02*
X176706033Y-95737685D01*
X176706033Y-95737685D02*
X176622626Y-95671495D01*
X176622626Y-95671495D02*
X176582377Y-95585180D01*
X176582377Y-95585180D02*
X176585285Y-95478740D01*
X176585285Y-95478740D02*
X176608318Y-95415458D01*
X176608318Y-95415458D02*
X176674508Y-95332051D01*
X176674508Y-95332051D02*
X176827013Y-95208395D01*
X176827013Y-95208395D02*
X177042801Y-95107771D01*
X177042801Y-95107771D02*
X177235556Y-95070430D01*
X177235556Y-95070430D02*
X177341995Y-95073338D01*
X177341995Y-95073338D02*
X177405278Y-95096371D01*
X177405278Y-95096371D02*
X177488685Y-95162561D01*
D11*
X155821726Y-92997310D02*
X155265345Y-93386777D01*
X155821726Y-93664967D02*
X154653326Y-93664967D01*
X154653326Y-93664967D02*
X154653326Y-93219862D01*
X154653326Y-93219862D02*
X154708964Y-93108586D01*
X154708964Y-93108586D02*
X154764602Y-93052948D01*
X154764602Y-93052948D02*
X154875878Y-92997310D01*
X154875878Y-92997310D02*
X155042792Y-92997310D01*
X155042792Y-92997310D02*
X155154068Y-93052948D01*
X155154068Y-93052948D02*
X155209707Y-93108586D01*
X155209707Y-93108586D02*
X155265345Y-93219862D01*
X155265345Y-93219862D02*
X155265345Y-93664967D01*
X155821726Y-91884548D02*
X155821726Y-92552205D01*
X155821726Y-92218377D02*
X154653326Y-92218377D01*
X154653326Y-92218377D02*
X154820240Y-92329653D01*
X154820240Y-92329653D02*
X154931516Y-92440929D01*
X154931516Y-92440929D02*
X154987154Y-92552205D01*
X154653326Y-91495081D02*
X154653326Y-90771786D01*
X154653326Y-90771786D02*
X155098430Y-91161253D01*
X155098430Y-91161253D02*
X155098430Y-90994338D01*
X155098430Y-90994338D02*
X155154068Y-90883062D01*
X155154068Y-90883062D02*
X155209707Y-90827424D01*
X155209707Y-90827424D02*
X155320983Y-90771786D01*
X155320983Y-90771786D02*
X155599173Y-90771786D01*
X155599173Y-90771786D02*
X155710449Y-90827424D01*
X155710449Y-90827424D02*
X155766088Y-90883062D01*
X155766088Y-90883062D02*
X155821726Y-90994338D01*
X155821726Y-90994338D02*
X155821726Y-91328167D01*
X155821726Y-91328167D02*
X155766088Y-91439443D01*
X155766088Y-91439443D02*
X155710449Y-91495081D01*
D15*
X159186666Y-79054819D02*
X159186666Y-79769104D01*
X159186666Y-79769104D02*
X159139047Y-79911961D01*
X159139047Y-79911961D02*
X159043809Y-80007200D01*
X159043809Y-80007200D02*
X158900952Y-80054819D01*
X158900952Y-80054819D02*
X158805714Y-80054819D01*
X160186666Y-80054819D02*
X159615238Y-80054819D01*
X159900952Y-80054819D02*
X159900952Y-79054819D01*
X159900952Y-79054819D02*
X159805714Y-79197676D01*
X159805714Y-79197676D02*
X159710476Y-79292914D01*
X159710476Y-79292914D02*
X159615238Y-79340533D01*
D16*
X165054882Y-93600075D02*
X165127837Y-93591679D01*
X165127837Y-93591679D02*
X165158699Y-93602912D01*
X165158699Y-93602912D02*
X165199374Y-93635192D01*
X165199374Y-93635192D02*
X165228818Y-93698333D01*
X165228818Y-93698333D02*
X165227399Y-93750241D01*
X165227399Y-93750241D02*
X165216167Y-93781103D01*
X165216167Y-93781103D02*
X165183887Y-93821779D01*
X165183887Y-93821779D02*
X165015511Y-93900294D01*
X165015511Y-93900294D02*
X164809408Y-93458306D01*
X164809408Y-93458306D02*
X164956737Y-93389605D01*
X164956737Y-93389605D02*
X165008646Y-93391023D01*
X165008646Y-93391023D02*
X165039507Y-93402256D01*
X165039507Y-93402256D02*
X165080183Y-93434535D01*
X165080183Y-93434535D02*
X165099812Y-93476630D01*
X165099812Y-93476630D02*
X165098394Y-93528538D01*
X165098394Y-93528538D02*
X165087161Y-93559400D01*
X165087161Y-93559400D02*
X165054882Y-93600075D01*
X165054882Y-93600075D02*
X164907552Y-93668776D01*
X165377565Y-93577723D02*
X165588036Y-93479579D01*
X165394358Y-93723635D02*
X165335584Y-93212946D01*
X165335584Y-93212946D02*
X165689016Y-93586233D01*
X165567102Y-93104987D02*
X165819666Y-92987215D01*
X165899487Y-93488089D02*
X165693384Y-93046101D01*
X165903855Y-92947957D02*
X166156420Y-92830184D01*
X166236240Y-93331059D02*
X166030137Y-92889070D01*
X166387937Y-92722225D02*
X166430032Y-92702597D01*
X166430032Y-92702597D02*
X166481940Y-92704015D01*
X166481940Y-92704015D02*
X166512802Y-92715247D01*
X166512802Y-92715247D02*
X166553477Y-92747527D01*
X166553477Y-92747527D02*
X166613782Y-92821901D01*
X166613782Y-92821901D02*
X166662854Y-92927136D01*
X166662854Y-92927136D02*
X166681065Y-93021139D01*
X166681065Y-93021139D02*
X166679646Y-93073047D01*
X166679646Y-93073047D02*
X166668414Y-93103909D01*
X166668414Y-93103909D02*
X166636134Y-93144585D01*
X166636134Y-93144585D02*
X166594040Y-93164214D01*
X166594040Y-93164214D02*
X166542131Y-93162795D01*
X166542131Y-93162795D02*
X166511270Y-93151563D01*
X166511270Y-93151563D02*
X166470594Y-93119283D01*
X166470594Y-93119283D02*
X166410289Y-93044909D01*
X166410289Y-93044909D02*
X166361217Y-92939674D01*
X166361217Y-92939674D02*
X166343007Y-92845671D01*
X166343007Y-92845671D02*
X166344425Y-92793763D01*
X166344425Y-92793763D02*
X166355658Y-92762901D01*
X166355658Y-92762901D02*
X166387937Y-92722225D01*
D11*
X154862689Y-97990449D02*
X154807051Y-98046088D01*
X154807051Y-98046088D02*
X154640137Y-98101726D01*
X154640137Y-98101726D02*
X154528861Y-98101726D01*
X154528861Y-98101726D02*
X154361946Y-98046088D01*
X154361946Y-98046088D02*
X154250670Y-97934811D01*
X154250670Y-97934811D02*
X154195032Y-97823535D01*
X154195032Y-97823535D02*
X154139394Y-97600983D01*
X154139394Y-97600983D02*
X154139394Y-97434068D01*
X154139394Y-97434068D02*
X154195032Y-97211516D01*
X154195032Y-97211516D02*
X154250670Y-97100240D01*
X154250670Y-97100240D02*
X154361946Y-96988964D01*
X154361946Y-96988964D02*
X154528861Y-96933326D01*
X154528861Y-96933326D02*
X154640137Y-96933326D01*
X154640137Y-96933326D02*
X154807051Y-96988964D01*
X154807051Y-96988964D02*
X154862689Y-97044602D01*
X155252156Y-96933326D02*
X155975451Y-96933326D01*
X155975451Y-96933326D02*
X155585984Y-97378430D01*
X155585984Y-97378430D02*
X155752899Y-97378430D01*
X155752899Y-97378430D02*
X155864175Y-97434068D01*
X155864175Y-97434068D02*
X155919813Y-97489707D01*
X155919813Y-97489707D02*
X155975451Y-97600983D01*
X155975451Y-97600983D02*
X155975451Y-97879173D01*
X155975451Y-97879173D02*
X155919813Y-97990449D01*
X155919813Y-97990449D02*
X155864175Y-98046088D01*
X155864175Y-98046088D02*
X155752899Y-98101726D01*
X155752899Y-98101726D02*
X155419070Y-98101726D01*
X155419070Y-98101726D02*
X155307794Y-98046088D01*
X155307794Y-98046088D02*
X155252156Y-97990449D01*
X127742689Y-95071726D02*
X127353222Y-94515345D01*
X127075032Y-95071726D02*
X127075032Y-93903326D01*
X127075032Y-93903326D02*
X127520137Y-93903326D01*
X127520137Y-93903326D02*
X127631413Y-93958964D01*
X127631413Y-93958964D02*
X127687051Y-94014602D01*
X127687051Y-94014602D02*
X127742689Y-94125878D01*
X127742689Y-94125878D02*
X127742689Y-94292792D01*
X127742689Y-94292792D02*
X127687051Y-94404068D01*
X127687051Y-94404068D02*
X127631413Y-94459707D01*
X127631413Y-94459707D02*
X127520137Y-94515345D01*
X127520137Y-94515345D02*
X127075032Y-94515345D01*
X128855451Y-95071726D02*
X128187794Y-95071726D01*
X128521622Y-95071726D02*
X128521622Y-93903326D01*
X128521622Y-93903326D02*
X128410346Y-94070240D01*
X128410346Y-94070240D02*
X128299070Y-94181516D01*
X128299070Y-94181516D02*
X128187794Y-94237154D01*
X129578746Y-93903326D02*
X129690023Y-93903326D01*
X129690023Y-93903326D02*
X129801299Y-93958964D01*
X129801299Y-93958964D02*
X129856937Y-94014602D01*
X129856937Y-94014602D02*
X129912575Y-94125878D01*
X129912575Y-94125878D02*
X129968213Y-94348430D01*
X129968213Y-94348430D02*
X129968213Y-94626621D01*
X129968213Y-94626621D02*
X129912575Y-94849173D01*
X129912575Y-94849173D02*
X129856937Y-94960449D01*
X129856937Y-94960449D02*
X129801299Y-95016088D01*
X129801299Y-95016088D02*
X129690023Y-95071726D01*
X129690023Y-95071726D02*
X129578746Y-95071726D01*
X129578746Y-95071726D02*
X129467470Y-95016088D01*
X129467470Y-95016088D02*
X129411832Y-94960449D01*
X129411832Y-94960449D02*
X129356194Y-94849173D01*
X129356194Y-94849173D02*
X129300556Y-94626621D01*
X129300556Y-94626621D02*
X129300556Y-94348430D01*
X129300556Y-94348430D02*
X129356194Y-94125878D01*
X129356194Y-94125878D02*
X129411832Y-94014602D01*
X129411832Y-94014602D02*
X129467470Y-93958964D01*
X129467470Y-93958964D02*
X129578746Y-93903326D01*
X121692689Y-94761726D02*
X121303222Y-94205345D01*
X121025032Y-94761726D02*
X121025032Y-93593326D01*
X121025032Y-93593326D02*
X121470137Y-93593326D01*
X121470137Y-93593326D02*
X121581413Y-93648964D01*
X121581413Y-93648964D02*
X121637051Y-93704602D01*
X121637051Y-93704602D02*
X121692689Y-93815878D01*
X121692689Y-93815878D02*
X121692689Y-93982792D01*
X121692689Y-93982792D02*
X121637051Y-94094068D01*
X121637051Y-94094068D02*
X121581413Y-94149707D01*
X121581413Y-94149707D02*
X121470137Y-94205345D01*
X121470137Y-94205345D02*
X121025032Y-94205345D01*
X122805451Y-94761726D02*
X122137794Y-94761726D01*
X122471622Y-94761726D02*
X122471622Y-93593326D01*
X122471622Y-93593326D02*
X122360346Y-93760240D01*
X122360346Y-93760240D02*
X122249070Y-93871516D01*
X122249070Y-93871516D02*
X122137794Y-93927154D01*
X123918213Y-94761726D02*
X123250556Y-94761726D01*
X123584384Y-94761726D02*
X123584384Y-93593326D01*
X123584384Y-93593326D02*
X123473108Y-93760240D01*
X123473108Y-93760240D02*
X123361832Y-93871516D01*
X123361832Y-93871516D02*
X123250556Y-93927154D01*
D14*
X164106000Y-108530505D02*
X164106000Y-108149505D01*
X164704714Y-107986219D02*
X164704714Y-108530505D01*
X164704714Y-108530505D02*
X163561714Y-108530505D01*
X163561714Y-108530505D02*
X163561714Y-107986219D01*
X164813571Y-107768505D02*
X164813571Y-106897647D01*
X164704714Y-106081219D02*
X164704714Y-106625505D01*
X164704714Y-106625505D02*
X163561714Y-106625505D01*
X164106000Y-105700219D02*
X164106000Y-105319219D01*
X164704714Y-105155933D02*
X164704714Y-105700219D01*
X164704714Y-105700219D02*
X163561714Y-105700219D01*
X163561714Y-105700219D02*
X163561714Y-105155933D01*
X164106000Y-104285076D02*
X164106000Y-104666076D01*
X164704714Y-104666076D02*
X163561714Y-104666076D01*
X163561714Y-104666076D02*
X163561714Y-104121790D01*
X163561714Y-103849647D02*
X163561714Y-103196505D01*
X164704714Y-103523076D02*
X163561714Y-103523076D01*
X163561714Y-102597790D02*
X163561714Y-102488933D01*
X163561714Y-102488933D02*
X163616143Y-102380076D01*
X163616143Y-102380076D02*
X163670571Y-102325648D01*
X163670571Y-102325648D02*
X163779428Y-102271219D01*
X163779428Y-102271219D02*
X163997143Y-102216790D01*
X163997143Y-102216790D02*
X164269286Y-102216790D01*
X164269286Y-102216790D02*
X164487000Y-102271219D01*
X164487000Y-102271219D02*
X164595857Y-102325648D01*
X164595857Y-102325648D02*
X164650286Y-102380076D01*
X164650286Y-102380076D02*
X164704714Y-102488933D01*
X164704714Y-102488933D02*
X164704714Y-102597790D01*
X164704714Y-102597790D02*
X164650286Y-102706648D01*
X164650286Y-102706648D02*
X164595857Y-102761076D01*
X164595857Y-102761076D02*
X164487000Y-102815505D01*
X164487000Y-102815505D02*
X164269286Y-102869933D01*
X164269286Y-102869933D02*
X163997143Y-102869933D01*
X163997143Y-102869933D02*
X163779428Y-102815505D01*
X163779428Y-102815505D02*
X163670571Y-102761076D01*
X163670571Y-102761076D02*
X163616143Y-102706648D01*
X163616143Y-102706648D02*
X163561714Y-102597790D01*
D11*
X147532689Y-103840449D02*
X147477051Y-103896088D01*
X147477051Y-103896088D02*
X147310137Y-103951726D01*
X147310137Y-103951726D02*
X147198861Y-103951726D01*
X147198861Y-103951726D02*
X147031946Y-103896088D01*
X147031946Y-103896088D02*
X146920670Y-103784811D01*
X146920670Y-103784811D02*
X146865032Y-103673535D01*
X146865032Y-103673535D02*
X146809394Y-103450983D01*
X146809394Y-103450983D02*
X146809394Y-103284068D01*
X146809394Y-103284068D02*
X146865032Y-103061516D01*
X146865032Y-103061516D02*
X146920670Y-102950240D01*
X146920670Y-102950240D02*
X147031946Y-102838964D01*
X147031946Y-102838964D02*
X147198861Y-102783326D01*
X147198861Y-102783326D02*
X147310137Y-102783326D01*
X147310137Y-102783326D02*
X147477051Y-102838964D01*
X147477051Y-102838964D02*
X147532689Y-102894602D01*
X148534175Y-103172792D02*
X148534175Y-103951726D01*
X148255984Y-102727688D02*
X147977794Y-103562259D01*
X147977794Y-103562259D02*
X148701089Y-103562259D01*
D15*
X147613095Y-105554819D02*
X147613095Y-106364342D01*
X147613095Y-106364342D02*
X147660714Y-106459580D01*
X147660714Y-106459580D02*
X147708333Y-106507200D01*
X147708333Y-106507200D02*
X147803571Y-106554819D01*
X147803571Y-106554819D02*
X147994047Y-106554819D01*
X147994047Y-106554819D02*
X148089285Y-106507200D01*
X148089285Y-106507200D02*
X148136904Y-106459580D01*
X148136904Y-106459580D02*
X148184523Y-106364342D01*
X148184523Y-106364342D02*
X148184523Y-105554819D01*
X149184523Y-106554819D02*
X148613095Y-106554819D01*
X148898809Y-106554819D02*
X148898809Y-105554819D01*
X148898809Y-105554819D02*
X148803571Y-105697676D01*
X148803571Y-105697676D02*
X148708333Y-105792914D01*
X148708333Y-105792914D02*
X148613095Y-105840533D01*
X160472998Y-89980868D02*
X160392185Y-90007805D01*
X160392185Y-90007805D02*
X160311373Y-90088618D01*
X160311373Y-90088618D02*
X160257498Y-90196367D01*
X160257498Y-90196367D02*
X160257498Y-90304117D01*
X160257498Y-90304117D02*
X160284436Y-90384929D01*
X160284436Y-90384929D02*
X160365248Y-90519616D01*
X160365248Y-90519616D02*
X160446060Y-90600428D01*
X160446060Y-90600428D02*
X160580747Y-90681241D01*
X160580747Y-90681241D02*
X160661560Y-90708178D01*
X160661560Y-90708178D02*
X160769309Y-90708178D01*
X160769309Y-90708178D02*
X160877059Y-90654303D01*
X160877059Y-90654303D02*
X160930934Y-90600428D01*
X160930934Y-90600428D02*
X160984808Y-90492679D01*
X160984808Y-90492679D02*
X160984808Y-90438804D01*
X160984808Y-90438804D02*
X160796247Y-90250242D01*
X160796247Y-90250242D02*
X160688497Y-90357992D01*
X161281120Y-90250242D02*
X160715434Y-89684557D01*
X160715434Y-89684557D02*
X160930934Y-89469057D01*
X160930934Y-89469057D02*
X161011746Y-89442120D01*
X161011746Y-89442120D02*
X161065621Y-89442120D01*
X161065621Y-89442120D02*
X161146433Y-89469057D01*
X161146433Y-89469057D02*
X161227245Y-89549870D01*
X161227245Y-89549870D02*
X161254182Y-89630682D01*
X161254182Y-89630682D02*
X161254182Y-89684557D01*
X161254182Y-89684557D02*
X161227245Y-89765369D01*
X161227245Y-89765369D02*
X161011746Y-89980868D01*
X162143117Y-89388245D02*
X161819868Y-89711494D01*
X161981492Y-89549870D02*
X161415807Y-88984184D01*
X161415807Y-88984184D02*
X161442744Y-89118871D01*
X161442744Y-89118871D02*
X161442744Y-89226621D01*
X161442744Y-89226621D02*
X161415807Y-89307433D01*
X161765993Y-88633998D02*
X162116179Y-88283812D01*
X162116179Y-88283812D02*
X162143117Y-88687873D01*
X162143117Y-88687873D02*
X162223929Y-88607060D01*
X162223929Y-88607060D02*
X162304741Y-88580123D01*
X162304741Y-88580123D02*
X162358616Y-88580123D01*
X162358616Y-88580123D02*
X162439428Y-88607060D01*
X162439428Y-88607060D02*
X162574115Y-88741747D01*
X162574115Y-88741747D02*
X162601053Y-88822560D01*
X162601053Y-88822560D02*
X162601053Y-88876434D01*
X162601053Y-88876434D02*
X162574115Y-88957247D01*
X162574115Y-88957247D02*
X162412491Y-89118871D01*
X162412491Y-89118871D02*
X162331679Y-89145808D01*
X162331679Y-89145808D02*
X162277804Y-89145808D01*
X160488372Y-117651494D02*
X160407560Y-117678431D01*
X160407560Y-117678431D02*
X160326748Y-117759243D01*
X160326748Y-117759243D02*
X160272873Y-117866993D01*
X160272873Y-117866993D02*
X160272873Y-117974742D01*
X160272873Y-117974742D02*
X160299810Y-118055555D01*
X160299810Y-118055555D02*
X160380623Y-118190242D01*
X160380623Y-118190242D02*
X160461435Y-118271054D01*
X160461435Y-118271054D02*
X160596122Y-118351866D01*
X160596122Y-118351866D02*
X160676934Y-118378803D01*
X160676934Y-118378803D02*
X160784684Y-118378803D01*
X160784684Y-118378803D02*
X160892433Y-118324929D01*
X160892433Y-118324929D02*
X160946308Y-118271054D01*
X160946308Y-118271054D02*
X161000183Y-118163304D01*
X161000183Y-118163304D02*
X161000183Y-118109429D01*
X161000183Y-118109429D02*
X160811621Y-117920868D01*
X160811621Y-117920868D02*
X160703871Y-118028617D01*
X161296494Y-117920868D02*
X160730809Y-117355182D01*
X160730809Y-117355182D02*
X160946308Y-117139683D01*
X160946308Y-117139683D02*
X161027120Y-117112746D01*
X161027120Y-117112746D02*
X161080995Y-117112746D01*
X161080995Y-117112746D02*
X161161807Y-117139683D01*
X161161807Y-117139683D02*
X161242619Y-117220495D01*
X161242619Y-117220495D02*
X161269557Y-117301307D01*
X161269557Y-117301307D02*
X161269557Y-117355182D01*
X161269557Y-117355182D02*
X161242619Y-117435994D01*
X161242619Y-117435994D02*
X161027120Y-117651494D01*
X161727493Y-116735622D02*
X162104616Y-117112746D01*
X161377306Y-116654810D02*
X161646680Y-117193558D01*
X161646680Y-117193558D02*
X161996867Y-116843372D01*
X160518998Y-84900868D02*
X160438185Y-84927805D01*
X160438185Y-84927805D02*
X160357373Y-85008618D01*
X160357373Y-85008618D02*
X160303498Y-85116367D01*
X160303498Y-85116367D02*
X160303498Y-85224117D01*
X160303498Y-85224117D02*
X160330436Y-85304929D01*
X160330436Y-85304929D02*
X160411248Y-85439616D01*
X160411248Y-85439616D02*
X160492060Y-85520428D01*
X160492060Y-85520428D02*
X160626747Y-85601241D01*
X160626747Y-85601241D02*
X160707560Y-85628178D01*
X160707560Y-85628178D02*
X160815309Y-85628178D01*
X160815309Y-85628178D02*
X160923059Y-85574303D01*
X160923059Y-85574303D02*
X160976934Y-85520428D01*
X160976934Y-85520428D02*
X161030808Y-85412679D01*
X161030808Y-85412679D02*
X161030808Y-85358804D01*
X161030808Y-85358804D02*
X160842247Y-85170242D01*
X160842247Y-85170242D02*
X160734497Y-85277992D01*
X161327120Y-85170242D02*
X160761434Y-84604557D01*
X160761434Y-84604557D02*
X160976934Y-84389057D01*
X160976934Y-84389057D02*
X161057746Y-84362120D01*
X161057746Y-84362120D02*
X161111621Y-84362120D01*
X161111621Y-84362120D02*
X161192433Y-84389057D01*
X161192433Y-84389057D02*
X161273245Y-84469870D01*
X161273245Y-84469870D02*
X161300182Y-84550682D01*
X161300182Y-84550682D02*
X161300182Y-84604557D01*
X161300182Y-84604557D02*
X161273245Y-84685369D01*
X161273245Y-84685369D02*
X161057746Y-84900868D01*
X162189117Y-84308245D02*
X161865868Y-84631494D01*
X162027492Y-84469870D02*
X161461807Y-83904184D01*
X161461807Y-83904184D02*
X161488744Y-84038871D01*
X161488744Y-84038871D02*
X161488744Y-84146621D01*
X161488744Y-84146621D02*
X161461807Y-84227433D01*
X162296866Y-83446248D02*
X162673990Y-83823372D01*
X161946680Y-83365436D02*
X162216054Y-83904184D01*
X162216054Y-83904184D02*
X162566240Y-83553998D01*
X134364998Y-84900868D02*
X134284185Y-84927805D01*
X134284185Y-84927805D02*
X134203373Y-85008618D01*
X134203373Y-85008618D02*
X134149498Y-85116367D01*
X134149498Y-85116367D02*
X134149498Y-85224117D01*
X134149498Y-85224117D02*
X134176436Y-85304929D01*
X134176436Y-85304929D02*
X134257248Y-85439616D01*
X134257248Y-85439616D02*
X134338060Y-85520428D01*
X134338060Y-85520428D02*
X134472747Y-85601241D01*
X134472747Y-85601241D02*
X134553560Y-85628178D01*
X134553560Y-85628178D02*
X134661309Y-85628178D01*
X134661309Y-85628178D02*
X134769059Y-85574303D01*
X134769059Y-85574303D02*
X134822934Y-85520428D01*
X134822934Y-85520428D02*
X134876808Y-85412679D01*
X134876808Y-85412679D02*
X134876808Y-85358804D01*
X134876808Y-85358804D02*
X134688247Y-85170242D01*
X134688247Y-85170242D02*
X134580497Y-85277992D01*
X135173120Y-85170242D02*
X134607434Y-84604557D01*
X134607434Y-84604557D02*
X134822934Y-84389057D01*
X134822934Y-84389057D02*
X134903746Y-84362120D01*
X134903746Y-84362120D02*
X134957621Y-84362120D01*
X134957621Y-84362120D02*
X135038433Y-84389057D01*
X135038433Y-84389057D02*
X135119245Y-84469870D01*
X135119245Y-84469870D02*
X135146182Y-84550682D01*
X135146182Y-84550682D02*
X135146182Y-84604557D01*
X135146182Y-84604557D02*
X135119245Y-84685369D01*
X135119245Y-84685369D02*
X134903746Y-84900868D01*
X136035117Y-84308245D02*
X135711868Y-84631494D01*
X135873492Y-84469870D02*
X135307807Y-83904184D01*
X135307807Y-83904184D02*
X135334744Y-84038871D01*
X135334744Y-84038871D02*
X135334744Y-84146621D01*
X135334744Y-84146621D02*
X135307807Y-84227433D01*
X135657993Y-83553998D02*
X136035117Y-83176874D01*
X136035117Y-83176874D02*
X136358366Y-83984996D01*
X160618998Y-95060868D02*
X160538185Y-95087805D01*
X160538185Y-95087805D02*
X160457373Y-95168618D01*
X160457373Y-95168618D02*
X160403498Y-95276367D01*
X160403498Y-95276367D02*
X160403498Y-95384117D01*
X160403498Y-95384117D02*
X160430436Y-95464929D01*
X160430436Y-95464929D02*
X160511248Y-95599616D01*
X160511248Y-95599616D02*
X160592060Y-95680428D01*
X160592060Y-95680428D02*
X160726747Y-95761241D01*
X160726747Y-95761241D02*
X160807560Y-95788178D01*
X160807560Y-95788178D02*
X160915309Y-95788178D01*
X160915309Y-95788178D02*
X161023059Y-95734303D01*
X161023059Y-95734303D02*
X161076934Y-95680428D01*
X161076934Y-95680428D02*
X161130808Y-95572679D01*
X161130808Y-95572679D02*
X161130808Y-95518804D01*
X161130808Y-95518804D02*
X160942247Y-95330242D01*
X160942247Y-95330242D02*
X160834497Y-95437992D01*
X161427120Y-95330242D02*
X160861434Y-94764557D01*
X160861434Y-94764557D02*
X161076934Y-94549057D01*
X161076934Y-94549057D02*
X161157746Y-94522120D01*
X161157746Y-94522120D02*
X161211621Y-94522120D01*
X161211621Y-94522120D02*
X161292433Y-94549057D01*
X161292433Y-94549057D02*
X161373245Y-94629870D01*
X161373245Y-94629870D02*
X161400182Y-94710682D01*
X161400182Y-94710682D02*
X161400182Y-94764557D01*
X161400182Y-94764557D02*
X161373245Y-94845369D01*
X161373245Y-94845369D02*
X161157746Y-95060868D01*
X162289117Y-94468245D02*
X161965868Y-94791494D01*
X162127492Y-94629870D02*
X161561807Y-94064184D01*
X161561807Y-94064184D02*
X161588744Y-94198871D01*
X161588744Y-94198871D02*
X161588744Y-94306621D01*
X161588744Y-94306621D02*
X161561807Y-94387433D01*
X162827865Y-93929497D02*
X162504616Y-94252746D01*
X162666240Y-94091121D02*
X162100555Y-93525436D01*
X162100555Y-93525436D02*
X162127492Y-93660123D01*
X162127492Y-93660123D02*
X162127492Y-93767873D01*
X162127492Y-93767873D02*
X162100555Y-93848685D01*
X133895749Y-128350242D02*
X134649996Y-128727366D01*
X134649996Y-128727366D02*
X134272873Y-127973118D01*
X134973245Y-128350242D02*
X135080995Y-128296367D01*
X135080995Y-128296367D02*
X135215682Y-128161680D01*
X135215682Y-128161680D02*
X135242619Y-128080868D01*
X135242619Y-128080868D02*
X135242619Y-128026993D01*
X135242619Y-128026993D02*
X135215682Y-127946181D01*
X135215682Y-127946181D02*
X135161807Y-127892306D01*
X135161807Y-127892306D02*
X135080995Y-127865369D01*
X135080995Y-127865369D02*
X135027120Y-127865369D01*
X135027120Y-127865369D02*
X134946308Y-127892306D01*
X134946308Y-127892306D02*
X134811621Y-127973118D01*
X134811621Y-127973118D02*
X134730808Y-128000056D01*
X134730808Y-128000056D02*
X134676934Y-128000056D01*
X134676934Y-128000056D02*
X134596121Y-127973118D01*
X134596121Y-127973118D02*
X134542247Y-127919244D01*
X134542247Y-127919244D02*
X134515309Y-127838431D01*
X134515309Y-127838431D02*
X134515309Y-127784557D01*
X134515309Y-127784557D02*
X134542247Y-127703744D01*
X134542247Y-127703744D02*
X134676934Y-127569057D01*
X134676934Y-127569057D02*
X134784683Y-127515183D01*
X135404244Y-127434370D02*
X135673618Y-127703744D01*
X134919370Y-127326621D02*
X135404244Y-127434370D01*
X135404244Y-127434370D02*
X135296494Y-126949497D01*
X135996866Y-127326621D02*
X136104616Y-127272746D01*
X136104616Y-127272746D02*
X136239303Y-127138059D01*
X136239303Y-127138059D02*
X136266240Y-127057247D01*
X136266240Y-127057247D02*
X136266240Y-127003372D01*
X136266240Y-127003372D02*
X136239303Y-126922560D01*
X136239303Y-126922560D02*
X136185428Y-126868685D01*
X136185428Y-126868685D02*
X136104616Y-126841748D01*
X136104616Y-126841748D02*
X136050741Y-126841748D01*
X136050741Y-126841748D02*
X135969929Y-126868685D01*
X135969929Y-126868685D02*
X135835242Y-126949497D01*
X135835242Y-126949497D02*
X135754430Y-126976435D01*
X135754430Y-126976435D02*
X135700555Y-126976435D01*
X135700555Y-126976435D02*
X135619743Y-126949497D01*
X135619743Y-126949497D02*
X135565868Y-126895622D01*
X135565868Y-126895622D02*
X135538930Y-126814810D01*
X135538930Y-126814810D02*
X135538930Y-126760935D01*
X135538930Y-126760935D02*
X135565868Y-126680123D01*
X135565868Y-126680123D02*
X135700555Y-126545436D01*
X135700555Y-126545436D02*
X135808304Y-126491561D01*
X160488372Y-130351494D02*
X160407560Y-130378431D01*
X160407560Y-130378431D02*
X160326748Y-130459243D01*
X160326748Y-130459243D02*
X160272873Y-130566993D01*
X160272873Y-130566993D02*
X160272873Y-130674742D01*
X160272873Y-130674742D02*
X160299810Y-130755555D01*
X160299810Y-130755555D02*
X160380623Y-130890242D01*
X160380623Y-130890242D02*
X160461435Y-130971054D01*
X160461435Y-130971054D02*
X160596122Y-131051866D01*
X160596122Y-131051866D02*
X160676934Y-131078803D01*
X160676934Y-131078803D02*
X160784684Y-131078803D01*
X160784684Y-131078803D02*
X160892433Y-131024929D01*
X160892433Y-131024929D02*
X160946308Y-130971054D01*
X160946308Y-130971054D02*
X161000183Y-130863304D01*
X161000183Y-130863304D02*
X161000183Y-130809429D01*
X161000183Y-130809429D02*
X160811621Y-130620868D01*
X160811621Y-130620868D02*
X160703871Y-130728617D01*
X161296494Y-130620868D02*
X160730809Y-130055182D01*
X160730809Y-130055182D02*
X160946308Y-129839683D01*
X160946308Y-129839683D02*
X161027120Y-129812746D01*
X161027120Y-129812746D02*
X161080995Y-129812746D01*
X161080995Y-129812746D02*
X161161807Y-129839683D01*
X161161807Y-129839683D02*
X161242619Y-129920495D01*
X161242619Y-129920495D02*
X161269557Y-130001307D01*
X161269557Y-130001307D02*
X161269557Y-130055182D01*
X161269557Y-130055182D02*
X161242619Y-130135994D01*
X161242619Y-130135994D02*
X161027120Y-130351494D01*
X161404244Y-129381747D02*
X161458119Y-129327872D01*
X161458119Y-129327872D02*
X161538931Y-129300935D01*
X161538931Y-129300935D02*
X161592806Y-129300935D01*
X161592806Y-129300935D02*
X161673618Y-129327872D01*
X161673618Y-129327872D02*
X161808305Y-129408685D01*
X161808305Y-129408685D02*
X161942992Y-129543372D01*
X161942992Y-129543372D02*
X162023804Y-129678059D01*
X162023804Y-129678059D02*
X162050741Y-129758871D01*
X162050741Y-129758871D02*
X162050741Y-129812746D01*
X162050741Y-129812746D02*
X162023804Y-129893558D01*
X162023804Y-129893558D02*
X161969929Y-129947433D01*
X161969929Y-129947433D02*
X161889117Y-129974370D01*
X161889117Y-129974370D02*
X161835242Y-129974370D01*
X161835242Y-129974370D02*
X161754430Y-129947433D01*
X161754430Y-129947433D02*
X161619743Y-129866620D01*
X161619743Y-129866620D02*
X161485056Y-129731933D01*
X161485056Y-129731933D02*
X161404244Y-129597246D01*
X161404244Y-129597246D02*
X161377306Y-129516434D01*
X161377306Y-129516434D02*
X161377306Y-129462559D01*
X161377306Y-129462559D02*
X161404244Y-129381747D01*
X134465123Y-120390868D02*
X134815309Y-120040682D01*
X134815309Y-120040682D02*
X134842247Y-120444743D01*
X134842247Y-120444743D02*
X134923059Y-120363931D01*
X134923059Y-120363931D02*
X135003871Y-120336993D01*
X135003871Y-120336993D02*
X135057746Y-120336993D01*
X135057746Y-120336993D02*
X135138558Y-120363931D01*
X135138558Y-120363931D02*
X135273245Y-120498618D01*
X135273245Y-120498618D02*
X135300182Y-120579430D01*
X135300182Y-120579430D02*
X135300182Y-120633305D01*
X135300182Y-120633305D02*
X135273245Y-120714117D01*
X135273245Y-120714117D02*
X135111621Y-120875741D01*
X135111621Y-120875741D02*
X135030808Y-120902679D01*
X135030808Y-120902679D02*
X134976934Y-120902679D01*
X134976934Y-119879057D02*
X135731181Y-120256181D01*
X135731181Y-120256181D02*
X135354057Y-119501934D01*
X135488744Y-119367247D02*
X135838930Y-119017061D01*
X135838930Y-119017061D02*
X135865868Y-119421122D01*
X135865868Y-119421122D02*
X135946680Y-119340309D01*
X135946680Y-119340309D02*
X136027492Y-119313372D01*
X136027492Y-119313372D02*
X136081367Y-119313372D01*
X136081367Y-119313372D02*
X136162179Y-119340309D01*
X136162179Y-119340309D02*
X136296866Y-119474996D01*
X136296866Y-119474996D02*
X136323804Y-119555809D01*
X136323804Y-119555809D02*
X136323804Y-119609683D01*
X136323804Y-119609683D02*
X136296866Y-119690496D01*
X136296866Y-119690496D02*
X136135242Y-119852120D01*
X136135242Y-119852120D02*
X136054430Y-119879057D01*
X136054430Y-119879057D02*
X136000555Y-119879057D01*
X135213651Y-105503710D02*
X134755716Y-105422898D01*
X134890403Y-105826959D02*
X134324717Y-105261274D01*
X134324717Y-105261274D02*
X134540216Y-105045775D01*
X134540216Y-105045775D02*
X134621029Y-105018837D01*
X134621029Y-105018837D02*
X134674903Y-105018837D01*
X134674903Y-105018837D02*
X134755716Y-105045775D01*
X134755716Y-105045775D02*
X134836528Y-105126587D01*
X134836528Y-105126587D02*
X134863465Y-105207399D01*
X134863465Y-105207399D02*
X134863465Y-105261274D01*
X134863465Y-105261274D02*
X134836528Y-105342086D01*
X134836528Y-105342086D02*
X134621029Y-105557585D01*
X134890403Y-104695588D02*
X135348338Y-105153524D01*
X135348338Y-105153524D02*
X135429151Y-105180462D01*
X135429151Y-105180462D02*
X135483025Y-105180462D01*
X135483025Y-105180462D02*
X135563838Y-105153524D01*
X135563838Y-105153524D02*
X135671587Y-105045775D01*
X135671587Y-105045775D02*
X135698525Y-104964962D01*
X135698525Y-104964962D02*
X135698525Y-104911088D01*
X135698525Y-104911088D02*
X135671587Y-104830275D01*
X135671587Y-104830275D02*
X135213651Y-104372340D01*
X136048711Y-104668651D02*
X135483025Y-104102966D01*
X135483025Y-104102966D02*
X136371959Y-104345402D01*
X136371959Y-104345402D02*
X135806274Y-103779717D01*
X134364998Y-82360868D02*
X134284185Y-82387805D01*
X134284185Y-82387805D02*
X134203373Y-82468618D01*
X134203373Y-82468618D02*
X134149498Y-82576367D01*
X134149498Y-82576367D02*
X134149498Y-82684117D01*
X134149498Y-82684117D02*
X134176436Y-82764929D01*
X134176436Y-82764929D02*
X134257248Y-82899616D01*
X134257248Y-82899616D02*
X134338060Y-82980428D01*
X134338060Y-82980428D02*
X134472747Y-83061241D01*
X134472747Y-83061241D02*
X134553560Y-83088178D01*
X134553560Y-83088178D02*
X134661309Y-83088178D01*
X134661309Y-83088178D02*
X134769059Y-83034303D01*
X134769059Y-83034303D02*
X134822934Y-82980428D01*
X134822934Y-82980428D02*
X134876808Y-82872679D01*
X134876808Y-82872679D02*
X134876808Y-82818804D01*
X134876808Y-82818804D02*
X134688247Y-82630242D01*
X134688247Y-82630242D02*
X134580497Y-82737992D01*
X135173120Y-82630242D02*
X134607434Y-82064557D01*
X134607434Y-82064557D02*
X134822934Y-81849057D01*
X134822934Y-81849057D02*
X134903746Y-81822120D01*
X134903746Y-81822120D02*
X134957621Y-81822120D01*
X134957621Y-81822120D02*
X135038433Y-81849057D01*
X135038433Y-81849057D02*
X135119245Y-81929870D01*
X135119245Y-81929870D02*
X135146182Y-82010682D01*
X135146182Y-82010682D02*
X135146182Y-82064557D01*
X135146182Y-82064557D02*
X135119245Y-82145369D01*
X135119245Y-82145369D02*
X134903746Y-82360868D01*
X136035117Y-81768245D02*
X135711868Y-82091494D01*
X135873492Y-81929870D02*
X135307807Y-81364184D01*
X135307807Y-81364184D02*
X135334744Y-81498871D01*
X135334744Y-81498871D02*
X135334744Y-81606621D01*
X135334744Y-81606621D02*
X135307807Y-81687433D01*
X135954305Y-80717686D02*
X135846555Y-80825436D01*
X135846555Y-80825436D02*
X135819618Y-80906248D01*
X135819618Y-80906248D02*
X135819618Y-80960123D01*
X135819618Y-80960123D02*
X135846555Y-81094810D01*
X135846555Y-81094810D02*
X135927367Y-81229497D01*
X135927367Y-81229497D02*
X136142866Y-81444996D01*
X136142866Y-81444996D02*
X136223679Y-81471934D01*
X136223679Y-81471934D02*
X136277553Y-81471934D01*
X136277553Y-81471934D02*
X136358366Y-81444996D01*
X136358366Y-81444996D02*
X136466115Y-81337247D01*
X136466115Y-81337247D02*
X136493053Y-81256434D01*
X136493053Y-81256434D02*
X136493053Y-81202560D01*
X136493053Y-81202560D02*
X136466115Y-81121747D01*
X136466115Y-81121747D02*
X136331428Y-80987060D01*
X136331428Y-80987060D02*
X136250616Y-80960123D01*
X136250616Y-80960123D02*
X136196741Y-80960123D01*
X136196741Y-80960123D02*
X136115929Y-80987060D01*
X136115929Y-80987060D02*
X136008179Y-81094810D01*
X136008179Y-81094810D02*
X135981242Y-81175622D01*
X135981242Y-81175622D02*
X135981242Y-81229497D01*
X135981242Y-81229497D02*
X136008179Y-81310309D01*
X160488372Y-104951494D02*
X160407560Y-104978431D01*
X160407560Y-104978431D02*
X160326748Y-105059243D01*
X160326748Y-105059243D02*
X160272873Y-105166993D01*
X160272873Y-105166993D02*
X160272873Y-105274742D01*
X160272873Y-105274742D02*
X160299810Y-105355555D01*
X160299810Y-105355555D02*
X160380623Y-105490242D01*
X160380623Y-105490242D02*
X160461435Y-105571054D01*
X160461435Y-105571054D02*
X160596122Y-105651866D01*
X160596122Y-105651866D02*
X160676934Y-105678803D01*
X160676934Y-105678803D02*
X160784684Y-105678803D01*
X160784684Y-105678803D02*
X160892433Y-105624929D01*
X160892433Y-105624929D02*
X160946308Y-105571054D01*
X160946308Y-105571054D02*
X161000183Y-105463304D01*
X161000183Y-105463304D02*
X161000183Y-105409429D01*
X161000183Y-105409429D02*
X160811621Y-105220868D01*
X160811621Y-105220868D02*
X160703871Y-105328617D01*
X161296494Y-105220868D02*
X160730809Y-104655182D01*
X160730809Y-104655182D02*
X160946308Y-104439683D01*
X160946308Y-104439683D02*
X161027120Y-104412746D01*
X161027120Y-104412746D02*
X161080995Y-104412746D01*
X161080995Y-104412746D02*
X161161807Y-104439683D01*
X161161807Y-104439683D02*
X161242619Y-104520495D01*
X161242619Y-104520495D02*
X161269557Y-104601307D01*
X161269557Y-104601307D02*
X161269557Y-104655182D01*
X161269557Y-104655182D02*
X161242619Y-104735994D01*
X161242619Y-104735994D02*
X161027120Y-104951494D01*
X161619743Y-104251121D02*
X161538931Y-104278059D01*
X161538931Y-104278059D02*
X161485056Y-104278059D01*
X161485056Y-104278059D02*
X161404244Y-104251121D01*
X161404244Y-104251121D02*
X161377306Y-104224184D01*
X161377306Y-104224184D02*
X161350369Y-104143372D01*
X161350369Y-104143372D02*
X161350369Y-104089497D01*
X161350369Y-104089497D02*
X161377306Y-104008685D01*
X161377306Y-104008685D02*
X161485056Y-103900935D01*
X161485056Y-103900935D02*
X161565868Y-103873998D01*
X161565868Y-103873998D02*
X161619743Y-103873998D01*
X161619743Y-103873998D02*
X161700555Y-103900935D01*
X161700555Y-103900935D02*
X161727493Y-103927872D01*
X161727493Y-103927872D02*
X161754430Y-104008685D01*
X161754430Y-104008685D02*
X161754430Y-104062559D01*
X161754430Y-104062559D02*
X161727493Y-104143372D01*
X161727493Y-104143372D02*
X161619743Y-104251121D01*
X161619743Y-104251121D02*
X161592806Y-104331933D01*
X161592806Y-104331933D02*
X161592806Y-104385808D01*
X161592806Y-104385808D02*
X161619743Y-104466620D01*
X161619743Y-104466620D02*
X161727493Y-104574370D01*
X161727493Y-104574370D02*
X161808305Y-104601307D01*
X161808305Y-104601307D02*
X161862180Y-104601307D01*
X161862180Y-104601307D02*
X161942992Y-104574370D01*
X161942992Y-104574370D02*
X162050741Y-104466620D01*
X162050741Y-104466620D02*
X162077679Y-104385808D01*
X162077679Y-104385808D02*
X162077679Y-104331933D01*
X162077679Y-104331933D02*
X162050741Y-104251121D01*
X162050741Y-104251121D02*
X161942992Y-104143372D01*
X161942992Y-104143372D02*
X161862180Y-104116434D01*
X161862180Y-104116434D02*
X161808305Y-104116434D01*
X161808305Y-104116434D02*
X161727493Y-104143372D01*
X160488372Y-120191494D02*
X160407560Y-120218431D01*
X160407560Y-120218431D02*
X160326748Y-120299243D01*
X160326748Y-120299243D02*
X160272873Y-120406993D01*
X160272873Y-120406993D02*
X160272873Y-120514742D01*
X160272873Y-120514742D02*
X160299810Y-120595555D01*
X160299810Y-120595555D02*
X160380623Y-120730242D01*
X160380623Y-120730242D02*
X160461435Y-120811054D01*
X160461435Y-120811054D02*
X160596122Y-120891866D01*
X160596122Y-120891866D02*
X160676934Y-120918803D01*
X160676934Y-120918803D02*
X160784684Y-120918803D01*
X160784684Y-120918803D02*
X160892433Y-120864929D01*
X160892433Y-120864929D02*
X160946308Y-120811054D01*
X160946308Y-120811054D02*
X161000183Y-120703304D01*
X161000183Y-120703304D02*
X161000183Y-120649429D01*
X161000183Y-120649429D02*
X160811621Y-120460868D01*
X160811621Y-120460868D02*
X160703871Y-120568617D01*
X161296494Y-120460868D02*
X160730809Y-119895182D01*
X160730809Y-119895182D02*
X160946308Y-119679683D01*
X160946308Y-119679683D02*
X161027120Y-119652746D01*
X161027120Y-119652746D02*
X161080995Y-119652746D01*
X161080995Y-119652746D02*
X161161807Y-119679683D01*
X161161807Y-119679683D02*
X161242619Y-119760495D01*
X161242619Y-119760495D02*
X161269557Y-119841307D01*
X161269557Y-119841307D02*
X161269557Y-119895182D01*
X161269557Y-119895182D02*
X161242619Y-119975994D01*
X161242619Y-119975994D02*
X161027120Y-120191494D01*
X161242619Y-119383372D02*
X161592806Y-119033185D01*
X161592806Y-119033185D02*
X161619743Y-119437246D01*
X161619743Y-119437246D02*
X161700555Y-119356434D01*
X161700555Y-119356434D02*
X161781367Y-119329497D01*
X161781367Y-119329497D02*
X161835242Y-119329497D01*
X161835242Y-119329497D02*
X161916054Y-119356434D01*
X161916054Y-119356434D02*
X162050741Y-119491121D01*
X162050741Y-119491121D02*
X162077679Y-119571933D01*
X162077679Y-119571933D02*
X162077679Y-119625808D01*
X162077679Y-119625808D02*
X162050741Y-119706620D01*
X162050741Y-119706620D02*
X161889117Y-119868245D01*
X161889117Y-119868245D02*
X161808305Y-119895182D01*
X161808305Y-119895182D02*
X161754430Y-119895182D01*
X134861435Y-99898431D02*
X134780623Y-99925368D01*
X134780623Y-99925368D02*
X134699811Y-100006180D01*
X134699811Y-100006180D02*
X134645936Y-100113930D01*
X134645936Y-100113930D02*
X134645936Y-100221680D01*
X134645936Y-100221680D02*
X134672873Y-100302492D01*
X134672873Y-100302492D02*
X134753685Y-100437179D01*
X134753685Y-100437179D02*
X134834498Y-100517991D01*
X134834498Y-100517991D02*
X134969185Y-100598803D01*
X134969185Y-100598803D02*
X135049997Y-100625741D01*
X135049997Y-100625741D02*
X135157746Y-100625741D01*
X135157746Y-100625741D02*
X135265496Y-100571866D01*
X135265496Y-100571866D02*
X135319371Y-100517991D01*
X135319371Y-100517991D02*
X135373246Y-100410241D01*
X135373246Y-100410241D02*
X135373246Y-100356367D01*
X135373246Y-100356367D02*
X135184684Y-100167805D01*
X135184684Y-100167805D02*
X135076934Y-100275554D01*
X135669557Y-100167805D02*
X135103872Y-99602119D01*
X135103872Y-99602119D02*
X135992806Y-99844556D01*
X135992806Y-99844556D02*
X135427120Y-99278871D01*
X136262180Y-99575182D02*
X135696494Y-99009497D01*
X135696494Y-99009497D02*
X135831181Y-98874810D01*
X135831181Y-98874810D02*
X135938931Y-98820935D01*
X135938931Y-98820935D02*
X136046680Y-98820935D01*
X136046680Y-98820935D02*
X136127493Y-98847872D01*
X136127493Y-98847872D02*
X136262180Y-98928685D01*
X136262180Y-98928685D02*
X136342992Y-99009497D01*
X136342992Y-99009497D02*
X136423804Y-99144184D01*
X136423804Y-99144184D02*
X136450741Y-99224996D01*
X136450741Y-99224996D02*
X136450741Y-99332746D01*
X136450741Y-99332746D02*
X136396867Y-99440495D01*
X136396867Y-99440495D02*
X136262180Y-99575182D01*
X160588372Y-122731494D02*
X160507560Y-122758431D01*
X160507560Y-122758431D02*
X160426748Y-122839243D01*
X160426748Y-122839243D02*
X160372873Y-122946993D01*
X160372873Y-122946993D02*
X160372873Y-123054742D01*
X160372873Y-123054742D02*
X160399810Y-123135555D01*
X160399810Y-123135555D02*
X160480623Y-123270242D01*
X160480623Y-123270242D02*
X160561435Y-123351054D01*
X160561435Y-123351054D02*
X160696122Y-123431866D01*
X160696122Y-123431866D02*
X160776934Y-123458803D01*
X160776934Y-123458803D02*
X160884684Y-123458803D01*
X160884684Y-123458803D02*
X160992433Y-123404929D01*
X160992433Y-123404929D02*
X161046308Y-123351054D01*
X161046308Y-123351054D02*
X161100183Y-123243304D01*
X161100183Y-123243304D02*
X161100183Y-123189429D01*
X161100183Y-123189429D02*
X160911621Y-123000868D01*
X160911621Y-123000868D02*
X160803871Y-123108617D01*
X161396494Y-123000868D02*
X160830809Y-122435182D01*
X160830809Y-122435182D02*
X161046308Y-122219683D01*
X161046308Y-122219683D02*
X161127120Y-122192746D01*
X161127120Y-122192746D02*
X161180995Y-122192746D01*
X161180995Y-122192746D02*
X161261807Y-122219683D01*
X161261807Y-122219683D02*
X161342619Y-122300495D01*
X161342619Y-122300495D02*
X161369557Y-122381307D01*
X161369557Y-122381307D02*
X161369557Y-122435182D01*
X161369557Y-122435182D02*
X161342619Y-122515994D01*
X161342619Y-122515994D02*
X161127120Y-122731494D01*
X161423432Y-121950309D02*
X161423432Y-121896434D01*
X161423432Y-121896434D02*
X161450369Y-121815622D01*
X161450369Y-121815622D02*
X161585056Y-121680935D01*
X161585056Y-121680935D02*
X161665868Y-121653998D01*
X161665868Y-121653998D02*
X161719743Y-121653998D01*
X161719743Y-121653998D02*
X161800555Y-121680935D01*
X161800555Y-121680935D02*
X161854430Y-121734810D01*
X161854430Y-121734810D02*
X161908305Y-121842559D01*
X161908305Y-121842559D02*
X161908305Y-122489057D01*
X161908305Y-122489057D02*
X162258491Y-122138871D01*
X133728406Y-131027585D02*
X134482653Y-131404709D01*
X134482653Y-131404709D02*
X134105529Y-130650462D01*
X134752027Y-130542712D02*
X134859776Y-130488838D01*
X134859776Y-130488838D02*
X134913651Y-130488838D01*
X134913651Y-130488838D02*
X134994463Y-130515775D01*
X134994463Y-130515775D02*
X135075276Y-130596587D01*
X135075276Y-130596587D02*
X135102213Y-130677399D01*
X135102213Y-130677399D02*
X135102213Y-130731274D01*
X135102213Y-130731274D02*
X135075276Y-130812086D01*
X135075276Y-130812086D02*
X134859776Y-131027586D01*
X134859776Y-131027586D02*
X134294091Y-130461900D01*
X134294091Y-130461900D02*
X134482653Y-130273338D01*
X134482653Y-130273338D02*
X134563465Y-130246401D01*
X134563465Y-130246401D02*
X134617340Y-130246401D01*
X134617340Y-130246401D02*
X134698152Y-130273338D01*
X134698152Y-130273338D02*
X134752027Y-130327213D01*
X134752027Y-130327213D02*
X134778964Y-130408025D01*
X134778964Y-130408025D02*
X134778964Y-130461900D01*
X134778964Y-130461900D02*
X134752027Y-130542712D01*
X134752027Y-130542712D02*
X134563465Y-130731274D01*
X134859776Y-129896215D02*
X135317712Y-130354151D01*
X135317712Y-130354151D02*
X135398524Y-130381088D01*
X135398524Y-130381088D02*
X135452399Y-130381088D01*
X135452399Y-130381088D02*
X135533211Y-130354151D01*
X135533211Y-130354151D02*
X135640961Y-130246401D01*
X135640961Y-130246401D02*
X135667898Y-130165589D01*
X135667898Y-130165589D02*
X135667898Y-130111714D01*
X135667898Y-130111714D02*
X135640961Y-130030902D01*
X135640961Y-130030902D02*
X135183025Y-129572966D01*
X135964210Y-129869277D02*
X136071959Y-129815403D01*
X136071959Y-129815403D02*
X136206646Y-129680716D01*
X136206646Y-129680716D02*
X136233584Y-129599903D01*
X136233584Y-129599903D02*
X136233584Y-129546029D01*
X136233584Y-129546029D02*
X136206646Y-129465216D01*
X136206646Y-129465216D02*
X136152771Y-129411342D01*
X136152771Y-129411342D02*
X136071959Y-129384404D01*
X136071959Y-129384404D02*
X136018084Y-129384404D01*
X136018084Y-129384404D02*
X135937272Y-129411342D01*
X135937272Y-129411342D02*
X135802585Y-129492154D01*
X135802585Y-129492154D02*
X135721773Y-129519091D01*
X135721773Y-129519091D02*
X135667898Y-129519091D01*
X135667898Y-129519091D02*
X135587086Y-129492154D01*
X135587086Y-129492154D02*
X135533211Y-129438279D01*
X135533211Y-129438279D02*
X135506274Y-129357467D01*
X135506274Y-129357467D02*
X135506274Y-129303592D01*
X135506274Y-129303592D02*
X135533211Y-129222780D01*
X135533211Y-129222780D02*
X135667898Y-129088093D01*
X135667898Y-129088093D02*
X135775648Y-129034218D01*
X134364998Y-110290868D02*
X134284185Y-110317805D01*
X134284185Y-110317805D02*
X134203373Y-110398618D01*
X134203373Y-110398618D02*
X134149498Y-110506367D01*
X134149498Y-110506367D02*
X134149498Y-110614117D01*
X134149498Y-110614117D02*
X134176436Y-110694929D01*
X134176436Y-110694929D02*
X134257248Y-110829616D01*
X134257248Y-110829616D02*
X134338060Y-110910428D01*
X134338060Y-110910428D02*
X134472747Y-110991241D01*
X134472747Y-110991241D02*
X134553560Y-111018178D01*
X134553560Y-111018178D02*
X134661309Y-111018178D01*
X134661309Y-111018178D02*
X134769059Y-110964303D01*
X134769059Y-110964303D02*
X134822934Y-110910428D01*
X134822934Y-110910428D02*
X134876808Y-110802679D01*
X134876808Y-110802679D02*
X134876808Y-110748804D01*
X134876808Y-110748804D02*
X134688247Y-110560242D01*
X134688247Y-110560242D02*
X134580497Y-110667992D01*
X135173120Y-110560242D02*
X134607434Y-109994557D01*
X134607434Y-109994557D02*
X134822934Y-109779057D01*
X134822934Y-109779057D02*
X134903746Y-109752120D01*
X134903746Y-109752120D02*
X134957621Y-109752120D01*
X134957621Y-109752120D02*
X135038433Y-109779057D01*
X135038433Y-109779057D02*
X135119245Y-109859870D01*
X135119245Y-109859870D02*
X135146182Y-109940682D01*
X135146182Y-109940682D02*
X135146182Y-109994557D01*
X135146182Y-109994557D02*
X135119245Y-110075369D01*
X135119245Y-110075369D02*
X134903746Y-110290868D01*
X135200057Y-109509683D02*
X135200057Y-109455809D01*
X135200057Y-109455809D02*
X135226995Y-109374996D01*
X135226995Y-109374996D02*
X135361682Y-109240309D01*
X135361682Y-109240309D02*
X135442494Y-109213372D01*
X135442494Y-109213372D02*
X135496369Y-109213372D01*
X135496369Y-109213372D02*
X135577181Y-109240309D01*
X135577181Y-109240309D02*
X135631056Y-109294184D01*
X135631056Y-109294184D02*
X135684930Y-109401934D01*
X135684930Y-109401934D02*
X135684930Y-110048431D01*
X135684930Y-110048431D02*
X136035117Y-109698245D01*
X135657993Y-108943998D02*
X136035117Y-108566874D01*
X136035117Y-108566874D02*
X136358366Y-109374996D01*
X134364998Y-97590868D02*
X134284185Y-97617805D01*
X134284185Y-97617805D02*
X134203373Y-97698618D01*
X134203373Y-97698618D02*
X134149498Y-97806367D01*
X134149498Y-97806367D02*
X134149498Y-97914117D01*
X134149498Y-97914117D02*
X134176436Y-97994929D01*
X134176436Y-97994929D02*
X134257248Y-98129616D01*
X134257248Y-98129616D02*
X134338060Y-98210428D01*
X134338060Y-98210428D02*
X134472747Y-98291241D01*
X134472747Y-98291241D02*
X134553560Y-98318178D01*
X134553560Y-98318178D02*
X134661309Y-98318178D01*
X134661309Y-98318178D02*
X134769059Y-98264303D01*
X134769059Y-98264303D02*
X134822934Y-98210428D01*
X134822934Y-98210428D02*
X134876808Y-98102679D01*
X134876808Y-98102679D02*
X134876808Y-98048804D01*
X134876808Y-98048804D02*
X134688247Y-97860242D01*
X134688247Y-97860242D02*
X134580497Y-97967992D01*
X135173120Y-97860242D02*
X134607434Y-97294557D01*
X134607434Y-97294557D02*
X134822934Y-97079057D01*
X134822934Y-97079057D02*
X134903746Y-97052120D01*
X134903746Y-97052120D02*
X134957621Y-97052120D01*
X134957621Y-97052120D02*
X135038433Y-97079057D01*
X135038433Y-97079057D02*
X135119245Y-97159870D01*
X135119245Y-97159870D02*
X135146182Y-97240682D01*
X135146182Y-97240682D02*
X135146182Y-97294557D01*
X135146182Y-97294557D02*
X135119245Y-97375369D01*
X135119245Y-97375369D02*
X134903746Y-97590868D01*
X135200057Y-96809683D02*
X135200057Y-96755809D01*
X135200057Y-96755809D02*
X135226995Y-96674996D01*
X135226995Y-96674996D02*
X135361682Y-96540309D01*
X135361682Y-96540309D02*
X135442494Y-96513372D01*
X135442494Y-96513372D02*
X135496369Y-96513372D01*
X135496369Y-96513372D02*
X135577181Y-96540309D01*
X135577181Y-96540309D02*
X135631056Y-96594184D01*
X135631056Y-96594184D02*
X135684930Y-96701934D01*
X135684930Y-96701934D02*
X135684930Y-97348431D01*
X135684930Y-97348431D02*
X136035117Y-96998245D01*
X136573865Y-96459497D02*
X136250616Y-96782746D01*
X136412240Y-96621121D02*
X135846555Y-96055436D01*
X135846555Y-96055436D02*
X135873492Y-96190123D01*
X135873492Y-96190123D02*
X135873492Y-96297873D01*
X135873492Y-96297873D02*
X135846555Y-96378685D01*
X134418873Y-113541240D02*
X134688247Y-113271866D01*
X134526623Y-113756739D02*
X134149499Y-113002492D01*
X134149499Y-113002492D02*
X134903746Y-113379615D01*
X134849871Y-112355994D02*
X134769059Y-112382932D01*
X134769059Y-112382932D02*
X134688247Y-112463744D01*
X134688247Y-112463744D02*
X134634372Y-112571494D01*
X134634372Y-112571494D02*
X134634372Y-112679243D01*
X134634372Y-112679243D02*
X134661310Y-112760055D01*
X134661310Y-112760055D02*
X134742122Y-112894742D01*
X134742122Y-112894742D02*
X134822934Y-112975555D01*
X134822934Y-112975555D02*
X134957621Y-113056367D01*
X134957621Y-113056367D02*
X135038433Y-113083304D01*
X135038433Y-113083304D02*
X135146183Y-113083304D01*
X135146183Y-113083304D02*
X135253932Y-113029429D01*
X135253932Y-113029429D02*
X135307807Y-112975555D01*
X135307807Y-112975555D02*
X135361682Y-112867805D01*
X135361682Y-112867805D02*
X135361682Y-112813930D01*
X135361682Y-112813930D02*
X135173120Y-112625368D01*
X135173120Y-112625368D02*
X135065371Y-112733118D01*
X135657993Y-112625368D02*
X135092308Y-112059683D01*
X135092308Y-112059683D02*
X135981242Y-112302120D01*
X135981242Y-112302120D02*
X135415557Y-111736434D01*
X136250616Y-112032746D02*
X135684931Y-111467060D01*
X135684931Y-111467060D02*
X135819618Y-111332373D01*
X135819618Y-111332373D02*
X135927367Y-111278498D01*
X135927367Y-111278498D02*
X136035117Y-111278498D01*
X136035117Y-111278498D02*
X136115929Y-111305436D01*
X136115929Y-111305436D02*
X136250616Y-111386248D01*
X136250616Y-111386248D02*
X136331428Y-111467060D01*
X136331428Y-111467060D02*
X136412241Y-111601747D01*
X136412241Y-111601747D02*
X136439178Y-111682560D01*
X136439178Y-111682560D02*
X136439178Y-111790309D01*
X136439178Y-111790309D02*
X136385303Y-111898059D01*
X136385303Y-111898059D02*
X136250616Y-112032746D01*
X160488372Y-102411494D02*
X160407560Y-102438431D01*
X160407560Y-102438431D02*
X160326748Y-102519243D01*
X160326748Y-102519243D02*
X160272873Y-102626993D01*
X160272873Y-102626993D02*
X160272873Y-102734742D01*
X160272873Y-102734742D02*
X160299810Y-102815555D01*
X160299810Y-102815555D02*
X160380623Y-102950242D01*
X160380623Y-102950242D02*
X160461435Y-103031054D01*
X160461435Y-103031054D02*
X160596122Y-103111866D01*
X160596122Y-103111866D02*
X160676934Y-103138803D01*
X160676934Y-103138803D02*
X160784684Y-103138803D01*
X160784684Y-103138803D02*
X160892433Y-103084929D01*
X160892433Y-103084929D02*
X160946308Y-103031054D01*
X160946308Y-103031054D02*
X161000183Y-102923304D01*
X161000183Y-102923304D02*
X161000183Y-102869429D01*
X161000183Y-102869429D02*
X160811621Y-102680868D01*
X160811621Y-102680868D02*
X160703871Y-102788617D01*
X161296494Y-102680868D02*
X160730809Y-102115182D01*
X160730809Y-102115182D02*
X160946308Y-101899683D01*
X160946308Y-101899683D02*
X161027120Y-101872746D01*
X161027120Y-101872746D02*
X161080995Y-101872746D01*
X161080995Y-101872746D02*
X161161807Y-101899683D01*
X161161807Y-101899683D02*
X161242619Y-101980495D01*
X161242619Y-101980495D02*
X161269557Y-102061307D01*
X161269557Y-102061307D02*
X161269557Y-102115182D01*
X161269557Y-102115182D02*
X161242619Y-102195994D01*
X161242619Y-102195994D02*
X161027120Y-102411494D01*
X161889117Y-102088245D02*
X161996867Y-101980495D01*
X161996867Y-101980495D02*
X162023804Y-101899683D01*
X162023804Y-101899683D02*
X162023804Y-101845808D01*
X162023804Y-101845808D02*
X161996867Y-101711121D01*
X161996867Y-101711121D02*
X161916054Y-101576434D01*
X161916054Y-101576434D02*
X161700555Y-101360935D01*
X161700555Y-101360935D02*
X161619743Y-101333998D01*
X161619743Y-101333998D02*
X161565868Y-101333998D01*
X161565868Y-101333998D02*
X161485056Y-101360935D01*
X161485056Y-101360935D02*
X161377306Y-101468685D01*
X161377306Y-101468685D02*
X161350369Y-101549497D01*
X161350369Y-101549497D02*
X161350369Y-101603372D01*
X161350369Y-101603372D02*
X161377306Y-101684184D01*
X161377306Y-101684184D02*
X161511993Y-101818871D01*
X161511993Y-101818871D02*
X161592806Y-101845808D01*
X161592806Y-101845808D02*
X161646680Y-101845808D01*
X161646680Y-101845808D02*
X161727493Y-101818871D01*
X161727493Y-101818871D02*
X161835242Y-101711121D01*
X161835242Y-101711121D02*
X161862180Y-101630309D01*
X161862180Y-101630309D02*
X161862180Y-101576434D01*
X161862180Y-101576434D02*
X161835242Y-101495622D01*
X134364998Y-107760868D02*
X134284185Y-107787805D01*
X134284185Y-107787805D02*
X134203373Y-107868618D01*
X134203373Y-107868618D02*
X134149498Y-107976367D01*
X134149498Y-107976367D02*
X134149498Y-108084117D01*
X134149498Y-108084117D02*
X134176436Y-108164929D01*
X134176436Y-108164929D02*
X134257248Y-108299616D01*
X134257248Y-108299616D02*
X134338060Y-108380428D01*
X134338060Y-108380428D02*
X134472747Y-108461241D01*
X134472747Y-108461241D02*
X134553560Y-108488178D01*
X134553560Y-108488178D02*
X134661309Y-108488178D01*
X134661309Y-108488178D02*
X134769059Y-108434303D01*
X134769059Y-108434303D02*
X134822934Y-108380428D01*
X134822934Y-108380428D02*
X134876808Y-108272679D01*
X134876808Y-108272679D02*
X134876808Y-108218804D01*
X134876808Y-108218804D02*
X134688247Y-108030242D01*
X134688247Y-108030242D02*
X134580497Y-108137992D01*
X135173120Y-108030242D02*
X134607434Y-107464557D01*
X134607434Y-107464557D02*
X134822934Y-107249057D01*
X134822934Y-107249057D02*
X134903746Y-107222120D01*
X134903746Y-107222120D02*
X134957621Y-107222120D01*
X134957621Y-107222120D02*
X135038433Y-107249057D01*
X135038433Y-107249057D02*
X135119245Y-107329870D01*
X135119245Y-107329870D02*
X135146182Y-107410682D01*
X135146182Y-107410682D02*
X135146182Y-107464557D01*
X135146182Y-107464557D02*
X135119245Y-107545369D01*
X135119245Y-107545369D02*
X134903746Y-107760868D01*
X135200057Y-106979683D02*
X135200057Y-106925809D01*
X135200057Y-106925809D02*
X135226995Y-106844996D01*
X135226995Y-106844996D02*
X135361682Y-106710309D01*
X135361682Y-106710309D02*
X135442494Y-106683372D01*
X135442494Y-106683372D02*
X135496369Y-106683372D01*
X135496369Y-106683372D02*
X135577181Y-106710309D01*
X135577181Y-106710309D02*
X135631056Y-106764184D01*
X135631056Y-106764184D02*
X135684930Y-106871934D01*
X135684930Y-106871934D02*
X135684930Y-107518431D01*
X135684930Y-107518431D02*
X136035117Y-107168245D01*
X135954305Y-106117686D02*
X135846555Y-106225436D01*
X135846555Y-106225436D02*
X135819618Y-106306248D01*
X135819618Y-106306248D02*
X135819618Y-106360123D01*
X135819618Y-106360123D02*
X135846555Y-106494810D01*
X135846555Y-106494810D02*
X135927367Y-106629497D01*
X135927367Y-106629497D02*
X136142866Y-106844996D01*
X136142866Y-106844996D02*
X136223679Y-106871934D01*
X136223679Y-106871934D02*
X136277553Y-106871934D01*
X136277553Y-106871934D02*
X136358366Y-106844996D01*
X136358366Y-106844996D02*
X136466115Y-106737247D01*
X136466115Y-106737247D02*
X136493053Y-106656434D01*
X136493053Y-106656434D02*
X136493053Y-106602560D01*
X136493053Y-106602560D02*
X136466115Y-106521747D01*
X136466115Y-106521747D02*
X136331428Y-106387060D01*
X136331428Y-106387060D02*
X136250616Y-106360123D01*
X136250616Y-106360123D02*
X136196741Y-106360123D01*
X136196741Y-106360123D02*
X136115929Y-106387060D01*
X136115929Y-106387060D02*
X136008179Y-106494810D01*
X136008179Y-106494810D02*
X135981242Y-106575622D01*
X135981242Y-106575622D02*
X135981242Y-106629497D01*
X135981242Y-106629497D02*
X136008179Y-106710309D01*
X134364998Y-115634868D02*
X134284185Y-115661805D01*
X134284185Y-115661805D02*
X134203373Y-115742618D01*
X134203373Y-115742618D02*
X134149498Y-115850367D01*
X134149498Y-115850367D02*
X134149498Y-115958117D01*
X134149498Y-115958117D02*
X134176436Y-116038929D01*
X134176436Y-116038929D02*
X134257248Y-116173616D01*
X134257248Y-116173616D02*
X134338060Y-116254428D01*
X134338060Y-116254428D02*
X134472747Y-116335241D01*
X134472747Y-116335241D02*
X134553560Y-116362178D01*
X134553560Y-116362178D02*
X134661309Y-116362178D01*
X134661309Y-116362178D02*
X134769059Y-116308303D01*
X134769059Y-116308303D02*
X134822934Y-116254428D01*
X134822934Y-116254428D02*
X134876808Y-116146679D01*
X134876808Y-116146679D02*
X134876808Y-116092804D01*
X134876808Y-116092804D02*
X134688247Y-115904242D01*
X134688247Y-115904242D02*
X134580497Y-116011992D01*
X135173120Y-115904242D02*
X134607434Y-115338557D01*
X134607434Y-115338557D02*
X134822934Y-115123057D01*
X134822934Y-115123057D02*
X134903746Y-115096120D01*
X134903746Y-115096120D02*
X134957621Y-115096120D01*
X134957621Y-115096120D02*
X135038433Y-115123057D01*
X135038433Y-115123057D02*
X135119245Y-115203870D01*
X135119245Y-115203870D02*
X135146182Y-115284682D01*
X135146182Y-115284682D02*
X135146182Y-115338557D01*
X135146182Y-115338557D02*
X135119245Y-115419369D01*
X135119245Y-115419369D02*
X134903746Y-115634868D01*
X135200057Y-114853683D02*
X135200057Y-114799809D01*
X135200057Y-114799809D02*
X135226995Y-114718996D01*
X135226995Y-114718996D02*
X135361682Y-114584309D01*
X135361682Y-114584309D02*
X135442494Y-114557372D01*
X135442494Y-114557372D02*
X135496369Y-114557372D01*
X135496369Y-114557372D02*
X135577181Y-114584309D01*
X135577181Y-114584309D02*
X135631056Y-114638184D01*
X135631056Y-114638184D02*
X135684930Y-114745934D01*
X135684930Y-114745934D02*
X135684930Y-115392431D01*
X135684930Y-115392431D02*
X136035117Y-115042245D01*
X136035117Y-114395747D02*
X135954305Y-114422685D01*
X135954305Y-114422685D02*
X135900430Y-114422685D01*
X135900430Y-114422685D02*
X135819618Y-114395747D01*
X135819618Y-114395747D02*
X135792680Y-114368810D01*
X135792680Y-114368810D02*
X135765743Y-114287998D01*
X135765743Y-114287998D02*
X135765743Y-114234123D01*
X135765743Y-114234123D02*
X135792680Y-114153311D01*
X135792680Y-114153311D02*
X135900430Y-114045561D01*
X135900430Y-114045561D02*
X135981242Y-114018624D01*
X135981242Y-114018624D02*
X136035117Y-114018624D01*
X136035117Y-114018624D02*
X136115929Y-114045561D01*
X136115929Y-114045561D02*
X136142866Y-114072499D01*
X136142866Y-114072499D02*
X136169804Y-114153311D01*
X136169804Y-114153311D02*
X136169804Y-114207186D01*
X136169804Y-114207186D02*
X136142866Y-114287998D01*
X136142866Y-114287998D02*
X136035117Y-114395747D01*
X136035117Y-114395747D02*
X136008179Y-114476560D01*
X136008179Y-114476560D02*
X136008179Y-114530434D01*
X136008179Y-114530434D02*
X136035117Y-114611247D01*
X136035117Y-114611247D02*
X136142866Y-114718996D01*
X136142866Y-114718996D02*
X136223679Y-114745934D01*
X136223679Y-114745934D02*
X136277553Y-114745934D01*
X136277553Y-114745934D02*
X136358366Y-114718996D01*
X136358366Y-114718996D02*
X136466115Y-114611247D01*
X136466115Y-114611247D02*
X136493053Y-114530434D01*
X136493053Y-114530434D02*
X136493053Y-114476560D01*
X136493053Y-114476560D02*
X136466115Y-114395747D01*
X136466115Y-114395747D02*
X136358366Y-114287998D01*
X136358366Y-114287998D02*
X136277553Y-114261060D01*
X136277553Y-114261060D02*
X136223679Y-114261060D01*
X136223679Y-114261060D02*
X136142866Y-114287998D01*
X160588372Y-127821494D02*
X160507560Y-127848431D01*
X160507560Y-127848431D02*
X160426748Y-127929243D01*
X160426748Y-127929243D02*
X160372873Y-128036993D01*
X160372873Y-128036993D02*
X160372873Y-128144742D01*
X160372873Y-128144742D02*
X160399810Y-128225555D01*
X160399810Y-128225555D02*
X160480623Y-128360242D01*
X160480623Y-128360242D02*
X160561435Y-128441054D01*
X160561435Y-128441054D02*
X160696122Y-128521866D01*
X160696122Y-128521866D02*
X160776934Y-128548803D01*
X160776934Y-128548803D02*
X160884684Y-128548803D01*
X160884684Y-128548803D02*
X160992433Y-128494929D01*
X160992433Y-128494929D02*
X161046308Y-128441054D01*
X161046308Y-128441054D02*
X161100183Y-128333304D01*
X161100183Y-128333304D02*
X161100183Y-128279429D01*
X161100183Y-128279429D02*
X160911621Y-128090868D01*
X160911621Y-128090868D02*
X160803871Y-128198617D01*
X161396494Y-128090868D02*
X160830809Y-127525182D01*
X160830809Y-127525182D02*
X161046308Y-127309683D01*
X161046308Y-127309683D02*
X161127120Y-127282746D01*
X161127120Y-127282746D02*
X161180995Y-127282746D01*
X161180995Y-127282746D02*
X161261807Y-127309683D01*
X161261807Y-127309683D02*
X161342619Y-127390495D01*
X161342619Y-127390495D02*
X161369557Y-127471307D01*
X161369557Y-127471307D02*
X161369557Y-127525182D01*
X161369557Y-127525182D02*
X161342619Y-127605994D01*
X161342619Y-127605994D02*
X161127120Y-127821494D01*
X162258491Y-127228871D02*
X161935242Y-127552120D01*
X162096867Y-127390495D02*
X161531181Y-126824810D01*
X161531181Y-126824810D02*
X161558119Y-126959497D01*
X161558119Y-126959497D02*
X161558119Y-127067246D01*
X161558119Y-127067246D02*
X161531181Y-127148059D01*
X160461435Y-87198431D02*
X160380623Y-87225368D01*
X160380623Y-87225368D02*
X160299811Y-87306180D01*
X160299811Y-87306180D02*
X160245936Y-87413930D01*
X160245936Y-87413930D02*
X160245936Y-87521680D01*
X160245936Y-87521680D02*
X160272873Y-87602492D01*
X160272873Y-87602492D02*
X160353685Y-87737179D01*
X160353685Y-87737179D02*
X160434498Y-87817991D01*
X160434498Y-87817991D02*
X160569185Y-87898803D01*
X160569185Y-87898803D02*
X160649997Y-87925741D01*
X160649997Y-87925741D02*
X160757746Y-87925741D01*
X160757746Y-87925741D02*
X160865496Y-87871866D01*
X160865496Y-87871866D02*
X160919371Y-87817991D01*
X160919371Y-87817991D02*
X160973246Y-87710241D01*
X160973246Y-87710241D02*
X160973246Y-87656367D01*
X160973246Y-87656367D02*
X160784684Y-87467805D01*
X160784684Y-87467805D02*
X160676934Y-87575554D01*
X161269557Y-87467805D02*
X160703872Y-86902119D01*
X160703872Y-86902119D02*
X161592806Y-87144556D01*
X161592806Y-87144556D02*
X161027120Y-86578871D01*
X161862180Y-86875182D02*
X161296494Y-86309497D01*
X161296494Y-86309497D02*
X161431181Y-86174810D01*
X161431181Y-86174810D02*
X161538931Y-86120935D01*
X161538931Y-86120935D02*
X161646680Y-86120935D01*
X161646680Y-86120935D02*
X161727493Y-86147872D01*
X161727493Y-86147872D02*
X161862180Y-86228685D01*
X161862180Y-86228685D02*
X161942992Y-86309497D01*
X161942992Y-86309497D02*
X162023804Y-86444184D01*
X162023804Y-86444184D02*
X162050741Y-86524996D01*
X162050741Y-86524996D02*
X162050741Y-86632746D01*
X162050741Y-86632746D02*
X161996867Y-86740495D01*
X161996867Y-86740495D02*
X161862180Y-86875182D01*
X132897407Y-124458584D02*
X133247593Y-124108398D01*
X133247593Y-124108398D02*
X133274531Y-124512459D01*
X133274531Y-124512459D02*
X133355343Y-124431646D01*
X133355343Y-124431646D02*
X133436155Y-124404709D01*
X133436155Y-124404709D02*
X133490030Y-124404709D01*
X133490030Y-124404709D02*
X133570842Y-124431646D01*
X133570842Y-124431646D02*
X133705529Y-124566333D01*
X133705529Y-124566333D02*
X133732467Y-124647146D01*
X133732467Y-124647146D02*
X133732467Y-124701020D01*
X133732467Y-124701020D02*
X133705529Y-124781833D01*
X133705529Y-124781833D02*
X133543905Y-124943457D01*
X133543905Y-124943457D02*
X133463093Y-124970394D01*
X133463093Y-124970394D02*
X133409218Y-124970394D01*
X133409218Y-123946773D02*
X134163465Y-124323897D01*
X134163465Y-124323897D02*
X133786342Y-123569649D01*
X133921028Y-123434963D02*
X134271215Y-123084776D01*
X134271215Y-123084776D02*
X134298152Y-123488837D01*
X134298152Y-123488837D02*
X134378964Y-123408025D01*
X134378964Y-123408025D02*
X134459776Y-123381088D01*
X134459776Y-123381088D02*
X134513651Y-123381088D01*
X134513651Y-123381088D02*
X134594464Y-123408025D01*
X134594464Y-123408025D02*
X134729151Y-123542712D01*
X134729151Y-123542712D02*
X134756088Y-123623524D01*
X134756088Y-123623524D02*
X134756088Y-123677399D01*
X134756088Y-123677399D02*
X134729151Y-123758211D01*
X134729151Y-123758211D02*
X134567526Y-123919836D01*
X134567526Y-123919836D02*
X134486714Y-123946773D01*
X134486714Y-123946773D02*
X134432839Y-123946773D01*
X134998525Y-123596587D02*
X135429523Y-123165588D01*
X135214024Y-122680715D02*
X135402586Y-122492153D01*
X135779709Y-122707652D02*
X135510335Y-122977026D01*
X135510335Y-122977026D02*
X134944650Y-122411341D01*
X134944650Y-122411341D02*
X135214024Y-122141967D01*
X136022146Y-122465215D02*
X135456461Y-121899530D01*
X135456461Y-121899530D02*
X136345395Y-122141967D01*
X136345395Y-122141967D02*
X135779710Y-121576281D01*
X134364998Y-95060868D02*
X134284185Y-95087805D01*
X134284185Y-95087805D02*
X134203373Y-95168618D01*
X134203373Y-95168618D02*
X134149498Y-95276367D01*
X134149498Y-95276367D02*
X134149498Y-95384117D01*
X134149498Y-95384117D02*
X134176436Y-95464929D01*
X134176436Y-95464929D02*
X134257248Y-95599616D01*
X134257248Y-95599616D02*
X134338060Y-95680428D01*
X134338060Y-95680428D02*
X134472747Y-95761241D01*
X134472747Y-95761241D02*
X134553560Y-95788178D01*
X134553560Y-95788178D02*
X134661309Y-95788178D01*
X134661309Y-95788178D02*
X134769059Y-95734303D01*
X134769059Y-95734303D02*
X134822934Y-95680428D01*
X134822934Y-95680428D02*
X134876808Y-95572679D01*
X134876808Y-95572679D02*
X134876808Y-95518804D01*
X134876808Y-95518804D02*
X134688247Y-95330242D01*
X134688247Y-95330242D02*
X134580497Y-95437992D01*
X135173120Y-95330242D02*
X134607434Y-94764557D01*
X134607434Y-94764557D02*
X134822934Y-94549057D01*
X134822934Y-94549057D02*
X134903746Y-94522120D01*
X134903746Y-94522120D02*
X134957621Y-94522120D01*
X134957621Y-94522120D02*
X135038433Y-94549057D01*
X135038433Y-94549057D02*
X135119245Y-94629870D01*
X135119245Y-94629870D02*
X135146182Y-94710682D01*
X135146182Y-94710682D02*
X135146182Y-94764557D01*
X135146182Y-94764557D02*
X135119245Y-94845369D01*
X135119245Y-94845369D02*
X134903746Y-95060868D01*
X135200057Y-94279683D02*
X135200057Y-94225809D01*
X135200057Y-94225809D02*
X135226995Y-94144996D01*
X135226995Y-94144996D02*
X135361682Y-94010309D01*
X135361682Y-94010309D02*
X135442494Y-93983372D01*
X135442494Y-93983372D02*
X135496369Y-93983372D01*
X135496369Y-93983372D02*
X135577181Y-94010309D01*
X135577181Y-94010309D02*
X135631056Y-94064184D01*
X135631056Y-94064184D02*
X135684930Y-94171934D01*
X135684930Y-94171934D02*
X135684930Y-94818431D01*
X135684930Y-94818431D02*
X136035117Y-94468245D01*
X135819618Y-93552373D02*
X135873492Y-93498499D01*
X135873492Y-93498499D02*
X135954305Y-93471561D01*
X135954305Y-93471561D02*
X136008179Y-93471561D01*
X136008179Y-93471561D02*
X136088992Y-93498499D01*
X136088992Y-93498499D02*
X136223679Y-93579311D01*
X136223679Y-93579311D02*
X136358366Y-93713998D01*
X136358366Y-93713998D02*
X136439178Y-93848685D01*
X136439178Y-93848685D02*
X136466115Y-93929497D01*
X136466115Y-93929497D02*
X136466115Y-93983372D01*
X136466115Y-93983372D02*
X136439178Y-94064184D01*
X136439178Y-94064184D02*
X136385303Y-94118059D01*
X136385303Y-94118059D02*
X136304491Y-94144996D01*
X136304491Y-94144996D02*
X136250616Y-94144996D01*
X136250616Y-94144996D02*
X136169804Y-94118059D01*
X136169804Y-94118059D02*
X136035117Y-94037247D01*
X136035117Y-94037247D02*
X135900430Y-93902560D01*
X135900430Y-93902560D02*
X135819618Y-93767873D01*
X135819618Y-93767873D02*
X135792680Y-93687060D01*
X135792680Y-93687060D02*
X135792680Y-93633186D01*
X135792680Y-93633186D02*
X135819618Y-93552373D01*
X160461435Y-112598431D02*
X160380623Y-112625368D01*
X160380623Y-112625368D02*
X160299811Y-112706180D01*
X160299811Y-112706180D02*
X160245936Y-112813930D01*
X160245936Y-112813930D02*
X160245936Y-112921680D01*
X160245936Y-112921680D02*
X160272873Y-113002492D01*
X160272873Y-113002492D02*
X160353685Y-113137179D01*
X160353685Y-113137179D02*
X160434498Y-113217991D01*
X160434498Y-113217991D02*
X160569185Y-113298803D01*
X160569185Y-113298803D02*
X160649997Y-113325741D01*
X160649997Y-113325741D02*
X160757746Y-113325741D01*
X160757746Y-113325741D02*
X160865496Y-113271866D01*
X160865496Y-113271866D02*
X160919371Y-113217991D01*
X160919371Y-113217991D02*
X160973246Y-113110241D01*
X160973246Y-113110241D02*
X160973246Y-113056367D01*
X160973246Y-113056367D02*
X160784684Y-112867805D01*
X160784684Y-112867805D02*
X160676934Y-112975554D01*
X161269557Y-112867805D02*
X160703872Y-112302119D01*
X160703872Y-112302119D02*
X161592806Y-112544556D01*
X161592806Y-112544556D02*
X161027120Y-111978871D01*
X161862180Y-112275182D02*
X161296494Y-111709497D01*
X161296494Y-111709497D02*
X161431181Y-111574810D01*
X161431181Y-111574810D02*
X161538931Y-111520935D01*
X161538931Y-111520935D02*
X161646680Y-111520935D01*
X161646680Y-111520935D02*
X161727493Y-111547872D01*
X161727493Y-111547872D02*
X161862180Y-111628685D01*
X161862180Y-111628685D02*
X161942992Y-111709497D01*
X161942992Y-111709497D02*
X162023804Y-111844184D01*
X162023804Y-111844184D02*
X162050741Y-111924996D01*
X162050741Y-111924996D02*
X162050741Y-112032746D01*
X162050741Y-112032746D02*
X161996867Y-112140495D01*
X161996867Y-112140495D02*
X161862180Y-112275182D01*
X160472998Y-82360868D02*
X160392185Y-82387805D01*
X160392185Y-82387805D02*
X160311373Y-82468618D01*
X160311373Y-82468618D02*
X160257498Y-82576367D01*
X160257498Y-82576367D02*
X160257498Y-82684117D01*
X160257498Y-82684117D02*
X160284436Y-82764929D01*
X160284436Y-82764929D02*
X160365248Y-82899616D01*
X160365248Y-82899616D02*
X160446060Y-82980428D01*
X160446060Y-82980428D02*
X160580747Y-83061241D01*
X160580747Y-83061241D02*
X160661560Y-83088178D01*
X160661560Y-83088178D02*
X160769309Y-83088178D01*
X160769309Y-83088178D02*
X160877059Y-83034303D01*
X160877059Y-83034303D02*
X160930934Y-82980428D01*
X160930934Y-82980428D02*
X160984808Y-82872679D01*
X160984808Y-82872679D02*
X160984808Y-82818804D01*
X160984808Y-82818804D02*
X160796247Y-82630242D01*
X160796247Y-82630242D02*
X160688497Y-82737992D01*
X161281120Y-82630242D02*
X160715434Y-82064557D01*
X160715434Y-82064557D02*
X160930934Y-81849057D01*
X160930934Y-81849057D02*
X161011746Y-81822120D01*
X161011746Y-81822120D02*
X161065621Y-81822120D01*
X161065621Y-81822120D02*
X161146433Y-81849057D01*
X161146433Y-81849057D02*
X161227245Y-81929870D01*
X161227245Y-81929870D02*
X161254182Y-82010682D01*
X161254182Y-82010682D02*
X161254182Y-82064557D01*
X161254182Y-82064557D02*
X161227245Y-82145369D01*
X161227245Y-82145369D02*
X161011746Y-82360868D01*
X162143117Y-81768245D02*
X161819868Y-82091494D01*
X161981492Y-81929870D02*
X161415807Y-81364184D01*
X161415807Y-81364184D02*
X161442744Y-81498871D01*
X161442744Y-81498871D02*
X161442744Y-81606621D01*
X161442744Y-81606621D02*
X161415807Y-81687433D01*
X162089242Y-80690749D02*
X161819868Y-80960123D01*
X161819868Y-80960123D02*
X162062305Y-81256434D01*
X162062305Y-81256434D02*
X162062305Y-81202560D01*
X162062305Y-81202560D02*
X162089242Y-81121747D01*
X162089242Y-81121747D02*
X162223929Y-80987060D01*
X162223929Y-80987060D02*
X162304741Y-80960123D01*
X162304741Y-80960123D02*
X162358616Y-80960123D01*
X162358616Y-80960123D02*
X162439428Y-80987060D01*
X162439428Y-80987060D02*
X162574115Y-81121747D01*
X162574115Y-81121747D02*
X162601053Y-81202560D01*
X162601053Y-81202560D02*
X162601053Y-81256434D01*
X162601053Y-81256434D02*
X162574115Y-81337247D01*
X162574115Y-81337247D02*
X162439428Y-81471934D01*
X162439428Y-81471934D02*
X162358616Y-81498871D01*
X162358616Y-81498871D02*
X162304741Y-81498871D01*
X134364998Y-92520868D02*
X134284185Y-92547805D01*
X134284185Y-92547805D02*
X134203373Y-92628618D01*
X134203373Y-92628618D02*
X134149498Y-92736367D01*
X134149498Y-92736367D02*
X134149498Y-92844117D01*
X134149498Y-92844117D02*
X134176436Y-92924929D01*
X134176436Y-92924929D02*
X134257248Y-93059616D01*
X134257248Y-93059616D02*
X134338060Y-93140428D01*
X134338060Y-93140428D02*
X134472747Y-93221241D01*
X134472747Y-93221241D02*
X134553560Y-93248178D01*
X134553560Y-93248178D02*
X134661309Y-93248178D01*
X134661309Y-93248178D02*
X134769059Y-93194303D01*
X134769059Y-93194303D02*
X134822934Y-93140428D01*
X134822934Y-93140428D02*
X134876808Y-93032679D01*
X134876808Y-93032679D02*
X134876808Y-92978804D01*
X134876808Y-92978804D02*
X134688247Y-92790242D01*
X134688247Y-92790242D02*
X134580497Y-92897992D01*
X135173120Y-92790242D02*
X134607434Y-92224557D01*
X134607434Y-92224557D02*
X134822934Y-92009057D01*
X134822934Y-92009057D02*
X134903746Y-91982120D01*
X134903746Y-91982120D02*
X134957621Y-91982120D01*
X134957621Y-91982120D02*
X135038433Y-92009057D01*
X135038433Y-92009057D02*
X135119245Y-92089870D01*
X135119245Y-92089870D02*
X135146182Y-92170682D01*
X135146182Y-92170682D02*
X135146182Y-92224557D01*
X135146182Y-92224557D02*
X135119245Y-92305369D01*
X135119245Y-92305369D02*
X134903746Y-92520868D01*
X136035117Y-91928245D02*
X135711868Y-92251494D01*
X135873492Y-92089870D02*
X135307807Y-91524184D01*
X135307807Y-91524184D02*
X135334744Y-91658871D01*
X135334744Y-91658871D02*
X135334744Y-91766621D01*
X135334744Y-91766621D02*
X135307807Y-91847433D01*
X136304491Y-91658871D02*
X136412240Y-91551121D01*
X136412240Y-91551121D02*
X136439178Y-91470309D01*
X136439178Y-91470309D02*
X136439178Y-91416434D01*
X136439178Y-91416434D02*
X136412240Y-91281747D01*
X136412240Y-91281747D02*
X136331428Y-91147060D01*
X136331428Y-91147060D02*
X136115929Y-90931561D01*
X136115929Y-90931561D02*
X136035117Y-90904624D01*
X136035117Y-90904624D02*
X135981242Y-90904624D01*
X135981242Y-90904624D02*
X135900430Y-90931561D01*
X135900430Y-90931561D02*
X135792680Y-91039311D01*
X135792680Y-91039311D02*
X135765743Y-91120123D01*
X135765743Y-91120123D02*
X135765743Y-91173998D01*
X135765743Y-91173998D02*
X135792680Y-91254810D01*
X135792680Y-91254810D02*
X135927367Y-91389497D01*
X135927367Y-91389497D02*
X136008179Y-91416434D01*
X136008179Y-91416434D02*
X136062054Y-91416434D01*
X136062054Y-91416434D02*
X136142866Y-91389497D01*
X136142866Y-91389497D02*
X136250616Y-91281747D01*
X136250616Y-91281747D02*
X136277553Y-91200935D01*
X136277553Y-91200935D02*
X136277553Y-91147060D01*
X136277553Y-91147060D02*
X136250616Y-91066248D01*
X152265475Y-80224200D02*
X152379761Y-80262295D01*
X152379761Y-80262295D02*
X152570237Y-80262295D01*
X152570237Y-80262295D02*
X152646428Y-80224200D01*
X152646428Y-80224200D02*
X152684523Y-80186104D01*
X152684523Y-80186104D02*
X152722618Y-80109914D01*
X152722618Y-80109914D02*
X152722618Y-80033723D01*
X152722618Y-80033723D02*
X152684523Y-79957533D01*
X152684523Y-79957533D02*
X152646428Y-79919438D01*
X152646428Y-79919438D02*
X152570237Y-79881342D01*
X152570237Y-79881342D02*
X152417856Y-79843247D01*
X152417856Y-79843247D02*
X152341666Y-79805152D01*
X152341666Y-79805152D02*
X152303571Y-79767057D01*
X152303571Y-79767057D02*
X152265475Y-79690866D01*
X152265475Y-79690866D02*
X152265475Y-79614676D01*
X152265475Y-79614676D02*
X152303571Y-79538485D01*
X152303571Y-79538485D02*
X152341666Y-79500390D01*
X152341666Y-79500390D02*
X152417856Y-79462295D01*
X152417856Y-79462295D02*
X152608333Y-79462295D01*
X152608333Y-79462295D02*
X152722618Y-79500390D01*
X152989285Y-79462295D02*
X153179761Y-80262295D01*
X153179761Y-80262295D02*
X153332142Y-79690866D01*
X153332142Y-79690866D02*
X153484523Y-80262295D01*
X153484523Y-80262295D02*
X153675000Y-79462295D01*
X154436905Y-80186104D02*
X154398809Y-80224200D01*
X154398809Y-80224200D02*
X154284524Y-80262295D01*
X154284524Y-80262295D02*
X154208333Y-80262295D01*
X154208333Y-80262295D02*
X154094047Y-80224200D01*
X154094047Y-80224200D02*
X154017857Y-80148009D01*
X154017857Y-80148009D02*
X153979762Y-80071819D01*
X153979762Y-80071819D02*
X153941666Y-79919438D01*
X153941666Y-79919438D02*
X153941666Y-79805152D01*
X153941666Y-79805152D02*
X153979762Y-79652771D01*
X153979762Y-79652771D02*
X154017857Y-79576580D01*
X154017857Y-79576580D02*
X154094047Y-79500390D01*
X154094047Y-79500390D02*
X154208333Y-79462295D01*
X154208333Y-79462295D02*
X154284524Y-79462295D01*
X154284524Y-79462295D02*
X154398809Y-79500390D01*
X154398809Y-79500390D02*
X154436905Y-79538485D01*
X155160714Y-80262295D02*
X154779762Y-80262295D01*
X154779762Y-80262295D02*
X154779762Y-79462295D01*
X155427381Y-80262295D02*
X155427381Y-79462295D01*
X155884524Y-80262295D02*
X155541666Y-79805152D01*
X155884524Y-79462295D02*
X155427381Y-79919438D01*
X132530064Y-120634049D02*
X132799438Y-120364675D01*
X132637813Y-120849549D02*
X132260690Y-120095301D01*
X132260690Y-120095301D02*
X133014937Y-120472425D01*
X133203499Y-120283863D02*
X132637813Y-119718178D01*
X132637813Y-119718178D02*
X132772500Y-119583491D01*
X132772500Y-119583491D02*
X132880250Y-119529616D01*
X132880250Y-119529616D02*
X132987999Y-119529616D01*
X132987999Y-119529616D02*
X133068812Y-119556553D01*
X133068812Y-119556553D02*
X133203499Y-119637366D01*
X133203499Y-119637366D02*
X133284311Y-119718178D01*
X133284311Y-119718178D02*
X133365123Y-119852865D01*
X133365123Y-119852865D02*
X133392060Y-119933677D01*
X133392060Y-119933677D02*
X133392060Y-120041427D01*
X133392060Y-120041427D02*
X133338186Y-120149176D01*
X133338186Y-120149176D02*
X133203499Y-120283863D01*
X134038558Y-119341054D02*
X134038558Y-119394929D01*
X134038558Y-119394929D02*
X133984683Y-119502679D01*
X133984683Y-119502679D02*
X133930808Y-119556553D01*
X133930808Y-119556553D02*
X133823059Y-119610428D01*
X133823059Y-119610428D02*
X133715309Y-119610428D01*
X133715309Y-119610428D02*
X133634497Y-119583491D01*
X133634497Y-119583491D02*
X133499810Y-119502679D01*
X133499810Y-119502679D02*
X133418998Y-119421866D01*
X133418998Y-119421866D02*
X133338186Y-119287179D01*
X133338186Y-119287179D02*
X133311248Y-119206367D01*
X133311248Y-119206367D02*
X133311248Y-119098618D01*
X133311248Y-119098618D02*
X133365123Y-118990868D01*
X133365123Y-118990868D02*
X133418998Y-118936993D01*
X133418998Y-118936993D02*
X133526747Y-118883118D01*
X133526747Y-118883118D02*
X133580622Y-118883118D01*
X134254057Y-119341054D02*
X134685056Y-118910056D01*
X134119370Y-118236621D02*
X134873618Y-118613744D01*
X134873618Y-118613744D02*
X134496494Y-117859497D01*
X135573990Y-117913372D02*
X135116054Y-117832560D01*
X135250741Y-118236621D02*
X134685056Y-117670935D01*
X134685056Y-117670935D02*
X134900555Y-117455436D01*
X134900555Y-117455436D02*
X134981367Y-117428499D01*
X134981367Y-117428499D02*
X135035242Y-117428499D01*
X135035242Y-117428499D02*
X135116054Y-117455436D01*
X135116054Y-117455436D02*
X135196866Y-117536248D01*
X135196866Y-117536248D02*
X135223804Y-117617061D01*
X135223804Y-117617061D02*
X135223804Y-117670935D01*
X135223804Y-117670935D02*
X135196866Y-117751748D01*
X135196866Y-117751748D02*
X134981367Y-117967247D01*
X135520115Y-117374624D02*
X135708677Y-117186062D01*
X136085800Y-117401561D02*
X135816426Y-117670935D01*
X135816426Y-117670935D02*
X135250741Y-117105250D01*
X135250741Y-117105250D02*
X135520115Y-116835876D01*
X136220488Y-116674251D02*
X136031926Y-116862813D01*
X136328237Y-117159125D02*
X135762552Y-116593439D01*
X135762552Y-116593439D02*
X136031926Y-116324065D01*
X160472998Y-97600868D02*
X160392185Y-97627805D01*
X160392185Y-97627805D02*
X160311373Y-97708618D01*
X160311373Y-97708618D02*
X160257498Y-97816367D01*
X160257498Y-97816367D02*
X160257498Y-97924117D01*
X160257498Y-97924117D02*
X160284436Y-98004929D01*
X160284436Y-98004929D02*
X160365248Y-98139616D01*
X160365248Y-98139616D02*
X160446060Y-98220428D01*
X160446060Y-98220428D02*
X160580747Y-98301241D01*
X160580747Y-98301241D02*
X160661560Y-98328178D01*
X160661560Y-98328178D02*
X160769309Y-98328178D01*
X160769309Y-98328178D02*
X160877059Y-98274303D01*
X160877059Y-98274303D02*
X160930934Y-98220428D01*
X160930934Y-98220428D02*
X160984808Y-98112679D01*
X160984808Y-98112679D02*
X160984808Y-98058804D01*
X160984808Y-98058804D02*
X160796247Y-97870242D01*
X160796247Y-97870242D02*
X160688497Y-97977992D01*
X161281120Y-97870242D02*
X160715434Y-97304557D01*
X160715434Y-97304557D02*
X160930934Y-97089057D01*
X160930934Y-97089057D02*
X161011746Y-97062120D01*
X161011746Y-97062120D02*
X161065621Y-97062120D01*
X161065621Y-97062120D02*
X161146433Y-97089057D01*
X161146433Y-97089057D02*
X161227245Y-97169870D01*
X161227245Y-97169870D02*
X161254182Y-97250682D01*
X161254182Y-97250682D02*
X161254182Y-97304557D01*
X161254182Y-97304557D02*
X161227245Y-97385369D01*
X161227245Y-97385369D02*
X161011746Y-97600868D01*
X162143117Y-97008245D02*
X161819868Y-97331494D01*
X161981492Y-97169870D02*
X161415807Y-96604184D01*
X161415807Y-96604184D02*
X161442744Y-96738871D01*
X161442744Y-96738871D02*
X161442744Y-96846621D01*
X161442744Y-96846621D02*
X161415807Y-96927433D01*
X161927618Y-96092373D02*
X161981492Y-96038499D01*
X161981492Y-96038499D02*
X162062305Y-96011561D01*
X162062305Y-96011561D02*
X162116179Y-96011561D01*
X162116179Y-96011561D02*
X162196992Y-96038499D01*
X162196992Y-96038499D02*
X162331679Y-96119311D01*
X162331679Y-96119311D02*
X162466366Y-96253998D01*
X162466366Y-96253998D02*
X162547178Y-96388685D01*
X162547178Y-96388685D02*
X162574115Y-96469497D01*
X162574115Y-96469497D02*
X162574115Y-96523372D01*
X162574115Y-96523372D02*
X162547178Y-96604184D01*
X162547178Y-96604184D02*
X162493303Y-96658059D01*
X162493303Y-96658059D02*
X162412491Y-96684996D01*
X162412491Y-96684996D02*
X162358616Y-96684996D01*
X162358616Y-96684996D02*
X162277804Y-96658059D01*
X162277804Y-96658059D02*
X162143117Y-96577247D01*
X162143117Y-96577247D02*
X162008430Y-96442560D01*
X162008430Y-96442560D02*
X161927618Y-96307873D01*
X161927618Y-96307873D02*
X161900680Y-96227060D01*
X161900680Y-96227060D02*
X161900680Y-96173186D01*
X161900680Y-96173186D02*
X161927618Y-96092373D01*
X160618998Y-92520868D02*
X160538185Y-92547805D01*
X160538185Y-92547805D02*
X160457373Y-92628618D01*
X160457373Y-92628618D02*
X160403498Y-92736367D01*
X160403498Y-92736367D02*
X160403498Y-92844117D01*
X160403498Y-92844117D02*
X160430436Y-92924929D01*
X160430436Y-92924929D02*
X160511248Y-93059616D01*
X160511248Y-93059616D02*
X160592060Y-93140428D01*
X160592060Y-93140428D02*
X160726747Y-93221241D01*
X160726747Y-93221241D02*
X160807560Y-93248178D01*
X160807560Y-93248178D02*
X160915309Y-93248178D01*
X160915309Y-93248178D02*
X161023059Y-93194303D01*
X161023059Y-93194303D02*
X161076934Y-93140428D01*
X161076934Y-93140428D02*
X161130808Y-93032679D01*
X161130808Y-93032679D02*
X161130808Y-92978804D01*
X161130808Y-92978804D02*
X160942247Y-92790242D01*
X160942247Y-92790242D02*
X160834497Y-92897992D01*
X161427120Y-92790242D02*
X160861434Y-92224557D01*
X160861434Y-92224557D02*
X161076934Y-92009057D01*
X161076934Y-92009057D02*
X161157746Y-91982120D01*
X161157746Y-91982120D02*
X161211621Y-91982120D01*
X161211621Y-91982120D02*
X161292433Y-92009057D01*
X161292433Y-92009057D02*
X161373245Y-92089870D01*
X161373245Y-92089870D02*
X161400182Y-92170682D01*
X161400182Y-92170682D02*
X161400182Y-92224557D01*
X161400182Y-92224557D02*
X161373245Y-92305369D01*
X161373245Y-92305369D02*
X161157746Y-92520868D01*
X162289117Y-91928245D02*
X161965868Y-92251494D01*
X162127492Y-92089870D02*
X161561807Y-91524184D01*
X161561807Y-91524184D02*
X161588744Y-91658871D01*
X161588744Y-91658871D02*
X161588744Y-91766621D01*
X161588744Y-91766621D02*
X161561807Y-91847433D01*
X161992805Y-91200935D02*
X161992805Y-91147060D01*
X161992805Y-91147060D02*
X162019743Y-91066248D01*
X162019743Y-91066248D02*
X162154430Y-90931561D01*
X162154430Y-90931561D02*
X162235242Y-90904624D01*
X162235242Y-90904624D02*
X162289117Y-90904624D01*
X162289117Y-90904624D02*
X162369929Y-90931561D01*
X162369929Y-90931561D02*
X162423804Y-90985436D01*
X162423804Y-90985436D02*
X162477679Y-91093186D01*
X162477679Y-91093186D02*
X162477679Y-91739683D01*
X162477679Y-91739683D02*
X162827865Y-91389497D01*
X160388372Y-107521494D02*
X160307560Y-107548431D01*
X160307560Y-107548431D02*
X160226748Y-107629243D01*
X160226748Y-107629243D02*
X160172873Y-107736993D01*
X160172873Y-107736993D02*
X160172873Y-107844742D01*
X160172873Y-107844742D02*
X160199810Y-107925555D01*
X160199810Y-107925555D02*
X160280623Y-108060242D01*
X160280623Y-108060242D02*
X160361435Y-108141054D01*
X160361435Y-108141054D02*
X160496122Y-108221866D01*
X160496122Y-108221866D02*
X160576934Y-108248803D01*
X160576934Y-108248803D02*
X160684684Y-108248803D01*
X160684684Y-108248803D02*
X160792433Y-108194929D01*
X160792433Y-108194929D02*
X160846308Y-108141054D01*
X160846308Y-108141054D02*
X160900183Y-108033304D01*
X160900183Y-108033304D02*
X160900183Y-107979429D01*
X160900183Y-107979429D02*
X160711621Y-107790868D01*
X160711621Y-107790868D02*
X160603871Y-107898617D01*
X161196494Y-107790868D02*
X160630809Y-107225182D01*
X160630809Y-107225182D02*
X160846308Y-107009683D01*
X160846308Y-107009683D02*
X160927120Y-106982746D01*
X160927120Y-106982746D02*
X160980995Y-106982746D01*
X160980995Y-106982746D02*
X161061807Y-107009683D01*
X161061807Y-107009683D02*
X161142619Y-107090495D01*
X161142619Y-107090495D02*
X161169557Y-107171307D01*
X161169557Y-107171307D02*
X161169557Y-107225182D01*
X161169557Y-107225182D02*
X161142619Y-107305994D01*
X161142619Y-107305994D02*
X160927120Y-107521494D01*
X161142619Y-106713372D02*
X161519743Y-106336248D01*
X161519743Y-106336248D02*
X161842992Y-107144370D01*
X134364998Y-102680868D02*
X134284185Y-102707805D01*
X134284185Y-102707805D02*
X134203373Y-102788618D01*
X134203373Y-102788618D02*
X134149498Y-102896367D01*
X134149498Y-102896367D02*
X134149498Y-103004117D01*
X134149498Y-103004117D02*
X134176436Y-103084929D01*
X134176436Y-103084929D02*
X134257248Y-103219616D01*
X134257248Y-103219616D02*
X134338060Y-103300428D01*
X134338060Y-103300428D02*
X134472747Y-103381241D01*
X134472747Y-103381241D02*
X134553560Y-103408178D01*
X134553560Y-103408178D02*
X134661309Y-103408178D01*
X134661309Y-103408178D02*
X134769059Y-103354303D01*
X134769059Y-103354303D02*
X134822934Y-103300428D01*
X134822934Y-103300428D02*
X134876808Y-103192679D01*
X134876808Y-103192679D02*
X134876808Y-103138804D01*
X134876808Y-103138804D02*
X134688247Y-102950242D01*
X134688247Y-102950242D02*
X134580497Y-103057992D01*
X135173120Y-102950242D02*
X134607434Y-102384557D01*
X134607434Y-102384557D02*
X134822934Y-102169057D01*
X134822934Y-102169057D02*
X134903746Y-102142120D01*
X134903746Y-102142120D02*
X134957621Y-102142120D01*
X134957621Y-102142120D02*
X135038433Y-102169057D01*
X135038433Y-102169057D02*
X135119245Y-102249870D01*
X135119245Y-102249870D02*
X135146182Y-102330682D01*
X135146182Y-102330682D02*
X135146182Y-102384557D01*
X135146182Y-102384557D02*
X135119245Y-102465369D01*
X135119245Y-102465369D02*
X134903746Y-102680868D01*
X135200057Y-101899683D02*
X135200057Y-101845809D01*
X135200057Y-101845809D02*
X135226995Y-101764996D01*
X135226995Y-101764996D02*
X135361682Y-101630309D01*
X135361682Y-101630309D02*
X135442494Y-101603372D01*
X135442494Y-101603372D02*
X135496369Y-101603372D01*
X135496369Y-101603372D02*
X135577181Y-101630309D01*
X135577181Y-101630309D02*
X135631056Y-101684184D01*
X135631056Y-101684184D02*
X135684930Y-101791934D01*
X135684930Y-101791934D02*
X135684930Y-102438431D01*
X135684930Y-102438431D02*
X136035117Y-102088245D01*
X135738805Y-101360935D02*
X135738805Y-101307060D01*
X135738805Y-101307060D02*
X135765743Y-101226248D01*
X135765743Y-101226248D02*
X135900430Y-101091561D01*
X135900430Y-101091561D02*
X135981242Y-101064624D01*
X135981242Y-101064624D02*
X136035117Y-101064624D01*
X136035117Y-101064624D02*
X136115929Y-101091561D01*
X136115929Y-101091561D02*
X136169804Y-101145436D01*
X136169804Y-101145436D02*
X136223679Y-101253186D01*
X136223679Y-101253186D02*
X136223679Y-101899683D01*
X136223679Y-101899683D02*
X136573865Y-101549497D01*
X160488372Y-115111494D02*
X160407560Y-115138431D01*
X160407560Y-115138431D02*
X160326748Y-115219243D01*
X160326748Y-115219243D02*
X160272873Y-115326993D01*
X160272873Y-115326993D02*
X160272873Y-115434742D01*
X160272873Y-115434742D02*
X160299810Y-115515555D01*
X160299810Y-115515555D02*
X160380623Y-115650242D01*
X160380623Y-115650242D02*
X160461435Y-115731054D01*
X160461435Y-115731054D02*
X160596122Y-115811866D01*
X160596122Y-115811866D02*
X160676934Y-115838803D01*
X160676934Y-115838803D02*
X160784684Y-115838803D01*
X160784684Y-115838803D02*
X160892433Y-115784929D01*
X160892433Y-115784929D02*
X160946308Y-115731054D01*
X160946308Y-115731054D02*
X161000183Y-115623304D01*
X161000183Y-115623304D02*
X161000183Y-115569429D01*
X161000183Y-115569429D02*
X160811621Y-115380868D01*
X160811621Y-115380868D02*
X160703871Y-115488617D01*
X161296494Y-115380868D02*
X160730809Y-114815182D01*
X160730809Y-114815182D02*
X160946308Y-114599683D01*
X160946308Y-114599683D02*
X161027120Y-114572746D01*
X161027120Y-114572746D02*
X161080995Y-114572746D01*
X161080995Y-114572746D02*
X161161807Y-114599683D01*
X161161807Y-114599683D02*
X161242619Y-114680495D01*
X161242619Y-114680495D02*
X161269557Y-114761307D01*
X161269557Y-114761307D02*
X161269557Y-114815182D01*
X161269557Y-114815182D02*
X161242619Y-114895994D01*
X161242619Y-114895994D02*
X161027120Y-115111494D01*
X161565868Y-113980123D02*
X161296494Y-114249497D01*
X161296494Y-114249497D02*
X161538931Y-114545808D01*
X161538931Y-114545808D02*
X161538931Y-114491933D01*
X161538931Y-114491933D02*
X161565868Y-114411121D01*
X161565868Y-114411121D02*
X161700555Y-114276434D01*
X161700555Y-114276434D02*
X161781367Y-114249497D01*
X161781367Y-114249497D02*
X161835242Y-114249497D01*
X161835242Y-114249497D02*
X161916054Y-114276434D01*
X161916054Y-114276434D02*
X162050741Y-114411121D01*
X162050741Y-114411121D02*
X162077679Y-114491933D01*
X162077679Y-114491933D02*
X162077679Y-114545808D01*
X162077679Y-114545808D02*
X162050741Y-114626620D01*
X162050741Y-114626620D02*
X161916054Y-114761307D01*
X161916054Y-114761307D02*
X161835242Y-114788245D01*
X161835242Y-114788245D02*
X161781367Y-114788245D01*
X134861435Y-87198431D02*
X134780623Y-87225368D01*
X134780623Y-87225368D02*
X134699811Y-87306180D01*
X134699811Y-87306180D02*
X134645936Y-87413930D01*
X134645936Y-87413930D02*
X134645936Y-87521680D01*
X134645936Y-87521680D02*
X134672873Y-87602492D01*
X134672873Y-87602492D02*
X134753685Y-87737179D01*
X134753685Y-87737179D02*
X134834498Y-87817991D01*
X134834498Y-87817991D02*
X134969185Y-87898803D01*
X134969185Y-87898803D02*
X135049997Y-87925741D01*
X135049997Y-87925741D02*
X135157746Y-87925741D01*
X135157746Y-87925741D02*
X135265496Y-87871866D01*
X135265496Y-87871866D02*
X135319371Y-87817991D01*
X135319371Y-87817991D02*
X135373246Y-87710241D01*
X135373246Y-87710241D02*
X135373246Y-87656367D01*
X135373246Y-87656367D02*
X135184684Y-87467805D01*
X135184684Y-87467805D02*
X135076934Y-87575554D01*
X135669557Y-87467805D02*
X135103872Y-86902119D01*
X135103872Y-86902119D02*
X135992806Y-87144556D01*
X135992806Y-87144556D02*
X135427120Y-86578871D01*
X136262180Y-86875182D02*
X135696494Y-86309497D01*
X135696494Y-86309497D02*
X135831181Y-86174810D01*
X135831181Y-86174810D02*
X135938931Y-86120935D01*
X135938931Y-86120935D02*
X136046680Y-86120935D01*
X136046680Y-86120935D02*
X136127493Y-86147872D01*
X136127493Y-86147872D02*
X136262180Y-86228685D01*
X136262180Y-86228685D02*
X136342992Y-86309497D01*
X136342992Y-86309497D02*
X136423804Y-86444184D01*
X136423804Y-86444184D02*
X136450741Y-86524996D01*
X136450741Y-86524996D02*
X136450741Y-86632746D01*
X136450741Y-86632746D02*
X136396867Y-86740495D01*
X136396867Y-86740495D02*
X136262180Y-86875182D01*
X141079761Y-80224200D02*
X141194047Y-80262295D01*
X141194047Y-80262295D02*
X141384523Y-80262295D01*
X141384523Y-80262295D02*
X141460714Y-80224200D01*
X141460714Y-80224200D02*
X141498809Y-80186104D01*
X141498809Y-80186104D02*
X141536904Y-80109914D01*
X141536904Y-80109914D02*
X141536904Y-80033723D01*
X141536904Y-80033723D02*
X141498809Y-79957533D01*
X141498809Y-79957533D02*
X141460714Y-79919438D01*
X141460714Y-79919438D02*
X141384523Y-79881342D01*
X141384523Y-79881342D02*
X141232142Y-79843247D01*
X141232142Y-79843247D02*
X141155952Y-79805152D01*
X141155952Y-79805152D02*
X141117857Y-79767057D01*
X141117857Y-79767057D02*
X141079761Y-79690866D01*
X141079761Y-79690866D02*
X141079761Y-79614676D01*
X141079761Y-79614676D02*
X141117857Y-79538485D01*
X141117857Y-79538485D02*
X141155952Y-79500390D01*
X141155952Y-79500390D02*
X141232142Y-79462295D01*
X141232142Y-79462295D02*
X141422619Y-79462295D01*
X141422619Y-79462295D02*
X141536904Y-79500390D01*
X141803571Y-79462295D02*
X141994047Y-80262295D01*
X141994047Y-80262295D02*
X142146428Y-79690866D01*
X142146428Y-79690866D02*
X142298809Y-80262295D01*
X142298809Y-80262295D02*
X142489286Y-79462295D01*
X142794048Y-80262295D02*
X142794048Y-79462295D01*
X142794048Y-79462295D02*
X142984524Y-79462295D01*
X142984524Y-79462295D02*
X143098810Y-79500390D01*
X143098810Y-79500390D02*
X143175000Y-79576580D01*
X143175000Y-79576580D02*
X143213095Y-79652771D01*
X143213095Y-79652771D02*
X143251191Y-79805152D01*
X143251191Y-79805152D02*
X143251191Y-79919438D01*
X143251191Y-79919438D02*
X143213095Y-80071819D01*
X143213095Y-80071819D02*
X143175000Y-80148009D01*
X143175000Y-80148009D02*
X143098810Y-80224200D01*
X143098810Y-80224200D02*
X142984524Y-80262295D01*
X142984524Y-80262295D02*
X142794048Y-80262295D01*
X143594048Y-80262295D02*
X143594048Y-79462295D01*
X144127381Y-79462295D02*
X144279762Y-79462295D01*
X144279762Y-79462295D02*
X144355952Y-79500390D01*
X144355952Y-79500390D02*
X144432143Y-79576580D01*
X144432143Y-79576580D02*
X144470238Y-79728961D01*
X144470238Y-79728961D02*
X144470238Y-79995628D01*
X144470238Y-79995628D02*
X144432143Y-80148009D01*
X144432143Y-80148009D02*
X144355952Y-80224200D01*
X144355952Y-80224200D02*
X144279762Y-80262295D01*
X144279762Y-80262295D02*
X144127381Y-80262295D01*
X144127381Y-80262295D02*
X144051190Y-80224200D01*
X144051190Y-80224200D02*
X143975000Y-80148009D01*
X143975000Y-80148009D02*
X143936904Y-79995628D01*
X143936904Y-79995628D02*
X143936904Y-79728961D01*
X143936904Y-79728961D02*
X143975000Y-79576580D01*
X143975000Y-79576580D02*
X144051190Y-79500390D01*
X144051190Y-79500390D02*
X144127381Y-79462295D01*
X160461435Y-99898431D02*
X160380623Y-99925368D01*
X160380623Y-99925368D02*
X160299811Y-100006180D01*
X160299811Y-100006180D02*
X160245936Y-100113930D01*
X160245936Y-100113930D02*
X160245936Y-100221680D01*
X160245936Y-100221680D02*
X160272873Y-100302492D01*
X160272873Y-100302492D02*
X160353685Y-100437179D01*
X160353685Y-100437179D02*
X160434498Y-100517991D01*
X160434498Y-100517991D02*
X160569185Y-100598803D01*
X160569185Y-100598803D02*
X160649997Y-100625741D01*
X160649997Y-100625741D02*
X160757746Y-100625741D01*
X160757746Y-100625741D02*
X160865496Y-100571866D01*
X160865496Y-100571866D02*
X160919371Y-100517991D01*
X160919371Y-100517991D02*
X160973246Y-100410241D01*
X160973246Y-100410241D02*
X160973246Y-100356367D01*
X160973246Y-100356367D02*
X160784684Y-100167805D01*
X160784684Y-100167805D02*
X160676934Y-100275554D01*
X161269557Y-100167805D02*
X160703872Y-99602119D01*
X160703872Y-99602119D02*
X161592806Y-99844556D01*
X161592806Y-99844556D02*
X161027120Y-99278871D01*
X161862180Y-99575182D02*
X161296494Y-99009497D01*
X161296494Y-99009497D02*
X161431181Y-98874810D01*
X161431181Y-98874810D02*
X161538931Y-98820935D01*
X161538931Y-98820935D02*
X161646680Y-98820935D01*
X161646680Y-98820935D02*
X161727493Y-98847872D01*
X161727493Y-98847872D02*
X161862180Y-98928685D01*
X161862180Y-98928685D02*
X161942992Y-99009497D01*
X161942992Y-99009497D02*
X162023804Y-99144184D01*
X162023804Y-99144184D02*
X162050741Y-99224996D01*
X162050741Y-99224996D02*
X162050741Y-99332746D01*
X162050741Y-99332746D02*
X161996867Y-99440495D01*
X161996867Y-99440495D02*
X161862180Y-99575182D01*
X160461435Y-125298431D02*
X160380623Y-125325368D01*
X160380623Y-125325368D02*
X160299811Y-125406180D01*
X160299811Y-125406180D02*
X160245936Y-125513930D01*
X160245936Y-125513930D02*
X160245936Y-125621680D01*
X160245936Y-125621680D02*
X160272873Y-125702492D01*
X160272873Y-125702492D02*
X160353685Y-125837179D01*
X160353685Y-125837179D02*
X160434498Y-125917991D01*
X160434498Y-125917991D02*
X160569185Y-125998803D01*
X160569185Y-125998803D02*
X160649997Y-126025741D01*
X160649997Y-126025741D02*
X160757746Y-126025741D01*
X160757746Y-126025741D02*
X160865496Y-125971866D01*
X160865496Y-125971866D02*
X160919371Y-125917991D01*
X160919371Y-125917991D02*
X160973246Y-125810241D01*
X160973246Y-125810241D02*
X160973246Y-125756367D01*
X160973246Y-125756367D02*
X160784684Y-125567805D01*
X160784684Y-125567805D02*
X160676934Y-125675554D01*
X161269557Y-125567805D02*
X160703872Y-125002119D01*
X160703872Y-125002119D02*
X161592806Y-125244556D01*
X161592806Y-125244556D02*
X161027120Y-124678871D01*
X161862180Y-124975182D02*
X161296494Y-124409497D01*
X161296494Y-124409497D02*
X161431181Y-124274810D01*
X161431181Y-124274810D02*
X161538931Y-124220935D01*
X161538931Y-124220935D02*
X161646680Y-124220935D01*
X161646680Y-124220935D02*
X161727493Y-124247872D01*
X161727493Y-124247872D02*
X161862180Y-124328685D01*
X161862180Y-124328685D02*
X161942992Y-124409497D01*
X161942992Y-124409497D02*
X162023804Y-124544184D01*
X162023804Y-124544184D02*
X162050741Y-124624996D01*
X162050741Y-124624996D02*
X162050741Y-124732746D01*
X162050741Y-124732746D02*
X161996867Y-124840495D01*
X161996867Y-124840495D02*
X161862180Y-124975182D01*
X134364998Y-89980868D02*
X134284185Y-90007805D01*
X134284185Y-90007805D02*
X134203373Y-90088618D01*
X134203373Y-90088618D02*
X134149498Y-90196367D01*
X134149498Y-90196367D02*
X134149498Y-90304117D01*
X134149498Y-90304117D02*
X134176436Y-90384929D01*
X134176436Y-90384929D02*
X134257248Y-90519616D01*
X134257248Y-90519616D02*
X134338060Y-90600428D01*
X134338060Y-90600428D02*
X134472747Y-90681241D01*
X134472747Y-90681241D02*
X134553560Y-90708178D01*
X134553560Y-90708178D02*
X134661309Y-90708178D01*
X134661309Y-90708178D02*
X134769059Y-90654303D01*
X134769059Y-90654303D02*
X134822934Y-90600428D01*
X134822934Y-90600428D02*
X134876808Y-90492679D01*
X134876808Y-90492679D02*
X134876808Y-90438804D01*
X134876808Y-90438804D02*
X134688247Y-90250242D01*
X134688247Y-90250242D02*
X134580497Y-90357992D01*
X135173120Y-90250242D02*
X134607434Y-89684557D01*
X134607434Y-89684557D02*
X134822934Y-89469057D01*
X134822934Y-89469057D02*
X134903746Y-89442120D01*
X134903746Y-89442120D02*
X134957621Y-89442120D01*
X134957621Y-89442120D02*
X135038433Y-89469057D01*
X135038433Y-89469057D02*
X135119245Y-89549870D01*
X135119245Y-89549870D02*
X135146182Y-89630682D01*
X135146182Y-89630682D02*
X135146182Y-89684557D01*
X135146182Y-89684557D02*
X135119245Y-89765369D01*
X135119245Y-89765369D02*
X134903746Y-89980868D01*
X136035117Y-89388245D02*
X135711868Y-89711494D01*
X135873492Y-89549870D02*
X135307807Y-88984184D01*
X135307807Y-88984184D02*
X135334744Y-89118871D01*
X135334744Y-89118871D02*
X135334744Y-89226621D01*
X135334744Y-89226621D02*
X135307807Y-89307433D01*
X136035117Y-88741747D02*
X135954305Y-88768685D01*
X135954305Y-88768685D02*
X135900430Y-88768685D01*
X135900430Y-88768685D02*
X135819618Y-88741747D01*
X135819618Y-88741747D02*
X135792680Y-88714810D01*
X135792680Y-88714810D02*
X135765743Y-88633998D01*
X135765743Y-88633998D02*
X135765743Y-88580123D01*
X135765743Y-88580123D02*
X135792680Y-88499311D01*
X135792680Y-88499311D02*
X135900430Y-88391561D01*
X135900430Y-88391561D02*
X135981242Y-88364624D01*
X135981242Y-88364624D02*
X136035117Y-88364624D01*
X136035117Y-88364624D02*
X136115929Y-88391561D01*
X136115929Y-88391561D02*
X136142866Y-88418499D01*
X136142866Y-88418499D02*
X136169804Y-88499311D01*
X136169804Y-88499311D02*
X136169804Y-88553186D01*
X136169804Y-88553186D02*
X136142866Y-88633998D01*
X136142866Y-88633998D02*
X136035117Y-88741747D01*
X136035117Y-88741747D02*
X136008179Y-88822560D01*
X136008179Y-88822560D02*
X136008179Y-88876434D01*
X136008179Y-88876434D02*
X136035117Y-88957247D01*
X136035117Y-88957247D02*
X136142866Y-89064996D01*
X136142866Y-89064996D02*
X136223679Y-89091934D01*
X136223679Y-89091934D02*
X136277553Y-89091934D01*
X136277553Y-89091934D02*
X136358366Y-89064996D01*
X136358366Y-89064996D02*
X136466115Y-88957247D01*
X136466115Y-88957247D02*
X136493053Y-88876434D01*
X136493053Y-88876434D02*
X136493053Y-88822560D01*
X136493053Y-88822560D02*
X136466115Y-88741747D01*
X136466115Y-88741747D02*
X136358366Y-88633998D01*
X136358366Y-88633998D02*
X136277553Y-88607060D01*
X136277553Y-88607060D02*
X136223679Y-88607060D01*
X136223679Y-88607060D02*
X136142866Y-88633998D01*
X160488372Y-110031494D02*
X160407560Y-110058431D01*
X160407560Y-110058431D02*
X160326748Y-110139243D01*
X160326748Y-110139243D02*
X160272873Y-110246993D01*
X160272873Y-110246993D02*
X160272873Y-110354742D01*
X160272873Y-110354742D02*
X160299810Y-110435555D01*
X160299810Y-110435555D02*
X160380623Y-110570242D01*
X160380623Y-110570242D02*
X160461435Y-110651054D01*
X160461435Y-110651054D02*
X160596122Y-110731866D01*
X160596122Y-110731866D02*
X160676934Y-110758803D01*
X160676934Y-110758803D02*
X160784684Y-110758803D01*
X160784684Y-110758803D02*
X160892433Y-110704929D01*
X160892433Y-110704929D02*
X160946308Y-110651054D01*
X160946308Y-110651054D02*
X161000183Y-110543304D01*
X161000183Y-110543304D02*
X161000183Y-110489429D01*
X161000183Y-110489429D02*
X160811621Y-110300868D01*
X160811621Y-110300868D02*
X160703871Y-110408617D01*
X161296494Y-110300868D02*
X160730809Y-109735182D01*
X160730809Y-109735182D02*
X160946308Y-109519683D01*
X160946308Y-109519683D02*
X161027120Y-109492746D01*
X161027120Y-109492746D02*
X161080995Y-109492746D01*
X161080995Y-109492746D02*
X161161807Y-109519683D01*
X161161807Y-109519683D02*
X161242619Y-109600495D01*
X161242619Y-109600495D02*
X161269557Y-109681307D01*
X161269557Y-109681307D02*
X161269557Y-109735182D01*
X161269557Y-109735182D02*
X161242619Y-109815994D01*
X161242619Y-109815994D02*
X161027120Y-110031494D01*
X161538931Y-108927060D02*
X161431181Y-109034810D01*
X161431181Y-109034810D02*
X161404244Y-109115622D01*
X161404244Y-109115622D02*
X161404244Y-109169497D01*
X161404244Y-109169497D02*
X161431181Y-109304184D01*
X161431181Y-109304184D02*
X161511993Y-109438871D01*
X161511993Y-109438871D02*
X161727493Y-109654370D01*
X161727493Y-109654370D02*
X161808305Y-109681307D01*
X161808305Y-109681307D02*
X161862180Y-109681307D01*
X161862180Y-109681307D02*
X161942992Y-109654370D01*
X161942992Y-109654370D02*
X162050741Y-109546620D01*
X162050741Y-109546620D02*
X162077679Y-109465808D01*
X162077679Y-109465808D02*
X162077679Y-109411933D01*
X162077679Y-109411933D02*
X162050741Y-109331121D01*
X162050741Y-109331121D02*
X161916054Y-109196434D01*
X161916054Y-109196434D02*
X161835242Y-109169497D01*
X161835242Y-109169497D02*
X161781367Y-109169497D01*
X161781367Y-109169497D02*
X161700555Y-109196434D01*
X161700555Y-109196434D02*
X161592806Y-109304184D01*
X161592806Y-109304184D02*
X161565868Y-109384996D01*
X161565868Y-109384996D02*
X161565868Y-109438871D01*
X161565868Y-109438871D02*
X161592806Y-109519683D01*
X134861435Y-125298431D02*
X134780623Y-125325368D01*
X134780623Y-125325368D02*
X134699811Y-125406180D01*
X134699811Y-125406180D02*
X134645936Y-125513930D01*
X134645936Y-125513930D02*
X134645936Y-125621680D01*
X134645936Y-125621680D02*
X134672873Y-125702492D01*
X134672873Y-125702492D02*
X134753685Y-125837179D01*
X134753685Y-125837179D02*
X134834498Y-125917991D01*
X134834498Y-125917991D02*
X134969185Y-125998803D01*
X134969185Y-125998803D02*
X135049997Y-126025741D01*
X135049997Y-126025741D02*
X135157746Y-126025741D01*
X135157746Y-126025741D02*
X135265496Y-125971866D01*
X135265496Y-125971866D02*
X135319371Y-125917991D01*
X135319371Y-125917991D02*
X135373246Y-125810241D01*
X135373246Y-125810241D02*
X135373246Y-125756367D01*
X135373246Y-125756367D02*
X135184684Y-125567805D01*
X135184684Y-125567805D02*
X135076934Y-125675554D01*
X135669557Y-125567805D02*
X135103872Y-125002119D01*
X135103872Y-125002119D02*
X135992806Y-125244556D01*
X135992806Y-125244556D02*
X135427120Y-124678871D01*
X136262180Y-124975182D02*
X135696494Y-124409497D01*
X135696494Y-124409497D02*
X135831181Y-124274810D01*
X135831181Y-124274810D02*
X135938931Y-124220935D01*
X135938931Y-124220935D02*
X136046680Y-124220935D01*
X136046680Y-124220935D02*
X136127493Y-124247872D01*
X136127493Y-124247872D02*
X136262180Y-124328685D01*
X136262180Y-124328685D02*
X136342992Y-124409497D01*
X136342992Y-124409497D02*
X136423804Y-124544184D01*
X136423804Y-124544184D02*
X136450741Y-124624996D01*
X136450741Y-124624996D02*
X136450741Y-124732746D01*
X136450741Y-124732746D02*
X136396867Y-124840495D01*
X136396867Y-124840495D02*
X136262180Y-124975182D01*
D14*
X133463514Y-118004305D02*
X132320514Y-118004305D01*
X132320514Y-118004305D02*
X133136943Y-117623305D01*
X133136943Y-117623305D02*
X132320514Y-117242305D01*
X132320514Y-117242305D02*
X133463514Y-117242305D01*
X133572371Y-116970162D02*
X133572371Y-116099304D01*
X133463514Y-115174019D02*
X132919228Y-115555019D01*
X133463514Y-115827162D02*
X132320514Y-115827162D01*
X132320514Y-115827162D02*
X132320514Y-115391733D01*
X132320514Y-115391733D02*
X132374943Y-115282876D01*
X132374943Y-115282876D02*
X132429371Y-115228447D01*
X132429371Y-115228447D02*
X132538228Y-115174019D01*
X132538228Y-115174019D02*
X132701514Y-115174019D01*
X132701514Y-115174019D02*
X132810371Y-115228447D01*
X132810371Y-115228447D02*
X132864800Y-115282876D01*
X132864800Y-115282876D02*
X132919228Y-115391733D01*
X132919228Y-115391733D02*
X132919228Y-115827162D01*
X133463514Y-114684162D02*
X132320514Y-114684162D01*
X132374943Y-113541161D02*
X132320514Y-113650019D01*
X132320514Y-113650019D02*
X132320514Y-113813304D01*
X132320514Y-113813304D02*
X132374943Y-113976590D01*
X132374943Y-113976590D02*
X132483800Y-114085447D01*
X132483800Y-114085447D02*
X132592657Y-114139876D01*
X132592657Y-114139876D02*
X132810371Y-114194304D01*
X132810371Y-114194304D02*
X132973657Y-114194304D01*
X132973657Y-114194304D02*
X133191371Y-114139876D01*
X133191371Y-114139876D02*
X133300228Y-114085447D01*
X133300228Y-114085447D02*
X133409086Y-113976590D01*
X133409086Y-113976590D02*
X133463514Y-113813304D01*
X133463514Y-113813304D02*
X133463514Y-113704447D01*
X133463514Y-113704447D02*
X133409086Y-113541161D01*
X133409086Y-113541161D02*
X133354657Y-113486733D01*
X133354657Y-113486733D02*
X132973657Y-113486733D01*
X132973657Y-113486733D02*
X132973657Y-113704447D01*
X133463514Y-112996876D02*
X132320514Y-112996876D01*
X132864800Y-112996876D02*
X132864800Y-112343733D01*
X133463514Y-112343733D02*
X132320514Y-112343733D01*
X132320514Y-111962732D02*
X132320514Y-111309590D01*
X133463514Y-111636161D02*
X132320514Y-111636161D01*
X132320514Y-110710875D02*
X132320514Y-110602018D01*
X132320514Y-110602018D02*
X132374943Y-110493161D01*
X132374943Y-110493161D02*
X132429371Y-110438733D01*
X132429371Y-110438733D02*
X132538228Y-110384304D01*
X132538228Y-110384304D02*
X132755943Y-110329875D01*
X132755943Y-110329875D02*
X133028086Y-110329875D01*
X133028086Y-110329875D02*
X133245800Y-110384304D01*
X133245800Y-110384304D02*
X133354657Y-110438733D01*
X133354657Y-110438733D02*
X133409086Y-110493161D01*
X133409086Y-110493161D02*
X133463514Y-110602018D01*
X133463514Y-110602018D02*
X133463514Y-110710875D01*
X133463514Y-110710875D02*
X133409086Y-110819733D01*
X133409086Y-110819733D02*
X133354657Y-110874161D01*
X133354657Y-110874161D02*
X133245800Y-110928590D01*
X133245800Y-110928590D02*
X133028086Y-110983018D01*
X133028086Y-110983018D02*
X132755943Y-110983018D01*
X132755943Y-110983018D02*
X132538228Y-110928590D01*
X132538228Y-110928590D02*
X132429371Y-110874161D01*
X132429371Y-110874161D02*
X132374943Y-110819733D01*
X132374943Y-110819733D02*
X132320514Y-110710875D01*
D11*
X125142689Y-94971726D02*
X124753222Y-94415345D01*
X124475032Y-94971726D02*
X124475032Y-93803326D01*
X124475032Y-93803326D02*
X124920137Y-93803326D01*
X124920137Y-93803326D02*
X125031413Y-93858964D01*
X125031413Y-93858964D02*
X125087051Y-93914602D01*
X125087051Y-93914602D02*
X125142689Y-94025878D01*
X125142689Y-94025878D02*
X125142689Y-94192792D01*
X125142689Y-94192792D02*
X125087051Y-94304068D01*
X125087051Y-94304068D02*
X125031413Y-94359707D01*
X125031413Y-94359707D02*
X124920137Y-94415345D01*
X124920137Y-94415345D02*
X124475032Y-94415345D01*
X125699070Y-94971726D02*
X125921622Y-94971726D01*
X125921622Y-94971726D02*
X126032899Y-94916088D01*
X126032899Y-94916088D02*
X126088537Y-94860449D01*
X126088537Y-94860449D02*
X126199813Y-94693535D01*
X126199813Y-94693535D02*
X126255451Y-94470983D01*
X126255451Y-94470983D02*
X126255451Y-94025878D01*
X126255451Y-94025878D02*
X126199813Y-93914602D01*
X126199813Y-93914602D02*
X126144175Y-93858964D01*
X126144175Y-93858964D02*
X126032899Y-93803326D01*
X126032899Y-93803326D02*
X125810346Y-93803326D01*
X125810346Y-93803326D02*
X125699070Y-93858964D01*
X125699070Y-93858964D02*
X125643432Y-93914602D01*
X125643432Y-93914602D02*
X125587794Y-94025878D01*
X125587794Y-94025878D02*
X125587794Y-94304068D01*
X125587794Y-94304068D02*
X125643432Y-94415345D01*
X125643432Y-94415345D02*
X125699070Y-94470983D01*
X125699070Y-94470983D02*
X125810346Y-94526621D01*
X125810346Y-94526621D02*
X126032899Y-94526621D01*
X126032899Y-94526621D02*
X126144175Y-94470983D01*
X126144175Y-94470983D02*
X126199813Y-94415345D01*
X126199813Y-94415345D02*
X126255451Y-94304068D01*
X131862689Y-92631726D02*
X131473222Y-92075345D01*
X131195032Y-92631726D02*
X131195032Y-91463326D01*
X131195032Y-91463326D02*
X131640137Y-91463326D01*
X131640137Y-91463326D02*
X131751413Y-91518964D01*
X131751413Y-91518964D02*
X131807051Y-91574602D01*
X131807051Y-91574602D02*
X131862689Y-91685878D01*
X131862689Y-91685878D02*
X131862689Y-91852792D01*
X131862689Y-91852792D02*
X131807051Y-91964068D01*
X131807051Y-91964068D02*
X131751413Y-92019707D01*
X131751413Y-92019707D02*
X131640137Y-92075345D01*
X131640137Y-92075345D02*
X131195032Y-92075345D01*
X132530346Y-91964068D02*
X132419070Y-91908430D01*
X132419070Y-91908430D02*
X132363432Y-91852792D01*
X132363432Y-91852792D02*
X132307794Y-91741516D01*
X132307794Y-91741516D02*
X132307794Y-91685878D01*
X132307794Y-91685878D02*
X132363432Y-91574602D01*
X132363432Y-91574602D02*
X132419070Y-91518964D01*
X132419070Y-91518964D02*
X132530346Y-91463326D01*
X132530346Y-91463326D02*
X132752899Y-91463326D01*
X132752899Y-91463326D02*
X132864175Y-91518964D01*
X132864175Y-91518964D02*
X132919813Y-91574602D01*
X132919813Y-91574602D02*
X132975451Y-91685878D01*
X132975451Y-91685878D02*
X132975451Y-91741516D01*
X132975451Y-91741516D02*
X132919813Y-91852792D01*
X132919813Y-91852792D02*
X132864175Y-91908430D01*
X132864175Y-91908430D02*
X132752899Y-91964068D01*
X132752899Y-91964068D02*
X132530346Y-91964068D01*
X132530346Y-91964068D02*
X132419070Y-92019707D01*
X132419070Y-92019707D02*
X132363432Y-92075345D01*
X132363432Y-92075345D02*
X132307794Y-92186621D01*
X132307794Y-92186621D02*
X132307794Y-92409173D01*
X132307794Y-92409173D02*
X132363432Y-92520449D01*
X132363432Y-92520449D02*
X132419070Y-92576088D01*
X132419070Y-92576088D02*
X132530346Y-92631726D01*
X132530346Y-92631726D02*
X132752899Y-92631726D01*
X132752899Y-92631726D02*
X132864175Y-92576088D01*
X132864175Y-92576088D02*
X132919813Y-92520449D01*
X132919813Y-92520449D02*
X132975451Y-92409173D01*
X132975451Y-92409173D02*
X132975451Y-92186621D01*
X132975451Y-92186621D02*
X132919813Y-92075345D01*
X132919813Y-92075345D02*
X132864175Y-92019707D01*
X132864175Y-92019707D02*
X132752899Y-91964068D01*
X151792689Y-102031726D02*
X151403222Y-101475345D01*
X151125032Y-102031726D02*
X151125032Y-100863326D01*
X151125032Y-100863326D02*
X151570137Y-100863326D01*
X151570137Y-100863326D02*
X151681413Y-100918964D01*
X151681413Y-100918964D02*
X151737051Y-100974602D01*
X151737051Y-100974602D02*
X151792689Y-101085878D01*
X151792689Y-101085878D02*
X151792689Y-101252792D01*
X151792689Y-101252792D02*
X151737051Y-101364068D01*
X151737051Y-101364068D02*
X151681413Y-101419707D01*
X151681413Y-101419707D02*
X151570137Y-101475345D01*
X151570137Y-101475345D02*
X151125032Y-101475345D01*
X152905451Y-102031726D02*
X152237794Y-102031726D01*
X152571622Y-102031726D02*
X152571622Y-100863326D01*
X152571622Y-100863326D02*
X152460346Y-101030240D01*
X152460346Y-101030240D02*
X152349070Y-101141516D01*
X152349070Y-101141516D02*
X152237794Y-101197154D01*
X153962575Y-100863326D02*
X153406194Y-100863326D01*
X153406194Y-100863326D02*
X153350556Y-101419707D01*
X153350556Y-101419707D02*
X153406194Y-101364068D01*
X153406194Y-101364068D02*
X153517470Y-101308430D01*
X153517470Y-101308430D02*
X153795661Y-101308430D01*
X153795661Y-101308430D02*
X153906937Y-101364068D01*
X153906937Y-101364068D02*
X153962575Y-101419707D01*
X153962575Y-101419707D02*
X154018213Y-101530983D01*
X154018213Y-101530983D02*
X154018213Y-101809173D01*
X154018213Y-101809173D02*
X153962575Y-101920449D01*
X153962575Y-101920449D02*
X153906937Y-101976088D01*
X153906937Y-101976088D02*
X153795661Y-102031726D01*
X153795661Y-102031726D02*
X153517470Y-102031726D01*
X153517470Y-102031726D02*
X153406194Y-101976088D01*
X153406194Y-101976088D02*
X153350556Y-101920449D01*
D16*
X173101115Y-122391473D02*
X173031447Y-122368250D01*
X173031447Y-122368250D02*
X173008224Y-122345027D01*
X173008224Y-122345027D02*
X172985001Y-122298582D01*
X172985001Y-122298582D02*
X172985001Y-122228913D01*
X172985001Y-122228913D02*
X173008224Y-122182467D01*
X173008224Y-122182467D02*
X173031447Y-122159245D01*
X173031447Y-122159245D02*
X173077892Y-122136022D01*
X173077892Y-122136022D02*
X173263675Y-122136022D01*
X173263675Y-122136022D02*
X173263675Y-122623702D01*
X173263675Y-122623702D02*
X173101115Y-122623702D01*
X173101115Y-122623702D02*
X173054670Y-122600479D01*
X173054670Y-122600479D02*
X173031447Y-122577256D01*
X173031447Y-122577256D02*
X173008224Y-122530810D01*
X173008224Y-122530810D02*
X173008224Y-122484365D01*
X173008224Y-122484365D02*
X173031447Y-122437919D01*
X173031447Y-122437919D02*
X173054670Y-122414696D01*
X173054670Y-122414696D02*
X173101115Y-122391473D01*
X173101115Y-122391473D02*
X173263675Y-122391473D01*
X172799218Y-122275359D02*
X172566990Y-122275359D01*
X172845664Y-122136022D02*
X172683104Y-122623702D01*
X172683104Y-122623702D02*
X172520544Y-122136022D01*
X172427653Y-122623702D02*
X172148979Y-122623702D01*
X172288316Y-122136022D02*
X172288316Y-122623702D01*
X172056087Y-122623702D02*
X171777413Y-122623702D01*
X171916750Y-122136022D02*
X171916750Y-122623702D01*
X171359401Y-122136022D02*
X171638075Y-122136022D01*
X171498738Y-122136022D02*
X171498738Y-122623702D01*
X171498738Y-122623702D02*
X171545184Y-122554033D01*
X171545184Y-122554033D02*
X171591629Y-122507587D01*
X171591629Y-122507587D02*
X171638075Y-122484365D01*
D11*
X142222689Y-124700449D02*
X142167051Y-124756088D01*
X142167051Y-124756088D02*
X142000137Y-124811726D01*
X142000137Y-124811726D02*
X141888861Y-124811726D01*
X141888861Y-124811726D02*
X141721946Y-124756088D01*
X141721946Y-124756088D02*
X141610670Y-124644811D01*
X141610670Y-124644811D02*
X141555032Y-124533535D01*
X141555032Y-124533535D02*
X141499394Y-124310983D01*
X141499394Y-124310983D02*
X141499394Y-124144068D01*
X141499394Y-124144068D02*
X141555032Y-123921516D01*
X141555032Y-123921516D02*
X141610670Y-123810240D01*
X141610670Y-123810240D02*
X141721946Y-123698964D01*
X141721946Y-123698964D02*
X141888861Y-123643326D01*
X141888861Y-123643326D02*
X142000137Y-123643326D01*
X142000137Y-123643326D02*
X142167051Y-123698964D01*
X142167051Y-123698964D02*
X142222689Y-123754602D01*
X142667794Y-123754602D02*
X142723432Y-123698964D01*
X142723432Y-123698964D02*
X142834708Y-123643326D01*
X142834708Y-123643326D02*
X143112899Y-123643326D01*
X143112899Y-123643326D02*
X143224175Y-123698964D01*
X143224175Y-123698964D02*
X143279813Y-123754602D01*
X143279813Y-123754602D02*
X143335451Y-123865878D01*
X143335451Y-123865878D02*
X143335451Y-123977154D01*
X143335451Y-123977154D02*
X143279813Y-124144068D01*
X143279813Y-124144068D02*
X142612156Y-124811726D01*
X142612156Y-124811726D02*
X143335451Y-124811726D01*
D17*
%TO.C,E-HAT0*%
X143390000Y-112525000D02*
X143390000Y-113795000D01*
X143390000Y-113795000D02*
X144025000Y-114430000D01*
X144025000Y-111890000D02*
X143390000Y-112525000D01*
X144025000Y-111890000D02*
X145295000Y-111890000D01*
X145295000Y-111890000D02*
X145930000Y-112525000D01*
X145295000Y-114430000D02*
X144025000Y-114430000D01*
X145930000Y-112525000D02*
X145930000Y-113795000D01*
X145930000Y-112525000D02*
X146565000Y-111890000D01*
X145930000Y-113795000D02*
X145295000Y-114430000D01*
X146565000Y-111890000D02*
X147835000Y-111890000D01*
X146565000Y-114430000D02*
X145930000Y-113795000D01*
X147835000Y-111890000D02*
X148470000Y-112525000D01*
X147835000Y-114430000D02*
X146565000Y-114430000D01*
X148470000Y-112525000D02*
X148470000Y-113795000D01*
X148470000Y-112525000D02*
X149105000Y-111890000D01*
X148470000Y-113795000D02*
X147835000Y-114430000D01*
X149105000Y-111890000D02*
X150375000Y-111890000D01*
X149105000Y-114430000D02*
X148470000Y-113795000D01*
X150375000Y-111890000D02*
X151010000Y-112525000D01*
X150375000Y-114430000D02*
X149105000Y-114430000D01*
X151010000Y-112525000D02*
X151010000Y-113795000D01*
X151010000Y-113795000D02*
X150375000Y-114430000D01*
X151010000Y-113795000D02*
X151645000Y-114430000D01*
X151645000Y-111890000D02*
X151010000Y-112525000D01*
X151645000Y-111890000D02*
X152915000Y-111890000D01*
X152915000Y-111890000D02*
X153550000Y-112525000D01*
X152915000Y-114430000D02*
X151645000Y-114430000D01*
X153550000Y-112525000D02*
X153550000Y-113795000D01*
X153550000Y-113795000D02*
X152915000Y-114430000D01*
D18*
%TO.C,MT3608*%
X140053000Y-123875000D02*
X140053000Y-86664000D01*
X140053000Y-123875000D02*
X157325000Y-123875000D01*
X157325000Y-86664000D02*
X140053000Y-86664000D01*
X157325000Y-123875000D02*
X157325000Y-86664000D01*
D17*
%TO.C,M_LEFT0*%
X165454492Y-111656995D02*
X166089492Y-111021995D01*
X165454492Y-112926995D02*
X165454492Y-111656995D01*
X165454492Y-114196995D02*
X166089492Y-113561995D01*
X165454492Y-115466995D02*
X165454492Y-114196995D01*
X165454492Y-116736995D02*
X166089492Y-116101995D01*
X165454492Y-118006995D02*
X165454492Y-116736995D01*
X165454492Y-118006995D02*
X166089492Y-118641995D01*
X166089492Y-111021995D02*
X167359492Y-111021995D01*
X166089492Y-113561995D02*
X165454492Y-112926995D01*
X166089492Y-113561995D02*
X167359492Y-113561995D01*
X166089492Y-116101995D02*
X165454492Y-115466995D01*
X166089492Y-116101995D02*
X167359492Y-116101995D01*
X166089492Y-118641995D02*
X167359492Y-118641995D01*
X167359492Y-111021995D02*
X167994492Y-111656995D01*
X167359492Y-113561995D02*
X167994492Y-114196995D01*
X167359492Y-116101995D02*
X167994492Y-116736995D01*
X167359492Y-118641995D02*
X167994492Y-118006995D01*
X167994492Y-111656995D02*
X167994492Y-112926995D01*
X167994492Y-112926995D02*
X167359492Y-113561995D01*
X167994492Y-114196995D02*
X167994492Y-115466995D01*
X167994492Y-115466995D02*
X167359492Y-116101995D01*
X167994492Y-116736995D02*
X167994492Y-118006995D01*
%TO.C,E_RIGHT0*%
X129160000Y-102845000D02*
X129160000Y-101575000D01*
X129160000Y-104115000D02*
X129795000Y-103480000D01*
X129160000Y-105385000D02*
X129160000Y-104115000D01*
X129160000Y-106655000D02*
X129795000Y-106020000D01*
X129160000Y-107925000D02*
X129160000Y-106655000D01*
X129795000Y-100940000D02*
X129160000Y-101575000D01*
X129795000Y-103480000D02*
X129160000Y-102845000D01*
X129795000Y-106020000D02*
X129160000Y-105385000D01*
X129795000Y-108560000D02*
X129160000Y-107925000D01*
X131065000Y-100940000D02*
X129795000Y-100940000D01*
X131065000Y-103480000D02*
X129795000Y-103480000D01*
X131065000Y-103480000D02*
X131700000Y-104115000D01*
X131065000Y-106020000D02*
X129795000Y-106020000D01*
X131065000Y-106020000D02*
X131700000Y-106655000D01*
X131065000Y-108560000D02*
X129795000Y-108560000D01*
X131700000Y-101575000D02*
X131065000Y-100940000D01*
X131700000Y-101575000D02*
X131700000Y-102845000D01*
X131700000Y-102845000D02*
X131065000Y-103480000D01*
X131700000Y-104115000D02*
X131700000Y-105385000D01*
X131700000Y-105385000D02*
X131065000Y-106020000D01*
X131700000Y-106655000D02*
X131700000Y-107925000D01*
X131700000Y-107925000D02*
X131065000Y-108560000D01*
D14*
%TO.C,TP4056*%
X144250000Y-92690000D02*
X144250000Y-97090000D01*
X144250000Y-97090000D02*
X148450000Y-97090000D01*
X148450000Y-92690000D02*
X144250000Y-92690000D01*
X148450000Y-97090000D02*
X148450000Y-92690000D01*
D19*
X144861803Y-93190000D02*
G75*
G02*
X144638197Y-93190000I-111803J0D01*
G01*
X144638197Y-93190000D02*
G75*
G02*
X144861803Y-93190000I111803J0D01*
G01*
D20*
%TO.C,J2*%
X135750000Y-128960000D02*
X135750000Y-80590000D01*
X138510000Y-80590000D02*
X135750000Y-80590000D01*
X138510000Y-128960000D02*
X135750000Y-128960000D01*
X138510000Y-128960000D02*
X138510000Y-80590000D01*
X138510000Y-130230000D02*
X138510000Y-131610000D01*
X138510000Y-131610000D02*
X137130000Y-131610000D01*
D21*
%TO.C,SWITCH0*%
X168570837Y-91158687D02*
X169721848Y-90621962D01*
X172023870Y-89548511D02*
X173174881Y-89011786D01*
X172864639Y-100366774D02*
X168570837Y-91158687D01*
X173174881Y-89011786D02*
X177468683Y-98219873D01*
X174015650Y-99830049D02*
X172864639Y-100366774D01*
X177468683Y-98219873D02*
X176317672Y-98756598D01*
D20*
%TO.C,J1*%
X158140000Y-80600000D02*
X159520000Y-80600000D01*
X158140000Y-81980000D02*
X158140000Y-80600000D01*
X158140000Y-83250000D02*
X158140000Y-131620000D01*
X158140000Y-83250000D02*
X160900000Y-83250000D01*
X158140000Y-131620000D02*
X160900000Y-131620000D01*
X160900000Y-83250000D02*
X160900000Y-131620000D01*
D21*
%TO.C,BATT0*%
X163034374Y-94091495D02*
X168381590Y-91598046D01*
X166246273Y-100979434D02*
X163034374Y-94091495D01*
X166246273Y-100979434D02*
X166835373Y-100704732D01*
X166835373Y-100704732D02*
X166159184Y-99254640D01*
X168381590Y-91598046D02*
X171593489Y-98485987D01*
X171004389Y-98760688D02*
X170328200Y-97310596D01*
X171593489Y-98485987D02*
X171004389Y-98760688D01*
D17*
%TO.C,E_LEFT0*%
X165410000Y-101825000D02*
X166045000Y-101190000D01*
X165410000Y-103095000D02*
X165410000Y-101825000D01*
X165410000Y-104365000D02*
X166045000Y-103730000D01*
X165410000Y-105635000D02*
X165410000Y-104365000D01*
X165410000Y-106905000D02*
X166045000Y-106270000D01*
X165410000Y-108175000D02*
X165410000Y-106905000D01*
X165410000Y-108175000D02*
X166045000Y-108810000D01*
X166045000Y-101190000D02*
X167315000Y-101190000D01*
X166045000Y-103730000D02*
X165410000Y-103095000D01*
X166045000Y-103730000D02*
X167315000Y-103730000D01*
X166045000Y-106270000D02*
X165410000Y-105635000D01*
X166045000Y-106270000D02*
X167315000Y-106270000D01*
X166045000Y-108810000D02*
X167315000Y-108810000D01*
X167315000Y-101190000D02*
X167950000Y-101825000D01*
X167315000Y-103730000D02*
X167950000Y-104365000D01*
X167315000Y-106270000D02*
X167950000Y-106905000D01*
X167315000Y-108810000D02*
X167950000Y-108175000D01*
X167950000Y-101825000D02*
X167950000Y-103095000D01*
X167950000Y-103095000D02*
X167315000Y-103730000D01*
X167950000Y-104365000D02*
X167950000Y-105635000D01*
X167950000Y-105635000D02*
X167315000Y-106270000D01*
X167950000Y-106905000D02*
X167950000Y-108175000D01*
D20*
%TO.C,U1*%
X137875000Y-80600000D02*
X144675000Y-80600000D01*
X137875000Y-83400000D02*
X137875000Y-83000000D01*
X137875000Y-86000000D02*
X137875000Y-85600000D01*
X137875000Y-88500000D02*
X137875000Y-88100000D01*
X137875000Y-91000000D02*
X137875000Y-90600000D01*
X137875000Y-93600000D02*
X137875000Y-93200000D01*
X137875000Y-96100000D02*
X137875000Y-95700000D01*
X137875000Y-98700000D02*
X137875000Y-98300000D01*
X137875000Y-101200000D02*
X137875000Y-100800000D01*
X137875000Y-103800000D02*
X137875000Y-103400000D01*
X137875000Y-106300000D02*
X137875000Y-105900000D01*
X137875000Y-108800000D02*
X137875000Y-108400000D01*
X137875000Y-111400000D02*
X137875000Y-111000000D01*
X137875000Y-113900000D02*
X137875000Y-113500000D01*
X137875000Y-116500000D02*
X137875000Y-116100000D01*
X137875000Y-119000000D02*
X137875000Y-118600000D01*
X137875000Y-121500000D02*
X137875000Y-121100000D01*
X137875000Y-124100000D02*
X137875000Y-123700000D01*
X137875000Y-126600000D02*
X137875000Y-126200000D01*
X137875000Y-129200000D02*
X137875000Y-128800000D01*
X137875000Y-131600000D02*
X137875000Y-131300000D01*
X147275000Y-80600000D02*
X146875000Y-80600000D01*
X149875000Y-80600000D02*
X149475000Y-80600000D01*
X152075000Y-80600000D02*
X158875000Y-80600000D01*
X155868000Y-128933000D02*
X155868000Y-131600000D01*
X158875000Y-83400000D02*
X158875000Y-83000000D01*
X158875000Y-86000000D02*
X158875000Y-85600000D01*
X158875000Y-88500000D02*
X158875000Y-88100000D01*
X158875000Y-91000000D02*
X158875000Y-90600000D01*
X158875000Y-93600000D02*
X158875000Y-93200000D01*
X158875000Y-96100000D02*
X158875000Y-95700000D01*
X158875000Y-98700000D02*
X158875000Y-98300000D01*
X158875000Y-101200000D02*
X158875000Y-100800000D01*
X158875000Y-103800000D02*
X158875000Y-103400000D01*
X158875000Y-106300000D02*
X158875000Y-105900000D01*
X158875000Y-108800000D02*
X158875000Y-108400000D01*
X158875000Y-111400000D02*
X158875000Y-111000000D01*
X158875000Y-113900000D02*
X158875000Y-113500000D01*
X158875000Y-116500000D02*
X158875000Y-116100000D01*
X158875000Y-119000000D02*
X158875000Y-118600000D01*
X158875000Y-121500000D02*
X158875000Y-121100000D01*
X158875000Y-124100000D02*
X158875000Y-123700000D01*
X158875000Y-126600000D02*
X158875000Y-126200000D01*
X158875000Y-128933000D02*
X155868000Y-128933000D01*
X158875000Y-129200000D02*
X158875000Y-128800000D01*
X158875000Y-131600000D02*
X137875000Y-131600000D01*
X158875000Y-131600000D02*
X158875000Y-131300000D01*
D17*
%TO.C,M_RIGHT0*%
X129180000Y-111575000D02*
X129815000Y-110940000D01*
X129180000Y-112845000D02*
X129180000Y-111575000D01*
X129180000Y-114115000D02*
X129815000Y-113480000D01*
X129180000Y-115385000D02*
X129180000Y-114115000D01*
X129180000Y-116655000D02*
X129815000Y-116020000D01*
X129180000Y-117925000D02*
X129180000Y-116655000D01*
X129180000Y-117925000D02*
X129815000Y-118560000D01*
X129815000Y-110940000D02*
X131085000Y-110940000D01*
X129815000Y-113480000D02*
X129180000Y-112845000D01*
X129815000Y-113480000D02*
X131085000Y-113480000D01*
X129815000Y-116020000D02*
X129180000Y-115385000D01*
X129815000Y-116020000D02*
X131085000Y-116020000D01*
X129815000Y-118560000D02*
X131085000Y-118560000D01*
X131085000Y-110940000D02*
X131720000Y-111575000D01*
X131085000Y-113480000D02*
X131720000Y-114115000D01*
X131085000Y-116020000D02*
X131720000Y-116655000D01*
X131085000Y-118560000D02*
X131720000Y-117925000D01*
X131720000Y-111575000D02*
X131720000Y-112845000D01*
X131720000Y-112845000D02*
X131085000Y-113480000D01*
X131720000Y-114115000D02*
X131720000Y-115385000D01*
X131720000Y-115385000D02*
X131085000Y-116020000D01*
X131720000Y-116655000D02*
X131720000Y-117925000D01*
D21*
%TO.C,BATT1*%
X169240000Y-115200000D02*
X169890000Y-115200000D01*
X169240000Y-122800000D02*
X169240000Y-115200000D01*
X169890000Y-115200000D02*
X169890000Y-116800000D01*
X174490000Y-115200000D02*
X174490000Y-116800000D01*
X175140000Y-115200000D02*
X174490000Y-115200000D01*
X175140000Y-115200000D02*
X175140000Y-122800000D01*
X175140000Y-122800000D02*
X169240000Y-122800000D01*
D14*
%TO.C,P3*%
X162263095Y-125026346D02*
X165303654Y-128066905D01*
X165303654Y-128066905D02*
X168450280Y-124920280D01*
X165409720Y-121879720D02*
X162263095Y-125026346D01*
X165409720Y-121879720D02*
X165403356Y-121873356D01*
X168450280Y-118839161D02*
X165409720Y-121879720D01*
X168450280Y-124920280D02*
X165409720Y-121879720D01*
X168450280Y-124920280D02*
X170713021Y-122657538D01*
X170713021Y-121101903D02*
X168450280Y-118839161D01*
X170713021Y-122657538D02*
X170713021Y-121101903D01*
%TO.C,P1*%
X125608688Y-122109247D02*
X128755313Y-125255873D01*
X128649247Y-119068688D02*
X125608688Y-122109247D01*
X128755313Y-125255873D02*
X131018055Y-127518614D01*
X128755313Y-125255873D02*
X131795873Y-122215313D01*
X131018055Y-127518614D02*
X132573690Y-127518614D01*
X131795873Y-122215313D02*
X128649247Y-119068688D01*
X131795873Y-122215313D02*
X131802237Y-122208949D01*
X132573690Y-127518614D02*
X134836432Y-125255873D01*
X134836432Y-125255873D02*
X131795873Y-122215313D01*
%TO.C,P6*%
X143954000Y-77750000D02*
X143954000Y-80950000D01*
X143954000Y-80950000D02*
X148254000Y-80950000D01*
X145054000Y-76650000D02*
X143954000Y-77750000D01*
X148254000Y-76650000D02*
X145054000Y-76650000D01*
X148254000Y-76650000D02*
X148254000Y-80950000D01*
X148254000Y-80950000D02*
X148254000Y-80959000D01*
X148254000Y-80950000D02*
X152704000Y-80950000D01*
X152704000Y-76650000D02*
X148254000Y-76650000D01*
X152704000Y-80950000D02*
X152704000Y-76650000D01*
%TO.C,P0*%
X144028600Y-128890000D02*
X144028600Y-133190000D01*
X144028600Y-133190000D02*
X148478600Y-133190000D01*
X148478600Y-128890000D02*
X144028600Y-128890000D01*
X148478600Y-128890000D02*
X148478600Y-128881000D01*
X148478600Y-133190000D02*
X148478600Y-128890000D01*
X148478600Y-133190000D02*
X151678600Y-133190000D01*
X151678600Y-133190000D02*
X152778600Y-132090000D01*
X152778600Y-128890000D02*
X148478600Y-128890000D01*
X152778600Y-132090000D02*
X152778600Y-128890000D01*
%TO.C,P2*%
X119990000Y-100658600D02*
X119990000Y-105108600D01*
X119990000Y-105108600D02*
X119990000Y-108308600D01*
X119990000Y-105108600D02*
X124290000Y-105108600D01*
X119990000Y-108308600D02*
X121090000Y-109408600D01*
X121090000Y-109408600D02*
X124290000Y-109408600D01*
X124290000Y-100658600D02*
X119990000Y-100658600D01*
X124290000Y-105108600D02*
X124290000Y-100658600D01*
X124290000Y-105108600D02*
X124299000Y-105108600D01*
X124290000Y-109408600D02*
X124290000Y-105108600D01*
%TO.C,P4*%
X126056979Y-87182462D02*
X126056979Y-88738097D01*
X126056979Y-88738097D02*
X128319720Y-91000839D01*
X128319720Y-84919720D02*
X126056979Y-87182462D01*
X128319720Y-84919720D02*
X131360280Y-87960280D01*
X128319720Y-91000839D02*
X131360280Y-87960280D01*
X131360280Y-87960280D02*
X131366644Y-87966644D01*
X131360280Y-87960280D02*
X134506905Y-84813654D01*
X131466346Y-81773095D02*
X128319720Y-84919720D01*
X134506905Y-84813654D02*
X131466346Y-81773095D01*
%TO.C,P5*%
X172410000Y-100640000D02*
X172410000Y-104940000D01*
X172410000Y-104940000D02*
X172401000Y-104940000D01*
X172410000Y-104940000D02*
X172410000Y-109390000D01*
X172410000Y-109390000D02*
X176710000Y-109390000D01*
X175610000Y-100640000D02*
X172410000Y-100640000D01*
X176710000Y-101740000D02*
X175610000Y-100640000D01*
X176710000Y-104940000D02*
X172410000Y-104940000D01*
X176710000Y-104940000D02*
X176710000Y-101740000D01*
X176710000Y-109390000D02*
X176710000Y-104940000D01*
%TO.C,P7*%
X162039161Y-84629720D02*
X165079720Y-87670280D01*
X164301903Y-82366979D02*
X162039161Y-84629720D01*
X165079720Y-87670280D02*
X165073356Y-87676644D01*
X165079720Y-87670280D02*
X168226346Y-90816905D01*
X165857538Y-82366979D02*
X164301903Y-82366979D01*
X168120280Y-84629720D02*
X165079720Y-87670280D01*
X168120280Y-84629720D02*
X165857538Y-82366979D01*
X168226346Y-90816905D02*
X171266905Y-87776346D01*
X171266905Y-87776346D02*
X168120280Y-84629720D01*
%TD*%
M02*
