%TF.GenerationSoftware,KiCad,Pcbnew,9.0.5*%
%TF.CreationDate,2025-11-19T12:34:51-06:00*%
%TF.ProjectId,board,626f6172-642e-46b6-9963-61645f706362,rev?*%
%TF.SameCoordinates,Original*%
%TF.FileFunction,Soldermask,Bot*%
%TF.FilePolarity,Negative*%
%FSLAX46Y46*%
G04 Gerber Fmt 4.6, Leading zero omitted, Abs format (unit mm)*
G04 Created by KiCad (PCBNEW 9.0.5) date 2025-11-19 12:34:51*
%MOMM*%
%LPD*%
G01*
G04 APERTURE LIST*
G04 Aperture macros list*
%AMRoundRect*
0 Rectangle with rounded corners*
0 $1 Rounding radius*
0 $2 $3 $4 $5 $6 $7 $8 $9 X,Y pos of 4 corners*
0 Add a 4 corners polygon primitive as box body*
4,1,4,$2,$3,$4,$5,$6,$7,$8,$9,$2,$3,0*
0 Add four circle primitives for the rounded corners*
1,1,$1+$1,$2,$3*
1,1,$1+$1,$4,$5*
1,1,$1+$1,$6,$7*
1,1,$1+$1,$8,$9*
0 Add four rect primitives between the rounded corners*
20,1,$1+$1,$2,$3,$4,$5,0*
20,1,$1+$1,$4,$5,$6,$7,0*
20,1,$1+$1,$6,$7,$8,$9,0*
20,1,$1+$1,$8,$9,$2,$3,0*%
%AMHorizOval*
0 Thick line with rounded ends*
0 $1 width*
0 $2 $3 position (X,Y) of the first rounded end (center of the circle)*
0 $4 $5 position (X,Y) of the second rounded end (center of the circle)*
0 Add line between two ends*
20,1,$1,$2,$3,$4,$5,0*
0 Add two circle primitives to create the rounded ends*
1,1,$1,$2,$3*
1,1,$1,$4,$5*%
G04 Aperture macros list end*
%ADD10O,1.727200X3.251200*%
%ADD11O,3.759200X1.981200*%
%ADD12O,3.251200X1.727200*%
%ADD13R,1.700000X1.700000*%
%ADD14C,1.700000*%
%ADD15HorizOval,1.625600X-0.644566X-0.300566X0.644566X0.300566X0*%
%ADD16C,1.879600*%
%ADD17C,1.803200*%
%ADD18O,1.800000X1.800000*%
%ADD19O,1.500000X1.500000*%
%ADD20O,1.700000X1.700000*%
%ADD21RoundRect,0.101600X0.500000X-0.550000X0.500000X0.550000X-0.500000X0.550000X-0.500000X-0.550000X0*%
%ADD22RoundRect,0.101600X-0.750000X-0.450000X0.750000X-0.450000X0.750000X0.450000X-0.750000X0.450000X0*%
%ADD23RoundRect,0.101600X2.029538X-0.664539X-0.664539X2.029538X-2.029538X0.664539X0.664539X-2.029538X0*%
%ADD24RoundRect,0.101600X0.106066X-1.025305X1.025305X-0.106066X-0.106066X1.025305X-1.025305X0.106066X0*%
%ADD25RoundRect,0.101600X-0.800000X0.650000X-0.800000X-0.650000X0.800000X-0.650000X0.800000X0.650000X0*%
%ADD26RoundRect,0.101600X-0.664539X-2.029538X2.029538X0.664539X0.664539X2.029538X-2.029538X-0.664539X0*%
%ADD27RoundRect,0.101600X0.650000X0.800000X-0.650000X0.800000X-0.650000X-0.800000X0.650000X-0.800000X0*%
%ADD28RoundRect,0.101600X-0.965200X1.905000X-0.965200X-1.905000X0.965200X-1.905000X0.965200X1.905000X0*%
%ADD29RoundRect,0.101600X-0.650000X-0.800000X0.650000X-0.800000X0.650000X0.800000X-0.650000X0.800000X0*%
%ADD30RoundRect,0.101600X0.965200X-1.905000X0.965200X1.905000X-0.965200X1.905000X-0.965200X-1.905000X0*%
%ADD31RoundRect,0.101600X-1.905000X-0.965200X1.905000X-0.965200X1.905000X0.965200X-1.905000X0.965200X0*%
%ADD32RoundRect,0.101600X-2.029538X0.664539X0.664539X-2.029538X2.029538X-0.664539X-0.664539X2.029538X0*%
%ADD33RoundRect,0.101600X1.905000X0.965200X-1.905000X0.965200X-1.905000X-0.965200X1.905000X-0.965200X0*%
%ADD34RoundRect,0.101600X-0.106066X1.025305X-1.025305X0.106066X0.106066X-1.025305X1.025305X-0.106066X0*%
%ADD35RoundRect,0.101600X1.025305X0.106066X0.106066X1.025305X-1.025305X-0.106066X-0.106066X-1.025305X0*%
%ADD36RoundRect,0.101600X-0.330200X-1.016000X0.330200X-1.016000X0.330200X1.016000X-0.330200X1.016000X0*%
%ADD37RoundRect,0.101600X0.800000X-0.650000X0.800000X0.650000X-0.800000X0.650000X-0.800000X-0.650000X0*%
%ADD38RoundRect,0.101600X0.600000X-0.600000X0.600000X0.600000X-0.600000X0.600000X-0.600000X-0.600000X0*%
%ADD39RoundRect,0.101600X-1.025305X-0.106066X-0.106066X-1.025305X1.025305X0.106066X0.106066X1.025305X0*%
%ADD40RoundRect,0.101600X0.664539X2.029538X-2.029538X-0.664539X-0.664539X-2.029538X2.029538X0.664539X0*%
G04 APERTURE END LIST*
D10*
%TO.C,E-HAT0*%
X144660000Y-113160000D03*
X147200000Y-113160000D03*
X149740000Y-113160000D03*
X152280000Y-113160000D03*
%TD*%
D11*
%TO.C,MT3608*%
X144751916Y-120875000D03*
X144751916Y-89664000D03*
X152626085Y-89664000D03*
X152626085Y-120875000D03*
%TD*%
D12*
%TO.C,M_LEFT0*%
X166724492Y-117371995D03*
X166724492Y-114831995D03*
X166724492Y-112291995D03*
%TD*%
%TO.C,E_RIGHT0*%
X130430000Y-102210000D03*
X130430000Y-104750000D03*
X130430000Y-107290000D03*
%TD*%
D13*
%TO.C,J2*%
X137130000Y-130230000D03*
D14*
X137130000Y-127690000D03*
X137130000Y-125150000D03*
X137130000Y-122610000D03*
X137130000Y-120070000D03*
X137130000Y-117530000D03*
X137130000Y-114990000D03*
X137130000Y-112450000D03*
X137130000Y-109910000D03*
X137130000Y-107370000D03*
X137130000Y-104830000D03*
X137130000Y-102290000D03*
X137130000Y-99750000D03*
X137130000Y-97210000D03*
X137130000Y-94670000D03*
X137130000Y-92130000D03*
X137130000Y-89590000D03*
X137130000Y-87050000D03*
X137130000Y-84510000D03*
X137130000Y-81970000D03*
%TD*%
D15*
%TO.C,SWITCH0*%
X174093210Y-96991301D03*
X173019760Y-94689280D03*
X171946310Y-92387259D03*
D16*
X175166661Y-99293324D03*
X170872859Y-90085236D03*
%TD*%
D13*
%TO.C,J1*%
X159520000Y-81980000D03*
D14*
X159520000Y-84520000D03*
X159520000Y-87060000D03*
X159520000Y-89600000D03*
X159520000Y-92140000D03*
X159520000Y-94680000D03*
X159520000Y-97220000D03*
X159520000Y-99760000D03*
X159520000Y-102300000D03*
X159520000Y-104840000D03*
X159520000Y-107380000D03*
X159520000Y-109920000D03*
X159520000Y-112460000D03*
X159520000Y-115000000D03*
X159520000Y-117540000D03*
X159520000Y-120080000D03*
X159520000Y-122620000D03*
X159520000Y-125160000D03*
X159520000Y-127700000D03*
X159520000Y-130240000D03*
%TD*%
D17*
%TO.C,BATT0*%
X167337384Y-98705236D03*
X169150000Y-97860000D03*
%TD*%
D12*
%TO.C,E_LEFT0*%
X166680000Y-107540000D03*
X166680000Y-105000000D03*
X166680000Y-102460000D03*
%TD*%
D18*
%TO.C,U1*%
X151100000Y-130100000D03*
D19*
X150800000Y-127070000D03*
X145950000Y-127070000D03*
D18*
X145650000Y-130100000D03*
D20*
X157265000Y-130230000D03*
X157265000Y-127690000D03*
D13*
X157265000Y-125150000D03*
D20*
X157265000Y-122610000D03*
X157265000Y-120070000D03*
X157265000Y-117530000D03*
X157265000Y-114990000D03*
D13*
X157265000Y-112450000D03*
D20*
X157265000Y-109910000D03*
X157265000Y-107370000D03*
X157265000Y-104830000D03*
X157265000Y-102290000D03*
D13*
X157265000Y-99750000D03*
D20*
X157265000Y-97210000D03*
X157265000Y-94670000D03*
X157265000Y-92130000D03*
X157265000Y-89590000D03*
D13*
X157265000Y-87050000D03*
D20*
X157265000Y-84510000D03*
X157265000Y-81970000D03*
D14*
X139485000Y-81970000D03*
D20*
X139485000Y-84510000D03*
D13*
X139485000Y-87050000D03*
D20*
X139485000Y-89590000D03*
X139485000Y-92130000D03*
X139485000Y-94670000D03*
X139485000Y-97210000D03*
D13*
X139485000Y-99750000D03*
D20*
X139485000Y-102290000D03*
X139485000Y-104830000D03*
X139485000Y-107370000D03*
X139485000Y-109910000D03*
D13*
X139485000Y-112450000D03*
D20*
X139485000Y-114990000D03*
X139485000Y-117530000D03*
X139485000Y-120070000D03*
X139485000Y-122610000D03*
D13*
X139485000Y-125150000D03*
D20*
X139485000Y-127690000D03*
X139485000Y-130230000D03*
X150915000Y-82200000D03*
D13*
X148375000Y-82200000D03*
D20*
X145835000Y-82200000D03*
%TD*%
D12*
%TO.C,M_RIGHT0*%
X130450000Y-117290000D03*
X130450000Y-114750000D03*
X130450000Y-112210000D03*
%TD*%
D17*
%TO.C,BATT1*%
X173190000Y-116800000D03*
X171190000Y-116800000D03*
%TD*%
D21*
%TO.C,C2*%
X144100000Y-125450000D03*
X144100000Y-123750000D03*
%TD*%
D22*
%TO.C,LED1*%
X146175000Y-125600000D03*
X146175000Y-122300000D03*
X151075000Y-122300000D03*
X151075000Y-125600000D03*
%TD*%
D13*
%TO.C,J3*%
X121920000Y-111125000D03*
D14*
X121920000Y-113665000D03*
%TD*%
D23*
%TO.C,P3*%
X165098028Y-125231972D03*
X168564407Y-121765593D03*
%TD*%
D24*
%TO.C,R5*%
X130516498Y-123333502D03*
X131860000Y-121990000D03*
%TD*%
D25*
%TO.C,R0*%
X148450000Y-77850002D03*
X148450000Y-79750000D03*
%TD*%
D26*
%TO.C,P1*%
X128443621Y-121903621D03*
X131910000Y-125370000D03*
%TD*%
D22*
%TO.C,LED0*%
X146075000Y-88125000D03*
X146075000Y-84825000D03*
X150975000Y-84825000D03*
X150975000Y-88125000D03*
%TD*%
D27*
%TO.C,R2*%
X173959998Y-104920000D03*
X172060000Y-104920000D03*
%TD*%
D28*
%TO.C,P6*%
X150844800Y-78800000D03*
X145942600Y-78800000D03*
%TD*%
D29*
%TO.C,R6*%
X122810001Y-105020000D03*
X124709999Y-105020000D03*
%TD*%
D30*
%TO.C,P0*%
X145887800Y-131040000D03*
X150790000Y-131040000D03*
%TD*%
D31*
%TO.C,P2*%
X122140000Y-102517800D03*
X122140000Y-107420000D03*
%TD*%
D32*
%TO.C,P4*%
X131671972Y-84608028D03*
X128205593Y-88074407D03*
%TD*%
D33*
%TO.C,P5*%
X174560000Y-107530800D03*
X174560000Y-102628600D03*
%TD*%
D13*
%TO.C,J6*%
X175260000Y-111120000D03*
D14*
X175260000Y-113660000D03*
%TD*%
D21*
%TO.C,C1*%
X143680000Y-86660000D03*
X143680000Y-84960000D03*
%TD*%
D34*
%TO.C,R1*%
X166223502Y-86696498D03*
X164880000Y-88040000D03*
%TD*%
D13*
%TO.C,J5*%
X153670000Y-131450000D03*
D14*
X153670000Y-128910000D03*
%TD*%
D35*
%TO.C,R3*%
X166473502Y-123023502D03*
X165130000Y-121680000D03*
%TD*%
D36*
%TO.C,MUX0*%
X144030000Y-100610000D03*
X145300000Y-100610000D03*
X146570000Y-100610000D03*
X147840000Y-100610000D03*
X149110000Y-100610000D03*
X150380000Y-100610000D03*
X151650000Y-100610000D03*
X152920000Y-100610000D03*
X152920000Y-106756800D03*
X151650000Y-106756800D03*
X150380000Y-106756800D03*
X149110000Y-106756800D03*
X147840000Y-106756800D03*
X146570000Y-106756800D03*
X145300000Y-106756800D03*
X144030000Y-106756800D03*
%TD*%
D37*
%TO.C,R4*%
X148490000Y-130659998D03*
X148490000Y-128760000D03*
%TD*%
D38*
%TO.C,STDBY0*%
X155600000Y-78070000D03*
X155600000Y-80170000D03*
%TD*%
D13*
%TO.C,J4*%
X142240000Y-78105000D03*
D14*
X139700000Y-78105000D03*
%TD*%
D38*
%TO.C,CHRG0*%
X153650000Y-78100000D03*
X153650000Y-80200000D03*
%TD*%
D39*
%TO.C,R7*%
X130286498Y-86856498D03*
X131630000Y-88200000D03*
%TD*%
D40*
%TO.C,P7*%
X168431972Y-87981972D03*
X164965593Y-84515593D03*
%TD*%
M02*
