M48
; DRILL file {KiCad 9.0.5} date 2025-11-19T12:34:56-0600
; FORMAT={-:-/ absolute / metric / decimal}
; #@! TF.CreationDate,2025-11-19T12:34:56-06:00
; #@! TF.GenerationSoftware,Kicad,Pcbnew,9.0.5
; #@! TF.FileFunction,Plated,1,2,PTH
FMAT,2
METRIC
; #@! TA.AperFunction,Plated,PTH,ViaDrill
T1C0.300
; #@! TA.AperFunction,Plated,PTH,ComponentDrill
T2C0.700
; #@! TA.AperFunction,Plated,PTH,ComponentDrill
T3C1.000
; #@! TA.AperFunction,Plated,PTH,ComponentDrill
T4C1.016
; #@! TA.AperFunction,Plated,PTH,ComponentDrill
T5C1.020
; #@! TA.AperFunction,Plated,PTH,ComponentDrill
T6C1.100
%
G90
G05
T1
X123.575Y-99.825
X125.061Y-109.855
X132.715Y-127.775
X134.83Y-83.32
X135.725Y-89.55
X141.65Y-92.125
X143.6Y-92.985
X144.15Y-105.0
X144.647Y-96.289
X144.75Y-87.575
X145.325Y-97.225
X146.292Y-117.733
X147.5Y-92.275
X148.95Y-121.4
X152.675Y-88.297
X152.675Y-91.425
X153.675Y-87.325
X155.6Y-87.225
X155.912Y-95.125
X160.774Y-79.922
X162.054Y-107.622
X162.075Y-100.2
X165.65Y-99.75
X169.175Y-99.875
X169.175Y-108.25
T2
X167.337Y-98.705
X169.15Y-97.86
X171.19Y-116.8
X173.19Y-116.8
T3
X121.92Y-111.125
X121.92Y-113.665
X137.13Y-81.97
X137.13Y-84.51
X137.13Y-87.05
X137.13Y-89.59
X137.13Y-92.13
X137.13Y-94.67
X137.13Y-97.21
X137.13Y-99.75
X137.13Y-102.29
X137.13Y-104.83
X137.13Y-107.37
X137.13Y-109.91
X137.13Y-112.45
X137.13Y-114.99
X137.13Y-117.53
X137.13Y-120.07
X137.13Y-122.61
X137.13Y-125.15
X137.13Y-127.69
X137.13Y-130.23
X139.7Y-78.105
X142.24Y-78.105
X153.67Y-128.91
X153.67Y-131.45
X157.265Y-104.83
X159.52Y-81.98
X159.52Y-84.52
X159.52Y-87.06
X159.52Y-89.6
X159.52Y-92.14
X159.52Y-94.68
X159.52Y-97.22
X159.52Y-99.76
X159.52Y-102.3
X159.52Y-104.84
X159.52Y-107.38
X159.52Y-109.92
X159.52Y-112.46
X159.52Y-115.0
X159.52Y-117.54
X159.52Y-120.08
X159.52Y-122.62
X159.52Y-125.16
X159.52Y-127.7
X159.52Y-130.24
X175.26Y-111.12
X175.26Y-113.66
T4
X130.43Y-102.21
X130.43Y-104.75
X130.43Y-107.29
X130.45Y-112.21
X130.45Y-114.75
X130.45Y-117.29
X144.66Y-113.16
X144.752Y-89.664
X144.752Y-120.875
X147.2Y-113.16
X149.74Y-113.16
X152.28Y-113.16
X152.626Y-89.664
X152.626Y-120.875
X166.68Y-102.46
X166.68Y-105.0
X166.68Y-107.54
X166.724Y-112.292
X166.724Y-114.832
X166.724Y-117.372
T5
X139.485Y-81.97
X139.485Y-84.51
X139.485Y-87.05
X139.485Y-89.59
X139.485Y-92.13
X139.485Y-94.67
X139.485Y-97.21
X139.485Y-99.75
X139.485Y-102.29
X139.485Y-104.83
X139.485Y-107.37
X139.485Y-109.91
X139.485Y-112.45
X139.485Y-114.99
X139.485Y-117.53
X139.485Y-120.07
X139.485Y-122.61
X139.485Y-125.15
X139.485Y-127.69
X139.485Y-130.23
X145.835Y-82.2
X148.375Y-82.2
X150.915Y-82.2
X157.265Y-81.97
X157.265Y-84.51
X157.265Y-87.05
X157.265Y-89.59
X157.265Y-92.13
X157.265Y-94.67
X157.265Y-97.21
X157.265Y-99.75
X157.265Y-102.29
X157.265Y-107.37
X157.265Y-109.91
X157.265Y-112.45
X157.265Y-114.99
X157.265Y-117.53
X157.265Y-120.07
X157.265Y-122.61
X157.265Y-125.15
X157.265Y-127.69
X157.265Y-130.23
T6
X170.873Y-90.085
X171.946Y-92.387
X173.02Y-94.689
X174.093Y-96.991
X175.167Y-99.293
M30
