%TF.GenerationSoftware,KiCad,Pcbnew,9.0.5*%
%TF.CreationDate,2026-01-12T11:34:27-06:00*%
%TF.ProjectId,Modulo LIFI,4d6f6475-6c6f-4204-9c49-46492e6b6963,rev?*%
%TF.SameCoordinates,Original*%
%TF.FileFunction,Copper,L1,Top*%
%TF.FilePolarity,Positive*%
%FSLAX46Y46*%
G04 Gerber Fmt 4.6, Leading zero omitted, Abs format (unit mm)*
G04 Created by KiCad (PCBNEW 9.0.5) date 2026-01-12 11:34:27*
%MOMM*%
%LPD*%
G01*
G04 APERTURE LIST*
G04 Aperture macros list*
%AMRoundRect*
0 Rectangle with rounded corners*
0 $1 Rounding radius*
0 $2 $3 $4 $5 $6 $7 $8 $9 X,Y pos of 4 corners*
0 Add a 4 corners polygon primitive as box body*
4,1,4,$2,$3,$4,$5,$6,$7,$8,$9,$2,$3,0*
0 Add four circle primitives for the rounded corners*
1,1,$1+$1,$2,$3*
1,1,$1+$1,$4,$5*
1,1,$1+$1,$6,$7*
1,1,$1+$1,$8,$9*
0 Add four rect primitives between the rounded corners*
20,1,$1+$1,$2,$3,$4,$5,0*
20,1,$1+$1,$4,$5,$6,$7,0*
20,1,$1+$1,$6,$7,$8,$9,0*
20,1,$1+$1,$8,$9,$2,$3,0*%
G04 Aperture macros list end*
%TA.AperFunction,SMDPad,CuDef*%
%ADD10RoundRect,0.175000X0.825000X-0.525000X0.825000X0.525000X-0.825000X0.525000X-0.825000X-0.525000X0*%
%TD*%
%TA.AperFunction,SMDPad,CuDef*%
%ADD11RoundRect,0.150000X0.450000X-0.550000X0.450000X0.550000X-0.450000X0.550000X-0.450000X-0.550000X0*%
%TD*%
%TA.AperFunction,ComponentPad*%
%ADD12R,2.000000X2.000000*%
%TD*%
%TA.AperFunction,ComponentPad*%
%ADD13C,2.000000*%
%TD*%
%TA.AperFunction,SMDPad,CuDef*%
%ADD14RoundRect,0.237500X-0.912500X-0.237500X0.912500X-0.237500X0.912500X0.237500X-0.912500X0.237500X0*%
%TD*%
%TA.AperFunction,SMDPad,CuDef*%
%ADD15RoundRect,0.150000X-0.825000X-0.150000X0.825000X-0.150000X0.825000X0.150000X-0.825000X0.150000X0*%
%TD*%
%TA.AperFunction,SMDPad,CuDef*%
%ADD16RoundRect,0.250000X-0.350000X-0.450000X0.350000X-0.450000X0.350000X0.450000X-0.350000X0.450000X0*%
%TD*%
%TA.AperFunction,SMDPad,CuDef*%
%ADD17RoundRect,0.250000X0.250000X0.475000X-0.250000X0.475000X-0.250000X-0.475000X0.250000X-0.475000X0*%
%TD*%
%TA.AperFunction,ComponentPad*%
%ADD18C,1.600000*%
%TD*%
%TA.AperFunction,Conductor*%
%ADD19C,0.700000*%
%TD*%
%TA.AperFunction,Conductor*%
%ADD20C,0.600000*%
%TD*%
G04 APERTURE END LIST*
D10*
%TO.P,D2,1,K*%
%TO.N,Net-(D2-K)*%
X13090000Y-7750000D03*
D11*
%TO.P,D2,2,A*%
%TO.N,GND*%
X13090000Y-13850000D03*
%TD*%
D12*
%TO.P,J2,1,Pin_1*%
%TO.N,Net-(J2-Pin_1)*%
X15740000Y-4600000D03*
D13*
%TO.P,J2,2,Pin_2*%
%TO.N,+5V*%
X13200000Y-4600000D03*
%TO.P,J2,3,Pin_3*%
%TO.N,GND*%
X10660000Y-4600000D03*
%TD*%
D14*
%TO.P,U3,1*%
%TO.N,Net-(J2-Pin_1)*%
X17525000Y-10355000D03*
%TO.P,U3,2,-*%
%TO.N,Net-(D2-K)*%
X17525000Y-11625000D03*
D15*
%TO.P,U3,3,+*%
%TO.N,GND*%
X17525000Y-12895000D03*
%TO.P,U3,4,V-*%
X17525000Y-14165000D03*
D14*
%TO.P,U3,5*%
%TO.N,N/C*%
X22475000Y-14165000D03*
%TO.P,U3,6*%
X22475000Y-12895000D03*
%TO.P,U3,7*%
X22475000Y-11625000D03*
%TO.P,U3,8,V+*%
%TO.N,+5V*%
X22475000Y-10355000D03*
%TD*%
D16*
%TO.P,R4,1*%
%TO.N,Net-(J2-Pin_1)*%
X18300000Y-7650000D03*
%TO.P,R4,2*%
%TO.N,Net-(D2-K)*%
X20300000Y-7650000D03*
%TD*%
D17*
%TO.P,C2,1*%
%TO.N,+5V*%
X5400000Y-7000000D03*
%TO.P,C2,2*%
%TO.N,GND*%
X3500000Y-7000000D03*
%TD*%
D18*
%TO.P,C1,1*%
%TO.N,Net-(J2-Pin_1)*%
X18300000Y-4600000D03*
%TO.P,C1,2*%
%TO.N,Net-(D2-K)*%
X20800000Y-4600000D03*
%TD*%
D19*
%TO.N,Net-(D2-K)*%
X19875000Y-11625000D02*
X17525000Y-11625000D01*
%TO.N,+5V*%
X23100000Y-9730000D02*
X22475000Y-10355000D01*
X23100000Y-2601000D02*
X23100000Y-9730000D01*
X13200000Y-2601000D02*
X23100000Y-2601000D01*
%TO.N,Net-(D2-K)*%
X20300000Y-11200000D02*
X19875000Y-11625000D01*
X20300000Y-7650000D02*
X20300000Y-11200000D01*
%TO.N,+5V*%
X13200000Y-2601000D02*
X5799000Y-2601000D01*
X5400000Y-3000000D02*
X5400000Y-7000000D01*
X5799000Y-2601000D02*
X5400000Y-3000000D01*
%TO.N,Net-(D2-K)*%
X13090000Y-11190000D02*
X13525000Y-11625000D01*
X13090000Y-7750000D02*
X13090000Y-11190000D01*
X13525000Y-11625000D02*
X17525000Y-11625000D01*
%TO.N,Net-(J2-Pin_1)*%
X18300000Y-9580000D02*
X17525000Y-10355000D01*
X18300000Y-7650000D02*
X18300000Y-9580000D01*
%TO.N,Net-(D2-K)*%
X20850000Y-7100000D02*
X20300000Y-7650000D01*
X20850000Y-4200000D02*
X20850000Y-7100000D01*
D20*
%TO.N,Net-(J2-Pin_1)*%
X18350000Y-7600000D02*
X18300000Y-7650000D01*
D19*
X18350000Y-4200000D02*
X18350000Y-7600000D01*
D20*
X17950000Y-4600000D02*
X18350000Y-4200000D01*
D19*
X15740000Y-4600000D02*
X17950000Y-4600000D01*
%TO.N,+5V*%
X13200000Y-4600000D02*
X13200000Y-2601000D01*
D20*
%TO.N,Net-(J2-Pin_1)*%
X16140000Y-4200000D02*
X15740000Y-4600000D01*
X18300000Y-4660000D02*
X18350000Y-4610000D01*
X15690000Y-4300000D02*
X15590000Y-4200000D01*
%TD*%
%TA.AperFunction,Conductor*%
%TO.N,GND*%
G36*
X5067941Y-2270185D02*
G01*
X5113696Y-2322989D01*
X5123640Y-2392147D01*
X5094615Y-2455703D01*
X5088583Y-2462181D01*
X4919481Y-2631282D01*
X4919477Y-2631287D01*
X4891322Y-2680056D01*
X4891321Y-2680058D01*
X4865872Y-2724136D01*
X4840423Y-2768214D01*
X4840423Y-2768215D01*
X4799499Y-2920943D01*
X4799499Y-2920945D01*
X4799499Y-3089046D01*
X4799500Y-3089059D01*
X4799500Y-6116769D01*
X4779815Y-6183808D01*
X4774767Y-6191080D01*
X4706204Y-6282668D01*
X4706202Y-6282671D01*
X4655908Y-6417517D01*
X4649501Y-6477116D01*
X4649501Y-6477123D01*
X4649500Y-6477135D01*
X4649500Y-7522870D01*
X4649501Y-7522876D01*
X4655908Y-7582483D01*
X4706202Y-7717328D01*
X4706206Y-7717335D01*
X4792452Y-7832544D01*
X4792455Y-7832547D01*
X4907664Y-7918793D01*
X4907671Y-7918797D01*
X4952618Y-7935561D01*
X5042517Y-7969091D01*
X5102127Y-7975500D01*
X5697872Y-7975499D01*
X5757483Y-7969091D01*
X5892331Y-7918796D01*
X6007546Y-7832546D01*
X6093796Y-7717331D01*
X6144091Y-7582483D01*
X6150500Y-7522873D01*
X6150499Y-6477128D01*
X6144091Y-6417517D01*
X6093796Y-6282669D01*
X6072706Y-6254497D01*
X6025233Y-6191080D01*
X6000816Y-6125615D01*
X6000500Y-6116769D01*
X6000500Y-3325500D01*
X6020185Y-3258461D01*
X6072989Y-3212706D01*
X6124500Y-3201500D01*
X12475500Y-3201500D01*
X12484185Y-3204050D01*
X12493147Y-3202762D01*
X12517187Y-3213740D01*
X12542539Y-3221185D01*
X12548466Y-3228025D01*
X12556703Y-3231787D01*
X12570992Y-3254021D01*
X12588294Y-3273989D01*
X12590581Y-3284503D01*
X12594477Y-3290565D01*
X12599500Y-3325500D01*
X12599500Y-3427403D01*
X12579815Y-3494442D01*
X12548386Y-3527721D01*
X12385352Y-3646173D01*
X12246174Y-3785351D01*
X12246174Y-3785352D01*
X12246172Y-3785354D01*
X12196485Y-3853741D01*
X12130476Y-3944594D01*
X12041117Y-4119970D01*
X11980290Y-4307173D01*
X11949500Y-4501577D01*
X11949500Y-4698422D01*
X11980290Y-4892826D01*
X12041117Y-5080029D01*
X12125349Y-5245343D01*
X12130476Y-5255405D01*
X12246172Y-5414646D01*
X12385354Y-5553828D01*
X12544595Y-5669524D01*
X12627455Y-5711743D01*
X12719970Y-5758882D01*
X12719972Y-5758882D01*
X12719975Y-5758884D01*
X12786810Y-5780600D01*
X12907173Y-5819709D01*
X13101578Y-5850500D01*
X13101583Y-5850500D01*
X13298422Y-5850500D01*
X13492826Y-5819709D01*
X13680025Y-5758884D01*
X13855405Y-5669524D01*
X14014646Y-5553828D01*
X14153828Y-5414646D01*
X14265182Y-5261380D01*
X14320512Y-5218716D01*
X14390126Y-5212737D01*
X14451921Y-5245343D01*
X14486278Y-5306182D01*
X14489500Y-5334267D01*
X14489500Y-5624678D01*
X14504032Y-5697735D01*
X14504033Y-5697739D01*
X14504034Y-5697740D01*
X14559399Y-5780601D01*
X14642260Y-5835966D01*
X14642264Y-5835967D01*
X14715321Y-5850499D01*
X14715324Y-5850500D01*
X14715326Y-5850500D01*
X16764676Y-5850500D01*
X16764677Y-5850499D01*
X16837740Y-5835966D01*
X16920601Y-5780601D01*
X16975966Y-5697740D01*
X16990500Y-5624674D01*
X16990500Y-5324500D01*
X17010185Y-5257461D01*
X17062989Y-5211706D01*
X17114500Y-5200500D01*
X17371535Y-5200500D01*
X17438574Y-5220185D01*
X17474636Y-5255608D01*
X17484020Y-5269652D01*
X17484025Y-5269658D01*
X17630339Y-5415972D01*
X17630342Y-5415974D01*
X17630345Y-5415977D01*
X17694392Y-5458771D01*
X17739195Y-5512381D01*
X17749500Y-5561872D01*
X17749500Y-6662819D01*
X17729815Y-6729858D01*
X17699812Y-6762085D01*
X17592452Y-6842455D01*
X17506206Y-6957664D01*
X17506202Y-6957671D01*
X17455908Y-7092517D01*
X17449501Y-7152116D01*
X17449501Y-7152123D01*
X17449500Y-7152135D01*
X17449500Y-8147870D01*
X17449501Y-8147876D01*
X17455908Y-8207483D01*
X17506202Y-8342328D01*
X17506203Y-8342329D01*
X17506204Y-8342331D01*
X17592452Y-8457543D01*
X17592455Y-8457547D01*
X17649810Y-8500482D01*
X17691682Y-8556415D01*
X17699500Y-8599749D01*
X17699500Y-9279902D01*
X17679815Y-9346941D01*
X17663181Y-9367583D01*
X17437584Y-9593181D01*
X17376261Y-9626666D01*
X17349903Y-9629500D01*
X16565809Y-9629500D01*
X16507700Y-9635748D01*
X16376219Y-9684789D01*
X16263884Y-9768884D01*
X16179789Y-9881219D01*
X16130748Y-10012700D01*
X16124500Y-10070809D01*
X16124500Y-10639190D01*
X16130748Y-10697299D01*
X16144679Y-10734647D01*
X16179788Y-10828778D01*
X16179790Y-10828781D01*
X16179791Y-10828783D01*
X16184040Y-10836566D01*
X16182112Y-10837618D01*
X16202267Y-10891652D01*
X16187416Y-10959925D01*
X16138012Y-11009331D01*
X16078583Y-11024500D01*
X13825097Y-11024500D01*
X13795656Y-11015855D01*
X13765670Y-11009332D01*
X13760654Y-11005577D01*
X13758058Y-11004815D01*
X13737416Y-10988181D01*
X13726819Y-10977584D01*
X13693334Y-10916261D01*
X13690500Y-10889903D01*
X13690500Y-8824500D01*
X13710185Y-8757461D01*
X13762989Y-8711706D01*
X13814500Y-8700500D01*
X13948493Y-8700500D01*
X14048121Y-8684720D01*
X14048121Y-8684719D01*
X14048126Y-8684719D01*
X14168220Y-8623528D01*
X14263528Y-8528220D01*
X14324719Y-8408126D01*
X14335140Y-8342331D01*
X14340500Y-8308493D01*
X14340500Y-7191506D01*
X14324720Y-7091878D01*
X14324719Y-7091876D01*
X14324719Y-7091874D01*
X14263528Y-6971780D01*
X14263526Y-6971778D01*
X14263523Y-6971774D01*
X14168225Y-6876476D01*
X14168221Y-6876473D01*
X14168220Y-6876472D01*
X14048126Y-6815281D01*
X14048124Y-6815280D01*
X14048121Y-6815279D01*
X13948493Y-6799500D01*
X13948488Y-6799500D01*
X12231512Y-6799500D01*
X12231507Y-6799500D01*
X12131878Y-6815279D01*
X12011778Y-6876473D01*
X12011774Y-6876476D01*
X11916476Y-6971774D01*
X11916473Y-6971778D01*
X11855279Y-7091878D01*
X11839500Y-7191506D01*
X11839500Y-8308493D01*
X11855279Y-8408121D01*
X11855280Y-8408124D01*
X11855281Y-8408126D01*
X11902339Y-8500482D01*
X11916473Y-8528221D01*
X11916476Y-8528225D01*
X12011774Y-8623523D01*
X12011778Y-8623526D01*
X12011780Y-8623528D01*
X12131874Y-8684719D01*
X12131876Y-8684719D01*
X12131878Y-8684720D01*
X12231507Y-8700500D01*
X12231512Y-8700500D01*
X12365500Y-8700500D01*
X12432539Y-8720185D01*
X12478294Y-8772989D01*
X12489500Y-8824500D01*
X12489500Y-11103330D01*
X12489499Y-11103348D01*
X12489499Y-11269054D01*
X12489498Y-11269054D01*
X12530423Y-11421785D01*
X12536196Y-11431784D01*
X12609477Y-11558712D01*
X12609481Y-11558717D01*
X12728349Y-11677585D01*
X12728355Y-11677590D01*
X13040139Y-11989374D01*
X13040149Y-11989385D01*
X13044479Y-11993715D01*
X13044480Y-11993716D01*
X13156284Y-12105520D01*
X13243095Y-12155639D01*
X13243097Y-12155641D01*
X13281151Y-12177611D01*
X13293215Y-12184577D01*
X13445943Y-12225501D01*
X13445946Y-12225501D01*
X13611653Y-12225501D01*
X13611669Y-12225500D01*
X16241827Y-12225500D01*
X16308866Y-12245185D01*
X16316137Y-12250232D01*
X16376222Y-12295212D01*
X16468594Y-12329665D01*
X16507700Y-12344251D01*
X16565809Y-12350499D01*
X16565826Y-12350500D01*
X18484174Y-12350500D01*
X18484190Y-12350499D01*
X18542299Y-12344251D01*
X18568949Y-12334311D01*
X18673778Y-12295212D01*
X18733862Y-12250232D01*
X18799326Y-12225816D01*
X18808173Y-12225500D01*
X19788331Y-12225500D01*
X19788347Y-12225501D01*
X19795943Y-12225501D01*
X19954054Y-12225501D01*
X19954057Y-12225501D01*
X20106785Y-12184577D01*
X20156904Y-12155639D01*
X20243716Y-12105520D01*
X20355520Y-11993716D01*
X20355521Y-11993714D01*
X20780520Y-11568716D01*
X20843113Y-11460299D01*
X20893679Y-11412085D01*
X20962286Y-11398861D01*
X21027151Y-11424829D01*
X21067680Y-11481743D01*
X21074500Y-11522300D01*
X21074500Y-11909190D01*
X21080748Y-11967299D01*
X21129789Y-12098780D01*
X21194849Y-12185689D01*
X21219266Y-12251154D01*
X21204414Y-12319427D01*
X21194849Y-12334311D01*
X21129789Y-12421219D01*
X21080748Y-12552700D01*
X21074500Y-12610809D01*
X21074500Y-13179190D01*
X21080748Y-13237299D01*
X21129789Y-13368780D01*
X21194849Y-13455689D01*
X21219266Y-13521154D01*
X21204414Y-13589427D01*
X21194849Y-13604311D01*
X21129789Y-13691219D01*
X21080748Y-13822700D01*
X21074500Y-13880809D01*
X21074500Y-14449190D01*
X21080748Y-14507299D01*
X21100681Y-14560740D01*
X21129788Y-14638778D01*
X21213884Y-14751116D01*
X21326222Y-14835212D01*
X21418594Y-14869665D01*
X21457700Y-14884251D01*
X21515809Y-14890499D01*
X21515826Y-14890500D01*
X23434174Y-14890500D01*
X23434190Y-14890499D01*
X23492299Y-14884251D01*
X23623778Y-14835212D01*
X23736116Y-14751116D01*
X23820212Y-14638778D01*
X23849319Y-14560738D01*
X23891190Y-14504807D01*
X23956654Y-14480390D01*
X24024927Y-14495242D01*
X24074332Y-14544647D01*
X24089500Y-14604074D01*
X24089500Y-15125500D01*
X24069815Y-15192539D01*
X24017011Y-15238294D01*
X23965500Y-15249500D01*
X2214500Y-15249500D01*
X2147461Y-15229815D01*
X2101706Y-15177011D01*
X2090500Y-15125500D01*
X2090500Y-2374500D01*
X2110185Y-2307461D01*
X2162989Y-2261706D01*
X2214500Y-2250500D01*
X5000902Y-2250500D01*
X5067941Y-2270185D01*
G37*
%TD.AperFunction*%
%TD*%
%TA.AperFunction,NonConductor*%
G36*
X14544975Y-3221185D02*
G01*
X14590730Y-3273989D01*
X14600674Y-3343147D01*
X14571649Y-3406703D01*
X14565617Y-3413181D01*
X14559401Y-3419396D01*
X14504033Y-3502260D01*
X14504032Y-3502264D01*
X14489500Y-3575321D01*
X14489500Y-3865732D01*
X14469815Y-3932771D01*
X14417011Y-3978526D01*
X14347853Y-3988470D01*
X14284297Y-3959445D01*
X14265182Y-3938618D01*
X14208413Y-3860483D01*
X14153828Y-3785354D01*
X14014646Y-3646172D01*
X13966989Y-3611547D01*
X13851614Y-3527721D01*
X13848273Y-3523388D01*
X13843297Y-3521116D01*
X13827164Y-3496013D01*
X13808949Y-3472390D01*
X13807696Y-3465719D01*
X13805523Y-3462338D01*
X13800500Y-3427403D01*
X13800500Y-3325500D01*
X13820185Y-3258461D01*
X13872989Y-3212706D01*
X13924500Y-3201500D01*
X14477936Y-3201500D01*
X14544975Y-3221185D01*
G37*
%TD.AperFunction*%
%TA.AperFunction,NonConductor*%
G36*
X24032539Y-2270185D02*
G01*
X24078294Y-2322989D01*
X24088238Y-2392147D01*
X24059213Y-2455703D01*
X24000435Y-2493477D01*
X23965500Y-2498500D01*
X23916297Y-2498500D01*
X24089466Y-9913030D01*
X24071352Y-9980511D01*
X24019631Y-10027486D01*
X23950724Y-10039041D01*
X23886508Y-10011508D01*
X23849319Y-9959259D01*
X23820212Y-9881222D01*
X23803307Y-9858640D01*
X23736116Y-9768884D01*
X23736114Y-9768882D01*
X23730801Y-9761785D01*
X23732047Y-9760852D01*
X23703331Y-9708252D01*
X23700500Y-9681905D01*
X23700500Y-2521945D01*
X23700500Y-2521943D01*
X23669592Y-2406592D01*
X23671255Y-2336743D01*
X23710418Y-2278881D01*
X23774646Y-2251377D01*
X23789367Y-2250500D01*
X23965500Y-2250500D01*
X24032539Y-2270185D01*
G37*
%TD.AperFunction*%
%TA.AperFunction,NonConductor*%
G36*
X22442539Y-3221185D02*
G01*
X22488294Y-3273989D01*
X22499500Y-3325500D01*
X22499500Y-9429903D01*
X22490855Y-9459343D01*
X22484332Y-9489330D01*
X22480577Y-9494345D01*
X22479815Y-9496942D01*
X22463181Y-9517584D01*
X22387584Y-9593181D01*
X22326261Y-9626666D01*
X22299903Y-9629500D01*
X21515809Y-9629500D01*
X21457700Y-9635748D01*
X21326219Y-9684789D01*
X21213884Y-9768884D01*
X21124473Y-9888322D01*
X21121766Y-9886295D01*
X21083929Y-9924135D01*
X21015656Y-9938988D01*
X20950191Y-9914573D01*
X20908319Y-9858640D01*
X20900500Y-9815304D01*
X20900500Y-8599749D01*
X20920185Y-8532710D01*
X20950190Y-8500482D01*
X21007546Y-8457546D01*
X21093796Y-8342331D01*
X21144091Y-8207483D01*
X21150500Y-8147873D01*
X21150499Y-7700095D01*
X21159145Y-7670649D01*
X21165667Y-7640669D01*
X21169419Y-7635655D01*
X21170183Y-7633057D01*
X21186813Y-7612420D01*
X21208506Y-7590728D01*
X21208511Y-7590724D01*
X21218714Y-7580520D01*
X21218716Y-7580520D01*
X21330520Y-7468716D01*
X21409577Y-7331784D01*
X21447163Y-7191512D01*
X21450500Y-7179058D01*
X21450500Y-7020943D01*
X21450500Y-5486495D01*
X21470185Y-5419456D01*
X21486819Y-5398814D01*
X21615974Y-5269658D01*
X21615975Y-5269657D01*
X21615977Y-5269655D01*
X21730941Y-5097598D01*
X21810130Y-4906420D01*
X21850500Y-4703465D01*
X21850500Y-4496535D01*
X21810130Y-4293580D01*
X21730941Y-4102402D01*
X21615977Y-3930345D01*
X21615975Y-3930342D01*
X21469657Y-3784024D01*
X21383626Y-3726541D01*
X21297598Y-3669059D01*
X21242344Y-3646172D01*
X21106420Y-3589870D01*
X21106412Y-3589868D01*
X20903469Y-3549500D01*
X20903465Y-3549500D01*
X20696535Y-3549500D01*
X20696530Y-3549500D01*
X20493587Y-3589868D01*
X20493579Y-3589870D01*
X20302403Y-3669058D01*
X20130342Y-3784024D01*
X19984024Y-3930342D01*
X19869058Y-4102403D01*
X19789870Y-4293579D01*
X19789868Y-4293587D01*
X19749500Y-4496530D01*
X19749500Y-4703469D01*
X19789868Y-4906412D01*
X19789870Y-4906420D01*
X19869058Y-5097596D01*
X19984024Y-5269657D01*
X20130339Y-5415972D01*
X20130342Y-5415974D01*
X20130345Y-5415977D01*
X20194392Y-5458771D01*
X20239195Y-5512381D01*
X20249500Y-5561872D01*
X20249500Y-6575500D01*
X20229815Y-6642539D01*
X20177011Y-6688294D01*
X20125501Y-6699500D01*
X19902130Y-6699500D01*
X19902123Y-6699501D01*
X19842516Y-6705908D01*
X19707671Y-6756202D01*
X19707664Y-6756206D01*
X19592455Y-6842452D01*
X19592452Y-6842455D01*
X19506206Y-6957664D01*
X19506202Y-6957671D01*
X19455908Y-7092517D01*
X19449501Y-7152116D01*
X19449501Y-7152123D01*
X19449500Y-7152135D01*
X19449500Y-8147870D01*
X19449501Y-8147876D01*
X19455908Y-8207483D01*
X19506202Y-8342328D01*
X19506203Y-8342329D01*
X19506204Y-8342331D01*
X19592452Y-8457543D01*
X19592455Y-8457547D01*
X19649810Y-8500482D01*
X19691682Y-8556415D01*
X19699500Y-8599749D01*
X19699500Y-10899901D01*
X19690870Y-10929288D01*
X19684382Y-10959237D01*
X19680584Y-10964317D01*
X19679815Y-10966940D01*
X19663254Y-10987509D01*
X19662656Y-10988108D01*
X19601361Y-11021644D01*
X19574902Y-11024500D01*
X18971417Y-11024500D01*
X18904378Y-11004815D01*
X18858623Y-10952011D01*
X18848679Y-10882853D01*
X18867503Y-10837408D01*
X18865960Y-10836566D01*
X18870208Y-10828783D01*
X18870207Y-10828783D01*
X18870212Y-10828778D01*
X18919251Y-10697299D01*
X18922144Y-10670390D01*
X18925499Y-10639190D01*
X18925500Y-10639173D01*
X18925500Y-10070826D01*
X18925499Y-10070809D01*
X18919251Y-10012700D01*
X18899318Y-9959259D01*
X18870212Y-9881222D01*
X18870210Y-9881219D01*
X18867112Y-9872913D01*
X18870647Y-9871594D01*
X18859525Y-9820730D01*
X18863445Y-9797347D01*
X18878217Y-9742221D01*
X18900501Y-9659057D01*
X18900501Y-9500942D01*
X18900501Y-9493347D01*
X18900500Y-9493329D01*
X18900500Y-8599749D01*
X18920185Y-8532710D01*
X18950190Y-8500482D01*
X19007546Y-8457546D01*
X19093796Y-8342331D01*
X19144091Y-8207483D01*
X19150500Y-8147873D01*
X19150499Y-7152128D01*
X19144091Y-7092517D01*
X19143851Y-7091874D01*
X19093797Y-6957671D01*
X19093793Y-6957664D01*
X19007548Y-6842457D01*
X19007546Y-6842454D01*
X19007542Y-6842451D01*
X19007540Y-6842449D01*
X19000187Y-6836944D01*
X18958317Y-6781009D01*
X18950500Y-6737679D01*
X18950500Y-5486495D01*
X18970185Y-5419456D01*
X18986819Y-5398814D01*
X19115974Y-5269658D01*
X19115975Y-5269657D01*
X19115977Y-5269655D01*
X19230941Y-5097598D01*
X19310130Y-4906420D01*
X19350500Y-4703465D01*
X19350500Y-4496535D01*
X19310130Y-4293580D01*
X19230941Y-4102402D01*
X19115977Y-3930345D01*
X19115975Y-3930342D01*
X18969657Y-3784024D01*
X18883626Y-3726541D01*
X18797598Y-3669059D01*
X18742344Y-3646172D01*
X18606420Y-3589870D01*
X18606412Y-3589868D01*
X18403469Y-3549500D01*
X18403465Y-3549500D01*
X18196535Y-3549500D01*
X18196530Y-3549500D01*
X17993587Y-3589868D01*
X17993579Y-3589870D01*
X17802403Y-3669058D01*
X17630342Y-3784024D01*
X17484025Y-3930341D01*
X17484020Y-3930347D01*
X17474636Y-3944392D01*
X17421023Y-3989197D01*
X17371535Y-3999500D01*
X17114500Y-3999500D01*
X17047461Y-3979815D01*
X17001706Y-3927011D01*
X16990500Y-3875500D01*
X16990500Y-3575323D01*
X16990499Y-3575321D01*
X16975967Y-3502264D01*
X16975966Y-3502260D01*
X16970742Y-3494442D01*
X16920601Y-3419399D01*
X16920599Y-3419397D01*
X16920598Y-3419396D01*
X16914383Y-3413181D01*
X16880898Y-3351858D01*
X16885882Y-3282166D01*
X16927754Y-3226233D01*
X16993218Y-3201816D01*
X17002064Y-3201500D01*
X22375500Y-3201500D01*
X22442539Y-3221185D01*
G37*
%TD.AperFunction*%
%TA.AperFunction,NonConductor*%
G36*
X24024927Y-10685242D02*
G01*
X24074332Y-10734647D01*
X24089500Y-10794074D01*
X24089500Y-11185925D01*
X24088499Y-11189333D01*
X24089310Y-11192794D01*
X24078724Y-11222620D01*
X24069815Y-11252964D01*
X24067130Y-11255289D01*
X24065942Y-11258640D01*
X24040909Y-11278010D01*
X24017011Y-11298719D01*
X24013495Y-11299224D01*
X24010684Y-11301400D01*
X23979161Y-11304161D01*
X23947853Y-11308663D01*
X23944620Y-11307186D01*
X23941081Y-11307497D01*
X23913076Y-11292780D01*
X23884297Y-11279638D01*
X23882132Y-11276520D01*
X23879231Y-11274996D01*
X23857631Y-11247083D01*
X23852765Y-11238501D01*
X23820212Y-11151222D01*
X23750430Y-11058005D01*
X23746548Y-11051158D01*
X23740300Y-11024497D01*
X23730733Y-10998847D01*
X23732445Y-10990975D01*
X23730607Y-10983131D01*
X23739764Y-10957326D01*
X23745584Y-10930574D01*
X23751280Y-10924877D01*
X23753975Y-10917285D01*
X23755151Y-10915689D01*
X23820209Y-10828782D01*
X23820208Y-10828782D01*
X23820212Y-10828778D01*
X23849319Y-10750738D01*
X23891190Y-10694807D01*
X23956654Y-10670390D01*
X24024927Y-10685242D01*
G37*
%TD.AperFunction*%
%TA.AperFunction,NonConductor*%
G36*
X24024927Y-11955242D02*
G01*
X24074332Y-12004647D01*
X24089500Y-12064074D01*
X24089500Y-12455925D01*
X24088499Y-12459333D01*
X24089310Y-12462794D01*
X24078724Y-12492620D01*
X24069815Y-12522964D01*
X24067130Y-12525289D01*
X24065942Y-12528640D01*
X24040909Y-12548010D01*
X24017011Y-12568719D01*
X24013495Y-12569224D01*
X24010684Y-12571400D01*
X23979161Y-12574161D01*
X23947853Y-12578663D01*
X23944620Y-12577186D01*
X23941081Y-12577497D01*
X23913076Y-12562780D01*
X23884297Y-12549638D01*
X23882132Y-12546520D01*
X23879231Y-12544996D01*
X23857631Y-12517083D01*
X23852765Y-12508501D01*
X23820212Y-12421222D01*
X23750430Y-12328005D01*
X23746548Y-12321158D01*
X23740300Y-12294497D01*
X23730733Y-12268847D01*
X23732445Y-12260975D01*
X23730607Y-12253131D01*
X23739764Y-12227326D01*
X23745584Y-12200574D01*
X23751280Y-12194877D01*
X23753975Y-12187285D01*
X23755151Y-12185689D01*
X23820209Y-12098782D01*
X23820208Y-12098782D01*
X23820212Y-12098778D01*
X23849319Y-12020738D01*
X23891190Y-11964807D01*
X23956654Y-11940390D01*
X24024927Y-11955242D01*
G37*
%TD.AperFunction*%
%TA.AperFunction,NonConductor*%
G36*
X24024927Y-13225242D02*
G01*
X24074332Y-13274647D01*
X24089500Y-13334074D01*
X24089500Y-13725925D01*
X24088499Y-13729333D01*
X24089310Y-13732794D01*
X24078724Y-13762620D01*
X24069815Y-13792964D01*
X24067130Y-13795289D01*
X24065942Y-13798640D01*
X24040909Y-13818010D01*
X24017011Y-13838719D01*
X24013495Y-13839224D01*
X24010684Y-13841400D01*
X23979161Y-13844161D01*
X23947853Y-13848663D01*
X23944620Y-13847186D01*
X23941081Y-13847497D01*
X23913076Y-13832780D01*
X23884297Y-13819638D01*
X23882132Y-13816520D01*
X23879231Y-13814996D01*
X23857631Y-13787083D01*
X23852765Y-13778501D01*
X23820212Y-13691222D01*
X23750430Y-13598005D01*
X23746548Y-13591158D01*
X23740300Y-13564497D01*
X23730733Y-13538847D01*
X23732445Y-13530975D01*
X23730607Y-13523131D01*
X23739764Y-13497326D01*
X23745584Y-13470574D01*
X23751280Y-13464877D01*
X23753975Y-13457285D01*
X23755151Y-13455689D01*
X23820209Y-13368782D01*
X23820208Y-13368782D01*
X23820212Y-13368778D01*
X23849319Y-13290738D01*
X23891190Y-13234807D01*
X23956654Y-13210390D01*
X24024927Y-13225242D01*
G37*
%TD.AperFunction*%
M02*
